<svg width="34" height="34" viewBox="0 0 34 34" fill="none" xmlns="http://www.w3.org/2000/svg">
    <circle cx="17" cy="17" r="14" fill="#7F6EE9"/>
    <path d="M17.3105 6.52982V6.53976C17.3204 6.58946 17.3204 6.6491 17.3204 6.70874V13.8753C17.3105 13.9151 17.2807 13.925 17.2508 13.9449C17.0421 14.0443 16.8433 14.1338 16.6346 14.2232C16.3463 14.3524 16.0481 14.4916 15.7599 14.6208L14.7162 15.0979C14.4279 15.2271 14.1397 15.3564 13.8614 15.4856C13.5234 15.6446 13.1755 15.7937 12.8376 15.9528C12.5493 16.082 12.2611 16.2211 11.9629 16.3503C11.7243 16.4597 11.4857 16.5591 11.2571 16.6684C11.2373 16.6784 11.2174 16.6883 11.1975 16.6883C11.1876 16.6883 11.1876 16.6883 11.1776 16.6784L11.446 16.2311C11.9629 15.3762 12.4698 14.5314 12.9867 13.6765C13.5333 12.7621 14.09 11.8476 14.6367 10.9332C15.1436 10.0883 15.6605 9.24339 16.1674 8.3985C16.5352 7.78224 16.9129 7.16597 17.2807 6.5497C17.2906 6.52982 17.3005 6.51988 17.3005 6.5H17.3105C17.3005 6.50994 17.3105 6.51988 17.3105 6.52982Z"
          fill="#F3F3F3"/>
    <path d="M23.4125 16.6784L23.4225 16.6883L21.9613 17.5531L17.3691 20.2666C17.3493 20.2766 17.3294 20.2865 17.3194 20.2965C17.2896 20.2965 17.2896 20.2666 17.2896 20.2567V20.1672V14.0244C17.2896 13.9946 17.2896 13.9549 17.2996 13.925C17.3095 13.8853 17.3393 13.8952 17.3691 13.9052C17.4983 13.9648 17.6375 14.0244 17.7667 14.0841C18.1544 14.263 18.542 14.4419 18.9297 14.6109C19.2676 14.76 19.5956 14.919 19.9336 15.0681C20.2716 15.2172 20.6095 15.3763 20.9475 15.5253C21.2357 15.6546 21.5339 15.7937 21.8222 15.9229C22.1104 16.0522 22.4086 16.1913 22.6969 16.3205C22.9255 16.4199 23.1541 16.5293 23.3827 16.6287C23.3827 16.6585 23.3927 16.6684 23.4125 16.6784Z"
          fill="#8A8DA7"/>
    <path d="M17.3096 26.4691C17.3096 26.479 17.2997 26.4889 17.2997 26.4989H17.2897C17.2897 26.479 17.2699 26.4691 17.2599 26.4492C16.6437 25.5844 16.0274 24.7097 15.4111 23.8449C14.7849 22.9603 14.1488 22.0657 13.5226 21.1811C12.9162 20.3263 12.3 19.4615 11.6936 18.6067C11.5346 18.3781 11.3756 18.1594 11.2165 17.9308C11.2066 17.9109 11.1966 17.9009 11.1768 17.8711C11.2066 17.8711 11.2265 17.891 11.2364 17.9009C12.1012 18.4079 12.956 18.9148 13.8207 19.4217C14.8147 20.0082 15.7988 20.5946 16.7927 21.1811L17.2997 21.4793C17.3196 21.4992 17.3196 21.519 17.3196 21.5389V26.3299C17.3196 26.3796 17.3196 26.4293 17.3096 26.4691Z"
          fill="#F3F3F3"/>
    <path d="M11.1667 16.6983V16.6883C11.4848 16.5492 11.793 16.4001 12.111 16.2609C12.5186 16.0721 12.9261 15.8931 13.3336 15.7043C13.6418 15.5651 13.9598 15.416 14.268 15.2769C14.7252 15.0681 15.1725 14.8693 15.6297 14.6606C15.9379 14.5214 16.246 14.3823 16.5641 14.2332C16.7827 14.1338 17.0114 14.0344 17.23 13.935C17.2499 13.9251 17.2797 13.9151 17.2897 13.8952C17.2996 13.8952 17.2996 13.9052 17.2897 13.9151V20.2269C17.2897 20.2567 17.2797 20.2865 17.2996 20.3064C17.2797 20.3362 17.2598 20.3064 17.2499 20.2965C17.1605 20.2468 17.071 20.1971 16.9815 20.1374C15.0632 19.0043 13.1348 17.8612 11.2164 16.7281C11.2065 16.7181 11.1866 16.7082 11.1667 16.6983Z"
          fill="#C5C8D9"/>
    <path d="M23.3927 17.8711H23.4027C23.4027 17.891 23.3828 17.9109 23.3728 17.9308C21.5439 20.5052 19.715 23.0895 17.8861 25.6639C17.6972 25.9323 17.4984 26.2007 17.3096 26.4691C17.2996 26.4591 17.2996 26.4492 17.2996 26.4392V26.3796V21.5588V21.4693C17.7171 21.2208 18.1246 20.9823 18.5421 20.7338C20.1523 19.7796 21.7626 18.8353 23.3629 17.8811C23.3728 17.891 23.3828 17.8811 23.3927 17.8711Z"
          fill="#C5C8D9"/>
    <path d="M17.2997 13.9151V13.8952V13.8356V6.61925C17.2997 6.58943 17.2897 6.56955 17.3096 6.53973C19.3274 9.88945 21.3452 13.2292 23.353 16.5789C23.3729 16.6088 23.4027 16.6485 23.4126 16.6883C23.2735 16.6386 23.1443 16.569 23.0151 16.5094C22.856 16.4398 22.687 16.3603 22.528 16.2907C22.4286 16.241 22.3193 16.2012 22.2199 16.1515C22.0509 16.072 21.8819 16.0024 21.7129 15.9229C21.6135 15.8832 21.5141 15.8335 21.4147 15.7838L20.7587 15.4856C20.6494 15.4359 20.54 15.3862 20.4208 15.3365L19.9437 15.1277C19.8443 15.088 19.7449 15.0383 19.6455 14.9886L18.9894 14.6904C18.8801 14.6407 18.7708 14.591 18.6515 14.5413L18.1744 14.3325C18.065 14.2828 17.9656 14.2331 17.8563 14.1834C17.6674 14.094 17.4786 14.0045 17.2798 13.925C17.3096 13.9151 17.2997 13.9151 17.2997 13.9151Z"
          fill="#C5C8D9"/>
</svg>
