<svg width="34" height="34" viewBox="0 0 34 34" fill="none" xmlns="http://www.w3.org/2000/svg">
<path d="M17 31C24.732 31 31 24.732 31 17C31 9.26801 24.732 3 17 3C9.26801 3 3 9.26801 3 17C3 24.732 9.26801 31 17 31Z" fill="#2A5ADA"/>
<path d="M17 8.25L15.4259 9.17312L11.1375 11.7019L9.5625 12.625V21.375L11.1366 22.2981L15.4653 24.8269L17.0394 25.75L18.6135 24.8269L22.8634 22.2981L24.4375 21.375V12.625L22.8634 11.7019L18.5741 9.17312L17 8.25ZM12.7107 19.5287V14.4712L17 11.9425L21.2893 14.4712V19.5287L17 22.0575L12.7107 19.5287Z" fill="white"/>
</svg>
