<svg width="34" height="34" viewBox="0 0 34 34" fill="none" xmlns="http://www.w3.org/2000/svg">
<mask id="mask0_453_1653" style="mask-type:luminance" maskUnits="userSpaceOnUse" x="3" y="3" width="28" height="28">
<path d="M31 3H3V31H31V3Z" fill="white"/>
</mask>
<g mask="url(#mask0_453_1653)">
<path d="M23.2657 5.46505C22.5452 6.18554 21.8851 6.96644 21.2983 7.7991L21.1128 7.7387C20.0429 7.38924 18.9341 7.17352 17.8167 7.10018C17.4802 7.0743 16.2247 7.0743 15.8148 7.10018C14.5766 7.18215 13.6275 7.36767 12.5489 7.74302C12.5057 7.76027 12.467 7.77322 12.4281 7.78616C11.8198 6.95781 11.1424 6.18123 10.3961 5.46936C13.977 3.63578 18.1662 3.41574 21.9153 4.86105C22.3166 5.01204 22.7091 5.18893 23.0931 5.37877L23.2657 5.46505Z" fill="#F00500"/>
<path d="M29.9443 21.8293C29.4007 23.3782 28.5853 24.8149 27.5283 26.0661C26.9544 26.739 26.3202 27.356 25.6386 27.9169C24.0423 29.2025 22.1785 30.1215 20.1895 30.6047C17.9893 31.1354 15.6941 31.1354 13.4938 30.6047C11.5005 30.1215 9.64106 29.2025 8.04476 27.9169C7.36309 27.356 6.72888 26.739 6.15507 26.0661C3.11348 22.4722 2.19021 17.5366 3.73905 13.0885C4.03243 12.2645 4.39914 11.4706 4.83921 10.7156C5.04198 10.3705 5.29221 9.98219 5.41301 9.82256C5.82719 11.6044 6.33628 13.1705 6.52611 13.7356C6.51317 13.7658 6.49591 13.8004 6.47865 13.8306C5.47341 15.867 4.92981 17.8299 4.80038 19.9181C4.80038 19.9439 4.79606 19.9742 4.79606 20C4.76155 20.6257 4.7788 20.9233 4.88235 21.3159C5.20593 22.5455 6.20253 23.9003 7.76432 25.229C10.3227 27.4035 13.7915 28.9739 16.4188 29.1551C19.1584 29.3406 23.2009 27.74 25.8931 25.4016C26.3159 25.0263 26.7128 24.6293 27.0838 24.2065C27.3513 23.8959 27.7483 23.3609 27.7181 23.3609C27.7095 23.3609 27.7181 23.3523 27.7354 23.3437C27.7483 23.335 27.7613 23.3221 27.7526 23.3135C27.7483 23.3092 27.7569 23.2962 27.7698 23.2919C27.7828 23.2876 27.7915 23.2789 27.7871 23.2703C27.7828 23.2617 27.7871 23.2531 27.8044 23.2487C27.8174 23.2444 27.8216 23.2315 27.8174 23.2228C27.813 23.2143 27.8174 23.2056 27.8259 23.2056C27.8346 23.2056 27.8432 23.1926 27.8432 23.1841C27.8432 23.1754 27.8518 23.1625 27.8605 23.1625C27.8691 23.1625 27.8777 23.1539 27.8777 23.1452C27.8907 23.1107 27.9122 23.0762 27.9338 23.046C27.9985 22.9468 28.2574 22.4851 28.2919 22.4075C28.5378 21.8509 28.6931 21.3548 28.7665 20.8586C28.8009 20.6214 28.8226 20.1856 28.8053 20.082C28.8009 20.0648 28.8009 20.0346 28.7967 19.9872C28.7881 19.9008 28.7837 19.7714 28.7751 19.642C28.7665 19.4478 28.7492 19.176 28.7363 19.0423C28.5508 17.0836 28.0503 15.4829 27.1012 13.7874C27.0623 13.7227 27.0278 13.658 27.0062 13.6062C26.9976 13.5933 26.9933 13.5803 26.989 13.5718C27.1227 13.1705 27.6706 11.4922 28.1064 9.57233L28.115 9.58095L28.1797 9.66725C28.2919 9.81825 28.5895 10.2669 28.7233 10.4827C29.3316 11.4749 29.8062 12.5406 30.1428 13.6537C30.9236 16.3329 30.8589 19.189 29.9443 21.8293Z" fill="#F00500"/>
<path d="M24.3443 16.6736C24.3314 16.7427 24.1286 16.9497 23.9258 17.1007C23.3305 17.5365 22.2648 17.942 21.1819 18.1362C20.565 18.2484 19.9481 18.2656 19.7626 18.1749C19.6417 18.1146 19.6245 18.0671 19.6676 17.9118C19.7582 17.5883 20.0516 17.2344 20.5089 16.9023C20.7419 16.734 21.6867 16.1602 22.1268 15.9186C22.8516 15.5217 23.4384 15.2844 23.8353 15.2283C23.9604 15.2111 24.1114 15.2067 24.1588 15.2283C24.2365 15.2585 24.3228 15.4871 24.3573 15.7633C24.3745 15.9099 24.3659 16.5571 24.3443 16.6736Z" fill="black"/>
<path d="M14.1798 18.1017C14.1539 18.1534 14.0244 18.2095 13.8778 18.2311C13.7311 18.2527 13.2824 18.2398 13.0279 18.2095C12.1132 18.0888 11.1425 17.8083 10.4349 17.4631C10.038 17.2691 9.75326 17.0749 9.54186 16.8635L9.42105 16.7384L9.40811 16.5744C9.38654 16.2897 9.39086 15.841 9.42537 15.6814C9.44694 15.5476 9.4944 15.4182 9.55911 15.3017C9.59363 15.2586 9.59363 15.2586 9.74894 15.2586C9.93877 15.2586 10.0984 15.2888 10.3573 15.3708C10.8879 15.5346 11.6775 15.9315 12.6395 16.5097C13.4333 16.9843 13.7311 17.2173 13.9597 17.5366C14.1151 17.735 14.2186 18.0154 14.1798 18.1017Z" fill="black"/>
<path d="M20.2888 24.1073C20.2888 24.1202 20.237 24.3273 20.1724 24.5732C20.1076 24.8191 20.0559 25.0175 20.0559 25.0262C20.0084 25.0305 19.9653 25.0349 19.9178 25.0305H19.7798L19.5899 25.4792C19.4864 25.7252 19.3914 25.9538 19.3785 25.9883L19.3527 26.0487L19.262 25.902L19.1715 25.7553V24.5603L19.1369 24.5689C19.0636 24.5862 18.5416 24.6552 18.3129 24.6767C17.368 24.7717 16.4189 24.7501 15.4784 24.6164C15.3273 24.5947 15.1979 24.5775 15.1936 24.5818C15.1893 24.5862 15.1936 24.8622 15.2023 25.2031L15.2152 25.8157L15.1418 25.9279C15.1031 25.9883 15.0642 26.0401 15.0642 26.0444C15.0513 26.0573 15.0081 25.9883 14.9089 25.7898C14.801 25.5828 14.7234 25.3627 14.6673 25.1341L14.637 25.009L14.5033 25.0175L14.3696 25.0305L14.3351 24.8709C14.3178 24.7846 14.2962 24.6508 14.2877 24.5775L14.2747 24.4394L14.1625 24.3402C14.0978 24.2841 14.033 24.228 14.0202 24.2195C13.9986 24.2021 13.9899 24.1719 13.9899 24.146V24.0943L14.5292 24.0986L15.0685 24.1029L15.0857 24.159L15.103 24.2151L15.2886 24.2237C15.3921 24.228 15.7199 24.2367 16.0133 24.2454L16.5527 24.2582L16.6907 24.0425L16.833 23.8268H17.0142L17.01 23.3781L17.0057 22.9294L16.7684 22.8259C16.0048 22.4894 15.5561 22.1054 15.3878 21.6394C15.3532 21.5446 15.3532 21.51 15.3447 21.0786C15.3403 20.6515 15.3403 20.6126 15.3705 20.5178C15.4309 20.302 15.5992 20.1337 15.8149 20.0776C15.8882 20.0561 16.0824 20.0561 17.1005 20.0561L18.3 20.0604L18.4337 20.1252C18.5934 20.2028 18.6667 20.2589 18.7572 20.3797C18.8608 20.5178 18.891 20.6256 18.891 20.8888C18.891 21.2641 18.8651 21.5877 18.8263 21.7171C18.7702 21.894 18.6839 22.0622 18.576 22.2133C18.3603 22.4894 17.9677 22.7655 17.6097 22.8906L17.5061 22.9294L17.5105 23.3824L17.5147 23.8354L17.6097 23.8441L17.7045 23.8527L17.834 24.0468L17.9591 24.241H18.5373C18.8565 24.241 19.1369 24.2453 19.1628 24.2496C19.2059 24.2582 19.2146 24.2539 19.2577 24.1806L19.3095 24.1029H19.8057C20.1767 24.0857 20.2888 24.0943 20.2888 24.1073Z" fill="black"/>
<path d="M18.0108 25.3456C17.9288 25.393 17.8727 25.4145 17.8598 25.4059C17.8468 25.4017 17.7865 25.3499 17.7217 25.3024L17.6052 25.2075L17.4845 25.3369C17.2213 25.6216 17.2126 25.6346 17.135 25.6389C17.0142 25.6518 16.9883 25.6303 16.8416 25.4102C16.7639 25.2981 16.7036 25.2031 16.7036 25.2031C16.7036 25.2031 16.6475 25.1945 16.5828 25.1903L16.462 25.1773L16.4059 25.2938L16.3498 25.4102L16.2506 25.38C16.1729 25.3541 16.0953 25.324 16.0219 25.2895L15.8925 25.2247V24.9789L17.0401 24.9831L18.1877 24.9874L18.192 25.1039C18.1963 25.242 18.2007 25.2377 18.0108 25.3456Z" fill="black"/>
<path d="M28.7967 20.0821C28.7924 20.0649 28.7924 20.0347 28.7881 19.9873C27.7526 19.8751 24.7973 19.806 22.0534 22.0711C22.0534 22.0711 21.1689 18.0155 17.0272 18.0155C12.8854 18.0155 11.3495 22.0711 11.3495 22.0711C9.02842 19.573 5.92211 19.7542 4.80037 19.9182C4.80037 19.944 4.79606 19.9743 4.79606 20.0001C4.76155 20.6257 4.7788 20.9234 4.88234 21.316C5.20592 22.5456 6.20253 23.9003 7.76432 25.2291C10.3227 27.4036 13.7915 28.9739 16.4188 29.1552C19.1585 29.3407 23.201 27.7401 25.8932 25.4017C26.316 25.0264 26.7129 24.6295 27.0839 24.2066C27.3513 23.896 27.7483 23.361 27.7181 23.361C27.7095 23.361 27.7181 23.3524 27.7354 23.3438C27.7483 23.3352 27.7613 23.3222 27.7526 23.3136C27.7483 23.3093 27.7569 23.2963 27.7698 23.292C27.7828 23.2877 27.7915 23.2791 27.7871 23.2704C27.7828 23.2618 27.7871 23.2532 27.8044 23.2488C27.8174 23.2445 27.8216 23.2316 27.8174 23.223C27.813 23.2143 27.8174 23.2057 27.8259 23.2057C27.8346 23.2057 27.8432 23.1927 27.8432 23.1842C27.8432 23.1755 27.8518 23.1625 27.8605 23.1625C27.8691 23.1625 27.8777 23.154 27.8777 23.1453C27.8907 23.1108 27.9122 23.0763 27.9338 23.0461C27.9985 22.9469 28.2574 22.4852 28.2919 22.4076C28.5378 21.851 28.6931 21.3549 28.7665 20.8588C28.7924 20.6215 28.8139 20.1857 28.7967 20.0821ZM18.0109 25.3456C17.9289 25.3931 17.8728 25.4146 17.8599 25.406C17.8469 25.4017 17.7865 25.35 17.7218 25.3024L17.6053 25.2076L17.4845 25.337C17.2213 25.6217 17.2127 25.6347 17.135 25.639C17.0143 25.6519 16.9884 25.6304 16.8417 25.4103C16.764 25.2982 16.7036 25.2032 16.7036 25.2032C16.7036 25.2032 16.6475 25.1946 16.5828 25.1903L16.462 25.1773L16.406 25.2939L16.3499 25.4103L16.2506 25.3801C16.1729 25.3542 16.0953 25.3241 16.0219 25.2895L15.8925 25.2248V24.9789L17.0402 24.9832L18.1877 24.9875L18.192 25.104C18.1964 25.2421 18.2007 25.2378 18.0109 25.3456ZM20.168 24.569C20.1033 24.815 20.0516 25.0134 20.0516 25.022C20.004 25.0264 19.9609 25.0307 19.9135 25.0264H19.7754L19.5899 25.4794C19.4863 25.7252 19.3915 25.954 19.3785 25.9884L19.3526 26.0488L19.262 25.9022L19.1714 25.7555V24.5604L19.1369 24.569C19.0635 24.5863 18.5415 24.6553 18.3129 24.6769C17.368 24.7718 16.4188 24.7502 15.4784 24.6165C15.3273 24.5949 15.1979 24.5777 15.1936 24.582C15.1893 24.5863 15.1936 24.8624 15.2022 25.2032L15.2152 25.8159L15.1418 25.9281C15.103 25.9884 15.0641 26.0402 15.0641 26.0445C15.0512 26.0575 15.0081 25.9884 14.9088 25.79C14.801 25.5829 14.7233 25.3629 14.6672 25.1342L14.6371 25.0091L14.5033 25.0177L14.3696 25.0307L14.335 24.8711C14.3178 24.7848 14.2962 24.651 14.2876 24.5777L14.2746 24.4396L14.1625 24.3404C14.0977 24.2843 14.0331 24.2282 14.0201 24.2195C13.9985 24.2023 13.9899 24.1721 13.9899 24.1462V24.0944L14.5292 24.0988L15.0684 24.1031L15.0858 24.1592L15.103 24.2153L15.2885 24.2239C15.3921 24.2282 15.72 24.2369 16.0134 24.2454L16.5526 24.2584L16.6907 24.0427L16.833 23.8269H17.0143L17.0099 23.3783L17.0056 22.9296L16.7683 22.826C16.0047 22.4895 15.556 22.1055 15.3877 21.6396C15.3532 21.5447 15.3532 21.5102 15.3446 21.0787C15.3403 20.6516 15.3403 20.6128 15.3705 20.5179C15.4309 20.3022 15.5991 20.1339 15.8149 20.0778C15.8882 20.0562 16.0824 20.0562 17.1005 20.0562L18.2999 20.0606L18.4337 20.1252C18.5933 20.2029 18.6666 20.259 18.7573 20.3798C18.8608 20.5179 18.891 20.6257 18.891 20.8889C18.891 21.2642 18.8651 21.5878 18.8263 21.7173C18.7702 21.8941 18.6839 22.0624 18.5761 22.2134C18.3603 22.4895 17.9677 22.7656 17.6096 22.8908L17.5061 22.9296L17.5104 23.3826L17.5147 23.8356L17.6096 23.8443L17.7046 23.8528L17.834 24.047L17.9591 24.2412H18.5372C18.8565 24.2412 19.1369 24.2454 19.1627 24.2498C19.206 24.2584 19.2145 24.2541 19.2577 24.1808L19.3095 24.1031H19.8056C20.1895 24.1031 20.3017 24.1074 20.3017 24.1203C20.2889 24.116 20.2328 24.3274 20.168 24.569Z" fill="white"/>
<path d="M28.7622 19.642C28.7535 19.4478 28.7363 19.176 28.7234 19.0422C28.5379 17.0836 28.0374 15.483 27.0882 13.7874C27.0494 13.7227 27.0149 13.658 26.9933 13.6062C26.9847 13.5933 26.9804 13.5803 26.9761 13.5717C27.1098 13.1705 27.6577 11.4922 28.0934 9.57233C28.6845 6.96648 29.0599 3.92057 27.9122 3.00593C27.9122 3.00593 25.9276 2.85924 23.2701 5.46509C22.5495 6.18559 21.8894 6.96648 21.3027 7.79915L21.1172 7.73875C20.0473 7.38929 18.9385 7.17357 17.821 7.10022C17.4845 7.07434 16.2291 7.07434 15.8192 7.10022C14.581 7.1822 13.6319 7.36772 12.5533 7.74306C12.5101 7.76032 12.4713 7.77326 12.4324 7.78621C11.8241 6.95785 11.1468 6.18127 10.4004 5.46941C7.63492 2.85061 5.57699 3.00161 5.57699 3.00161C4.36034 3.94645 4.77452 7.13043 5.40441 9.82257C5.81859 11.6044 6.32768 13.1705 6.51751 13.7356C6.50456 13.7658 6.48731 13.8004 6.47005 13.8306C5.46481 15.867 4.92121 17.8299 4.79178 19.9181C5.91782 19.7541 9.01982 19.5686 11.3452 22.071C11.3452 22.071 12.8811 18.0155 17.0229 18.0155C21.1647 18.0155 22.0491 22.071 22.0491 22.071C24.793 19.806 27.7483 19.8793 28.7837 19.9872C28.7794 19.9009 28.7708 19.7714 28.7622 19.642ZM7.33292 12.1092C7.33292 12.1092 5.71936 8.07526 6.13353 5.77141C6.20256 5.38312 6.332 5.04229 6.53477 4.78343C6.53477 4.78343 8.36404 4.96464 11.315 8.24352C11.315 8.24352 10.7542 8.51533 10.0035 9.09345C10.0035 9.09345 9.99918 9.09776 9.99486 9.09776C9.17945 9.72334 8.13538 10.7156 7.33292 12.1092ZM14.1797 18.1018C14.1539 18.1535 14.0244 18.2096 13.8778 18.2312C13.7311 18.2527 13.2824 18.2398 13.0279 18.2096C12.1132 18.0888 11.1425 17.8084 10.4349 17.4632C10.038 17.2691 9.75326 17.075 9.54186 16.8636L9.42105 16.7385L9.40811 16.5745C9.38654 16.2898 9.39086 15.8411 9.42537 15.6815C9.44694 15.5477 9.4944 15.4183 9.55911 15.3018C9.59363 15.2587 9.59363 15.2587 9.74894 15.2587C9.93877 15.2587 10.0984 15.2888 10.3573 15.3708C10.8879 15.5347 11.6775 15.9316 12.6395 16.5097C13.4333 16.9843 13.7311 17.2173 13.9597 17.5365C14.1151 17.7351 14.2186 18.0155 14.1797 18.1018ZM24.3443 16.6737C24.3314 16.7427 24.1286 16.9499 23.9258 17.1009C23.3305 17.5365 22.2648 17.9421 21.1819 18.1363C20.5649 18.2484 19.948 18.2657 19.7625 18.1751C19.6417 18.1147 19.6244 18.0672 19.6676 17.9119C19.7582 17.5883 20.0516 17.2346 20.5089 16.9023C20.7419 16.7341 21.6867 16.1603 22.1267 15.9188C22.8516 15.5218 23.4384 15.2845 23.8353 15.2284C23.9604 15.2111 24.1113 15.2069 24.1588 15.2284C24.2364 15.2587 24.3227 15.4873 24.3573 15.7634C24.3745 15.9101 24.3659 16.5572 24.3443 16.6737ZM23.6281 9.09345L23.6195 9.08913C22.8947 8.51101 22.3511 8.23921 22.3511 8.23921C25.2029 4.96032 26.9674 4.77912 26.9674 4.77912C27.1616 5.04229 27.2867 5.37881 27.3557 5.7671C27.7569 8.07095 26.1995 12.1092 26.1995 12.1092C25.548 10.9486 24.6722 9.9218 23.6281 9.09345Z" fill="#FFA409"/>
<path d="M27.36 5.76703C27.0235 5.7239 25.4315 5.71527 23.6281 9.09339L23.6195 9.08907C22.8946 8.51095 22.3511 8.23914 22.3511 8.23914C25.2028 4.96026 26.9674 4.77905 26.9674 4.77905C27.1658 5.04223 27.291 5.37874 27.36 5.76703Z" fill="#FF9300"/>
<path d="M26.2038 12.1092C25.548 10.9443 24.6765 9.92178 23.6281 9.09343C25.4315 5.71531 27.0192 5.72395 27.36 5.76708C27.7612 8.07525 26.2038 12.1092 26.2038 12.1092Z" fill="#FF8300"/>
<path d="M27.4246 5.78C27.4031 5.77569 27.3815 5.77137 27.36 5.76706L27.4246 5.78Z" fill="#FF8300"/>
<path d="M11.3151 8.23914C11.3151 8.23914 10.7542 8.51095 10.0035 9.08907C10.0035 9.08907 9.9992 9.09339 9.99489 9.09339C8.12678 5.71095 6.48302 5.7239 6.12924 5.76703C6.19827 5.37874 6.32771 5.03791 6.53048 4.77905C6.5348 4.77905 8.36406 4.96026 11.3151 8.23914Z" fill="#FF9300"/>
<path d="M9.99924 9.09343C9.17951 9.72333 8.13545 10.7113 7.33298 12.1092C7.33298 12.1092 5.71942 8.07525 6.1336 5.76708C6.48306 5.72395 8.13113 5.71531 9.99924 9.09343Z" fill="#FF8300"/>
<path d="M6.13357 5.76706C6.112 5.77137 6.08611 5.77569 6.06454 5.78L6.13357 5.76706Z" fill="#FF8300"/>
<path d="M21.8377 14.3482C21.8377 14.3482 20.457 14.4345 20.6297 13.356C20.8022 12.2773 21.8808 12.1479 22.1828 12.1911C22.4848 12.2342 23.6928 12.6657 23.4771 13.5716C23.2614 14.4776 22.9594 14.3051 22.7868 14.3482C22.6143 14.3913 21.8377 14.3482 21.8377 14.3482Z" fill="white"/>
<path d="M11.6558 14.3482C11.6558 14.3482 10.2753 14.4345 10.4478 13.356C10.6204 12.2773 11.699 12.1479 12.001 12.1911C12.303 12.2342 13.511 12.6657 13.2952 13.5716C13.0795 14.4776 12.7776 14.3051 12.6049 14.3482C12.4324 14.3913 11.6558 14.3482 11.6558 14.3482Z" fill="white"/>
</g>
</svg>
