<svg width="34" height="34" viewBox="0 0 34 34" fill="none" xmlns="http://www.w3.org/2000/svg">
    <path d="M17.0001 31.1667C24.8241 31.1667 31.1668 24.824 31.1668 17C31.1668 9.17598 24.8241 2.83334 17.0001 2.83334C9.17607 2.83334 2.83344 9.17598 2.83344 17C2.83344 24.824 9.17607 31.1667 17.0001 31.1667Z"
          fill="#26A69A"/>
    <path d="M23.3751 9.20834H10.6251V12.75H23.3751V9.20834Z" fill="white"/>
    <path d="M17.0001 14.875C13.8431 14.875 8.50012 15.397 8.50012 17.3542C8.50012 19.3113 13.8431 19.8333 17.0001 19.8333C20.1572 19.8333 25.5001 19.3113 25.5001 17.3542C25.5001 15.397 20.1572 14.875 17.0001 14.875ZM17.0001 18.4167C13.088 18.4167 9.91679 17.7827 9.91679 17C9.91679 16.2173 13.088 15.5833 17.0001 15.5833C20.9122 15.5833 24.0835 16.2173 24.0835 17C24.0835 17.7827 20.9122 18.4167 17.0001 18.4167Z"
          fill="white"/>
    <path d="M17.0001 17C17.7757 17 18.4827 16.9738 19.1251 16.9306V9.20834H14.8751V16.9306C15.5176 16.9738 16.2245 17 17.0001 17Z"
          fill="white"/>
    <path d="M18.2206 18.394C18.142 18.3968 18.0626 18.399 17.9826 18.4011C17.6603 18.4103 17.3345 18.4167 17.0001 18.4167C16.6658 18.4167 16.34 18.4103 16.0177 18.4018C15.9376 18.3997 15.8583 18.3975 15.7797 18.3947C15.4715 18.3841 15.1684 18.3706 14.8751 18.3522V25.5H19.1251V18.3515C18.8319 18.3699 18.5287 18.3834 18.2206 18.394Z"
          fill="white"/>
</svg>
