<svg width="34" height="34" viewBox="0 0 34 34" fill="none" xmlns="http://www.w3.org/2000/svg">
<path d="M17 31C24.732 31 31 24.732 31 17C31 9.26801 24.732 3 17 3C9.26801 3 3 9.26801 3 17C3 24.732 9.26801 31 17 31Z" fill="#FF007A"/>
<path d="M13.7284 8.04613C13.479 8.00763 13.4685 8.00238 13.5857 7.98488C13.8106 7.94988 14.3426 7.99801 14.7092 8.08463C15.5641 8.28851 16.342 8.80913 17.1732 9.73401L17.3937 9.97901L17.7087 9.92913C19.0387 9.71476 20.3924 9.88538 21.5237 10.4078C21.8352 10.5513 22.3261 10.8374 22.3874 10.9118C22.4075 10.9345 22.4434 11.0859 22.467 11.2469C22.551 11.8043 22.509 12.2313 22.3392 12.5506C22.2465 12.7239 22.2412 12.7781 22.3034 12.9269C22.3328 12.9883 22.379 13.0402 22.4365 13.0768C22.4941 13.1133 22.5607 13.1329 22.6289 13.1334C22.9106 13.1334 23.2134 12.6784 23.3534 12.0458L23.4094 11.7946L23.5196 11.9198C24.1251 12.6058 24.6002 13.5411 24.6816 14.2061L24.7035 14.3803L24.6011 14.2228C24.4261 13.9515 24.2511 13.766 24.0254 13.6164C23.6194 13.3478 23.1897 13.2568 22.0522 13.1964C21.025 13.1421 20.4431 13.0546 19.8674 12.8665C18.8865 12.5471 18.3921 12.121 17.2266 10.5924C16.7095 9.91338 16.3892 9.53801 16.0716 9.23613C15.348 8.54838 14.6375 8.18788 13.7284 8.04613Z" fill="white"/>
<path d="M22.6192 9.5625C22.6455 9.1075 22.7067 8.80738 22.831 8.5335C22.88 8.425 22.9264 8.33575 22.9334 8.33575C22.9256 8.39718 22.9094 8.45724 22.8852 8.51425C22.7951 8.78025 22.7802 9.14425 22.8424 9.56688C22.9211 10.1041 22.9666 10.1811 23.5336 10.7613C23.8005 11.0334 24.1102 11.3764 24.2222 11.5243L24.4261 11.792L24.2222 11.6004C23.9729 11.3668 23.3989 10.9091 23.272 10.8444C23.1871 10.8006 23.174 10.8015 23.1215 10.8531C23.0734 10.9021 23.0629 10.9739 23.0567 11.316C23.0462 11.848 22.9736 12.191 22.7977 12.5323C22.7032 12.716 22.6884 12.6775 22.7741 12.4684C22.838 12.3126 22.8441 12.2444 22.8441 11.729C22.8441 10.693 22.7207 10.4445 21.9989 10.0175C21.7817 9.89147 21.5586 9.77583 21.3304 9.671C21.2176 9.62578 21.1083 9.57256 21.0031 9.51175C21.0232 9.49163 21.7267 9.69638 22.0094 9.80575C22.4311 9.96763 22.5002 9.98863 22.5519 9.9685C22.586 9.95538 22.6026 9.85563 22.6192 9.5625ZM14.2131 11.3344C13.7065 10.637 13.3932 9.56688 13.4606 8.76713L13.4816 8.5195L13.5971 8.5405C13.8141 8.57988 14.1877 8.719 14.3627 8.82575C14.8422 9.11713 15.0505 9.50125 15.2614 10.4865C15.3235 10.7753 15.4049 11.1016 15.4425 11.2128C15.502 11.3904 15.7295 11.806 15.915 12.0764C16.048 12.2706 15.9587 12.3625 15.6647 12.3363C15.215 12.2951 14.606 11.8751 14.2131 11.3344ZM22.005 16.5275C19.6364 15.5738 18.8025 14.746 18.8025 13.3495C18.8025 13.1439 18.8095 12.9759 18.8174 12.9759C18.8261 12.9759 18.918 13.0433 19.0212 13.1264C19.5016 13.5114 20.0397 13.6759 21.5281 13.8929C22.404 14.0215 22.8975 14.1248 23.3525 14.2753C24.798 14.7548 25.6922 15.7278 25.9057 17.0525C25.967 17.4375 25.9311 18.1594 25.8305 18.54C25.7517 18.841 25.5094 19.3826 25.4455 19.4036C25.428 19.4089 25.4105 19.3415 25.4052 19.2479C25.3807 18.7509 25.1296 18.2661 24.707 17.903C24.2266 17.4909 23.5826 17.1619 22.005 16.5275ZM20.3425 16.923C20.3145 16.754 20.2762 16.5868 20.2279 16.4225L20.1666 16.2423L20.2795 16.3683C20.4344 16.5433 20.5577 16.7655 20.661 17.063C20.7406 17.2896 20.7494 17.357 20.7485 17.7254C20.7485 18.0876 20.7389 18.1629 20.6654 18.3676C20.5632 18.6679 20.3921 18.94 20.1657 19.1621C19.7326 19.6031 19.177 19.8464 18.3737 19.9479C18.2337 19.9654 17.8277 19.9951 17.4699 20.0135C16.5686 20.0608 15.9762 20.157 15.4434 20.3443C15.3953 20.3658 15.3437 20.3782 15.2911 20.381C15.2701 20.3591 15.6324 20.143 15.9325 19.9986C16.3551 19.7948 16.7751 19.6836 17.7175 19.527C18.183 19.4491 18.6642 19.3555 18.7859 19.3179C19.9391 18.9644 20.5324 18.0526 20.3425 16.923Z" fill="white"/>
<path d="M21.4275 18.8515C21.1125 18.1751 21.0408 17.5215 21.2132 16.9125C21.2315 16.8477 21.2613 16.7944 21.2788 16.7944C21.338 16.8158 21.3937 16.8459 21.4442 16.8836C21.5894 16.9816 21.8799 17.1461 22.6543 17.5679C23.6212 18.0955 24.1724 18.5041 24.5478 18.9696C24.8759 19.3782 25.0789 19.8437 25.1769 20.4107C25.232 20.7319 25.1997 21.5045 25.1174 21.8282C24.8575 22.8485 24.2529 23.65 23.3919 24.1172C23.3106 24.1643 23.2265 24.206 23.1399 24.2424C23.1277 24.2424 23.1732 24.126 23.2423 23.9825C23.531 23.377 23.5652 22.7872 23.3455 22.131C23.2117 21.7294 22.9378 21.2385 22.3857 20.4107C21.7434 19.4482 21.5859 19.191 21.4275 18.8515ZM12.5314 22.5011C13.4108 21.7591 14.5037 21.2324 15.5003 21.0705C15.929 21.0005 16.6448 21.0285 17.042 21.13C17.679 21.2927 18.2495 21.6585 18.5462 22.0934C18.8349 22.5186 18.96 22.8896 19.0886 23.7139C19.1411 24.0394 19.1963 24.3657 19.2129 24.4401C19.3091 24.8671 19.499 25.2092 19.7335 25.3807C20.1054 25.6529 20.7468 25.6695 21.3768 25.4245C21.4426 25.3943 21.512 25.3725 21.5833 25.3597C21.606 25.3825 21.2893 25.5951 21.0653 25.7071C20.8009 25.8486 20.5049 25.9202 20.2052 25.9154C19.6277 25.9154 19.1481 25.6222 18.7483 25.0229C18.6695 24.9047 18.4928 24.5521 18.3545 24.238C17.9328 23.2755 17.7245 22.9815 17.2345 22.6604C16.8067 22.3804 16.2563 22.3305 15.8424 22.5335C15.2982 22.8004 15.1468 23.496 15.5362 23.9361C15.691 24.1111 15.9798 24.2625 16.216 24.2914C16.3191 24.305 16.4239 24.2964 16.5233 24.2661C16.6227 24.2357 16.7145 24.1844 16.7924 24.1156C16.8703 24.0467 16.9325 23.9619 16.9748 23.867C17.0171 23.772 17.0386 23.6691 17.0377 23.5651C17.0377 23.2746 16.9257 23.1101 16.6457 22.9832C16.2633 22.8109 15.852 23.0121 15.8538 23.3717C15.8547 23.5249 15.9212 23.6211 16.0752 23.6911C16.174 23.7349 16.1758 23.7392 16.0953 23.7226C15.7444 23.6491 15.6622 23.2265 15.9448 22.9456C16.2834 22.6079 16.9843 22.7566 17.2249 23.2169C17.3264 23.4102 17.3378 23.7961 17.2494 24.0289C17.0525 24.5495 16.4768 24.8225 15.8932 24.6737C15.4959 24.5722 15.334 24.4629 14.8554 23.9694C14.0233 23.1119 13.7004 22.9456 12.4999 22.7584L12.2698 22.7225L12.5323 22.5011H12.5314Z" fill="white"/>
<path fill-rule="evenodd" clip-rule="evenodd" d="M8.42151 5.93125L8.50551 6.03363C11.75 10.0061 13.4265 12.0676 13.5333 12.2146C13.7083 12.4579 13.6426 12.6757 13.3416 12.8472C13.1745 12.9426 12.8298 13.0389 12.6583 13.0389C12.4631 13.0389 12.2435 12.9452 12.0834 12.7939C11.9705 12.6862 11.5146 12.0055 10.462 10.3719C9.96908 9.59977 9.46973 8.83179 8.96401 8.068C8.92113 8.02775 8.92201 8.02863 10.3798 10.637C11.295 12.275 11.6048 12.8534 11.6048 12.9313C11.6048 13.0888 11.561 13.171 11.3668 13.388C11.043 13.7494 10.8986 14.1554 10.7936 14.9954C10.6764 15.9377 10.3474 16.6027 9.43388 17.7411C8.90013 18.4079 8.81263 18.5304 8.67701 18.799C8.50726 19.1367 8.46088 19.3266 8.44163 19.7536C8.42151 20.2051 8.46088 20.4974 8.59913 20.9287C8.71988 21.3067 8.84588 21.557 9.16788 22.0557C9.44613 22.4871 9.60626 22.8074 9.60626 22.9325C9.60626 23.0322 9.62551 23.0322 10.0569 22.9351C11.0885 22.7024 11.9259 22.292 12.3975 21.7897C12.6889 21.4791 12.7571 21.3076 12.7598 20.8815C12.7606 20.6032 12.751 20.5446 12.6758 20.3845C12.5533 20.1237 12.3301 19.9067 11.8384 19.5707C11.1935 19.1297 10.9188 18.7745 10.8426 18.2871C10.7796 17.8872 10.8523 17.6046 11.2093 16.8574C11.5776 16.0839 11.6695 15.7549 11.7316 14.9752C11.771 14.4712 11.8261 14.2726 11.9714 14.1134C12.1219 13.9471 12.2584 13.8902 12.632 13.8395C13.241 13.7564 13.6286 13.5989 13.9471 13.3057C14.2236 13.0502 14.3391 12.8044 14.3566 12.4351L14.3706 12.1551L14.2158 11.9749C13.9935 11.7159 12.1551 9.68762 8.69976 5.88838L8.60701 5.78775L8.42151 5.93213V5.93125ZM9.92126 20.2655C9.9823 20.1574 10.0005 20.0303 9.97234 19.9095C9.94414 19.7886 9.87157 19.6827 9.76901 19.6127C9.56951 19.4797 9.25888 19.5427 9.25888 19.716C9.25888 19.7685 9.28776 19.807 9.35338 19.8411C9.46451 19.898 9.47238 19.9627 9.38576 20.0931C9.29738 20.2261 9.30438 20.3434 9.40588 20.423C9.56863 20.5507 9.79876 20.4799 9.92126 20.2655ZM14.7548 13.9865C14.4686 14.074 14.1913 14.3776 14.1046 14.6952C14.0521 14.8886 14.0819 15.229 14.1606 15.334C14.2875 15.5037 14.4109 15.5484 14.7434 15.5457C15.3944 15.5414 15.9596 15.2622 16.0261 14.9131C16.0804 14.627 15.831 14.2306 15.4889 14.0556C15.3121 13.9664 14.9368 13.9305 14.7548 13.9865ZM15.516 14.5815C15.6166 14.4389 15.572 14.284 15.4023 14.1807C15.0768 13.9821 14.585 14.1458 14.585 14.4537C14.585 14.606 14.8414 14.7731 15.0759 14.7731C15.2334 14.7731 15.4469 14.6795 15.516 14.5815Z" fill="white"/>
</svg>
