<svg width="34" height="34" viewBox="0 0 34 34" fill="none" xmlns="http://www.w3.org/2000/svg">
<path d="M17 31C24.732 31 31 24.732 31 17C31 9.26801 24.732 3 17 3C9.26801 3 3 9.26801 3 17C3 24.732 9.26801 31 17 31Z" fill="#3E73C4"/>
<path d="M20.5192 18.8585C20.5192 17 19.3992 16.363 17.1592 16.097C15.5597 15.8844 15.2404 15.46 15.2404 14.7163C15.2404 13.9725 15.7741 13.4948 16.8399 13.4948C17.7998 13.4948 18.3335 13.8133 18.5995 14.6104C18.6272 14.6875 18.6779 14.7542 18.7447 14.8016C18.8115 14.849 18.8912 14.8748 18.9731 14.8755H19.8263C19.8755 14.8768 19.9246 14.8681 19.9704 14.8499C20.0162 14.8317 20.0578 14.8044 20.0927 14.7696C20.1277 14.7349 20.1552 14.6933 20.1736 14.6476C20.192 14.6019 20.201 14.5529 20.1999 14.5036V14.4511C20.0956 13.8744 19.8038 13.3483 19.3698 12.9545C18.9358 12.5606 18.3839 12.3212 17.7998 12.2733V10.9993C17.7998 10.7866 17.6396 10.6274 17.3736 10.574H16.573C16.3604 10.574 16.2003 10.7333 16.1469 10.9993V12.2208C14.5465 12.4325 13.5341 13.4948 13.5341 14.823C13.5341 16.5748 14.5999 17.2651 16.8399 17.5311C18.3335 17.7963 18.813 18.1156 18.813 18.9653C18.813 19.814 18.0666 20.3985 17.0534 20.3985C15.6665 20.3985 15.187 19.8149 15.0269 19.0178C14.9744 18.806 14.8134 18.6993 14.6533 18.6993H13.7468C13.6975 18.6981 13.6486 18.7069 13.6029 18.7251C13.5572 18.7434 13.5157 18.7707 13.4808 18.8055C13.446 18.8402 13.4186 18.8817 13.4002 18.9273C13.3818 18.973 13.3729 19.0219 13.374 19.0711V19.1236C13.5866 20.4519 14.4406 21.4074 16.2003 21.6734V22.9483C16.2003 23.16 16.3604 23.3201 16.6264 23.3726H17.427C17.6396 23.3726 17.7998 23.2134 17.8531 22.9483V21.6725C19.4535 21.4074 20.5192 20.2918 20.5192 18.8576V18.8585Z" fill="white"/>
<path d="M14.2805 24.4349C10.1207 22.9474 7.9875 18.3274 9.5345 14.2385C10.3342 12.0072 12.0939 10.3089 14.2805 9.51175C14.494 9.40587 14.5999 9.24663 14.5999 8.98063V8.23688C14.5999 8.02513 14.494 7.86588 14.2805 7.8125C14.2271 7.8125 14.1204 7.8125 14.067 7.865C12.8669 8.23978 11.7527 8.84826 10.7887 9.6554C9.82475 10.4625 9.02993 11.4524 8.45006 12.568C7.87019 13.6836 7.51672 14.9028 7.41001 16.1556C7.30329 17.4083 7.44543 18.6698 7.82825 19.8674C8.78725 22.8424 11.0806 25.1261 14.067 26.0816C14.2805 26.1875 14.494 26.0816 14.5465 25.869C14.5999 25.8165 14.5999 25.7622 14.5999 25.6564V24.9126C14.5999 24.7534 14.4406 24.5416 14.2805 24.4349ZM19.933 7.86587C19.7195 7.75912 19.506 7.86587 19.4535 8.07762C19.4001 8.131 19.4001 8.18438 19.4001 8.29025V9.034C19.4001 9.24662 19.5594 9.45837 19.7195 9.56512C23.8792 11.0526 26.0125 15.6726 24.4655 19.7615C23.6657 21.9928 21.9061 23.6911 19.7195 24.4883C19.506 24.5941 19.4001 24.7534 19.4001 25.0194V25.7631C19.4001 25.9749 19.506 26.1341 19.7195 26.1875C19.7729 26.1875 19.8796 26.1875 19.933 26.135C21.1331 25.7602 22.2473 25.1517 23.2113 24.3446C24.1752 23.5375 24.9701 22.5476 25.5499 21.432C26.1298 20.3165 26.4833 19.0972 26.59 17.8444C26.6967 16.5917 26.5546 15.3302 26.1717 14.1326C25.2127 11.1051 22.866 8.82137 19.933 7.86587Z" fill="white"/>
</svg>
