<svg width="36" height="37" viewBox="0 0 36 37" fill="none" xmlns="http://www.w3.org/2000/svg">
<path d="M27.3297 8.27214C24.8592 6.20038 21.6048 5.15344 18.4008 5.39965L18.0357 5.42806L18.4008 5.45016C21.4964 5.64166 24.4404 7.11052 26.4795 9.48111C28.3524 11.6581 29.2511 14.3654 29.009 17.1032C28.8165 19.6884 27.5886 22.0515 25.5515 23.7582C23.5439 25.4406 20.9397 26.2572 18.405 25.9983L18.3767 25.9952V31.5719L18.404 31.5696C20.2916 31.454 22.1739 30.9752 23.8481 30.185C26.0093 29.1843 27.8801 27.6513 29.2574 25.7532C30.5768 23.9351 31.4301 21.8127 31.7268 19.6148C32.3129 15.2618 30.7104 11.1278 27.3297 8.27214Z" fill="#9945FF"/>
<path d="M9.52034 27.5186C7.64744 25.3417 6.74888 22.6345 6.99087 19.8967C7.18343 17.3114 8.41133 14.9482 10.4484 13.2415C12.4559 11.5591 15.0601 10.7426 17.5948 11.0014L17.6232 11.0046V5.42798L17.5959 5.43008C15.7083 5.54582 13.8259 6.02457 12.1519 6.81476C9.99066 7.81539 8.11988 9.34844 6.74256 11.2466C5.42312 13.0648 4.56978 15.187 4.27307 17.3851C3.687 21.7379 5.28948 25.8721 8.67017 28.7276C11.1407 30.7994 14.3951 31.8463 17.599 31.6001L17.9641 31.5718L17.599 31.5496C14.5035 31.3582 11.5595 29.8892 9.52034 27.5186Z" fill="#9945FF"/>
</svg>
