<svg width="36" height="36" viewBox="0 0 36 36" fill="none" xmlns="http://www.w3.org/2000/svg">
<path d="M15.5016 14.1883L18.7193 10.9779C18.8883 10.8088 19.1046 10.6962 19.34 10.6535L23.4473 9.91014C24.3441 9.73476 24.2487 8.42169 23.3355 8.37808L19.4999 8.19451C19.1891 8.17998 18.9165 7.97916 18.8102 7.68655L17.4935 4.07994C17.18 3.22122 15.8978 3.52017 15.9977 4.42978L16.5138 8.61798C16.5429 8.85696 16.4984 9.09958 16.3857 9.31222L14.2767 13.2869C13.9077 14.0574 14.8764 14.7699 15.5016 14.1883Z" fill="#58ff44"/>
<path d="M31.7748 16.994L27.5865 17.5101C27.3475 17.5392 27.105 17.4947 26.8923 17.382L22.9176 15.2729C22.147 14.904 21.4356 15.8718 22.0171 16.497L25.2276 19.7147C25.3966 19.8837 25.5093 20.1 25.5519 20.3354L26.2953 24.4427C26.4706 25.3395 27.7837 25.2441 27.8274 24.3309L28.0108 20.4953C28.0254 20.1845 28.2262 19.9118 28.5189 19.8056L32.1255 18.4889C32.9842 18.1754 32.6835 16.8941 31.7748 16.994Z" fill="#58ff44"/>
<path d="M21.6323 21.3382L18.4146 24.5486C18.2456 24.7177 18.0293 24.8303 17.7939 24.8731L13.6866 25.6163C12.7897 25.7918 12.8851 27.1048 13.7984 27.1484L17.634 27.332C17.9448 27.3466 18.2174 27.5465 18.3237 27.8399L19.6404 31.4465C19.9539 32.3053 21.2361 32.0054 21.1361 31.0967L20.6199 26.9086C20.591 26.6696 20.6354 26.4269 20.7482 26.2144L22.8572 22.2397C23.2262 21.4691 22.2575 20.7566 21.6323 21.3382Z" fill="#58ff44"/>
<path d="M13.0815 21.5692C13.8521 21.9382 14.5636 20.9704 13.982 20.3452L10.7716 17.1275C10.6026 16.9585 10.4899 16.7422 10.4472 16.5068L9.70387 12.3995C9.52849 11.5027 8.21542 11.5981 8.17182 12.5113L7.98825 16.3469C7.97371 16.6577 7.77289 16.9303 7.48029 17.0366L3.87367 18.3533C3.01495 18.6668 3.31482 19.949 4.22352 19.849L8.41171 19.3328C8.65069 19.3039 8.89332 19.3483 9.10596 19.4611L13.0815 21.5692Z" fill="#58ff44"/>
</svg>
