<svg width="36" height="36" viewBox="0 0 36 36" fill="none" xmlns="http://www.w3.org/2000/svg">
<path d="M23.3607 11.301C16.8662 5.89108 9.17759 4.37242 6.18834 7.90785C3.83016 10.6971 5.10264 15.7989 8.93234 20.4841C7.74758 18.046 7.62495 15.7408 8.84838 14.2943C11.017 11.7288 16.5956 12.8308 21.3072 16.7557C26.0189 20.6806 28.0799 25.9417 25.9113 28.5072C25.5906 28.8864 25.1945 29.1831 24.7397 29.404C26.8413 29.4247 28.5987 28.8096 29.708 27.4978C32.6971 23.9614 29.8551 16.7108 23.3607 11.301Z" fill="#58ff44"/>
<path d="M16.9614 30.0001C18.5712 30.0001 19.8762 28.7049 19.8762 27.1069C19.8762 25.5091 18.5712 24.2139 16.9614 24.2139C15.3518 24.2139 14.0468 25.5091 14.0468 27.1069C14.0468 28.7049 15.3518 30.0001 16.9614 30.0001Z" fill="#58ff44"/>
<path d="M12.4797 25.7567C13.4216 25.7567 14.1852 24.9989 14.1852 24.0639C14.1852 23.129 13.4216 22.3712 12.4797 22.3712C11.5379 22.3712 10.7743 23.129 10.7743 24.0639C10.7743 24.9989 11.5379 25.7567 12.4797 25.7567Z" fill="#58ff44"/>
</svg>
