<svg width="36" height="36" viewBox="0 0 36 36" fill="none" xmlns="http://www.w3.org/2000/svg">
<path d="M17.9994 5.48522C22.3346 5.48522 25.8959 8.79299 26.3003 13.0222C26.3256 12.7577 26.34 12.4899 26.34 12.2198C26.34 7.61362 22.6068 3.88037 18.0006 3.88037C13.3944 3.88037 9.66113 7.61471 9.66113 12.2198C9.66113 12.491 9.67546 12.7588 9.70081 13.0222C10.1053 8.79299 13.6666 5.48522 18.0017 5.48522H17.9994Z" fill="#58ff44"/>
<path d="M22.9473 18.9314C22.1559 18.8059 21.3943 18.4421 20.7837 17.8315C19.246 16.2938 16.7529 16.2938 15.2152 17.8315C14.6046 18.4421 13.844 18.8059 13.0515 18.9314C12.4773 19.0229 11.8876 18.991 11.3265 18.8267C10.717 18.6493 10.1427 18.322 9.65997 17.8447V23.7802C9.65997 28.3853 13.3932 32.1196 17.9994 32.1196C22.6056 32.1196 26.34 28.3853 26.34 23.7802V17.8447C25.8571 18.322 25.2829 18.6493 24.6735 18.8267C24.1123 18.9899 23.5215 19.0219 22.9473 18.9314Z" fill="#58ff44"/>
</svg>
