<svg width="36" height="36" viewBox="0 0 36 36" fill="none" xmlns="http://www.w3.org/2000/svg">
<path d="M30.5615 16.9149C21.9021 16.0464 20.213 13.5974 19.5909 4.71738C19.5701 4.42754 19.0525 4.42754 19.0329 4.71738C18.4108 13.5974 16.7217 16.0475 8.06241 16.9149C7.31253 16.9896 7.31253 17.8844 8.06241 17.9601C16.7217 18.8286 18.4108 21.2777 19.0329 30.1577C19.0525 30.4475 19.5712 30.4475 19.5909 30.1577C20.213 21.2777 21.9021 18.8276 30.5615 17.9601C31.3113 17.8854 31.3113 16.9907 30.5615 16.9149Z" fill="#58ff44"/>
<path d="M24.5355 6.88611C27.009 7.11261 27.4918 7.75156 27.6699 10.0682C27.6759 10.1439 27.8238 10.1439 27.8298 10.0682C28.0078 7.75156 28.4896 7.11261 30.9642 6.88611C31.1781 6.86662 31.1781 6.63337 30.9642 6.61387C28.4907 6.38739 28.0078 5.74843 27.8298 3.4318C27.8238 3.35607 27.6759 3.35607 27.6699 3.4318C27.4918 5.74843 27.01 6.38739 24.5355 6.61387C24.3214 6.63337 24.3214 6.86662 24.5355 6.88611Z" fill="#58ff44"/>
<path d="M12.9106 24.5685C9.61259 24.2665 8.96871 23.4145 8.73143 20.3257C8.72343 20.2248 8.52614 20.2248 8.51813 20.3257C8.28084 23.4145 7.6383 24.2665 4.33896 24.5685C4.05368 24.5944 4.05368 24.9055 4.33896 24.9315C7.63697 25.2334 8.28084 26.0854 8.51813 29.1742C8.52614 29.2752 8.72343 29.2752 8.73143 29.1742C8.96871 26.0854 9.61125 25.2334 12.9106 24.9315C13.1959 24.9055 13.1959 24.5944 12.9106 24.5685Z" fill="#58ff44"/>
</svg>
