<svg width="36" height="37" viewBox="0 0 36 37" fill="none" xmlns="http://www.w3.org/2000/svg">
<path d="M28.1724 18.6431C21.8482 16.8368 20.2299 15.2185 18.4236 8.89433C18.3795 8.73932 18.1602 8.73932 18.1159 8.89433C16.3096 15.2185 14.6913 16.8368 8.36717 18.6431C8.21216 18.6874 8.21216 18.9065 8.36717 18.9508C14.6913 20.7571 16.3096 22.3754 18.1159 28.6996C18.1602 28.8545 18.3795 28.8545 18.4236 28.6996C20.2299 22.3754 21.8482 20.7571 28.1724 18.9508C28.3275 18.9065 28.3275 18.6874 28.1724 18.6431Z" fill="#9945FF"/>
<path d="M11.098 15.0242C11.1132 15.0772 11.1887 15.0772 11.2032 15.0242C11.8232 12.8525 12.379 12.2975 14.5508 11.6766C14.6038 11.6614 14.6038 11.5859 14.5508 11.5714C12.379 10.9514 11.824 10.3964 11.204 8.22384C11.1887 8.17083 11.1132 8.17083 11.0988 8.22384C10.4787 10.3964 9.92293 10.9506 7.75117 11.5722C7.69818 11.5875 7.69818 11.663 7.75117 11.6774C9.92293 12.2975 10.4771 12.8525 11.098 15.0242Z" fill="#9945FF"/>
</svg>
