<svg width="32" height="32" viewBox="0 0 32 32" fill="none" xmlns="http://www.w3.org/2000/svg">
<path d="M1.3335 8C1.3335 5.79086 3.12436 4 5.3335 4H26.6668C28.876 4 30.6668 5.79086 30.6668 8C30.6668 8.73638 30.0699 9.33333 29.3335 9.33333H24.0002C20.3183 9.33333 17.3335 12.3181 17.3335 16C17.3335 19.6819 20.3183 22.6667 24.0002 22.6667H29.3335C30.0699 22.6667 30.6668 23.2636 30.6668 24C30.6668 26.2091 28.876 28 26.6668 28H5.3335C3.12436 28 1.3335 26.2091 1.3335 24V8Z" fill="#58ff44"/>
<path fill-rule="evenodd" clip-rule="evenodd" d="M24 12H29.3333C30.0697 12 30.6667 12.597 30.6667 13.3333V18.6667C30.6667 19.403 30.0697 20 29.3333 20H24C21.7909 20 20 18.2091 20 16C20 13.7909 21.7909 12 24 12ZM24 17.3333C24.7364 17.3333 25.3333 16.7364 25.3333 16C25.3333 15.2636 24.7364 14.6667 24 14.6667C23.2636 14.6667 22.6667 15.2636 22.6667 16C22.6667 16.7364 23.2636 17.3333 24 17.3333Z" fill="#58ff44"/>
</svg>
