<svg width="32" height="32" viewBox="0 0 32 32" fill="none" xmlns="http://www.w3.org/2000/svg">
<path fill-rule="evenodd" clip-rule="evenodd" d="M15.9998 29.3334C23.3636 29.3334 29.3332 23.3638 29.3332 16C29.3332 8.63622 23.3636 2.66669 15.9998 2.66669C8.63604 2.66669 2.6665 8.63622 2.6665 16C2.6665 23.3638 8.63604 29.3334 15.9998 29.3334ZM15.9998 5.33335C15.2635 5.33335 14.6665 5.93031 14.6665 6.66669V8.00002C12.4574 8.00002 10.6665 9.79088 10.6665 12V12.7447C10.6665 14.4664 11.7682 15.9949 13.4016 16.5394L17.7548 17.9905C18.2993 18.172 18.6665 18.6815 18.6665 19.2554V20C18.6665 20.7364 18.0695 21.3334 17.3332 21.3334H14.6665C13.9301 21.3334 13.3332 20.7364 13.3332 20C13.3332 19.2636 12.7362 18.6667 11.9998 18.6667C11.2635 18.6667 10.6665 19.2636 10.6665 20C10.6665 22.2092 12.4574 24 14.6665 24V25.3334C14.6665 26.0697 15.2635 26.6667 15.9998 26.6667C16.7362 26.6667 17.3332 26.0697 17.3332 25.3334V24C19.5423 24 21.3332 22.2092 21.3332 20V19.2554C21.3332 17.5337 20.2314 16.0051 18.5981 15.4606L14.2449 14.0096C13.7004 13.8281 13.3332 13.3186 13.3332 12.7447V12C13.3332 11.2636 13.9301 10.6667 14.6665 10.6667H17.3332C18.0695 10.6667 18.6665 11.2636 18.6665 12C18.6665 12.7364 19.2635 13.3334 19.9998 13.3334C20.7362 13.3334 21.3332 12.7364 21.3332 12C21.3332 9.79088 19.5423 8.00002 17.3332 8.00002V6.66669C17.3332 5.93031 16.7362 5.33335 15.9998 5.33335Z" fill="#58ff44"/>
</svg>
