<svg width="32" height="32" viewBox="0 0 32 32" fill="none" xmlns="http://www.w3.org/2000/svg">
<path fill-rule="evenodd" clip-rule="evenodd" d="M1.3335 8C1.3335 5.79086 3.12436 4 5.3335 4H26.6668C28.876 4 30.6668 5.79086 30.6668 8V24C30.6668 26.2091 28.876 28 26.6668 28H5.3335C3.12436 28 1.3335 26.2091 1.3335 24V8ZM6.66683 20C6.66683 19.2636 7.26378 18.6667 8.00016 18.6667C8.73654 18.6667 9.3335 19.2636 9.3335 20V22.6667C9.3335 23.403 8.73654 24 8.00016 24C7.26378 24 6.66683 23.403 6.66683 22.6667V20ZM13.3335 10.6667C12.5971 10.6667 12.0002 11.2636 12.0002 12V22.6667C12.0002 23.403 12.5971 24 13.3335 24C14.0699 24 14.6668 23.403 14.6668 22.6667V12C14.6668 11.2636 14.0699 10.6667 13.3335 10.6667ZM17.3335 14.6667C17.3335 13.9303 17.9305 13.3333 18.6668 13.3333C19.4032 13.3333 20.0002 13.9303 20.0002 14.6667V22.6667C20.0002 23.403 19.4032 24 18.6668 24C17.9305 24 17.3335 23.403 17.3335 22.6667V14.6667ZM24.0002 8C23.2638 8 22.6668 8.59695 22.6668 9.33333V22.6667C22.6668 23.403 23.2638 24 24.0002 24C24.7365 24 25.3335 23.403 25.3335 22.6667V9.33333C25.3335 8.59695 24.7365 8 24.0002 8Z" fill="#58ff44"/>
</svg>
