<svg width="46" height="46" viewBox="0 0 46 46" fill="none" xmlns="http://www.w3.org/2000/svg">
    <g clip-path="url(#clip0_201_2606)">
        <path fill-rule="evenodd" clip-rule="evenodd"
              d="M37.2437 17.7946H8.7563C8.34286 17.7946 8 17.4582 8 17.0525C8 16.6468 8.34286 16.3104 8.7563 16.3104H37.2437C37.6571 16.3104 38 16.6468 38 17.0525C38 17.4582 37.6571 17.7946 37.2437 17.7946ZM37.2437 23.7421H8.7563C8.34286 23.7421 8 23.4057 8 23C8 22.5943 8.34286 22.2579 8.7563 22.2579H37.2437C37.6571 22.2579 38 22.5943 38 23C38 23.4057 37.6571 23.7421 37.2437 23.7421ZM8.7563 29.6897H37.2437C37.6571 29.6897 38 29.3532 38 28.9475C38 28.5418 37.6571 28.2054 37.2437 28.2054H8.7563C8.34286 28.2054 8 28.5418 8 28.9475C8 29.3532 8.34286 29.6897 8.7563 29.6897Z"
              fill="#1d393c"/>
    </g>
    <defs>
        <clipPath id="clip0_201_2606">
            <rect width="30" height="30" fill="white" transform="translate(8 8)"/>
        </clipPath>
    </defs>
</svg>
