<svg width="12" height="14" viewBox="0 0 12 14" fill="none" xmlns="http://www.w3.org/2000/svg">
    <path d="M3.5 4V3.072C3.5 2.31533 4.06333 1.67333 4.81733 1.61067C5.066 1.59067 5.316 1.57267 5.566 1.55733M8.5 11H10C10.3978 11 10.7794 10.842 11.0607 10.5607C11.342 10.2794 11.5 9.89783 11.5 9.5V3.072C11.5 2.31533 10.9367 1.67333 10.1827 1.61067C9.93333 1.58999 9.68375 1.57221 9.434 1.55733M9.434 1.55733C9.33931 1.25113 9.14842 0.983289 8.89049 0.793026C8.63257 0.602763 8.32051 0.500075 8 0.5H7C6.67949 0.500075 6.36743 0.602763 6.10951 0.793026C5.85158 0.983289 5.66135 1.25113 5.56667 1.55733C5.52333 1.69733 5.5 1.846 5.5 2V2.5H9.5V2C9.5 1.846 9.47733 1.69733 9.434 1.55733ZM8.5 11.5V10.25C8.5 9.65326 8.26295 9.08097 7.84099 8.65901C7.41903 8.23705 6.84674 8 6.25 8H5.25C5.05109 8 4.86032 7.92098 4.71967 7.78033C4.57902 7.63968 4.5 7.44891 4.5 7.25V6.25C4.5 5.65326 4.26295 5.08097 3.84099 4.65901C3.41903 4.23705 2.84674 4 2.25 4H1.5M2.5 4H1.25C0.836 4 0.5 4.336 0.5 4.75V12.75C0.5 13.164 0.836 13.5 1.25 13.5H7.75C8.164 13.5 8.5 13.164 8.5 12.75V10C8.5 8.4087 7.86786 6.88258 6.74264 5.75736C5.61742 4.63214 4.0913 4 2.5 4Z" stroke="white" stroke-linecap="round" stroke-linejoin="round" />
</svg>
