<svg width="12" height="12" viewBox="0 0 12 12" fill="none" xmlns="http://www.w3.org/2000/svg">
<path d="M4.2344 6.65622C2.92725 7.01347 2 8.15007 2 9.49997V10.5C2 10.7761 2.22385 11 2.5 11H9.5C9.77615 11 10 10.7761 10 10.5V9.49997C10 8.15007 9.07275 7.01347 7.7656 6.65622C7.65355 6.62557 7.54345 6.63972 7.4375 6.68747C6.97975 6.89377 6.49245 6.99997 6 6.99997C5.50755 6.99997 5.02025 6.89377 4.5625 6.68747C4.45655 6.63972 4.34645 6.62557 4.2344 6.65622Z" fill="#9945FF"/>
<path d="M6 1C4.6193 1 3.5 2.1193 3.5 3.5C3.5 4.8807 4.6193 6 6 6C7.3807 6 8.5 4.8807 8.5 3.5C8.5 2.1193 7.3807 1 6 1Z" fill="#9945FF"/>
</svg>
