<svg width="42" height="42" viewBox="0 0 42 42" fill="none" xmlns="http://www.w3.org/2000/svg">
<path d="M39.1774 2.30945L23.4165 13.991L26.3474 7.1067L39.1774 2.30945Z" fill="#E17726"/>
<path fill-rule="evenodd" clip-rule="evenodd" d="M39.3089 2.2378C39.3445 2.30362 39.3264 2.38569 39.2663 2.43024L23.5053 14.1118C23.4509 14.1522 23.3763 14.151 23.3232 14.109C23.27 14.0669 23.2516 13.9945 23.2781 13.9321L26.209 7.04777C26.2251 7.00991 26.2561 6.98033 26.2945 6.96594L39.1246 2.16869C39.1946 2.1425 39.2732 2.17197 39.3089 2.2378ZM26.4597 7.22493L23.7706 13.5414L38.2314 2.8234L26.4597 7.22493Z" fill="#E17726"/>
<path d="M2.82275 2.30945L18.4433 14.1001L15.6529 7.10669L2.82275 2.30945Z" fill="#E27625"/>
<path fill-rule="evenodd" clip-rule="evenodd" d="M2.69133 2.23722C2.72716 2.17177 2.80551 2.14259 2.87532 2.16869L15.7054 6.96593C15.745 6.98074 15.7766 7.0116 15.7923 7.05093L18.5827 14.0443C18.6077 14.1069 18.588 14.1785 18.5345 14.2194C18.4811 14.2604 18.4069 14.2606 18.3532 14.2201L2.73259 2.42945C2.67308 2.38453 2.65551 2.30267 2.69133 2.23722ZM3.73782 2.81194L18.1049 13.6564L15.5383 7.2242L3.73782 2.81194Z" fill="#E27625"/>
<path d="M33.5021 29.395L29.3086 35.8121L38.2881 38.2886L40.8604 29.5353L33.5021 29.395Z" fill="#E27625"/>
<path fill-rule="evenodd" clip-rule="evenodd" d="M33.3767 29.3128C33.405 29.2696 33.4535 29.2439 33.5051 29.2449L40.8633 29.3852C40.9101 29.3861 40.9538 29.4088 40.9815 29.4465C41.0091 29.4843 41.0176 29.5329 41.0044 29.5778L38.4321 38.3312C38.409 38.4098 38.3272 38.4554 38.2484 38.4336L29.2689 35.9571C29.2227 35.9443 29.1853 35.9102 29.1684 35.8653C29.1514 35.8204 29.1569 35.7701 29.1832 35.7299L33.3767 29.3128ZM33.5823 29.5469L29.5469 35.7221L38.1859 38.1047L40.6611 29.6819L33.5823 29.5469Z" fill="#E27625"/>
<path d="M1.1543 29.5353L3.71094 38.2886L12.6749 35.8121L8.49689 29.395L1.1543 29.5353Z" fill="#E27625"/>
<path fill-rule="evenodd" clip-rule="evenodd" d="M8.49413 29.2449C8.54583 29.2439 8.59439 29.2697 8.62263 29.313L12.8006 35.7302C12.8268 35.7703 12.8322 35.8206 12.8153 35.8654C12.7983 35.9103 12.761 35.9443 12.7149 35.9571L3.75093 38.4336C3.67194 38.4554 3.59009 38.4097 3.56708 38.3309L1.01043 29.5776C0.997308 29.5327 1.00584 29.4842 1.03351 29.4465C1.06117 29.4087 1.10481 29.3861 1.15154 29.3852L8.49413 29.2449ZM1.35347 29.6819L3.81354 38.1046L12.4372 35.7221L8.41675 29.5469L1.35347 29.6819Z" fill="#E27625"/>
<path d="M12.1915 18.5547L9.69727 22.324L18.5832 22.7289L18.287 13.15L12.1915 18.5547Z" fill="#E27625"/>
<path fill-rule="evenodd" clip-rule="evenodd" d="M18.3466 13.0121C18.4 13.0352 18.4353 13.0871 18.4371 13.1454L18.7332 22.7243C18.7345 22.7661 18.7183 22.8065 18.6886 22.8359C18.6588 22.8653 18.6182 22.8809 18.5765 22.879L9.69055 22.474C9.63658 22.4716 9.58809 22.4402 9.56363 22.392C9.53916 22.3437 9.54249 22.286 9.57234 22.2409L12.0666 18.4716C12.0738 18.4607 12.0824 18.4508 12.0922 18.4421L18.1877 13.0375C18.2313 12.9989 18.2932 12.989 18.3466 13.0121ZM12.3058 18.6541L9.96867 22.1859L18.4284 22.5714L18.1471 13.4748L12.3058 18.6541Z" fill="#E27625"/>
<path d="M29.8076 18.5547L23.6187 13.041L23.416 22.729L32.3019 22.324L29.8076 18.5547Z" fill="#E27625"/>
<path fill-rule="evenodd" clip-rule="evenodd" d="M23.5588 12.9033C23.6124 12.8799 23.6748 12.8898 23.7185 12.9287L29.9074 18.4424C29.917 18.451 29.9255 18.4609 29.9327 18.4717L32.427 22.241C32.4569 22.2861 32.4602 22.3438 32.4357 22.392C32.4113 22.4403 32.3628 22.4716 32.3088 22.4741L23.4229 22.879C23.3815 22.8809 23.3411 22.8655 23.3114 22.8365C23.2816 22.8074 23.2653 22.7674 23.2661 22.7258L23.4688 13.0379C23.4701 12.9793 23.5052 12.9267 23.5588 12.9033ZM23.762 13.3696L23.5694 22.5716L32.0307 22.1859L29.6934 18.654L23.762 13.3696Z" fill="#E27625"/>
<path d="M12.6753 35.8122L18.0536 33.2112L13.4236 29.5977L12.6753 35.8122Z" fill="#E27625"/>
<path fill-rule="evenodd" clip-rule="evenodd" d="M13.3661 29.4588C13.416 29.438 13.4732 29.4457 13.5159 29.479L18.1459 33.0925C18.1868 33.1244 18.2083 33.1753 18.2028 33.2269C18.1973 33.2786 18.1656 33.3238 18.1189 33.3463L12.7406 35.9474C12.6912 35.9713 12.6328 35.9663 12.5882 35.9343C12.5436 35.9024 12.5199 35.8486 12.5265 35.7941L13.2748 29.5795C13.2813 29.5257 13.3161 29.4796 13.3661 29.4588ZM13.5409 29.8794L12.8572 35.5573L17.771 33.1809L13.5409 29.8794Z" fill="#E27625"/>
<path d="M23.9463 33.2112L29.309 35.8122L28.5763 29.5977L23.9463 33.2112Z" fill="#E27625"/>
<path fill-rule="evenodd" clip-rule="evenodd" d="M28.6342 29.4589C28.6841 29.4798 28.719 29.526 28.7253 29.5799L29.458 35.7945C29.4645 35.849 29.4407 35.9027 29.3961 35.9345C29.3514 35.9663 29.293 35.9712 29.2437 35.9473L23.881 33.3463C23.8344 33.3236 23.8027 33.2785 23.7972 33.2269C23.7918 33.1752 23.8133 33.1244 23.8542 33.0925L28.4842 29.479C28.5269 29.4457 28.5842 29.438 28.6342 29.4589ZM24.2288 33.1811L29.128 35.5573L28.4586 29.8799L24.2288 33.1811Z" fill="#E27625"/>
<path d="M29.309 35.8125L23.9463 33.2114L24.3827 36.7003L24.3359 38.18L29.309 35.8125Z" fill="#D5BFB2"/>
<path fill-rule="evenodd" clip-rule="evenodd" d="M23.859 33.0892C23.9036 33.0571 23.9623 33.0521 24.0118 33.0761L29.3744 35.6771C29.4264 35.7023 29.4593 35.7551 29.4591 35.8129C29.4589 35.8707 29.4256 35.9232 29.3735 35.948L24.4004 38.3155C24.3532 38.338 24.2977 38.3343 24.2539 38.3056C24.2101 38.2769 24.1844 38.2274 24.1861 38.1751L24.2325 36.7072L23.7976 33.23C23.7907 33.1753 23.8143 33.1213 23.859 33.0892ZM24.1296 33.4671L24.5317 36.6815C24.5326 36.6892 24.533 36.6971 24.5328 36.7049L24.4937 37.9384L28.9623 35.8111L24.1296 33.4671Z" fill="#D5BFB2"/>
<path d="M12.6753 35.8125L17.6639 38.18L17.6327 36.7003L18.0536 33.2114L12.6753 35.8125Z" fill="#D5BFB2"/>
<path fill-rule="evenodd" clip-rule="evenodd" d="M18.1409 33.0891C18.1855 33.121 18.2092 33.1748 18.2026 33.2293L17.783 36.7076L17.814 38.1767C17.8151 38.2287 17.7892 38.2776 17.7456 38.306C17.7019 38.3343 17.6468 38.3379 17.5998 38.3156L12.6112 35.9481C12.559 35.9234 12.5256 35.8708 12.5254 35.8129C12.5252 35.755 12.5582 35.7022 12.6102 35.677L17.9885 33.076C18.0378 33.0521 18.0963 33.0571 18.1409 33.0891ZM13.023 35.8111L17.5089 37.94L17.4829 36.7033C17.4827 36.6962 17.4831 36.6892 17.4839 36.6821L17.8718 33.4661L13.023 35.8111Z" fill="#D5BFB2"/>
<path d="M17.7574 27.2925L13.2988 25.9842L16.4479 24.5356L17.7574 27.2925Z" fill="#233447"/>
<path fill-rule="evenodd" clip-rule="evenodd" d="M16.3849 24.399C16.4594 24.3647 16.5477 24.3968 16.5829 24.471L17.8925 27.2278C17.9179 27.2813 17.9096 27.3448 17.8712 27.3898C17.8328 27.4349 17.7716 27.4532 17.7149 27.4366L13.2563 26.1283C13.1962 26.1107 13.1534 26.0575 13.1488 25.995C13.1443 25.9325 13.179 25.8737 13.2358 25.8476L16.3849 24.399ZM13.7257 25.9529L17.4776 27.0538L16.3756 24.7339L13.7257 25.9529Z" fill="#233447"/>
<path d="M24.2427 27.2925L25.5522 24.5356L28.7169 25.9842L24.2427 27.2925Z" fill="#233447"/>
<path fill-rule="evenodd" clip-rule="evenodd" d="M25.4164 24.471C25.4516 24.3969 25.5397 24.3648 25.6142 24.3989L28.7788 25.8474C28.8358 25.8735 28.8706 25.9323 28.8661 25.995C28.8616 26.0576 28.8187 26.1107 28.7585 26.1283L24.2843 27.4366C24.2276 27.4532 24.1664 27.4349 24.1281 27.3898C24.0898 27.3447 24.0814 27.2813 24.1068 27.2278L25.4164 24.471ZM25.6238 24.7337L24.5215 27.0542L28.2876 25.953L25.6238 24.7337Z" fill="#233447"/>
<path d="M12.675 35.8121L13.4545 29.395L8.49707 29.5353L12.675 35.8121Z" fill="#CC6228"/>
<path fill-rule="evenodd" clip-rule="evenodd" d="M13.5655 29.2939C13.5949 29.3263 13.6088 29.3698 13.6035 29.4133L12.824 35.8304C12.8164 35.8928 12.7708 35.9439 12.7098 35.9584C12.6487 35.973 12.5851 35.9479 12.5503 35.8956L8.37236 29.6188C8.3421 29.5733 8.33887 29.5149 8.36393 29.4664C8.38899 29.4178 8.43839 29.3868 8.49293 29.3852L13.4504 29.2449C13.494 29.2437 13.5361 29.2616 13.5655 29.2939ZM8.77232 29.6779L12.5751 35.3912L13.2847 29.5502L8.77232 29.6779Z" fill="#CC6228"/>
<path d="M28.5449 29.395L29.3088 35.8121L33.5024 29.5353L28.5449 29.395Z" fill="#CC6228"/>
<path fill-rule="evenodd" clip-rule="evenodd" d="M28.4343 29.2938C28.4637 29.2615 28.5057 29.2437 28.5493 29.2449L33.5067 29.3852C33.5613 29.3868 33.6107 29.4179 33.6358 29.4665C33.6608 29.5151 33.6575 29.5735 33.6271 29.619L29.4336 35.8958C29.3987 35.9481 29.335 35.973 29.2739 35.9583C29.2129 35.9437 29.1674 35.8925 29.16 35.83L28.3961 29.4129C28.3909 29.3695 28.4049 29.3261 28.4343 29.2938ZM28.7145 29.5502L29.4099 35.391L33.2268 29.6779L28.7145 29.5502Z" fill="#CC6228"/>
<path d="M32.3019 22.3237L23.416 22.7287L24.2422 27.2924L25.5518 24.5354L28.7164 25.984L32.3019 22.3237Z" fill="#CC6228"/>
<path fill-rule="evenodd" clip-rule="evenodd" d="M32.4389 22.2625C32.4641 22.3189 32.4522 22.385 32.4091 22.4291L28.8236 26.0893C28.7793 26.1345 28.7116 26.1471 28.6542 26.1208L25.6239 24.7337L24.3778 27.3571C24.3498 27.416 24.2871 27.4501 24.2225 27.4414C24.158 27.4328 24.1063 27.3835 24.0947 27.3193L23.2685 22.7556C23.2608 22.713 23.2718 22.669 23.2988 22.6351C23.3258 22.6012 23.3661 22.5807 23.4093 22.5787L32.2952 22.1737C32.3568 22.1709 32.4138 22.2062 32.4389 22.2625ZM23.5943 22.8711L24.3069 26.8069L25.4164 24.471C25.4516 24.3969 25.5397 24.3648 25.6142 24.3989L28.6831 25.8036L31.9278 22.4913L23.5943 22.8711Z" fill="#CC6228"/>
<path d="M13.2984 25.984L16.4474 24.5354L17.757 27.2924L18.5832 22.7287L9.69727 22.3237L13.2984 25.984Z" fill="#CC6228"/>
<path fill-rule="evenodd" clip-rule="evenodd" d="M9.56035 22.2627C9.58546 22.2062 9.64254 22.1709 9.70418 22.1737L18.5901 22.5787C18.6334 22.5807 18.6736 22.6012 18.7006 22.6351C18.7276 22.669 18.7386 22.713 18.7309 22.7556L17.9047 27.3193C17.8931 27.3835 17.8415 27.4328 17.7769 27.4414C17.7124 27.4501 17.6496 27.416 17.6217 27.3571L16.3757 24.734L13.3611 26.1207C13.3037 26.147 13.236 26.1346 13.1917 26.0896L9.59053 22.4293C9.54721 22.3853 9.53524 22.3192 9.56035 22.2627ZM10.0728 22.4914L13.3315 25.8036L16.3849 24.399C16.4595 24.3647 16.5477 24.3968 16.583 24.471L17.6926 26.8069L18.4051 22.8711L10.0728 22.4914Z" fill="#CC6228"/>
<path d="M9.69775 22.3237L13.4236 29.5975L13.2988 25.984L9.69775 22.3237Z" fill="#E27525"/>
<path fill-rule="evenodd" clip-rule="evenodd" d="M9.60997 22.2021C9.66999 22.1586 9.75271 22.1655 9.8047 22.2184L13.4058 25.8786C13.4322 25.9055 13.4476 25.9413 13.4489 25.9789L13.5737 29.5924C13.5761 29.6627 13.5295 29.7253 13.4615 29.743C13.3935 29.7607 13.3224 29.7288 13.2903 29.6662L9.56441 22.3924C9.53059 22.3264 9.54995 22.2456 9.60997 22.2021ZM10.2783 23.1279L13.2506 28.9305L13.1511 26.0478L10.2783 23.1279Z" fill="#E27525"/>
<path d="M28.7169 25.984L28.5767 29.5975L32.3025 22.3237L28.7169 25.984Z" fill="#E27525"/>
<path fill-rule="evenodd" clip-rule="evenodd" d="M32.3899 22.202C32.45 22.2454 32.4695 22.3264 32.4356 22.3924L28.7097 29.6662C28.6776 29.7289 28.6063 29.7608 28.5382 29.743C28.4702 29.7251 28.4236 29.6622 28.4264 29.5918L28.5667 25.9783C28.5681 25.941 28.5834 25.9055 28.6095 25.8789L32.1951 22.2186C32.247 22.1656 32.3298 22.1585 32.3899 22.202ZM28.8642 26.0479L28.7525 28.9244L31.7185 23.1342L28.8642 26.0479Z" fill="#E27525"/>
<path d="M18.5836 22.7288L17.7573 27.2925L18.8018 32.6815L19.0357 25.5791L18.5836 22.7288Z" fill="#E27525"/>
<path fill-rule="evenodd" clip-rule="evenodd" d="M18.5854 22.5784C18.6585 22.5792 18.7204 22.6327 18.7319 22.705L19.1839 25.5554C19.1854 25.5648 19.186 25.5744 19.1857 25.5839L18.9518 32.6863C18.9493 32.7627 18.8899 32.8251 18.8138 32.8311C18.7377 32.8372 18.6692 32.785 18.6547 32.71L17.6102 27.321C17.6066 27.3027 17.6065 27.2839 17.6098 27.2655L18.4362 22.7018C18.4492 22.6297 18.5123 22.5776 18.5854 22.5784ZM17.91 27.2914L18.6958 31.3456L18.8854 25.5884L18.574 23.6246L17.91 27.2914Z" fill="#E27525"/>
<path d="M23.4161 22.7288L22.9795 25.5636L23.1978 32.6815L24.2423 27.2925L23.4161 22.7288Z" fill="#E27525"/>
<path fill-rule="evenodd" clip-rule="evenodd" d="M23.4142 22.5784C23.4874 22.5774 23.5507 22.6296 23.5637 22.7018L24.3899 27.2655C24.3933 27.2839 24.3931 27.3027 24.3896 27.321L23.3451 32.71C23.3306 32.7851 23.262 32.8373 23.1858 32.8311C23.1097 32.825 23.0503 32.7625 23.0479 32.686L22.8297 25.5681C22.8294 25.5589 22.8299 25.5497 22.8313 25.5406L23.2679 22.7057C23.2791 22.6332 23.3409 22.5793 23.4142 22.5784ZM23.4281 23.6366L23.1299 25.5727L23.3066 31.3322L24.0897 27.2914L23.4281 23.6366Z" fill="#E27525"/>
<path d="M24.2422 27.2925L23.1978 32.6815L23.9461 33.2112L28.5762 29.5976L28.7164 25.9841L24.2422 27.2925Z" fill="#F5841F"/>
<path fill-rule="evenodd" clip-rule="evenodd" d="M28.8088 25.8658C28.8469 25.8955 28.8683 25.9418 28.8664 25.9901L28.7261 29.6036C28.7244 29.6478 28.7033 29.6891 28.6684 29.7163L24.0384 33.3298C23.9862 33.3705 23.9136 33.3722 23.8596 33.334L23.1113 32.8044C23.0631 32.7703 23.0394 32.711 23.0506 32.653L24.0951 27.264C24.1058 27.2088 24.1464 27.1642 24.2003 27.1484L28.6745 25.84C28.7208 25.8265 28.7708 25.8361 28.8088 25.8658ZM24.3722 27.4112L23.3636 32.615L23.9418 33.0242L28.4291 29.5221L28.5586 26.187L24.3722 27.4112Z" fill="#F5841F"/>
<path d="M13.2988 25.9841L13.4236 29.5976L18.0536 33.2112L18.8019 32.6815L17.7574 27.2925L13.2988 25.9841Z" fill="#F5841F"/>
<path fill-rule="evenodd" clip-rule="evenodd" d="M13.2064 25.8656C13.2445 25.836 13.2944 25.8265 13.3406 25.84L17.7992 27.1484C17.8531 27.1642 17.8936 27.2088 17.9043 27.264L18.9488 32.653C18.96 32.711 18.9363 32.7703 18.8881 32.8044L18.1398 33.334C18.0858 33.3722 18.0132 33.3705 17.961 33.3298L13.331 29.7163C13.296 29.6889 13.2749 29.6474 13.2733 29.6029L13.1485 25.9894C13.1469 25.9412 13.1684 25.8951 13.2064 25.8656ZM13.4555 26.1869L13.5707 29.5224L18.0576 33.0242L18.6358 32.615L17.6272 27.4111L13.4555 26.1869Z" fill="#F5841F"/>
<path d="M24.3362 38.1798L24.3829 36.7001L23.9776 36.3574H18.0225L17.6327 36.7001L17.6639 38.1798L12.6753 35.8123L14.4213 37.2452L17.9601 39.6906H24.0243L27.5787 37.2452L29.3091 35.8123L24.3362 38.1798Z" fill="#C0AC9D"/>
<path fill-rule="evenodd" clip-rule="evenodd" d="M12.5487 35.7318C12.5892 35.6676 12.6711 35.6439 12.7396 35.6764L17.5089 37.9398L17.4829 36.7031C17.4819 36.6588 17.5006 36.6163 17.5339 36.587L17.9236 36.2443C17.951 36.2203 17.9862 36.207 18.0226 36.207H23.9777C24.0131 36.207 24.0474 36.2196 24.0745 36.2424L24.4797 36.5851C24.5147 36.6148 24.5343 36.6588 24.5329 36.7047L24.494 37.9382L29.2448 35.6764C29.3132 35.6439 29.395 35.6675 29.4357 35.7314C29.4764 35.7954 29.4631 35.8796 29.4048 35.9279L27.6641 37.3694L24.1093 39.8143C24.0843 39.8315 24.0547 39.8407 24.0244 39.8407H17.9602C17.9298 39.8407 17.9001 39.8314 17.875 39.8141L14.326 37.3617L12.5803 35.9284C12.5217 35.8803 12.5081 35.7959 12.5487 35.7318ZM13.717 36.4727L14.5117 37.1249L18.0069 39.5402H23.9778L27.4884 37.125L28.2828 36.4671L24.4007 38.3153C24.3534 38.3378 24.2979 38.334 24.2542 38.3054C24.2104 38.2767 24.1847 38.2272 24.1864 38.1749L24.2307 36.7679L23.9229 36.5075H18.0791L17.7843 36.7667L17.814 38.1765C17.8151 38.2285 17.7892 38.2774 17.7456 38.3057C17.7019 38.3341 17.6468 38.3377 17.5998 38.3154L13.717 36.4727Z" fill="#C0AC9D"/>
<path d="M23.946 33.2111L23.1977 32.6816H18.8015L18.0533 33.2111L17.6323 36.7001L18.0221 36.3574H23.9772L24.3826 36.7001L23.946 33.2111Z" fill="#161616"/>
<path fill-rule="evenodd" clip-rule="evenodd" d="M18.715 32.5588C18.7404 32.5409 18.7706 32.5312 18.8016 32.5312H23.1978C23.2288 32.5312 23.259 32.5409 23.2843 32.5588L24.0326 33.0883C24.0671 33.1126 24.0897 33.1504 24.0949 33.1923L24.5315 36.6813C24.5392 36.7427 24.5085 36.8025 24.4542 36.832C24.3999 36.8615 24.3331 36.8547 24.2859 36.8148L23.9225 36.5075H18.0787L17.7314 36.8129C17.6846 36.854 17.6175 36.8619 17.5625 36.8329C17.5074 36.8038 17.476 36.7438 17.4835 36.682L17.9045 33.193C17.9096 33.1508 17.9322 33.1128 17.9668 33.0883L18.715 32.5588ZM18.8492 32.8318L18.1943 33.2952L17.8284 36.3277L17.9232 36.2444C17.9506 36.2203 17.9858 36.207 18.0222 36.207H23.9773C24.0127 36.207 24.047 36.2196 24.0741 36.2425L24.1861 36.3372L23.8055 33.2955L23.1502 32.8318H18.8492Z" fill="#161616"/>
<path d="M39.8474 14.7542L41.1725 8.306L39.177 2.30945L23.9463 13.6017L29.8078 18.5546L38.0858 20.9689L39.9098 18.8351L39.1148 18.2587L40.3774 17.1062L39.4109 16.3585L40.6737 15.3928L39.8474 14.7542Z" fill="#763E1A"/>
<path fill-rule="evenodd" clip-rule="evenodd" d="M39.2223 2.16616C39.2681 2.18065 39.3043 2.21626 39.3194 2.26192L41.3149 8.25847C41.3233 8.28355 41.3249 8.31039 41.3195 8.33628L40.0133 14.6926L40.7654 15.2739C40.8023 15.3024 40.8239 15.3465 40.8238 15.3932C40.8237 15.4399 40.8019 15.4839 40.7648 15.5122L39.6573 16.3592L40.4692 16.9873C40.5043 17.0144 40.5256 17.0557 40.5274 17.1001C40.5292 17.1444 40.5113 17.1873 40.4785 17.2172L39.3522 18.2453L39.9978 18.7133C40.0318 18.7379 40.0539 18.7757 40.0588 18.8173C40.0638 18.859 40.0511 18.9009 40.0238 18.9328L38.1998 21.0666C38.1615 21.1114 38.1005 21.1296 38.0439 21.1131L29.766 18.6989C29.7459 18.693 29.7272 18.683 29.7112 18.6695L23.8497 13.7165C23.8146 13.6869 23.795 13.6428 23.7965 13.5969C23.7979 13.551 23.8203 13.5083 23.8571 13.4809L39.0879 2.18866C39.1265 2.16003 39.1765 2.15166 39.2223 2.16616ZM24.1881 13.6094L29.8803 18.4193L38.0349 20.7975L39.6901 18.8612L39.0269 18.3804C38.9903 18.3539 38.9676 18.3123 38.9651 18.2671C38.9626 18.222 38.9805 18.1781 39.0138 18.1476L40.1444 17.1157L39.3193 16.4774C39.2824 16.4489 39.2609 16.4048 39.261 16.3581C39.2612 16.3114 39.283 16.2674 39.32 16.2391L40.4274 15.3922L39.7558 14.8731C39.7104 14.8381 39.689 14.7801 39.7005 14.7239L41.0176 8.31522L39.1002 2.5534L24.1881 13.6094Z" fill="#763E1A"/>
<path d="M0.827148 8.306L2.16784 14.7542L1.31042 15.3928L2.58875 16.3585L1.62221 17.1062L2.88494 18.2587L2.08988 18.8351L3.91385 20.9689L12.1919 18.5546L18.0534 13.6017L2.82259 2.30945L0.827148 8.306Z" fill="#763E1A"/>
<path fill-rule="evenodd" clip-rule="evenodd" d="M2.77751 2.16616C2.82333 2.15166 2.87331 2.16003 2.91193 2.18866L18.1427 13.4809C18.1796 13.5083 18.202 13.551 18.2034 13.5969C18.2049 13.6428 18.1853 13.6869 18.1502 13.7165L12.2887 18.6695C12.2727 18.683 12.254 18.693 12.2339 18.6989L3.95588 21.1131C3.8993 21.1296 3.83833 21.1114 3.80001 21.0666L1.97604 18.9328C1.94879 18.9009 1.93609 18.859 1.94103 18.8173C1.94597 18.7757 1.96809 18.7379 2.00204 18.7133L2.64766 18.2453L1.52128 17.2172C1.48851 17.1873 1.47063 17.1444 1.47243 17.1001C1.47423 17.0557 1.49554 17.0144 1.53063 16.9873L2.3416 16.3599L1.2202 15.5128C1.18248 15.4843 1.16036 15.4396 1.16052 15.3923C1.16068 15.345 1.1831 15.3005 1.22102 15.2722L2.00155 14.6909L0.680397 8.33662C0.674992 8.31063 0.676561 8.28366 0.684943 8.25847L2.68039 2.26192C2.69558 2.21626 2.73169 2.18065 2.77751 2.16616ZM2.89962 2.5534L0.982347 8.31504L2.31478 14.7236C2.32669 14.7808 2.30432 14.8398 2.25744 14.8748L1.56076 15.3937L2.67917 16.2386C2.71651 16.2668 2.73858 16.3108 2.73884 16.3577C2.73911 16.4045 2.71755 16.4488 2.68053 16.4774L1.85543 17.1157L2.98607 18.1476C3.01944 18.1781 3.03734 18.222 3.0348 18.2671C3.03227 18.3123 3.00956 18.3539 2.97299 18.3804L2.30979 18.8612L3.96494 20.7975L12.1195 18.4193L17.8117 13.6094L2.89962 2.5534Z" fill="#763E1A"/>
<path d="M38.0862 20.9688L29.8082 18.5547L32.3025 22.324L28.5767 29.5976L33.5029 29.5354H40.8611L38.0862 20.9688Z" fill="#F5841F"/>
<path fill-rule="evenodd" clip-rule="evenodd" d="M29.687 18.4655C29.7243 18.4147 29.7893 18.3927 29.8498 18.4103L38.1277 20.8244C38.1754 20.8383 38.2131 20.875 38.2285 20.9223L41.0033 29.4889C41.0182 29.5346 41.0102 29.5847 40.982 29.6236C40.9538 29.6625 40.9087 29.6855 40.8607 29.6855H33.5035L28.5782 29.7478C28.5256 29.7484 28.4765 29.7214 28.4488 29.6767C28.4211 29.6319 28.4188 29.5758 28.4428 29.5289L32.1286 22.3335L29.6828 18.6376C29.648 18.585 29.6497 18.5163 29.687 18.4655ZM30.1591 18.8135L32.4272 22.2408C32.4571 22.2861 32.4604 22.3441 32.4356 22.3924L28.8234 29.4441L33.5025 29.385L40.6543 29.385L37.9676 21.0907L30.1591 18.8135Z" fill="#F5841F"/>
<path d="M12.1915 18.5547L3.91361 20.9688L1.1543 29.5354H8.49689L13.4231 29.5976L9.69728 22.324L12.1915 18.5547Z" fill="#F5841F"/>
<path fill-rule="evenodd" clip-rule="evenodd" d="M12.3124 18.4655C12.3497 18.5163 12.3514 18.585 12.3167 18.6376L9.87093 22.3335L13.5566 29.5289C13.5807 29.5758 13.5784 29.6319 13.5507 29.6767C13.523 29.7214 13.4739 29.7484 13.4213 29.7478L8.49699 29.6855H1.1544C1.10643 29.6855 1.06136 29.6625 1.03313 29.6237C1.0049 29.5849 0.996915 29.5348 1.01164 29.4891L3.77096 20.9226C3.78624 20.8751 3.82401 20.8384 3.87178 20.8244L12.1497 18.4103C12.2101 18.3927 12.2751 18.4147 12.3124 18.4655ZM4.03203 21.0907L1.36041 29.385H8.49889L13.176 29.4441L9.56392 22.3924C9.53916 22.3441 9.54238 22.2861 9.57235 22.2408L11.8403 18.8135L4.03203 21.0907Z" fill="#F5841F"/>
<path d="M23.4164 22.7289L23.9464 13.6016L26.3471 7.10669H15.6528L18.0536 13.6016L18.5836 22.7289L18.7863 25.5948L18.8019 32.6816H23.1981L23.2137 25.5948L23.4164 22.7289Z" fill="#F5841F"/>
<path fill-rule="evenodd" clip-rule="evenodd" d="M15.5293 7.02083C15.5574 6.98048 15.6034 6.95642 15.6524 6.95642H26.3467C26.3958 6.95642 26.4418 6.98048 26.4698 7.02083C26.4979 7.06119 26.5044 7.11273 26.4874 7.15884L24.0944 13.6327L23.5656 22.7395L23.3633 25.6002L23.3477 32.6819C23.3475 32.7648 23.2804 32.8319 23.1977 32.8319H18.8015C18.7188 32.8319 18.6517 32.7648 18.6515 32.6819L18.6359 25.6002L18.4336 22.7395L18.4335 22.7376L17.9047 13.6327L15.5118 7.15884C15.4947 7.11273 15.5013 7.06119 15.5293 7.02083ZM15.8679 7.25693L18.1938 13.5494C18.199 13.5634 18.202 13.578 18.2029 13.5929L18.7328 22.7183L18.7329 22.7202L18.9362 25.5944L18.9512 32.5314H23.048L23.0633 25.5841L23.2662 22.7202L23.2663 22.7183L23.7963 13.5929C23.7971 13.578 23.8002 13.5634 23.8053 13.5494L26.1312 7.25693H15.8679Z" fill="#F5841F"/>
</svg>
