<svg width="16" height="16" viewBox="0 0 16 16" fill="none" xmlns="http://www.w3.org/2000/svg">
<path d="M8.66679 7.83329C8.54012 7.83329 8.41346 7.78662 8.31346 7.68662C8.12012 7.49329 8.12012 7.17329 8.31346 6.97995L13.7801 1.51329C13.9735 1.31995 14.2935 1.31995 14.4868 1.51329C14.6801 1.70662 14.6801 2.02662 14.4868 2.21995L9.02012 7.68662C8.92012 7.78662 8.79346 7.83329 8.66679 7.83329Z" fill="#9945FF"/>
<path d="M14.6668 5.03337C14.3935 5.03337 14.1668 4.80671 14.1668 4.53337V1.83337H11.4668C11.1935 1.83337 10.9668 1.60671 10.9668 1.33337C10.9668 1.06004 11.1935 0.833374 11.4668 0.833374H14.6668C14.9401 0.833374 15.1668 1.06004 15.1668 1.33337V4.53337C15.1668 4.80671 14.9401 5.03337 14.6668 5.03337Z" fill="#9945FF"/>
<path d="M10.0002 15.1667H6.00016C2.38016 15.1667 0.833496 13.62 0.833496 10V6.00004C0.833496 2.38004 2.38016 0.833374 6.00016 0.833374H7.3335C7.60683 0.833374 7.8335 1.06004 7.8335 1.33337C7.8335 1.60671 7.60683 1.83337 7.3335 1.83337H6.00016C2.92683 1.83337 1.8335 2.92671 1.8335 6.00004V10C1.8335 13.0734 2.92683 14.1667 6.00016 14.1667H10.0002C13.0735 14.1667 14.1668 13.0734 14.1668 10V8.66671C14.1668 8.39337 14.3935 8.16671 14.6668 8.16671C14.9402 8.16671 15.1668 8.39337 15.1668 8.66671V10C15.1668 13.62 13.6202 15.1667 10.0002 15.1667Z" fill="#9945FF"/>
</svg>
