<svg width="14" height="14" viewBox="0 0 14 14" fill="none" xmlns="http://www.w3.org/2000/svg">
    <g clip-path="url(#clip0_49_114)">
        <path d="M13.8293 1.58672C13.8183 1.5361 13.794 1.48932 13.759 1.45115C13.724 1.41298 13.6795 1.38478 13.63 1.36943C13.45 1.33391 13.2637 1.34723 13.0905 1.408C13.0905 1.408 1.0746 5.72672 0.388457 6.205C0.240172 6.30786 0.190886 6.36743 0.166457 6.43814C0.0477432 6.77843 0.417172 6.92843 0.417172 6.92843L3.51403 7.93771C3.56634 7.94676 3.62004 7.94353 3.67089 7.92829C4.37546 7.48343 10.759 3.45229 11.128 3.31686C11.1859 3.29929 11.2287 3.31686 11.2193 3.35972C11.0685 3.87657 5.55574 8.77557 5.52531 8.80557C5.51052 8.81771 5.4989 8.83325 5.49143 8.85087C5.48397 8.86848 5.48089 8.88765 5.48246 8.90671L5.19446 11.9286C5.19446 11.9286 5.0736 12.8714 6.01474 11.9286C6.68203 11.2604 7.32231 10.7076 7.64331 10.4389C8.70831 11.1739 9.85431 11.9869 10.3485 12.4103C10.4314 12.4908 10.5297 12.5538 10.6375 12.5955C10.7453 12.6372 10.8604 12.6567 10.9759 12.6529C11.4473 12.6349 11.5759 12.1193 11.5759 12.1193C11.5759 12.1193 13.765 3.31 13.8387 2.12929C13.8456 2.01357 13.8555 1.93943 13.8563 1.86014C13.8602 1.76819 13.8511 1.67614 13.8293 1.58672Z"
              fill="#fff"/>
    </g>
    <defs>
        <clipPath id="clip0_49_114">
            <rect width="13.7143" height="13.7143" fill="white" transform="translate(0.142883 0.142853)"/>
        </clipPath>
    </defs>
</svg>
