<svg width="14" height="14" viewBox="0 0 14 14" fill="none" xmlns="http://www.w3.org/2000/svg">
    <g clip-path="url(#clip0_49_100)">
        <path d="M13.8572 2.75736C13.343 2.97164 12.8287 3.14307 12.2287 3.18593C12.8287 2.84307 13.2572 2.28593 13.4715 1.64307C12.9144 1.98593 12.3144 2.20022 11.6715 2.32879C11.1572 1.77164 10.4287 1.42879 9.65724 1.42879C8.11438 1.42879 6.82867 2.67164 6.82867 4.25736C6.82867 4.47164 6.87153 4.68593 6.91438 4.90022C4.55724 4.77164 2.5001 3.65736 1.08581 1.94307C0.828669 2.37164 0.700098 2.84307 0.700098 3.35736C0.700098 4.34307 1.21438 5.20022 1.94295 5.7145C1.47153 5.7145 1.04295 5.58593 0.657241 5.37164V5.4145C0.657241 6.78593 1.64295 7.90022 2.92867 8.15736C2.67153 8.20022 2.45724 8.24307 2.2001 8.24307C2.02867 8.24307 1.85724 8.24307 1.68581 8.20022C2.02867 9.3145 3.1001 10.1288 4.3001 10.1716C3.35724 10.9431 2.11438 11.3716 0.785812 11.3716C0.571526 11.3716 0.314383 11.3716 0.100098 11.3288C1.38581 12.1002 2.88581 12.5716 4.47153 12.5716C9.65724 12.5716 12.4858 8.28593 12.4858 4.55736C12.4858 4.42879 12.4858 4.30022 12.4858 4.2145C13.0001 3.78593 13.4715 3.3145 13.8572 2.75736Z"
              fill="#fff"/>
    </g>
    <defs>
        <clipPath id="clip0_49_100">
            <rect width="13.7143" height="13.7143" fill="white" transform="translate(0.142883 0.142853)"/>
        </clipPath>
    </defs>
</svg>
