<svg width="20" height="14" viewBox="0 0 20 14" fill="none" xmlns="http://www.w3.org/2000/svg">
    <g clip-path="url(#clip0_6237_8092)">
        <path fill-rule="evenodd" clip-rule="evenodd"
              d="M6 6.50001C6 4.29201 7.793 2.50001 10 2.50001C12.208 2.50001 14 4.29201 14 6.50001C14 8.70801 12.208 10.5 10 10.5C7.793 10.5 6 8.70801 6 6.50001ZM0 6.50001L2.92999 3.49801C6.83199 -0.499988 13.168 -0.499988 17.07 3.49801L20 6.50001L17.07 9.50201C13.168 13.5 6.83199 13.5 2.92999 9.50201L0 6.50001ZM10.586 4.60301C10.406 4.53101 10.207 4.50001 10 4.50001C8.896 4.50001 8 5.39601 8 6.50001C8 7.60401 8.896 8.50001 10 8.50001C11.104 8.50001 12 7.60401 12 6.50001C12 6.29401 11.969 6.095 11.897 5.915C11.749 6.262 11.402 6.50001 11 6.50001C10.448 6.50001 10 6.05201 10 5.50001C10 5.09801 10.238 4.75101 10.586 4.60301Z"
              fill="white"/>
    </g>
    <defs>
        <clipPath id="clip0_6237_8092">
            <rect width="20" height="13" fill="white" transform="translate(0 0.5)"/>
        </clipPath>
    </defs>
</svg>
