<svg width="28" height="28" viewBox="0 0 28 28" fill="none" xmlns="http://www.w3.org/2000/svg">
<path d="M23.898 23.3333C23.6767 23.3331 23.4601 23.27 23.2734 23.1513C23.0866 23.0327 22.9375 22.8634 22.8433 22.6632C22.7491 22.463 22.7138 22.2401 22.7415 22.0206C22.7692 21.8011 22.8587 21.594 22.9997 21.4234C24.7126 19.3286 25.6483 16.7059 25.6483 13.9999C25.6483 11.294 24.7126 8.67124 22.9997 6.57642C22.9021 6.45822 22.8287 6.32196 22.7838 6.17541C22.7388 6.02886 22.7232 5.87489 22.7378 5.7223C22.7524 5.56971 22.7968 5.42149 22.8687 5.28609C22.9406 5.15069 23.0384 5.03077 23.1566 4.93317C23.3953 4.73607 23.7025 4.64188 24.0107 4.6713C24.3189 4.70073 24.6027 4.85137 24.7998 5.09009C26.855 7.60465 27.9777 10.7524 27.9777 13.9999C27.9777 17.2475 26.855 20.3952 24.7998 22.9098C24.6901 23.0425 24.5523 23.1494 24.3964 23.2226C24.2405 23.2958 24.0703 23.3336 23.898 23.3333ZM4.84282 23.0661C4.96105 22.9686 5.0589 22.8488 5.1308 22.7134C5.2027 22.5781 5.24724 22.4299 5.26186 22.2774C5.27649 22.1248 5.26092 21.9709 5.21605 21.8244C5.17117 21.6779 5.09787 21.5416 5.00032 21.4234C3.28742 19.3286 2.35165 16.7059 2.35165 13.9999C2.35165 11.294 3.28742 8.67124 5.00032 6.57642C5.09792 6.4583 5.17129 6.32211 5.21625 6.17563C5.26121 6.02915 5.27688 5.87525 5.26236 5.72271C5.24785 5.57018 5.20343 5.422 5.13164 5.28663C5.05986 5.15126 4.96211 5.03135 4.84399 4.93376C4.72587 4.83616 4.58968 4.76279 4.4432 4.71783C4.29672 4.67287 4.14282 4.6572 3.99028 4.67172C3.83774 4.68623 3.68956 4.73065 3.55419 4.80244C3.41882 4.87422 3.29892 4.97197 3.20132 5.09009C1.14554 7.60437 0.0224609 10.7522 0.0224609 13.9999C0.0224609 17.2477 1.14554 20.3955 3.20132 22.9098C3.39838 23.148 3.68194 23.2983 3.98972 23.3276C4.29751 23.3569 4.60434 23.2629 4.84282 23.0661ZM23.3333 13.9999C23.3305 16.4744 22.3463 18.8468 20.5966 20.5965C18.8468 22.3463 16.4745 23.3305 14 23.3333C1.64732 22.8946 1.65082 5.10292 14 4.66659C16.4745 4.66937 18.8468 5.65359 20.5966 7.40333C22.3463 9.15307 23.3305 11.5254 23.3333 13.9999ZM15.1667 18.6666C15.1667 18.3572 15.0437 18.0604 14.8249 17.8416C14.6062 17.6228 14.3094 17.4999 14 17.4999C13.6906 17.4999 13.3938 17.6228 13.175 17.8416C12.9562 18.0604 12.8333 18.3572 12.8333 18.6666C12.8333 18.976 12.9562 19.2728 13.175 19.4916C13.3938 19.7103 13.6906 19.8333 14 19.8333C14.3094 19.8333 14.6062 19.7103 14.8249 19.4916C15.0437 19.2728 15.1667 18.976 15.1667 18.6666ZM15.1667 9.33326C15.1667 9.02384 15.0437 8.72709 14.8249 8.5083C14.6062 8.28951 14.3094 8.16659 14 8.16659C13.6906 8.16659 13.3938 8.28951 13.175 8.5083C12.9562 8.72709 12.8333 9.02384 12.8333 9.33326V13.9999C12.8333 14.3093 12.9562 14.6061 13.175 14.8249C13.3938 15.0437 13.6906 15.1666 14 15.1666C14.3094 15.1666 14.6062 15.0437 14.8249 14.8249C15.0437 14.6061 15.1667 14.3093 15.1667 13.9999V9.33326Z" fill="white"/>
</svg>
