<svg width="28" height="28" viewBox="0 0 28 28" fill="none" xmlns="http://www.w3.org/2000/svg">
<g clip-path="url(#clip0_6237_8186)">
<path d="M21.07 2.95761C18.9669 1.58865 16.5093 0.864764 14 0.875109C10.5194 0.876362 7.18174 2.25957 4.7206 4.72072C2.25945 7.18186 0.876241 10.5195 0.874989 14.0001C0.864571 16.5095 1.58847 18.9671 2.95749 21.0701C3.96264 22.6789 5.3212 24.0375 6.92999 25.0426C9.03315 26.4114 11.4907 27.1353 14 27.1251C17.4806 27.1239 20.8182 25.7406 23.2794 23.2795C25.7405 20.8184 27.1237 17.4807 27.125 14.0001C27.1329 11.4911 26.4092 9.0342 25.0425 6.93011C24.0325 5.3252 22.6749 3.96763 21.07 2.95761ZM7.55999 17.6051C7.50688 17.608 7.45366 17.6021 7.40249 17.5876C7.2613 17.5624 7.12844 17.5029 7.01556 17.4145C6.90268 17.326 6.81321 17.2112 6.75499 17.0801C6.33364 16.1083 6.11909 15.0594 6.12499 14.0001C6.12814 11.9125 6.95883 9.91129 8.435 8.43512C9.91117 6.95895 11.9124 6.12826 14 6.12511C15.0592 6.11939 16.1081 6.33393 17.08 6.75511C17.2095 6.8156 17.3229 6.90574 17.4111 7.01823C17.4993 7.13073 17.5597 7.26241 17.5875 7.40261C17.6149 7.5412 17.6068 7.68447 17.564 7.8191C17.5211 7.95373 17.4449 8.07533 17.3425 8.17261L8.17249 17.3426C8.09443 17.4268 7.99959 17.4936 7.89408 17.5388C7.78858 17.5841 7.67476 17.6066 7.55999 17.6051ZM14 21.8751C12.9469 21.876 11.9047 21.6616 10.9375 21.2451C10.808 21.1846 10.6946 21.0945 10.6064 20.982C10.5182 20.8695 10.4578 20.7378 10.43 20.5976C10.4026 20.459 10.4107 20.3157 10.4535 20.1811C10.4963 20.0465 10.5725 19.9249 10.675 19.8276L19.8275 10.6751C19.9248 10.5727 20.0464 10.4965 20.181 10.4536C20.3156 10.4108 20.4589 10.4027 20.5975 10.4301C20.7377 10.4579 20.8694 10.5183 20.9819 10.6065C21.0944 10.6947 21.1845 10.8081 21.245 10.9376C21.6615 11.9048 21.8759 12.947 21.875 14.0001C21.8718 16.0877 21.0411 18.0889 19.565 19.5651C18.0888 21.0413 16.0876 21.872 14 21.8751Z" fill="white"/>
</g>
<defs>
<clipPath id="clip0_6237_8186">
<rect width="28" height="28" fill="white"/>
</clipPath>
</defs>
</svg>
