<svg width="28" height="28" viewBox="0 0 28 28" fill="none" xmlns="http://www.w3.org/2000/svg">
<g clip-path="url(#clip0_6237_8045)">
<path d="M18.55 22.05C23.1875 22.225 27.2125 20.3 27.0375 18.9875V17.0625C24.5875 18.4625 21.7875 19.1625 18.9875 18.9875C19.075 20.0375 18.9 21.0875 18.55 22.05Z" fill="white"/>
<path d="M0.875 19.075C0.875 23.5375 4.4625 27.125 8.925 27.125C13.65 27.2125 17.5875 22.925 17.0625 18.2875C16.625 14.35 13.3 10.9375 9.1875 11.1125C4.55 11.025 0.875 14.6125 0.875 19.075ZM9.975 14V14.175C11.2 14.6125 11.9875 15.75 11.9875 16.975C12.075 17.5 11.6375 18.025 11.1125 18.1125C10.5875 18.2 10.0625 17.7625 9.975 17.2375C9.975 17.15 9.975 17.15 9.975 17.0625C9.975 16.5375 9.5375 16.1 8.925 16.1C8.4 16.1 7.9625 16.5375 7.9625 17.15C7.9625 17.675 8.4 18.1125 8.925 18.1125C10.5875 18.1125 11.9875 19.425 11.9875 21.0875C11.9875 22.4 11.2 23.5375 9.975 23.975V24.15C9.975 24.675 9.5375 25.1125 9.0125 25.1125C8.4875 25.1125 7.9625 24.675 7.9625 24.15V23.975C6.7375 23.5375 5.95 22.4 5.95 21.175C5.8625 20.65 6.3 20.125 6.825 20.0375C7.35 19.95 7.875 20.3875 7.9625 20.9125V21.0875C7.9625 21.6125 8.4 22.05 9.0125 22.05C9.5375 22.05 9.975 21.6125 9.975 21C9.975 20.475 9.5375 20.0375 9.0125 20.0375C7.35 20.0375 5.95 18.725 5.95 17.0625C5.95 15.75 6.7375 14.6125 7.9625 14.175V14C7.9625 13.475 8.4 13.0375 9.0125 13.0375C9.5375 12.95 9.975 13.475 9.975 14Z" fill="white"/>
<path d="M17.5875 13.9125C18.1125 14.875 18.55 15.925 18.8125 16.975C23.5375 17.0625 27.2125 15.225 27.125 13.9125V11.9875C24.2375 13.65 20.825 14.175 17.5875 13.9125Z" fill="white"/>
<path d="M17.675 24.0625C17.0625 25.1125 16.275 25.9875 15.4 26.775C18.9875 28 27.475 26.1625 27.0375 24.0625V22.1375C24.15 23.8 20.9125 24.2375 17.675 24.0625Z" fill="white"/>
<path d="M11.2 9.1875C12.95 9.45 14.525 10.4125 15.8375 11.6375C19.425 12.6875 27.65 10.85 27.125 8.8375V7C23.625 9.5375 14.4375 9.5375 10.9375 7V8.925C10.9375 9.1875 11.025 9.1875 11.2 9.1875Z" fill="white"/>
<path d="M19.075 7C23.5209 7 27.125 5.62887 27.125 3.9375C27.125 2.24613 23.5209 0.875 19.075 0.875C14.6291 0.875 11.025 2.24613 11.025 3.9375C11.025 5.62887 14.6291 7 19.075 7Z" fill="white"/>
</g>
<defs>
<clipPath id="clip0_6237_8045">
<rect width="28" height="28" fill="white"/>
</clipPath>
</defs>
</svg>
