<svg width="28" height="28" viewBox="0 0 28 28" fill="none" xmlns="http://www.w3.org/2000/svg">
<path d="M2.625 22.75C2.62542 23.9102 3.08649 25.0228 3.90687 25.8432C4.72725 26.6635 5.83981 27.1246 7 27.125H21C22.1602 27.1246 23.2728 26.6635 24.0931 25.8432C24.9135 25.0228 25.3746 23.9102 25.375 22.75V10.2025C25.3772 9.62745 25.2654 9.05763 25.0461 8.52599C24.8268 7.99434 24.5044 7.51139 24.0975 7.10503L19.145 2.15253C18.7386 1.7456 18.2557 1.42319 17.724 1.20392C17.1924 0.984654 16.6226 0.872873 16.0475 0.875031H7C5.83981 0.875448 4.72725 1.33652 3.90687 2.1569C3.08649 2.97728 2.62542 4.08984 2.625 5.25003V22.75ZM8.75 13.125H19.25C19.4821 13.125 19.7046 13.2172 19.8687 13.3813C20.0328 13.5454 20.125 13.768 20.125 14C20.125 14.2321 20.0328 14.4547 19.8687 14.6187C19.7046 14.7828 19.4821 14.875 19.25 14.875H8.75C8.51794 14.875 8.29538 14.7828 8.13128 14.6187C7.96719 14.4547 7.875 14.2321 7.875 14C7.875 13.768 7.96719 13.5454 8.13128 13.3813C8.29538 13.2172 8.51794 13.125 8.75 13.125ZM8.75 18.375H14C14.2321 18.375 14.4546 18.4672 14.6187 18.6313C14.7828 18.7954 14.875 19.018 14.875 19.25C14.875 19.4821 14.7828 19.7047 14.6187 19.8687C14.4546 20.0328 14.2321 20.125 14 20.125H8.75C8.51794 20.125 8.29538 20.0328 8.13128 19.8687C7.96719 19.7047 7.875 19.4821 7.875 19.25C7.875 19.018 7.96719 18.7954 8.13128 18.6313C8.29538 18.4672 8.51794 18.375 8.75 18.375Z" fill="white"/>
</svg>
