<svg width="28" height="28" viewBox="0 0 28 28" fill="none" xmlns="http://www.w3.org/2000/svg">
<g clip-path="url(#clip0_6237_8176)">
<path d="M13.8004 13.4877C15.6534 13.4877 17.2579 12.8231 18.5689 11.5119C19.8799 10.2009 20.5445 8.5968 20.5445 6.74363C20.5445 4.89109 19.8799 3.28679 18.5687 1.97536C17.2575 0.664579 15.6532 0 13.8004 0C11.9473 0 10.3432 0.664579 9.03219 1.97558C7.72119 3.28658 7.0564 4.89088 7.0564 6.74363C7.0564 8.5968 7.72119 10.2011 9.0324 11.5121C10.3436 12.8229 11.9479 13.4877 13.8004 13.4877Z" fill="white"/>
<path d="M25.6007 21.5306C25.5629 20.985 25.4864 20.3899 25.3738 19.7614C25.2602 19.1282 25.1139 18.5297 24.9387 17.9826C24.7578 17.4171 24.5117 16.8587 24.2075 16.3236C23.8917 15.7682 23.5209 15.2845 23.1047 14.8866C22.6696 14.4702 22.1368 14.1355 21.5207 13.8913C20.9068 13.6484 20.2264 13.5254 19.4986 13.5254C19.2128 13.5254 18.9363 13.6426 18.4025 13.9902C18.0739 14.2045 17.6896 14.4523 17.2607 14.7263C16.8939 14.96 16.397 15.179 15.7833 15.3773C15.1845 15.571 14.5765 15.6693 13.9765 15.6693C13.3764 15.6693 12.7686 15.571 12.1692 15.3773C11.5561 15.1792 11.0592 14.9603 10.6929 14.7266C10.268 14.455 9.88345 14.2072 9.54999 13.99C9.01679 13.6424 8.74015 13.5251 8.45432 13.5251C7.7263 13.5251 7.04612 13.6484 6.43239 13.8915C5.81673 14.1353 5.28374 14.47 4.84817 14.8868C4.43224 15.285 4.06118 15.7684 3.74587 16.3236C3.44189 16.8587 3.1958 17.4169 3.01465 17.9828C2.83969 18.5299 2.69336 19.1282 2.57971 19.7614C2.46713 20.389 2.39066 20.9844 2.35284 21.5313C2.31567 22.067 2.29688 22.6231 2.29688 23.1847C2.29688 24.6463 2.7615 25.8296 3.67773 26.7022C4.58263 27.5633 5.77998 28.0002 7.23603 28.0002H20.7182C22.1742 28.0002 23.3711 27.5635 24.2762 26.7022C25.1927 25.8302 25.6573 24.6467 25.6573 23.1845C25.6571 22.6203 25.6381 22.0638 25.6007 21.5306Z" fill="white"/>
</g>
<defs>
<clipPath id="clip0_6237_8176">
<rect width="27.9999" height="28" fill="white"/>
</clipPath>
</defs>
</svg>
