<svg width="60" height="60" viewBox="0 0 60 60" fill="none" xmlns="http://www.w3.org/2000/svg">
<g clip-path="url(#clip0_2056_2253)">
<path d="M30 60C46.5686 60 60 46.5686 60 30C60 13.4314 46.5686 0 30 0C13.4314 0 0 13.4314 0 30C0 46.5686 13.4314 60 30 60Z" fill="black"/>
<path d="M43.2012 22.0737H38.9621C38.4783 22.0737 37.9945 21.8698 37.6502 21.4947L35.9282 19.5785C35.4117 19.0322 34.5835 18.9588 34.0014 19.4725C33.9686 19.5051 33.9358 19.5377 33.8948 19.5785L32.4107 21.2256C31.9269 21.772 31.2381 22.0818 30.5166 22.0818H7.27092C6.61496 23.998 6.17219 25.9876 6 28.0098H27.9337C28.3109 28.0098 28.6881 27.8386 28.9669 27.5614L31.0003 25.4413C31.2381 25.1641 31.6153 25.0336 31.9597 25.0336H32.0253C32.4025 25.0336 32.7796 25.2048 33.0584 25.4821L34.7803 27.3983C35.0919 27.7734 35.5757 27.9772 36.0922 27.9772H54C53.8278 25.955 53.4178 23.9736 52.7291 22.0492H43.193V22.0737H43.2012ZM19.3078 40.4285C19.685 40.4285 20.0622 40.2573 20.341 39.98L22.3744 37.86C22.6122 37.5827 22.9976 37.4523 23.342 37.4523H23.4486C23.8258 37.4523 24.2029 37.6235 24.4817 37.9008L26.2036 39.817C26.548 40.1921 26.999 40.3959 27.5155 40.3959H51.7779C52.7045 38.5123 53.3604 36.4901 53.7786 34.4353H30.4674C29.9836 34.4353 29.4998 34.2314 29.1964 33.8563L27.4745 31.9401C27.2368 31.6629 26.8514 31.4916 26.4414 31.4916C26.0642 31.4916 25.6871 31.6629 25.4411 31.9401L23.9569 33.5872C23.4732 34.1336 22.7844 34.4434 22.0301 34.4434H6.39358C6.77076 36.4983 7.45952 38.5205 8.35327 40.4367H19.3078V40.4285ZM36.5186 15.5993C36.8958 15.5993 37.273 15.4281 37.5518 15.1508L39.5852 13.0308C39.823 12.7535 40.2084 12.6231 40.5528 12.6231H40.6594C41.0366 12.6231 41.4137 12.7943 41.6597 13.0715L43.3816 14.9878C43.726 15.3628 44.177 15.5667 44.6853 15.5667H49.3017C41.3153 4.98268 26.2282 2.86262 15.5934 10.8047C13.7731 12.1746 12.1496 13.7483 10.8049 15.5667H36.5268L36.5186 15.5993ZM27.2286 46.3484H20.9231C20.4394 46.3484 19.9556 46.1445 19.6522 45.7695L17.9303 43.8532C17.4137 43.3069 16.5528 43.2335 16.0034 43.7472C15.9706 43.7799 15.9378 43.8125 15.8968 43.8532L14.4127 45.533C13.9289 46.0793 13.2402 46.3892 12.5186 46.3892H12.412C21.4643 56.0436 36.7236 56.5899 46.4318 47.5878C46.8418 47.2127 47.26 46.7969 47.6372 46.3892L27.2286 46.3484Z" fill="white"/>
</g>
<defs>
<clipPath id="clip0_2056_2253">
<rect width="60" height="60" fill="white"/>
</clipPath>
</defs>
</svg>
