<svg width="61" height="60" viewBox="0 0 61 60" fill="none" xmlns="http://www.w3.org/2000/svg">
<g clip-path="url(#clip0_4002_397)">
<path d="M5.92398 18.24V41.76C5.92398 43.272 6.71598 44.64 8.03598 45.408L28.412 57.168C29.708 57.912 31.316 57.912 32.612 57.168L52.988 45.408C54.284 44.664 55.1 43.272 55.1 41.76V18.24C55.1 16.728 54.308 15.36 52.988 14.592L32.612 2.83205C31.316 2.08805 29.708 2.08805 28.412 2.83205L8.03598 14.592C6.73998 15.336 5.94798 16.728 5.94798 18.24H5.92398Z" fill="#213147"/>
<path d="M34.94 34.56L32.036 42.528C31.964 42.744 31.964 42.984 32.036 43.224L37.028 56.928L42.812 53.592L35.876 34.56C35.708 34.128 35.108 34.128 34.94 34.56Z" fill="#12AAFF"/>
<path d="M40.772 21.168C40.604 20.736 40.004 20.736 39.836 21.168L36.932 29.136C36.86 29.352 36.86 29.592 36.932 29.832L45.116 52.272L50.9 48.936L40.772 21.192V21.168Z" fill="#12AAFF"/>
<path d="M30.5 3.72C30.644 3.72 30.788 3.768 30.908 3.84L52.94 16.56C53.204 16.704 53.348 16.992 53.348 17.28V42.72C53.348 43.008 53.18 43.296 52.94 43.44L30.908 56.16C30.788 56.232 30.644 56.28 30.5 56.28C30.356 56.28 30.212 56.232 30.092 56.16L8.05999 43.44C7.79599 43.296 7.65199 43.008 7.65199 42.72V17.256C7.65199 16.968 7.81999 16.68 8.05999 16.536L30.092 3.816C30.212 3.744 30.356 3.696 30.5 3.696V3.72ZM30.5 0C29.708 0 28.94 0.192 28.22 0.6L6.18799 13.32C4.77199 14.136 3.90799 15.624 3.90799 17.256V42.696C3.90799 44.328 4.77199 45.816 6.18799 46.632L28.22 59.352C28.916 59.76 29.708 59.952 30.5 59.952C31.292 59.952 32.06 59.76 32.78 59.352L54.812 46.632C56.228 45.816 57.092 44.328 57.092 42.696V17.256C57.092 15.624 56.228 14.136 54.812 13.32L32.756 0.6C32.06 0.192 31.268 0 30.476 0H30.5Z" fill="#9DCCED"/>
<path d="M15.908 52.296L17.948 46.728L22.028 50.112L18.212 53.616L15.908 52.296Z" fill="#213147"/>
<path d="M28.628 15.456H23.036C22.628 15.456 22.244 15.72 22.1 16.104L10.124 48.936L15.908 52.272L29.108 16.104C29.228 15.768 28.988 15.432 28.652 15.432L28.628 15.456Z" fill="white"/>
<path d="M38.42 15.456H32.828C32.42 15.456 32.036 15.72 31.892 16.104L18.212 53.592L23.996 56.928L38.876 16.104C38.996 15.768 38.756 15.432 38.42 15.432V15.456Z" fill="white"/>
</g>
<defs>
<clipPath id="clip0_4002_397">
<rect width="60" height="60" fill="white" transform="translate(0.5)"/>
</clipPath>
</defs>
</svg>
