<svg width="61" height="60" viewBox="0 0 61 60" fill="none" xmlns="http://www.w3.org/2000/svg">
<g clip-path="url(#clip0_4002_344)">
<path d="M49.0152 10.2662H11.9446V43.9813H49.0152V10.2662Z" fill="white"/>
<path fill-rule="evenodd" clip-rule="evenodd" d="M60.5 30C60.5 46.5687 47.0687 60 30.5 60C13.9315 60 0.5 46.5687 0.5 30C0.5 13.4315 13.9315 0 30.5 0C47.0687 0 60.5 13.4315 60.5 30ZM21.9989 41.9385H16.1767C14.9533 41.9385 14.349 41.9385 13.9805 41.7028C13.5825 41.4447 13.3393 41.0173 13.3098 40.5455C13.2877 40.1109 13.5899 39.5801 14.1942 38.5188L28.5699 13.1798C29.1816 12.1038 29.4911 11.5658 29.8817 11.3668C30.3017 11.1531 30.8029 11.1531 31.223 11.3668C31.6136 11.5658 31.9231 12.1038 32.5348 13.1798L35.4901 18.3387L35.5052 18.365C36.1659 19.5194 36.5009 20.1048 36.6472 20.7191C36.8093 21.3898 36.8093 22.0973 36.6472 22.768C36.4998 23.387 36.1682 23.9766 35.4975 25.1484L27.9463 38.4968L27.9268 38.5309C27.2618 39.6948 26.9247 40.2847 26.4576 40.7297C25.9491 41.2162 25.3374 41.5698 24.6667 41.7691C24.055 41.9385 23.3697 41.9385 21.9989 41.9385ZM36.7017 41.9385H45.0442C46.275 41.9385 46.8941 41.9385 47.2629 41.6956C47.6607 41.4376 47.9112 41.0025 47.9336 40.5312C47.9547 40.1105 47.6591 39.6004 47.0799 38.6008C47.0599 38.5668 47.0399 38.5321 47.0196 38.4969L42.8407 31.3482L42.7932 31.2677C42.206 30.2747 41.9096 29.7733 41.5289 29.5794C41.1091 29.3657 40.6149 29.3657 40.195 29.5794C39.8118 29.7784 39.5023 30.3017 38.8906 31.3556L34.7266 38.5043L34.7123 38.5289C34.1028 39.5811 33.7982 40.1069 33.8201 40.5383C33.8496 41.0101 34.0928 41.4447 34.4908 41.7028C34.8519 41.9385 35.471 41.9385 36.7017 41.9385Z" fill="#E84142"/>
</g>
<defs>
<clipPath id="clip0_4002_344">
<rect width="60" height="60" fill="white" transform="translate(0.5)"/>
</clipPath>
</defs>
</svg>
