<svg width="61" height="60" viewBox="0 0 61 60" fill="none" xmlns="http://www.w3.org/2000/svg">
<g clip-path="url(#clip0_4002_26)">
<mask id="mask0_4002_26" style="mask-type:luminance" maskUnits="userSpaceOnUse" x="0" y="0" width="61" height="60">
<path d="M30.5 60C13.9304 60 0.5 46.5696 0.5 30C0.5 13.4304 13.9304 0 30.5 0C47.0696 0 60.5 13.4304 60.5 30C60.5 46.5696 47.0696 60 30.5 60Z" fill="white"/>
</mask>
<g mask="url(#mask0_4002_26)">
<path fill-rule="evenodd" clip-rule="evenodd" d="M30.5 29.9999L-11.932 29.7383L-11.8936 28.1783L30.5 29.9999Z" fill="#FEFEFF"/>
<path fill-rule="evenodd" clip-rule="evenodd" d="M30.5 30L-11.9008 28.4376L-11.836 27.1368L30.5 30Z" fill="#FDFEFF"/>
<path fill-rule="evenodd" clip-rule="evenodd" d="M30.5 30L-11.8504 27.3984L-11.7544 26.1L30.5 30Z" fill="#FCFDFF"/>
<path fill-rule="evenodd" clip-rule="evenodd" d="M30.5 30L-11.7736 26.3592L-11.6464 25.0632L30.5 30Z" fill="#FBFCFF"/>
<path fill-rule="evenodd" clip-rule="evenodd" d="M30.5 30.0001L-11.6704 25.3224L-11.512 24.0312L30.5 30.0001Z" fill="#FAFCFF"/>
<path fill-rule="evenodd" clip-rule="evenodd" d="M30.5 30L-11.5432 24.2904L-11.3536 23.0016L30.5 30Z" fill="#F9FBFF"/>
<path fill-rule="evenodd" clip-rule="evenodd" d="M30.5 30L-11.3896 23.2584L-11.1688 21.9768L30.5 30Z" fill="#F8FAFF"/>
<path fill-rule="evenodd" clip-rule="evenodd" d="M30.5 30L-11.212 22.2336L-10.96 20.9568L30.5 30Z" fill="#F7FAFF"/>
<path fill-rule="evenodd" clip-rule="evenodd" d="M30.5 30L-11.0104 21.2137L-10.7248 19.9417L30.5 30Z" fill="#F6F9FF"/>
<path fill-rule="evenodd" clip-rule="evenodd" d="M30.5 30L-10.7824 20.196L-10.4656 18.9336L30.5 30Z" fill="#F5F8FF"/>
<path fill-rule="evenodd" clip-rule="evenodd" d="M30.5 30L-10.528 19.1856L-10.1824 17.9304L30.5 30Z" fill="#F4F8FF"/>
<path fill-rule="evenodd" clip-rule="evenodd" d="M30.5 30L-10.252 18.1824L-9.87281 16.9368L30.5 30Z" fill="#F3F7FF"/>
<path fill-rule="evenodd" clip-rule="evenodd" d="M30.5 30L-9.94958 17.1864L-9.53918 15.9504L30.5 30Z" fill="#F2F6FF"/>
<path fill-rule="evenodd" clip-rule="evenodd" d="M30.5 30L-9.62323 16.1976L-9.18403 14.9712L30.5 30Z" fill="#F1F6FF"/>
<path fill-rule="evenodd" clip-rule="evenodd" d="M30.5 30L-9.27039 15.216L-8.80239 14.0016L30.5 30Z" fill="#F0F5FF"/>
<path fill-rule="evenodd" clip-rule="evenodd" d="M30.5 30L-8.896 14.244L-8.3992 13.0416L30.5 30Z" fill="#EFF4FF"/>
<path fill-rule="evenodd" clip-rule="evenodd" d="M30.5 30L-8.49762 13.2816L-7.96962 12.0936L30.5 30Z" fill="#EEF3FF"/>
<path fill-rule="evenodd" clip-rule="evenodd" d="M30.5 30L-8.0752 12.3312L-7.5184 11.1552L30.5 30Z" fill="#EDF3FF"/>
<path fill-rule="evenodd" clip-rule="evenodd" d="M30.5 30L-7.63123 11.3904L-7.04563 10.2264L30.5 30Z" fill="#ECF2FF"/>
<path fill-rule="evenodd" clip-rule="evenodd" d="M30.5 30L-7.16321 10.4592L-6.54881 9.31201L30.5 30Z" fill="#EBF1FF"/>
<path fill-rule="evenodd" clip-rule="evenodd" d="M30.5 30L-6.6712 9.54243L-6.0304 8.40723L30.5 30Z" fill="#EAF1FF"/>
<path fill-rule="evenodd" clip-rule="evenodd" d="M30.5 30L-6.15759 8.63517L-5.48799 7.51917L30.5 30Z" fill="#E9F0FF"/>
<path fill-rule="evenodd" clip-rule="evenodd" d="M30.5 29.9999L-5.62244 7.74235L-4.92644 6.64075L30.5 29.9999Z" fill="#E8EFFF"/>
<path fill-rule="evenodd" clip-rule="evenodd" d="M30.5 30L-5.06561 6.86157L-4.34081 5.77917L30.5 30Z" fill="#E7EFFF"/>
<path fill-rule="evenodd" clip-rule="evenodd" d="M30.5 30L-4.48718 5.99521L-3.73838 4.93201L30.5 30Z" fill="#E6EEFF"/>
<path fill-rule="evenodd" clip-rule="evenodd" d="M30.5 30L-3.88721 5.14564L-3.11201 4.09924L30.5 30Z" fill="#E5EDFF"/>
<path fill-rule="evenodd" clip-rule="evenodd" d="M30.5 30L-3.26801 4.30796L-2.46641 3.28076L30.5 30Z" fill="#E4EDFF"/>
<path fill-rule="evenodd" clip-rule="evenodd" d="M30.5 30L-2.6272 3.48717L-1.8016 2.48157L30.5 30Z" fill="#E3ECFF"/>
<path fill-rule="evenodd" clip-rule="evenodd" d="M30.5 30L-1.96478 2.68318L-1.11518 1.69678L30.5 30Z" fill="#E2EBFF"/>
<path fill-rule="evenodd" clip-rule="evenodd" d="M30.5 30L-1.28558 1.89363L-0.411983 0.928833L30.5 30Z" fill="#E1EBFF"/>
<path fill-rule="evenodd" clip-rule="evenodd" d="M30.5 30.0001L-0.587219 1.12325L0.310381 0.180054L30.5 30.0001Z" fill="#E0EAFF"/>
<path fill-rule="evenodd" clip-rule="evenodd" d="M30.5 30L0.130371 0.369598L1.05197 -0.552002L30.5 30Z" fill="#DFE9FF"/>
<path fill-rule="evenodd" clip-rule="evenodd" d="M30.5 30L0.869568 -0.36957L1.81037 -1.26477L30.5 30Z" fill="#DEE9FF"/>
<path fill-rule="evenodd" clip-rule="evenodd" d="M30.5 30L1.62317 -1.08722L2.58797 -1.96082L30.5 30Z" fill="#DDE8FF"/>
<path fill-rule="evenodd" clip-rule="evenodd" d="M30.5 29.9999L2.39362 -1.78565L3.38002 -2.63525L30.5 29.9999Z" fill="#DCE7FF"/>
<path fill-rule="evenodd" clip-rule="evenodd" d="M30.5 30L3.18317 -2.46481L4.18877 -3.29041L30.5 30Z" fill="#DBE7FF"/>
<path fill-rule="evenodd" clip-rule="evenodd" d="M30.5 30L3.98718 -3.12719L5.01438 -3.92639L30.5 30Z" fill="#DAE6FF"/>
<path fill-rule="evenodd" clip-rule="evenodd" d="M30.5 30L4.80798 -3.76801L5.85438 -4.54321L30.5 30Z" fill="#D9E5FF"/>
<path fill-rule="evenodd" clip-rule="evenodd" d="M30.5 30L5.64557 -4.38719L6.70877 -5.13599L30.5 30Z" fill="#D8E5FF"/>
<path fill-rule="evenodd" clip-rule="evenodd" d="M30.5 30L6.49518 -4.98719L7.57758 -5.70959L30.5 30Z" fill="#D7E4FF"/>
<path fill-rule="evenodd" clip-rule="evenodd" d="M30.5 30L7.36157 -5.5656L8.46317 -6.2616L30.5 30Z" fill="#D6E3FF"/>
<path fill-rule="evenodd" clip-rule="evenodd" d="M30.5 30L8.24237 -6.12239L9.35837 -6.79199L30.5 30Z" fill="#D5E3FF"/>
<path fill-rule="evenodd" clip-rule="evenodd" d="M30.5 29.9999L9.13519 -6.65766L10.268 -7.29846L30.5 29.9999Z" fill="#D4E2FF"/>
<path fill-rule="evenodd" clip-rule="evenodd" d="M30.5 30L10.0424 -7.17124L11.1896 -7.78564L30.5 30Z" fill="#D3E1FF"/>
<path fill-rule="evenodd" clip-rule="evenodd" d="M30.5 29.9999L10.9592 -7.66326L12.1232 -8.24646L30.5 29.9999Z" fill="#D2E0FF"/>
<path fill-rule="evenodd" clip-rule="evenodd" d="M30.5 30.0001L11.8904 -8.13115L13.0664 -8.68555L30.5 30.0001Z" fill="#D1E0FF"/>
<path fill-rule="evenodd" clip-rule="evenodd" d="M30.5 30.0001L12.8312 -8.57515L14.0216 -9.10315L30.5 30.0001Z" fill="#D0DFFF"/>
<path fill-rule="evenodd" clip-rule="evenodd" d="M30.5 30L13.7816 -8.99763L14.9864 -9.49683L30.5 30Z" fill="#CFDEFF"/>
<path fill-rule="evenodd" clip-rule="evenodd" d="M30.5 30L14.744 -9.39601L15.9608 -9.86401L30.5 30Z" fill="#CEDEFF"/>
<path fill-rule="evenodd" clip-rule="evenodd" d="M30.5 30L15.716 -9.7704L16.9424 -10.2096L30.5 30Z" fill="#CDDDFF"/>
<path fill-rule="evenodd" clip-rule="evenodd" d="M30.5 30L16.6976 -10.1232L17.9336 -10.5288L30.5 30Z" fill="#CCDCFF"/>
<path fill-rule="evenodd" clip-rule="evenodd" d="M30.5 30L17.6864 -10.4496L18.932 -10.8264L30.5 30Z" fill="#CBDCFF"/>
<path fill-rule="evenodd" clip-rule="evenodd" d="M30.5 29.9999L18.6824 -10.7521L19.9376 -11.0977L30.5 29.9999Z" fill="#CADBFF"/>
<path fill-rule="evenodd" clip-rule="evenodd" d="M30.5 30L19.6856 -11.028L20.948 -11.3448L30.5 30Z" fill="#C9DAFF"/>
<path fill-rule="evenodd" clip-rule="evenodd" d="M30.5 30L20.696 -11.2824L21.9656 -11.5656L30.5 30Z" fill="#C8DAFF"/>
<path fill-rule="evenodd" clip-rule="evenodd" d="M30.5 29.9999L21.7136 -11.5105L22.988 -11.7625L30.5 29.9999Z" fill="#C7D9FF"/>
<path fill-rule="evenodd" clip-rule="evenodd" d="M30.5 30L22.7336 -11.712L24.0152 -11.9352L30.5 30Z" fill="#C6D8FF"/>
<path fill-rule="evenodd" clip-rule="evenodd" d="M30.5 29.9999L23.7584 -11.8897L25.0472 -12.0817L30.5 29.9999Z" fill="#C5D8FF"/>
<path fill-rule="evenodd" clip-rule="evenodd" d="M30.5 29.9999L24.7904 -12.0433L26.0816 -12.2017L30.5 29.9999Z" fill="#C4D7FF"/>
<path fill-rule="evenodd" clip-rule="evenodd" d="M30.5 30L25.8224 -12.1704L27.1184 -12.2976L30.5 30Z" fill="#C3D6FF"/>
<path fill-rule="evenodd" clip-rule="evenodd" d="M30.5 30L26.8592 -12.2736L28.1576 -12.3696L30.5 30Z" fill="#C2D6FF"/>
<path fill-rule="evenodd" clip-rule="evenodd" d="M30.5 30L27.8984 -12.3504L29.1992 -12.4128L30.5 30Z" fill="#C1D5FF"/>
<path fill-rule="evenodd" clip-rule="evenodd" d="M30.5 30L28.9376 -12.4008L30.2384 -12.432L30.5 30Z" fill="#C0D4FF"/>
<path fill-rule="evenodd" clip-rule="evenodd" d="M30.5 30L29.9792 -12.4272H31.28L30.5 30Z" fill="#BFD4FF"/>
<path fill-rule="evenodd" clip-rule="evenodd" d="M30.5 30L31.0208 -12.4272L32.3216 -12.3936L30.5 30Z" fill="#BED3FF"/>
<path fill-rule="evenodd" clip-rule="evenodd" d="M30.5 30L32.0624 -12.4008L33.3608 -12.336L30.5 30Z" fill="#BDD2FF"/>
<path fill-rule="evenodd" clip-rule="evenodd" d="M30.5 29.9999L33.1016 -12.3505L34.4 -12.2545L30.5 29.9999Z" fill="#BCD2FF"/>
<path fill-rule="evenodd" clip-rule="evenodd" d="M30.5 30L34.1408 -12.2736L35.4368 -12.1464L30.5 30Z" fill="#BBD1FF"/>
<path fill-rule="evenodd" clip-rule="evenodd" d="M30.5 30L35.1752 -12.1704L36.4688 -12.012L30.5 30Z" fill="#BAD0FF"/>
<path fill-rule="evenodd" clip-rule="evenodd" d="M30.5 30L36.2096 -12.0432L37.4984 -11.8536L30.5 30Z" fill="#B9D0FF"/>
<path fill-rule="evenodd" clip-rule="evenodd" d="M30.5 30L37.2392 -11.8896L38.5232 -11.6688L30.5 30Z" fill="#B8CFFF"/>
<path fill-rule="evenodd" clip-rule="evenodd" d="M30.5 30L38.2664 -11.712L39.5432 -11.46L30.5 30Z" fill="#B7CEFF"/>
<path fill-rule="evenodd" clip-rule="evenodd" d="M30.5 30L39.2864 -11.5104L40.5584 -11.2248L30.5 30Z" fill="#B6CDFF"/>
<path fill-rule="evenodd" clip-rule="evenodd" d="M30.5 30L40.304 -11.2823L41.5664 -10.9655L30.5 30Z" fill="#B5CDFF"/>
<path fill-rule="evenodd" clip-rule="evenodd" d="M30.5 30L41.3144 -11.028L42.5672 -10.6824L30.5 30Z" fill="#B4CCFF"/>
<path fill-rule="evenodd" clip-rule="evenodd" d="M30.5 30L42.3176 -10.752L43.5632 -10.3728L30.5 30Z" fill="#B3CBFF"/>
<path fill-rule="evenodd" clip-rule="evenodd" d="M30.5 30L43.3136 -10.4496L44.5496 -10.0392L30.5 30Z" fill="#B2CBFF"/>
<path fill-rule="evenodd" clip-rule="evenodd" d="M30.5 30L44.3024 -10.1232L45.5288 -9.68397L30.5 30Z" fill="#B1CAFF"/>
<path fill-rule="evenodd" clip-rule="evenodd" d="M30.5 30L45.284 -9.77039L46.4984 -9.30239L30.5 30Z" fill="#B0C9FF"/>
<path fill-rule="evenodd" clip-rule="evenodd" d="M30.5 30L46.2536 -9.396L47.4584 -8.8992L30.5 30Z" fill="#AFC9FF"/>
<path fill-rule="evenodd" clip-rule="evenodd" d="M30.5 30L47.216 -8.99756L48.4064 -8.46956L30.5 30Z" fill="#AEC8FF"/>
<path fill-rule="evenodd" clip-rule="evenodd" d="M30.5 30L48.1688 -8.5752L49.3448 -8.0184L30.5 30Z" fill="#ADC7FF"/>
<path fill-rule="evenodd" clip-rule="evenodd" d="M30.5 30L49.1096 -8.13123L50.2736 -7.54563L30.5 30Z" fill="#ACC7FF"/>
<path fill-rule="evenodd" clip-rule="evenodd" d="M30.5 30L50.0408 -7.66321L51.188 -7.04881L30.5 30Z" fill="#ABC6FF"/>
<path fill-rule="evenodd" clip-rule="evenodd" d="M30.5 29.9999L50.9576 -7.17126L52.0928 -6.53047L30.5 29.9999Z" fill="#AAC5FF"/>
<path fill-rule="evenodd" clip-rule="evenodd" d="M30.5 30L51.8648 -6.65759L52.9808 -5.98799L30.5 30Z" fill="#A9C5FF"/>
<path fill-rule="evenodd" clip-rule="evenodd" d="M30.5 30L52.7576 -6.12244L53.8568 -5.42644L30.5 30Z" fill="#A8C4FF"/>
<path fill-rule="evenodd" clip-rule="evenodd" d="M30.5 30L53.6384 -5.56555L54.7208 -4.84075L30.5 30Z" fill="#A7C3FF"/>
<path fill-rule="evenodd" clip-rule="evenodd" d="M30.5 30L54.5048 -4.98718L55.568 -4.23838L30.5 30Z" fill="#A6C3FF"/>
<path fill-rule="evenodd" clip-rule="evenodd" d="M30.5 30L55.3544 -4.38721L56.4008 -3.61201L30.5 30Z" fill="#A5C2FF"/>
<path fill-rule="evenodd" clip-rule="evenodd" d="M30.5 29.9999L56.192 -3.76807L57.2168 -2.96647L30.5 29.9999Z" fill="#A4C1FF"/>
<path fill-rule="evenodd" clip-rule="evenodd" d="M30.5 30L57.0128 -3.1272L58.0184 -2.3016L30.5 30Z" fill="#A3C1FF"/>
<path fill-rule="evenodd" clip-rule="evenodd" d="M30.5 30L57.8168 -2.46484L58.8032 -1.61524L30.5 30Z" fill="#A2C0FF"/>
<path fill-rule="evenodd" clip-rule="evenodd" d="M30.5 30L58.6064 -1.78564L59.5712 -0.912044L30.5 30Z" fill="#A1BFFF"/>
<path fill-rule="evenodd" clip-rule="evenodd" d="M30.5 30L59.3768 -1.08716L60.32 -0.189558L30.5 30Z" fill="#A0BFFF"/>
<path fill-rule="evenodd" clip-rule="evenodd" d="M30.5 30L60.1304 -0.369629L61.052 0.551971L30.5 30Z" fill="#9FBEFF"/>
<path fill-rule="evenodd" clip-rule="evenodd" d="M30.5 30L60.8672 0.369629L61.7648 1.31043L30.5 30Z" fill="#9EBDFF"/>
<path fill-rule="evenodd" clip-rule="evenodd" d="M30.5 30L61.5872 1.12317L62.4608 2.08797L30.5 30Z" fill="#9DBDFF"/>
<path fill-rule="evenodd" clip-rule="evenodd" d="M30.5 30L62.2856 1.89355L63.1352 2.87995L30.5 30Z" fill="#9CBCFF"/>
<path fill-rule="evenodd" clip-rule="evenodd" d="M30.5 30L62.9648 2.68323L63.7904 3.68883L30.5 30Z" fill="#9BBBFF"/>
<path fill-rule="evenodd" clip-rule="evenodd" d="M30.5 30L63.6272 3.48718L64.4264 4.51438L30.5 30Z" fill="#9ABAFF"/>
<path fill-rule="evenodd" clip-rule="evenodd" d="M30.5 30L64.268 4.30798L65.0432 5.35438L30.5 30Z" fill="#99BAFF"/>
<path fill-rule="evenodd" clip-rule="evenodd" d="M30.5 30L64.8872 5.14563L65.636 6.20883L30.5 30Z" fill="#98B9FF"/>
<path fill-rule="evenodd" clip-rule="evenodd" d="M30.5 30L65.4872 5.99524L66.2096 7.07764L30.5 30Z" fill="#97B8FF"/>
<path fill-rule="evenodd" clip-rule="evenodd" d="M30.5 30L66.0656 6.86157L66.7616 7.96317L30.5 30Z" fill="#96B8FF"/>
<path fill-rule="evenodd" clip-rule="evenodd" d="M30.5 30L66.6224 7.74243L67.292 8.85843L30.5 30Z" fill="#95B7FF"/>
<path fill-rule="evenodd" clip-rule="evenodd" d="M30.5 30.0001L67.1576 8.63525L67.7984 9.76805L30.5 30.0001Z" fill="#94B6FF"/>
<path fill-rule="evenodd" clip-rule="evenodd" d="M30.5 30L67.6712 9.54236L68.2832 10.6896L30.5 30Z" fill="#93B6FF"/>
<path fill-rule="evenodd" clip-rule="evenodd" d="M30.5 30L68.1608 10.4592L68.7464 11.6232L30.5 30Z" fill="#92B5FF"/>
<path fill-rule="evenodd" clip-rule="evenodd" d="M30.5 30L68.6312 11.3904L69.1856 12.5664L30.5 30Z" fill="#91B4FF"/>
<path fill-rule="evenodd" clip-rule="evenodd" d="M30.5 30L69.0752 12.3312L69.6032 13.5216L30.5 30Z" fill="#90B4FF"/>
<path fill-rule="evenodd" clip-rule="evenodd" d="M30.5 30L69.4976 13.2816L69.9944 14.4864L30.5 30Z" fill="#8FB3FF"/>
<path fill-rule="evenodd" clip-rule="evenodd" d="M30.5 30L69.896 14.244L70.364 15.4608L30.5 30Z" fill="#8EB2FF"/>
<path fill-rule="evenodd" clip-rule="evenodd" d="M30.5 29.9999L70.2704 15.2159L70.7096 16.4423L30.5 29.9999Z" fill="#8DB2FF"/>
<path fill-rule="evenodd" clip-rule="evenodd" d="M30.5 30L70.6208 16.1976L71.0288 17.4336L30.5 30Z" fill="#8CB1FF"/>
<path fill-rule="evenodd" clip-rule="evenodd" d="M30.5 30L70.9472 17.1864L71.3264 18.432L30.5 30Z" fill="#8BB0FF"/>
<path fill-rule="evenodd" clip-rule="evenodd" d="M30.5 30L71.2496 18.1824L71.5976 19.4376L30.5 30Z" fill="#8AB0FF"/>
<path fill-rule="evenodd" clip-rule="evenodd" d="M30.5 29.9999L71.528 19.1855L71.8448 20.4479L30.5 29.9999Z" fill="#89AFFF"/>
<path fill-rule="evenodd" clip-rule="evenodd" d="M30.5 30L71.7824 20.196L72.0656 21.4656L30.5 30Z" fill="#88AEFF"/>
<path fill-rule="evenodd" clip-rule="evenodd" d="M30.5 30L72.008 21.2136L72.2624 22.488L30.5 30Z" fill="#87AEFF"/>
<path fill-rule="evenodd" clip-rule="evenodd" d="M30.5 30L72.212 22.2336L72.4352 23.5152L30.5 30Z" fill="#86ADFF"/>
<path fill-rule="evenodd" clip-rule="evenodd" d="M30.5 30L72.3896 23.2584L72.5816 24.5472L30.5 30Z" fill="#85ACFF"/>
<path fill-rule="evenodd" clip-rule="evenodd" d="M30.5 30L72.5432 24.2904L72.7016 25.5816L30.5 30Z" fill="#84ACFF"/>
<path fill-rule="evenodd" clip-rule="evenodd" d="M30.5 30L72.6704 25.3224L72.7976 26.6184L30.5 30Z" fill="#83ABFF"/>
<path fill-rule="evenodd" clip-rule="evenodd" d="M30.5 30.0001L72.7736 26.3593L72.8696 27.6577L30.5 30.0001Z" fill="#82AAFF"/>
<path fill-rule="evenodd" clip-rule="evenodd" d="M30.5 30L72.8504 27.3984L72.9128 28.6992L30.5 30Z" fill="#81AAFF"/>
<path fill-rule="evenodd" clip-rule="evenodd" d="M30.5 30L72.9008 28.4376L72.932 29.7384L30.5 30Z" fill="#80A9FF"/>
<path fill-rule="evenodd" clip-rule="evenodd" d="M30.5 30L72.9248 29.4792V30.78L30.5 30Z" fill="#7FA8FF"/>
<path fill-rule="evenodd" clip-rule="evenodd" d="M30.5 30L72.9248 30.5208L72.8936 31.8216L30.5 30Z" fill="#7EA7FF"/>
<path fill-rule="evenodd" clip-rule="evenodd" d="M30.5 30L72.9008 31.5624L72.836 32.8608L30.5 30Z" fill="#7DA7FF"/>
<path fill-rule="evenodd" clip-rule="evenodd" d="M30.5 30L72.8504 32.6016L72.7544 33.9L30.5 30Z" fill="#7CA6FF"/>
<path fill-rule="evenodd" clip-rule="evenodd" d="M30.5 30L72.7736 33.6408L72.6464 34.9368L30.5 30Z" fill="#7BA5FF"/>
<path fill-rule="evenodd" clip-rule="evenodd" d="M30.5 30L72.6704 34.6752L72.512 35.9688L30.5 30Z" fill="#7AA5FF"/>
<path fill-rule="evenodd" clip-rule="evenodd" d="M30.5 30L72.5432 35.7096L72.3512 36.9984L30.5 30Z" fill="#79A4FF"/>
<path fill-rule="evenodd" clip-rule="evenodd" d="M30.5 30L72.3896 36.7392L72.1688 38.0232L30.5 30Z" fill="#78A3FF"/>
<path fill-rule="evenodd" clip-rule="evenodd" d="M30.5 30L72.212 37.7664L71.9576 39.0432L30.5 30Z" fill="#77A3FF"/>
<path fill-rule="evenodd" clip-rule="evenodd" d="M30.5 30L72.008 38.7864L71.7248 40.0584L30.5 30Z" fill="#76A2FF"/>
<path fill-rule="evenodd" clip-rule="evenodd" d="M30.5 30L71.7824 39.804L71.4656 41.0664L30.5 30Z" fill="#75A1FF"/>
<path fill-rule="evenodd" clip-rule="evenodd" d="M30.5 30L71.528 40.8144L71.1824 42.0672L30.5 30Z" fill="#74A1FF"/>
<path fill-rule="evenodd" clip-rule="evenodd" d="M30.5 30L71.2496 41.8176L70.8728 43.0632L30.5 30Z" fill="#73A0FF"/>
<path fill-rule="evenodd" clip-rule="evenodd" d="M30.5 30L70.9472 42.8136L70.5392 44.0496L30.5 30Z" fill="#729FFF"/>
<path fill-rule="evenodd" clip-rule="evenodd" d="M30.5 30L70.6208 43.8024L70.184 45.0288L30.5 30Z" fill="#719FFF"/>
<path fill-rule="evenodd" clip-rule="evenodd" d="M30.5 30L70.2704 44.784L69.8024 45.9984L30.5 30Z" fill="#709EFF"/>
<path fill-rule="evenodd" clip-rule="evenodd" d="M30.5 30L69.896 45.7536L69.3968 46.9584L30.5 30Z" fill="#6F9DFF"/>
<path fill-rule="evenodd" clip-rule="evenodd" d="M30.5 30L69.4976 46.716L68.9696 47.9064L30.5 30Z" fill="#6E9DFF"/>
<path fill-rule="evenodd" clip-rule="evenodd" d="M30.5 30L69.0752 47.6688L68.5184 48.8448L30.5 30Z" fill="#6D9CFF"/>
<path fill-rule="evenodd" clip-rule="evenodd" d="M30.5 30L68.6312 48.6096L68.0456 49.7736L30.5 30Z" fill="#6C9BFF"/>
<path fill-rule="evenodd" clip-rule="evenodd" d="M30.5 30L68.1608 49.5408L67.5488 50.688L30.5 30Z" fill="#6B9BFF"/>
<path fill-rule="evenodd" clip-rule="evenodd" d="M30.5 30L67.6712 50.4576L67.0304 51.5928L30.5 30Z" fill="#6A9AFF"/>
<path fill-rule="evenodd" clip-rule="evenodd" d="M30.5 30L67.1576 51.3648L66.488 52.4808L30.5 30Z" fill="#6999FF"/>
<path fill-rule="evenodd" clip-rule="evenodd" d="M30.5 30L66.6224 52.2576L65.9264 53.3568L30.5 30Z" fill="#6899FF"/>
<path fill-rule="evenodd" clip-rule="evenodd" d="M30.5 30L66.0656 53.1384L65.3408 54.2208L30.5 30Z" fill="#6798FF"/>
<path fill-rule="evenodd" clip-rule="evenodd" d="M30.5 30L65.4872 54.0048L64.7384 55.068L30.5 30Z" fill="#6697FF"/>
<path fill-rule="evenodd" clip-rule="evenodd" d="M30.5 30L64.8872 54.8544L64.112 55.9008L30.5 30Z" fill="#6597FF"/>
<path fill-rule="evenodd" clip-rule="evenodd" d="M30.5 30L64.268 55.692L63.4664 56.7168L30.5 30Z" fill="#6496FF"/>
<path fill-rule="evenodd" clip-rule="evenodd" d="M30.5 30L63.6272 56.5128L62.8016 57.5184L30.5 30Z" fill="#6395FF"/>
<path fill-rule="evenodd" clip-rule="evenodd" d="M30.5 30L62.9648 57.3168L62.1152 58.3032L30.5 30Z" fill="#6294FF"/>
<path fill-rule="evenodd" clip-rule="evenodd" d="M30.5 30L62.2856 58.1064L61.412 59.0712L30.5 30Z" fill="#6194FF"/>
<path fill-rule="evenodd" clip-rule="evenodd" d="M30.5 30L61.5872 58.8768L60.6896 59.82L30.5 30Z" fill="#6093FF"/>
<path fill-rule="evenodd" clip-rule="evenodd" d="M30.5 30L60.8672 59.6304L59.948 60.552L30.5 30Z" fill="#5F92FF"/>
<path fill-rule="evenodd" clip-rule="evenodd" d="M30.5 30L60.1304 60.3672L59.1896 61.2648L30.5 30Z" fill="#5E92FF"/>
<path fill-rule="evenodd" clip-rule="evenodd" d="M30.5 30L59.3768 61.0872L58.412 61.9608L30.5 30Z" fill="#5D91FF"/>
<path fill-rule="evenodd" clip-rule="evenodd" d="M30.5 30L58.6064 61.7856L57.62 62.6352L30.5 30Z" fill="#5C90FF"/>
<path fill-rule="evenodd" clip-rule="evenodd" d="M30.5 30L57.8168 62.4648L56.8112 63.2904L30.5 30Z" fill="#5B90FF"/>
<path fill-rule="evenodd" clip-rule="evenodd" d="M30.5 30L57.0128 63.1272L55.9856 63.9264L30.5 30Z" fill="#5A8FFF"/>
<path fill-rule="evenodd" clip-rule="evenodd" d="M30.5 30L56.192 63.768L55.1456 64.5432L30.5 30Z" fill="#598EFF"/>
<path fill-rule="evenodd" clip-rule="evenodd" d="M30.5 30L55.3544 64.3872L54.2912 65.136L30.5 30Z" fill="#588EFF"/>
<path fill-rule="evenodd" clip-rule="evenodd" d="M30.5 30L54.5048 64.9872L53.42 65.7096L30.5 30Z" fill="#578DFF"/>
<path fill-rule="evenodd" clip-rule="evenodd" d="M30.5 30L53.6384 65.5656L52.5368 66.2616L30.5 30Z" fill="#568CFF"/>
<path fill-rule="evenodd" clip-rule="evenodd" d="M30.5 30L52.7576 66.1224L51.6416 66.792L30.5 30Z" fill="#558CFF"/>
<path fill-rule="evenodd" clip-rule="evenodd" d="M30.5 30L51.8648 66.6576L50.732 67.2984L30.5 30Z" fill="#548BFF"/>
<path fill-rule="evenodd" clip-rule="evenodd" d="M30.5 30L50.9576 67.1712L49.8104 67.7832L30.5 30Z" fill="#538AFF"/>
<path fill-rule="evenodd" clip-rule="evenodd" d="M30.5 30L50.0408 67.6608L48.8768 68.2464L30.5 30Z" fill="#528AFF"/>
<path fill-rule="evenodd" clip-rule="evenodd" d="M30.5 30L49.1096 68.1312L47.9336 68.6856L30.5 30Z" fill="#5189FF"/>
<path fill-rule="evenodd" clip-rule="evenodd" d="M30.5 30L48.1688 68.5752L46.9784 69.1032L30.5 30Z" fill="#5088FF"/>
<path fill-rule="evenodd" clip-rule="evenodd" d="M30.5 30L47.216 68.9976L46.0136 69.4944L30.5 30Z" fill="#4F88FF"/>
<path fill-rule="evenodd" clip-rule="evenodd" d="M30.5 30L46.2536 69.396L45.0392 69.864L30.5 30Z" fill="#4E87FF"/>
<path fill-rule="evenodd" clip-rule="evenodd" d="M30.5 30L45.284 69.7704L44.0576 70.2096L30.5 30Z" fill="#4D86FF"/>
<path fill-rule="evenodd" clip-rule="evenodd" d="M30.5 30L44.3024 70.1208L43.0664 70.5288L30.5 30Z" fill="#4C86FF"/>
<path fill-rule="evenodd" clip-rule="evenodd" d="M30.5 30L43.3136 70.4472L42.068 70.8264L30.5 30Z" fill="#4B85FF"/>
<path fill-rule="evenodd" clip-rule="evenodd" d="M30.5 30L42.3176 70.7496L41.0624 71.0976L30.5 30Z" fill="#4A84FF"/>
<path fill-rule="evenodd" clip-rule="evenodd" d="M30.5 30L41.3144 71.028L40.0496 71.3448L30.5 30Z" fill="#4984FF"/>
<path fill-rule="evenodd" clip-rule="evenodd" d="M30.5 30L40.304 71.2824L39.0344 71.5656L30.5 30Z" fill="#4883FF"/>
<path fill-rule="evenodd" clip-rule="evenodd" d="M30.5 30L39.2864 71.508L38.0096 71.7624L30.5 30Z" fill="#4782FF"/>
<path fill-rule="evenodd" clip-rule="evenodd" d="M30.5 30L38.2664 71.712L36.9848 71.9352L30.5 30Z" fill="#4681FF"/>
<path fill-rule="evenodd" clip-rule="evenodd" d="M30.5 30L37.2392 71.8896L35.9528 72.0816L30.5 30Z" fill="#4581FF"/>
<path fill-rule="evenodd" clip-rule="evenodd" d="M30.5 30L36.2096 72.0432L34.9184 72.2016L30.5 30Z" fill="#4480FF"/>
<path fill-rule="evenodd" clip-rule="evenodd" d="M30.5 30L35.1752 72.1704L33.8816 72.2976L30.5 30Z" fill="#437FFF"/>
<path fill-rule="evenodd" clip-rule="evenodd" d="M30.5 30L34.1408 72.2736L32.8424 72.3696L30.5 30Z" fill="#427FFF"/>
<path fill-rule="evenodd" clip-rule="evenodd" d="M30.5 30L33.1016 72.3504L31.8008 72.4128L30.5 30Z" fill="#417EFF"/>
<path fill-rule="evenodd" clip-rule="evenodd" d="M30.5 30L32.0624 72.4008L30.7592 72.432L30.5 30Z" fill="#407DFF"/>
<path fill-rule="evenodd" clip-rule="evenodd" d="M30.5 30L31.0208 72.4248H29.7176L30.5 30Z" fill="#3F7DFF"/>
<path fill-rule="evenodd" clip-rule="evenodd" d="M30.5 30L29.9792 72.4248L28.6784 72.3936L30.5 30Z" fill="#3E7CFF"/>
<path fill-rule="evenodd" clip-rule="evenodd" d="M30.5 30L28.9376 72.4008L27.6368 72.336L30.5 30Z" fill="#3D7BFF"/>
<path fill-rule="evenodd" clip-rule="evenodd" d="M30.5 30L27.8984 72.3504L26.6 72.2544L30.5 30Z" fill="#3C7BFF"/>
<path fill-rule="evenodd" clip-rule="evenodd" d="M30.5 30L26.8592 72.2736L25.5632 72.1464L30.5 30Z" fill="#3B7AFF"/>
<path fill-rule="evenodd" clip-rule="evenodd" d="M30.5 30L25.8224 72.1704L24.5312 72.012L30.5 30Z" fill="#3A79FF"/>
<path fill-rule="evenodd" clip-rule="evenodd" d="M30.5 30L24.7904 72.0432L23.5016 71.8512L30.5 30Z" fill="#3979FF"/>
<path fill-rule="evenodd" clip-rule="evenodd" d="M30.5 30L23.7584 71.8896L22.4768 71.6688L30.5 30Z" fill="#3878FF"/>
<path fill-rule="evenodd" clip-rule="evenodd" d="M30.5 30L22.7336 71.712L21.4568 71.4576L30.5 30Z" fill="#3777FF"/>
<path fill-rule="evenodd" clip-rule="evenodd" d="M30.5 30L21.7136 71.508L20.4416 71.2248L30.5 30Z" fill="#3677FF"/>
<path fill-rule="evenodd" clip-rule="evenodd" d="M30.5 30L20.696 71.2824L19.4336 70.9656L30.5 30Z" fill="#3576FF"/>
<path fill-rule="evenodd" clip-rule="evenodd" d="M30.5 30L19.6856 71.028L18.4304 70.6824L30.5 30Z" fill="#3475FF"/>
<path fill-rule="evenodd" clip-rule="evenodd" d="M30.5 30L18.6824 70.7496L17.4368 70.3728L30.5 30Z" fill="#3375FF"/>
<path fill-rule="evenodd" clip-rule="evenodd" d="M30.5 30L17.6864 70.4472L16.4504 70.0392L30.5 30Z" fill="#3274FF"/>
<path fill-rule="evenodd" clip-rule="evenodd" d="M30.5 30L16.6976 70.1208L15.4712 69.684L30.5 30Z" fill="#3173FF"/>
<path fill-rule="evenodd" clip-rule="evenodd" d="M30.5 30L15.716 69.7704L14.5016 69.3024L30.5 30Z" fill="#3073FF"/>
<path fill-rule="evenodd" clip-rule="evenodd" d="M30.5 30L14.744 69.396L13.5416 68.8968L30.5 30Z" fill="#2F72FF"/>
<path fill-rule="evenodd" clip-rule="evenodd" d="M30.5 30L13.7816 68.9976L12.5936 68.4696L30.5 30Z" fill="#2E71FF"/>
<path fill-rule="evenodd" clip-rule="evenodd" d="M30.5 30L12.8312 68.5752L11.6552 68.0184L30.5 30Z" fill="#2D71FF"/>
<path fill-rule="evenodd" clip-rule="evenodd" d="M30.5 30L11.8904 68.1312L10.7264 67.5456L30.5 30Z" fill="#2C70FF"/>
<path fill-rule="evenodd" clip-rule="evenodd" d="M30.5 30L10.9592 67.6608L9.81201 67.0488L30.5 30Z" fill="#2B6FFF"/>
<path fill-rule="evenodd" clip-rule="evenodd" d="M30.5 30L10.0424 67.1712L8.90717 66.5304L30.5 30Z" fill="#2A6EFF"/>
<path fill-rule="evenodd" clip-rule="evenodd" d="M30.5 30L9.13517 66.6576L8.01917 65.988L30.5 30Z" fill="#296EFF"/>
<path fill-rule="evenodd" clip-rule="evenodd" d="M30.5 30L8.24241 66.1224L7.14081 65.4264L30.5 30Z" fill="#286DFF"/>
<path fill-rule="evenodd" clip-rule="evenodd" d="M30.5 30L7.36157 65.5656L6.27917 64.8408L30.5 30Z" fill="#276CFF"/>
<path fill-rule="evenodd" clip-rule="evenodd" d="M30.5 30L6.49521 64.9872L5.43201 64.2384L30.5 30Z" fill="#266CFF"/>
<path fill-rule="evenodd" clip-rule="evenodd" d="M30.5 30L5.64558 64.3872L4.59918 63.612L30.5 30Z" fill="#256BFF"/>
<path fill-rule="evenodd" clip-rule="evenodd" d="M30.5 30L4.80802 63.768L3.78082 62.9664L30.5 30Z" fill="#246AFF"/>
<path fill-rule="evenodd" clip-rule="evenodd" d="M30.5 30L3.98717 63.1272L2.98157 62.3016L30.5 30Z" fill="#236AFF"/>
<path fill-rule="evenodd" clip-rule="evenodd" d="M30.5 30L3.18318 62.4648L2.19678 61.6152L30.5 30Z" fill="#2269FF"/>
<path fill-rule="evenodd" clip-rule="evenodd" d="M30.5 30L2.39357 61.7856L1.42877 60.912L30.5 30Z" fill="#2168FF"/>
<path fill-rule="evenodd" clip-rule="evenodd" d="M30.5 30L1.62319 61.0872L0.679993 60.1896L30.5 30Z" fill="#2068FF"/>
<path fill-rule="evenodd" clip-rule="evenodd" d="M30.5 30L0.869598 60.3672L-0.052002 59.448L30.5 30Z" fill="#1F67FF"/>
<path fill-rule="evenodd" clip-rule="evenodd" d="M30.5 30L0.130369 59.6304L-0.764832 58.6896L30.5 30Z" fill="#1E66FF"/>
<path fill-rule="evenodd" clip-rule="evenodd" d="M30.5 30L-0.587215 58.8768L-1.46082 57.912L30.5 30Z" fill="#1D66FF"/>
<path fill-rule="evenodd" clip-rule="evenodd" d="M30.5 30L-1.28559 58.1064L-2.13519 57.12L30.5 30Z" fill="#1C65FF"/>
<path fill-rule="evenodd" clip-rule="evenodd" d="M30.5 30L-1.96481 57.3168L-2.79041 56.3112L30.5 30Z" fill="#1B64FF"/>
<path fill-rule="evenodd" clip-rule="evenodd" d="M30.5 30L-2.62719 56.5128L-3.42639 55.4856L30.5 30Z" fill="#1A64FF"/>
<path fill-rule="evenodd" clip-rule="evenodd" d="M30.5 30L-3.26801 55.692L-4.04321 54.6456L30.5 30Z" fill="#1963FF"/>
<path fill-rule="evenodd" clip-rule="evenodd" d="M30.5 30L-3.88719 54.8544L-4.63599 53.7912L30.5 30Z" fill="#1862FF"/>
<path fill-rule="evenodd" clip-rule="evenodd" d="M30.5 30L-4.48719 54.0048L-5.20959 52.92L30.5 30Z" fill="#1762FF"/>
<path fill-rule="evenodd" clip-rule="evenodd" d="M30.5 30L-5.0656 53.1384L-5.7616 52.0368L30.5 30Z" fill="#1661FF"/>
<path fill-rule="evenodd" clip-rule="evenodd" d="M30.5 30L-5.62239 52.2576L-6.29199 51.1416L30.5 30Z" fill="#1560FF"/>
<path fill-rule="evenodd" clip-rule="evenodd" d="M30.5 30L-6.1576 51.3648L-6.7984 50.232L30.5 30Z" fill="#1460FF"/>
<path fill-rule="evenodd" clip-rule="evenodd" d="M30.5 30L-6.67118 50.4576L-7.28558 49.3104L30.5 30Z" fill="#135FFF"/>
<path fill-rule="evenodd" clip-rule="evenodd" d="M30.5 30L-7.1632 49.5408L-7.7464 48.3768L30.5 30Z" fill="#125EFF"/>
<path fill-rule="evenodd" clip-rule="evenodd" d="M30.5 30L-7.63121 48.6096L-8.18561 47.4336L30.5 30Z" fill="#115EFF"/>
<path fill-rule="evenodd" clip-rule="evenodd" d="M30.5 30L-8.07521 47.6688L-8.60321 46.4784L30.5 30Z" fill="#105DFF"/>
<path fill-rule="evenodd" clip-rule="evenodd" d="M30.5 30L-8.49763 46.716L-8.99683 45.5136L30.5 30Z" fill="#0F5CFF"/>
<path fill-rule="evenodd" clip-rule="evenodd" d="M30.5 30L-8.89601 45.7536L-9.36401 44.5392L30.5 30Z" fill="#0E5BFF"/>
<path fill-rule="evenodd" clip-rule="evenodd" d="M30.5 30L-9.2704 44.784L-9.70959 43.5576L30.5 30Z" fill="#0D5BFF"/>
<path fill-rule="evenodd" clip-rule="evenodd" d="M30.5 30L-9.62321 43.8024L-10.0288 42.5664L30.5 30Z" fill="#0C5AFF"/>
<path fill-rule="evenodd" clip-rule="evenodd" d="M30.5 30L-9.94962 42.8136L-10.3264 41.568L30.5 30Z" fill="#0B59FF"/>
<path fill-rule="evenodd" clip-rule="evenodd" d="M30.5 30L-10.252 41.8176L-10.5976 40.5624L30.5 30Z" fill="#0A59FF"/>
<path fill-rule="evenodd" clip-rule="evenodd" d="M30.5 30L-10.528 40.8144L-10.8448 39.5496L30.5 30Z" fill="#0958FF"/>
<path fill-rule="evenodd" clip-rule="evenodd" d="M30.5 30L-10.7824 39.804L-11.0656 38.5344L30.5 30Z" fill="#0857FF"/>
<path fill-rule="evenodd" clip-rule="evenodd" d="M30.5 30L-11.0104 38.7864L-11.2624 37.5096L30.5 30Z" fill="#0757FF"/>
<path fill-rule="evenodd" clip-rule="evenodd" d="M30.5 30L-11.212 37.7664L-11.4352 36.4848L30.5 30Z" fill="#0656FF"/>
<path fill-rule="evenodd" clip-rule="evenodd" d="M30.5 30L-11.3896 36.7392L-11.5816 35.4528L30.5 30Z" fill="#0555FF"/>
<path fill-rule="evenodd" clip-rule="evenodd" d="M30.5 30L-11.5432 35.7096L-11.7016 34.4184L30.5 30Z" fill="#0455FF"/>
<path fill-rule="evenodd" clip-rule="evenodd" d="M30.5 30L-11.6704 34.6752L-11.7976 33.3816L30.5 30Z" fill="#0354FF"/>
<path fill-rule="evenodd" clip-rule="evenodd" d="M30.5 30L-11.7736 33.6408L-11.8696 32.3424L30.5 30Z" fill="#0253FF"/>
<path fill-rule="evenodd" clip-rule="evenodd" d="M30.5 30L-11.8504 32.6016L-11.9128 31.3008L30.5 30Z" fill="#0153FF"/>
<path fill-rule="evenodd" clip-rule="evenodd" d="M30.5 30L-11.9008 31.5624L-11.932 30.2592L30.5 30Z" fill="#0052FF"/>
<path fill-rule="evenodd" clip-rule="evenodd" d="M30.5 30L-11.9272 30.5208V29.4792L30.5 30Z" fill="white"/>
</g>
</g>
<defs>
<clipPath id="clip0_4002_26">
<rect width="60" height="60" fill="white" transform="translate(0.5)"/>
</clipPath>
</defs>
</svg>
