<svg width="61" height="60" viewBox="0 0 61 60" fill="none" xmlns="http://www.w3.org/2000/svg">
<g clip-path="url(#clip0_4002_331)">
<path d="M30.5 60C47.0685 60 60.5 46.5685 60.5 30C60.5 13.4315 47.0685 0 30.5 0C13.9315 0 0.5 13.4315 0.5 30C0.5 46.5685 13.9315 60 30.5 60Z" fill="#13B5EC"/>
<path fill-rule="evenodd" clip-rule="evenodd" d="M32.75 24.1875L39.5 20.25V28.125L32.75 24.1875ZM39.5 41.0625L30.5 46.3125L21.5 41.0625V31.875L30.5 37.125L39.5 31.875V41.0625ZM21.5 20.25L28.25 24.1875L21.5 28.125V20.25ZM31.625 26.0625L38.375 30L31.625 33.9375V26.0625ZM29.375 33.9375L22.625 30L29.375 26.0625V33.9375ZM38.375 18.375L30.5 22.875L22.625 18.375L30.5 13.6875L38.375 18.375ZM19.25 17.625V42.1875L30.5 48.5625L41.75 42.1875V17.625L30.5 11.25L19.25 17.625Z" fill="white"/>
</g>
<defs>
<clipPath id="clip0_4002_331">
<rect width="60" height="60" fill="white" transform="translate(0.5)"/>
</clipPath>
</defs>
</svg>
