<svg width="61" height="60" viewBox="0 0 61 60" fill="none" xmlns="http://www.w3.org/2000/svg">
<g clip-path="url(#clip0_4002_337)">
<path fill-rule="evenodd" clip-rule="evenodd" d="M30.5 0C47.0697 0 60.5 13.4303 60.5 30C60.5 46.5697 47.0697 60 30.5 60C13.9303 60 0.5 46.5697 0.5 30C0.5 13.4303 13.9303 0 30.5 0Z" fill="#F0B90B"/>
<path d="M16.988 30L17.0096 37.9327L23.75 41.8991V46.5433L13.0649 40.2765V27.6803L16.988 30ZM16.988 22.0673V26.6899L13.0625 24.3678V19.7452L16.988 17.4231L20.9327 19.7452L16.988 22.0673ZM26.5649 19.7452L30.4904 17.4231L34.4351 19.7452L30.4904 22.0673L26.5649 19.7452Z" fill="white"/>
<path d="M19.8245 36.2885V31.6443L23.75 33.9664V38.589L19.8245 36.2885ZM26.5649 43.5625L30.4904 45.8846L34.4351 43.5625V48.1851L30.4904 50.5072L26.5649 48.1851V43.5625ZM40.0649 19.7452L43.9904 17.4231L47.9351 19.7452V24.3678L43.9904 26.6899V22.0673L40.0649 19.7452ZM43.9904 37.9327L44.012 30L47.9375 27.6779V40.2741L37.2524 46.5409V41.8967L43.9904 37.9327Z" fill="white"/>
<path d="M41.1755 36.2885L37.25 38.589V33.9664L41.1755 31.6443V36.2885Z" fill="white"/>
<path d="M41.1755 23.7115L41.1971 28.3558L34.4375 32.3221V40.274L30.512 42.5745L26.5865 40.274V32.3221L19.8269 28.3558V23.7115L23.7692 21.3894L30.488 25.375L37.2476 21.3894L41.1923 23.7115H41.1755ZM19.8245 15.7813L30.4904 9.4928L41.1755 15.7813L37.25 18.1034L30.4904 14.1178L23.75 18.1034L19.8245 15.7813Z" fill="white"/>
</g>
<defs>
<clipPath id="clip0_4002_337">
<rect width="60" height="60" fill="white" transform="translate(0.5)"/>
</clipPath>
</defs>
</svg>
