<svg width="60" height="60" viewBox="0 0 60 60" fill="none" xmlns="http://www.w3.org/2000/svg">
<g clip-path="url(#clip0_2055_2245)">
<path d="M30 60C46.5686 60 60 46.5686 60 30C60 13.4314 46.5686 0 30 0C13.4314 0 0 13.4314 0 30C0 46.5686 13.4314 60 30 60Z" fill="url(#paint0_linear_2055_2245)"/>
<path fill-rule="evenodd" clip-rule="evenodd" d="M17.1646 47.0645C11.9198 43.0659 8.53389 36.684 8.53389 29.4887C8.53389 17.3799 18.1494 7.56409 30.0111 7.56409C39.8036 7.56409 50.4813 13.5394 53.0705 22.6775C50.1715 12.4776 40.9433 5 30 5C16.7441 5 6 15.968 6 29.5C6 43.032 16.7441 54 30 54C43.2559 54 54 43.032 54 29.5V28.2123H52.6833C52.639 28.2123 52.5837 28.2123 52.5062 28.2123C52.3513 28.2123 52.13 28.201 51.8423 28.1897C51.278 28.1671 50.4924 28.1332 49.6072 28.0542C47.8036 27.896 45.7566 27.5798 44.3513 27.015C42.1051 26.1 40.8326 24.8801 39.3831 23.4569L39.2946 23.3778C37.8451 21.9546 36.2075 20.3506 33.3748 18.9952C30.5864 17.651 27.4993 17.8656 25.231 18.3513C24.0802 18.5885 23.0954 18.9161 22.3983 19.1759C22.0443 19.3001 21.7676 19.4244 21.5685 19.5035C20.4288 19.9892 19.3223 20.5765 18.2047 21.1074C18.2047 21.1074 20.3956 21.7174 21.491 22.0675C21.5353 22.0788 21.5906 22.1014 21.668 22.124C21.834 22.1805 22.0664 22.2596 22.343 22.3838C22.9184 22.621 23.6708 22.9825 24.4122 23.4682C25.5851 24.2363 26.5588 25.2077 26.9571 26.3937C24.4675 26.7326 22.1328 27.8396 20.3956 28.89C19.3333 29.5226 18.4592 30.1551 17.8396 30.6296C17.5297 30.8668 17.2863 31.0701 17.1203 31.2056C16.9765 31.3299 14.7303 33.3405 14.7303 33.3405C14.7303 33.3405 17.6293 33.6568 19.0567 33.9504C20.0083 34.1425 21.2918 34.4587 22.6307 34.9331C23.9696 35.4076 25.3306 36.0401 26.4592 36.8421C27.5878 37.6441 28.4177 38.5816 28.8271 39.6434C30.0111 42.7384 28.8492 45.7656 26.5035 47.4599C24.1909 49.1316 20.6833 49.527 17.1646 47.0645ZM25.3527 50.905C26.2932 50.5888 27.1784 50.1369 27.9751 49.5609C31.1618 47.2453 32.8326 43.0207 31.184 38.7059C30.5311 37.0115 29.2918 35.7125 27.9087 34.7298C26.5256 33.7471 24.9433 33.0242 23.4716 32.5046C22.509 32.1657 21.5685 31.8947 20.7497 31.6913C21.0373 31.4993 21.3472 31.296 21.6791 31.104C23.6266 29.9405 26.0719 28.8674 28.4177 28.8674C31.9585 28.8674 34.592 29.9744 37.1148 31.1604C37.3472 31.2734 37.5685 31.3751 37.8008 31.488C40.047 32.5611 42.4149 33.7019 45.1591 33.7019C47.8257 33.7019 49.8949 32.9338 51.3223 32.1432C50.0498 43.0094 40.9876 51.4359 30 51.4359C28.4066 51.4133 26.8465 51.2326 25.3527 50.905ZM48.5892 30.5392C47.6487 30.8668 46.4979 31.104 45.1591 31.104C43.0014 31.104 41.1535 30.2229 38.8077 29.1047C38.5975 29.003 38.3873 28.9013 38.177 28.7997C35.8313 27.6927 33.1093 26.5067 29.5685 26.2921C29.0927 23.8974 27.3112 22.2596 25.7953 21.2656C25.6293 21.1526 25.4523 21.0509 25.2863 20.9493C25.4412 20.9154 25.5961 20.8815 25.751 20.8476C27.7981 20.4184 30.2434 20.3054 32.3015 21.2994C34.758 22.4742 36.1411 23.8409 37.5795 25.2529L37.6238 25.2981C39.1065 26.7552 40.6777 28.2688 43.4108 29.387C44.9378 30.0196 46.9073 30.3585 48.5892 30.5392Z" fill="white"/>
</g>
<defs>
<linearGradient id="paint0_linear_2055_2245" x1="-0.532863" y1="30.5534" x2="60.54" y2="29.4374" gradientUnits="userSpaceOnUse">
<stop stop-color="#29CCB9"/>
<stop offset="0.4948" stop-color="#0091FF"/>
<stop offset="1" stop-color="#FF66B7"/>
</linearGradient>
<clipPath id="clip0_2055_2245">
<rect width="60" height="60" fill="white"/>
</clipPath>
</defs>
</svg>
