<svg width="61" height="60" viewBox="0 0 61 60" fill="none" xmlns="http://www.w3.org/2000/svg">
<g clip-path="url(#clip0_4002_420)">
<path d="M30.5 60C47.0686 60 60.5 46.5686 60.5 30C60.5 13.4314 47.0686 0 30.5 0C13.9314 0 0.5 13.4314 0.5 30C0.5 46.5686 13.9314 60 30.5 60Z" fill="#8247E5"/>
<path d="M41.3016 22.3086C40.5339 21.8694 39.547 21.8694 38.6697 22.3086L32.5287 25.9318L28.3616 28.2374L22.3303 31.8605C21.5627 32.2997 20.5757 32.2997 19.6984 31.8605L14.983 29.0059C14.2154 28.5668 13.6671 27.6884 13.6671 26.7003V21.2107C13.6671 20.3323 14.1057 19.454 14.983 18.905L19.6984 16.1602C20.4661 15.7211 21.453 15.7211 22.3303 16.1602L27.0457 19.0148C27.8133 19.454 28.3616 20.3323 28.3616 21.3205V24.9436L32.5287 22.5282V18.7953C32.5287 17.9169 32.0901 17.0386 31.2128 16.4896L22.4399 11.3294C21.6723 10.8902 20.6854 10.8902 19.8081 11.3294L10.8159 16.5994C9.93864 17.0386 9.5 17.9169 9.5 18.7953V29.1157C9.5 29.9941 9.93864 30.8724 10.8159 31.4214L19.6984 36.5816C20.4661 37.0208 21.453 37.0208 22.3303 36.5816L28.3616 33.0682L32.5287 30.6528L38.5601 27.1395C39.3277 26.7003 40.3146 26.7003 41.1919 27.1395L45.9073 29.8843C46.6749 30.3234 47.2232 31.2018 47.2232 32.1899V37.6795C47.2232 38.5579 46.7846 39.4362 45.9073 39.9852L41.3016 42.73C40.5339 43.1691 39.547 43.1691 38.6697 42.73L33.9543 39.9852C33.1867 39.546 32.6384 38.6677 32.6384 37.6795V34.1662L28.4713 36.5816V40.2047C28.4713 41.0831 28.9099 41.9614 29.7872 42.5104L38.6697 47.6706C39.4373 48.1098 40.4243 48.1098 41.3016 47.6706L50.1841 42.5104C50.9517 42.0712 51.5 41.1929 51.5 40.2047V29.7745C51.5 28.8961 51.0614 28.0178 50.1841 27.4688L41.3016 22.3086Z" fill="white"/>
</g>
<defs>
<clipPath id="clip0_4002_420">
<rect width="60" height="60" fill="white" transform="translate(0.5)"/>
</clipPath>
</defs>
</svg>
