<svg width="61" height="60" viewBox="0 0 61 60" fill="none" xmlns="http://www.w3.org/2000/svg">
<g clip-path="url(#clip0_4002_392)">
<path d="M30.5 60C47.0685 60 60.5 46.5685 60.5 30C60.5 13.4315 47.0685 0 30.5 0C13.9315 0 0.5 13.4315 0.5 30C0.5 46.5685 13.9315 60 30.5 60Z" fill="#FF0420"/>
<path d="M21.752 37.968C19.964 37.968 18.5 37.548 17.36 36.708C16.232 35.856 15.668 34.632 15.668 33.06C15.668 32.724 15.704 32.328 15.776 31.848C15.968 30.768 16.244 29.472 16.604 27.948C17.624 23.82 20.264 21.756 24.512 21.756C25.664 21.756 26.708 21.948 27.62 22.344C28.532 22.716 29.252 23.292 29.78 24.06C30.308 24.816 30.572 25.716 30.572 26.76C30.572 27.072 30.536 27.468 30.464 27.948C30.236 29.28 29.972 30.588 29.648 31.848C29.12 33.9 28.22 35.448 26.924 36.468C25.64 37.476 23.912 37.968 21.752 37.968ZM22.076 34.728C22.916 34.728 23.624 34.476 24.212 33.984C24.812 33.492 25.244 32.736 25.496 31.704C25.844 30.288 26.108 29.064 26.288 28.008C26.348 27.696 26.384 27.372 26.384 27.036C26.384 25.668 25.676 24.984 24.248 24.984C23.408 24.984 22.688 25.236 22.088 25.728C21.5 26.22 21.08 26.976 20.828 28.008C20.552 29.016 20.288 30.24 20.012 31.704C19.952 32.004 19.916 32.316 19.916 32.652C19.904 34.044 20.636 34.728 22.076 34.728Z" fill="white"/>
<path d="M31.6159 37.752C31.4479 37.752 31.3279 37.704 31.2319 37.596C31.1599 37.476 31.1359 37.344 31.1599 37.188L34.2679 22.548C34.2919 22.38 34.3759 22.248 34.5199 22.14C34.6519 22.032 34.7959 21.984 34.9519 21.984H40.9399C42.6079 21.984 43.9399 22.332 44.9479 23.016C45.9679 23.712 46.4839 24.708 46.4839 26.016C46.4839 26.388 46.4359 26.784 46.3519 27.192C45.9799 28.92 45.2239 30.192 44.0719 31.02C42.9439 31.848 41.3959 32.256 39.4279 32.256H36.3919L35.3599 37.188C35.3239 37.356 35.2519 37.488 35.1079 37.596C34.9759 37.704 34.8319 37.752 34.6759 37.752H31.6159ZM39.5839 29.148C40.2199 29.148 40.7599 28.98 41.2279 28.632C41.7079 28.284 42.0199 27.792 42.1759 27.144C42.2239 26.892 42.2479 26.664 42.2479 26.472C42.2479 26.04 42.1159 25.704 41.8639 25.476C41.6119 25.236 41.1679 25.116 40.5559 25.116H37.8559L37.0039 29.148H39.5839Z" fill="white"/>
</g>
<defs>
<clipPath id="clip0_4002_392">
<rect width="60" height="60" fill="white" transform="translate(0.5)"/>
</clipPath>
</defs>
</svg>
