<svg width="21" height="20" viewBox="0 0 21 20" fill="none" xmlns="http://www.w3.org/2000/svg">
    <path d="M16.6019 7.14288V4.79287C16.5996 3.52229 15.998 2.30431 14.9289 1.40588C13.8598 0.507458 12.4104 0.00188932 10.8984 0H10.4054C8.8934 0.00188932 7.444 0.507458 6.37486 1.40588C5.30573 2.30431 4.7041 3.52229 4.70186 4.79287V7.14288C4.02555 7.14288 3.37695 7.36863 2.89873 7.7705C2.42052 8.17233 2.15186 8.71737 2.15186 9.28571V15.9286C2.1541 17.0078 2.66528 18.0423 3.57341 18.8054C4.48153 19.5685 5.71257 19.9981 6.99686 20H14.3069C15.5912 19.9981 16.8222 19.5685 17.7303 18.8054C18.6385 18.0423 19.1496 17.0078 19.1519 15.9286V9.28571C19.1519 8.71737 18.8832 8.17233 18.405 7.7705C17.9268 7.36863 17.2782 7.14288 16.6019 7.14288ZM6.40186 4.79287C6.40186 3.90059 6.82365 3.04487 7.57445 2.41395C8.32525 1.78302 9.34355 1.42857 10.4054 1.42857H10.8984C11.9602 1.42857 12.9785 1.78302 13.7293 2.41395C14.4801 3.04487 14.9019 3.90059 14.9019 4.79287V7.14288H6.40186V4.79287ZM17.4519 15.9286C17.4519 16.6295 17.1205 17.3017 16.5307 17.7973C15.9409 18.293 15.141 18.5714 14.3069 18.5714H6.99686C6.16275 18.5714 5.36281 18.293 4.77301 17.7973C4.1832 17.3017 3.85186 16.6295 3.85186 15.9286V9.28571C3.85186 9.09629 3.94141 8.91458 4.10082 8.78062C4.26022 8.64667 4.47642 8.57142 4.70186 8.57142H16.6019C16.8273 8.57142 17.0435 8.64667 17.2029 8.78062C17.3623 8.91458 17.4519 9.09629 17.4519 9.28571V15.9286Z" fill="#25282F" />
    <path d="M11.4018 13.329V15.3759C11.4018 15.5414 11.3228 15.7002 11.1822 15.8172C11.0415 15.9343 10.8508 16 10.6519 16C10.4529 16 10.2622 15.9343 10.1215 15.8172C9.98087 15.7002 9.90185 15.5414 9.90185 15.3759V13.329C9.61588 13.1917 9.39239 12.9796 9.26603 12.7258C9.13968 12.4719 9.11749 12.1905 9.20299 11.9251C9.28845 11.6597 9.47674 11.4252 9.73871 11.2579C10.0007 11.0907 10.3217 11 10.6519 11C10.9821 11 11.303 11.0907 11.565 11.2579C11.827 11.4252 12.0153 11.6597 12.1008 11.9251C12.1862 12.1905 12.164 12.4719 12.0377 12.7258C11.9113 12.9796 11.6878 13.1917 11.4018 13.329Z" fill="#25282F" />
</svg>
