<svg width="20" height="20" viewBox="0 0 20 20" fill="none" xmlns="http://www.w3.org/2000/svg">
    <g clip-path="url(#clip0_6107_3028)">
        <path d="M0.693271 13.5978C0.310387 13.5978 0 13.2887 0 12.9075V7.48078C0 7.09957 0.310387 6.79053 0.693271 6.79053C1.07615 6.79053 1.38654 7.09957 1.38654 7.48078V12.9075C1.38654 13.2887 1.07615 13.5978 0.693271 13.5978Z" fill="#25282F" />
        <path d="M3.35487 13.5978C2.95878 13.5978 2.6377 13.2781 2.6377 12.8837V7.6689C2.6377 7.18378 3.03267 6.79053 3.5199 6.79053H5.64025C6.418 6.79053 7.01404 7.00315 7.42842 7.42844C7.83642 7.84732 8.04042 8.36461 8.04042 8.98028C8.04042 9.62769 7.83642 10.1482 7.42842 10.5417C7.02042 10.9352 6.46262 11.1319 5.755 11.1319H4.07205V12.8837C4.07205 13.2781 3.75095 13.5978 3.35487 13.5978ZM4.07205 7.99015V10.0085H5.50637C5.86337 10.0085 6.1375 9.91965 6.32875 9.74194C6.52 9.55786 6.61562 9.30715 6.61562 8.98982C6.61562 8.67244 6.52 8.42811 6.32875 8.25674C6.1375 8.07899 5.86975 7.99015 5.5255 7.99015H4.07205Z" fill="#25282F" />
        <path d="M9.61073 13.5978C9.22786 13.5978 8.91748 13.2887 8.91748 12.9075V6.79053H13.2253C13.5501 6.79053 13.8134 7.05269 13.8134 7.37607C13.8134 7.69944 13.5501 7.96157 13.2253 7.96157H10.304V9.59911H12.685C13.0125 9.59911 13.2779 9.8634 13.2779 10.1894C13.2779 10.5154 13.0125 10.7797 12.685 10.7797H10.304V12.9075C10.304 13.2887 9.99365 13.5978 9.61073 13.5978Z" fill="#25282F" />
        <path d="M17.3417 13.7498C16.4173 13.7498 15.7002 13.5563 15.1902 13.1691C14.8624 12.9162 14.6347 12.5951 14.507 12.2058C14.3836 11.8293 14.717 11.4935 15.1147 11.4935C15.4733 11.4935 15.7436 11.7819 15.925 12.0898C15.9914 12.2025 16.0748 12.2958 16.1751 12.3693C16.4237 12.5471 16.7935 12.6359 17.2843 12.6359C17.6732 12.6359 17.9919 12.5661 18.2405 12.4265C18.4892 12.2805 18.6135 12.0583 18.6135 11.76C18.6135 11.6521 18.5975 11.5569 18.5657 11.4744C18.5402 11.3855 18.4828 11.3094 18.3935 11.2459C18.3043 11.1761 18.2278 11.1221 18.164 11.0841C18.1003 11.0396 17.9824 10.9952 17.8103 10.9508C17.6381 10.9 17.5074 10.8651 17.4182 10.846C17.3289 10.8207 17.1632 10.7794 16.921 10.7223C16.6277 10.6525 16.3855 10.5922 16.1942 10.5414C16.0093 10.4906 15.8022 10.4113 15.5727 10.3034C15.3495 10.1955 15.171 10.078 15.0372 9.95113C14.9097 9.81784 14.8013 9.64646 14.712 9.437C14.6228 9.22121 14.5782 8.97684 14.5782 8.70392C14.5782 8.05017 14.8173 7.54875 15.2953 7.19967C15.7798 6.84421 16.4141 6.6665 17.1983 6.6665C17.976 6.6665 18.5975 6.85059 19.0629 7.21871C19.3515 7.44696 19.5603 7.73496 19.6896 8.0828C19.8258 8.44946 19.5027 8.78959 19.11 8.78959C18.7671 8.78959 18.505 8.50855 18.2991 8.23546C18.2404 8.1575 18.1698 8.08834 18.0875 8.02796C17.8517 7.85021 17.552 7.76138 17.1887 7.76138C16.8126 7.76138 16.513 7.83438 16.2898 7.98034C16.0667 8.12634 15.9552 8.31992 15.9552 8.56109C15.9552 8.82134 16.0635 9.01175 16.2803 9.13234C16.5034 9.25292 16.8923 9.37355 17.4469 9.49413C17.7784 9.56396 18.0493 9.63059 18.2597 9.69405C18.47 9.75117 18.6963 9.83688 18.9386 9.95113C19.1872 10.059 19.3785 10.1796 19.5123 10.3129C19.6526 10.4462 19.7673 10.6239 19.8566 10.846C19.9522 11.0618 20 11.3125 20 11.5982C20 12.271 19.7546 12.7978 19.2637 13.1786C18.7728 13.5594 18.1322 13.7498 17.3417 13.7498Z" fill="#25282F" />
        <path d="M7.75881 15.4165C7.9246 15.4165 8.08356 15.4823 8.20077 15.5995L9.79414 17.1929C9.95685 17.3556 10.2207 17.3556 10.3834 17.1929L11.9768 15.5995C12.094 15.4823 12.2529 15.4165 12.4187 15.4165C12.9755 15.4165 13.2543 16.0897 12.8606 16.4835L11.2673 18.0768C10.6164 18.7277 9.56114 18.7277 8.91026 18.0768L7.31689 16.4835C6.92314 16.0897 7.20202 15.4165 7.75881 15.4165Z" fill="#25282F" />
        <path d="M12.6578 4.99986C12.4921 4.99986 12.3331 4.93402 12.2159 4.81682L10.3835 2.98434C10.2208 2.82162 9.95692 2.82162 9.79421 2.98434L7.96175 4.81682C7.84454 4.93402 7.68554 4.99986 7.51979 4.99986C6.963 4.99986 6.68413 4.32665 7.07788 3.93291L8.91033 2.10046C9.56121 1.44959 10.6165 1.44959 11.2673 2.10046L13.0998 3.93291C13.4935 4.32665 13.2147 4.99986 12.6578 4.99986Z" fill="#25282F" />
    </g>
    <defs>
        <clipPath id="clip0_6107_3028">
            <rect width="20" height="20" fill="white" />
        </clipPath>
    </defs>
</svg>
