<svg width="21" height="20" viewBox="0 0 21 20" fill="none" xmlns="http://www.w3.org/2000/svg">
    <path fill-rule="evenodd" clip-rule="evenodd" d="M8.56557 1.05764L10.415 0.00202969L12.2644 1.05764L17.3138 3.92032L19.1668 4.97795V14.9938L17.3138 16.0515L12.2786 18.9424L10.4257 20L8.57266 18.9424L3.51973 16.0726L1.66675 15.015V5.01323L3.51973 3.95558L8.56557 1.05764ZM9.5983 2.86698L4.55248 5.76496L3.75008 6.22291V13.8053L4.54859 14.261L4.55245 14.2633L9.60539 17.133L10.4257 17.6012L11.2413 17.1356L11.2459 17.133L16.281 14.2421L17.0834 13.7841V6.18764L16.2863 5.73268L16.281 5.72968L11.2343 2.86849L10.415 2.40084L9.60312 2.86422L9.5983 2.86698ZM10.4185 0L10.415 0.00202969L10.4114 0H10.4185Z" fill="#25282F" />
    <path opacity="0.2" fill-rule="evenodd" clip-rule="evenodd" d="M9.18246 4.0381L10.4154 3.33436L11.6484 4.0381L15.0146 5.94657L16.2499 6.65166V13.3289L15.0146 14.034L11.6579 15.9612L10.4225 16.6663L9.18718 15.9612L5.81857 14.0481L4.58325 13.343V6.67516L5.81857 5.97007L9.18246 4.0381ZM9.87096 5.24434L6.50709 7.17629L5.97214 7.48161V12.5365L6.50446 12.8404L6.50705 12.8418L9.87568 14.755L10.4225 15.0672L10.9663 14.7568L10.9694 14.755L14.3261 12.8278L14.861 12.5224V7.45811L14.3296 7.15479L14.3261 7.15279L10.9616 5.24534L10.4154 4.93357L9.87418 5.24248L9.87096 5.24434ZM10.4178 3.33301L10.4154 3.33436L10.413 3.33301H10.4178Z" fill="#25282F" />
</svg>
