<svg width="20" height="20" viewBox="0 0 20 20" fill="none" xmlns="http://www.w3.org/2000/svg">
    <path d="M9.03314 11.2833H7.78314C6.82483 11.2833 6.04983 10.4833 6.04983 9.4917C6.04983 9.14999 6.33317 8.8667 6.67483 8.8667C7.0165 8.8667 7.29985 9.14999 7.29985 9.4917C7.29985 9.7917 7.5165 10.0333 7.78314 10.0333H9.03314C9.22485 10.0333 9.37485 9.85834 9.37485 9.6417C9.37485 9.34999 9.32485 9.33334 9.13314 9.2667L7.12483 8.5667C6.39983 8.3167 6.0415 7.80834 6.0415 7.01667C6.0415 6.11667 6.75817 5.375 7.63314 5.375H8.88314C9.8415 5.375 10.6165 6.17501 10.6165 7.1667C10.6165 7.50834 10.3331 7.7917 9.9915 7.7917C9.64985 7.7917 9.3665 7.50834 9.3665 7.1667C9.3665 6.86667 9.14985 6.625 8.88314 6.625H7.63314C7.4415 6.625 7.2915 6.8 7.2915 7.01667C7.2915 7.30834 7.3415 7.32499 7.53314 7.3917L9.5415 8.0917C10.2665 8.34999 10.6165 8.85834 10.6165 9.6417C10.6249 10.55 9.90814 11.2833 9.03314 11.2833Z" fill="#25282F" />
    <path d="M8.3335 11.9501C7.99185 11.9501 7.7085 11.6669 7.7085 11.3251V10.7085C7.7085 10.3669 7.99185 10.0835 8.3335 10.0835C8.67514 10.0835 8.9585 10.3669 8.9585 10.7085V11.3251C8.9585 11.6751 8.67514 11.9501 8.3335 11.9501Z" fill="#25282F" />
    <path d="M8.3335 6.6168C7.99185 6.6168 7.7085 6.33347 7.7085 5.9918V5.3418C7.7085 5.00013 7.99185 4.7168 8.3335 4.7168C8.67514 4.7168 8.9585 5.00013 8.9585 5.3418V5.9918C8.9585 6.33347 8.67514 6.6168 8.3335 6.6168Z" fill="#25282F" />
    <path d="M8.32485 15.5999C4.30817 15.5999 1.0415 12.3332 1.0415 8.31652C1.0415 4.29987 4.30817 1.0332 8.32485 1.0332C12.3415 1.0332 15.6081 4.29987 15.6081 8.31652C15.6081 12.3332 12.3331 15.5999 8.32485 15.5999ZM8.32485 2.29153C4.99983 2.29153 2.2915 4.99987 2.2915 8.32487C2.2915 11.6499 4.99983 14.3499 8.32485 14.3499C11.6499 14.3499 14.3581 11.6415 14.3581 8.31652C14.3581 4.99153 11.6499 2.29153 8.32485 2.29153Z" fill="#25282F" />
    <path d="M14.1835 18.9331C12.6417 18.9331 11.1918 18.1831 10.3001 16.9164C10.1001 16.6331 10.1668 16.2414 10.4501 16.0414C10.7335 15.8414 11.1251 15.9081 11.3251 16.1914C11.9835 17.1248 13.0501 17.6748 14.1835 17.6748C16.1167 17.6748 17.6835 16.1081 17.6835 14.1748C17.6835 13.0498 17.1335 11.9831 16.2168 11.3248C15.9335 11.1248 15.8751 10.7331 16.0751 10.4498C16.2751 10.1664 16.6667 10.1081 16.9501 10.3081C18.1918 11.1998 18.9335 12.6414 18.9335 14.1748C18.9335 16.8081 16.8085 18.9331 14.1835 18.9331Z" fill="#25282F" />
</svg>
