<svg width="20" height="20" viewBox="0 0 20 20" fill="none" xmlns="http://www.w3.org/2000/svg">
    <path d="M10.0001 18.9669C9.09185 18.9669 8.19185 18.7002 7.4835 18.1752L3.90016 15.5002C2.95016 14.7919 2.2085 13.3169 2.2085 12.1335V5.93353C2.2085 4.65019 3.15016 3.28353 4.3585 2.83353L8.51685 1.27519C9.34185 0.966863 10.6419 0.966863 11.4669 1.27519L15.6335 2.83353C16.8419 3.28353 17.7835 4.65019 17.7835 5.93353V12.1252C17.7835 13.3085 17.0419 14.7835 16.0919 15.4919L12.5085 18.1669C11.8085 18.7002 10.9085 18.9669 10.0001 18.9669ZM8.9585 2.45019L4.80016 4.00853C4.0835 4.27519 3.4585 5.17519 3.4585 5.94186V12.1335C3.4585 12.9252 4.01682 14.0335 4.64182 14.5002L8.22514 17.1752C9.1835 17.8919 10.8085 17.8919 11.7669 17.1752L15.3501 14.5002C15.9835 14.0252 16.5335 12.9169 16.5335 12.1335V5.93353C16.5335 5.17519 15.9085 4.27519 15.1919 4.00019L11.0335 2.44186C10.4835 2.24186 9.51685 2.24186 8.9585 2.45019Z" fill="#25282F" />
    <path d="M10.0001 11.0418C8.7335 11.0418 7.7085 10.0168 7.7085 8.75019C7.7085 7.48347 8.7335 6.4585 10.0001 6.4585C11.2669 6.4585 12.2919 7.48347 12.2919 8.75019C12.2919 10.0168 11.2669 11.0418 10.0001 11.0418ZM10.0001 7.70847C9.42514 7.70847 8.9585 8.17519 8.9585 8.75019C8.9585 9.32519 9.42514 9.79183 10.0001 9.79183C10.5751 9.79183 11.0419 9.32519 11.0419 8.75019C11.0419 8.17519 10.5751 7.70847 10.0001 7.70847Z" fill="#25282F" />
    <path d="M10 13.5415C9.65836 13.5415 9.375 13.2581 9.375 12.9165V10.4165C9.375 10.0748 9.65836 9.7915 10 9.7915C10.3416 9.7915 10.625 10.0748 10.625 10.4165V12.9165C10.625 13.2581 10.3416 13.5415 10 13.5415Z" fill="#25282F" />
</svg>
