<svg width="20" height="20" viewBox="0 0 20 20" fill="none" xmlns="http://www.w3.org/2000/svg">
    <path d="M12.4999 18.9582H7.49985C2.97483 18.9582 1.0415 17.0248 1.0415 12.4998V7.49981C1.0415 2.97484 2.97483 1.0415 7.49985 1.0415H12.4999C17.0249 1.0415 18.9581 2.97484 18.9581 7.49981V12.4998C18.9581 17.0248 17.0249 18.9582 12.4999 18.9582ZM7.49985 2.2915C3.65817 2.2915 2.2915 3.65818 2.2915 7.49981V12.4998C2.2915 16.3415 3.65817 17.7082 7.49985 17.7082H12.4999C16.3415 17.7082 17.7081 16.3415 17.7081 12.4998V7.49981C17.7081 3.65818 16.3415 2.2915 12.4999 2.2915H7.49985Z" fill="#25282F" />
    <path d="M7.14147 13.3498C6.98314 13.3498 6.82481 13.2914 6.69981 13.1664C6.45814 12.9248 6.45814 12.5248 6.69981 12.2831L12.1581 6.8248C12.3998 6.58314 12.7998 6.58314 13.0414 6.8248C13.2831 7.06647 13.2831 7.46643 13.0414 7.70815L7.58314 13.1664C7.45814 13.2914 7.29979 13.3498 7.14147 13.3498Z" fill="#25282F" />
    <path d="M7.4835 9.25852C6.57517 9.25852 5.8335 8.51687 5.8335 7.60852C5.8335 6.70017 6.57517 5.9585 7.4835 5.9585C8.39186 5.9585 9.1335 6.70017 9.1335 7.60852C9.1335 8.51687 8.39186 9.25852 7.4835 9.25852ZM7.4835 7.21687C7.26686 7.21687 7.0835 7.39187 7.0835 7.61687C7.0835 7.84187 7.2585 8.0168 7.4835 8.0168C7.7085 8.0168 7.8835 7.84187 7.8835 7.61687C7.8835 7.39187 7.70015 7.21687 7.4835 7.21687Z" fill="#25282F" />
    <path d="M12.9334 14.0334C12.0251 14.0334 11.2834 13.2918 11.2834 12.3834C11.2834 11.475 12.0251 10.7334 12.9334 10.7334C13.8417 10.7334 14.5834 11.475 14.5834 12.3834C14.5834 13.2918 13.8417 14.0334 12.9334 14.0334ZM12.9334 11.9918C12.7167 11.9918 12.5334 12.1668 12.5334 12.3918C12.5334 12.6168 12.7084 12.7918 12.9334 12.7918C13.1584 12.7918 13.3334 12.6168 13.3334 12.3918C13.3334 12.1668 13.1584 11.9918 12.9334 11.9918Z" fill="#25282F" />
</svg>
