<svg width="20" height="20" viewBox="0 0 20 20" fill="none" xmlns="http://www.w3.org/2000/svg">
    <path d="M17.5 18.9585H2.5C2.15834 18.9585 1.875 18.6752 1.875 18.3335C1.875 17.9919 2.15834 17.7085 2.5 17.7085H17.5C17.8416 17.7085 18.125 17.9919 18.125 18.3335C18.125 18.6752 17.8416 18.9585 17.5 18.9585Z" fill="#25282F" />
    <path d="M4.66665 16.4584H3.33334C2.53334 16.4584 1.875 15.8 1.875 15V7.81675C1.875 7.01673 2.53334 6.3584 3.33334 6.3584H4.66665C5.46665 6.3584 6.12498 7.01673 6.12498 7.81675V15C6.12498 15.8 5.46665 16.4584 4.66665 16.4584ZM3.33334 7.60003C3.21666 7.60003 3.125 7.69175 3.125 7.80839V15C3.125 15.1167 3.21666 15.2084 3.33334 15.2084H4.66665C4.78331 15.2084 4.87498 15.1167 4.87498 15V7.81675C4.87498 7.70003 4.78331 7.60839 4.66665 7.60839H3.33334V7.60003Z" fill="#25282F" />
    <path d="M10.6669 16.4585H9.3336C8.5336 16.4585 7.87524 15.8002 7.87524 15.0002V5.15853C7.87524 4.35853 8.5336 3.7002 9.3336 3.7002H10.6669C11.4669 3.7002 12.1252 4.35853 12.1252 5.15853V15.0002C12.1252 15.8002 11.4669 16.4585 10.6669 16.4585ZM9.3336 4.9502C9.21689 4.9502 9.12524 5.04187 9.12524 5.15853V15.0002C9.12524 15.1169 9.21689 15.2085 9.3336 15.2085H10.6669C10.7835 15.2085 10.8752 15.1169 10.8752 15.0002V5.15853C10.8752 5.04187 10.7835 4.9502 10.6669 4.9502H9.3336Z" fill="#25282F" />
    <path d="M16.6664 16.4582H15.3331C14.5331 16.4582 13.8748 15.7998 13.8748 14.9998V2.49984C13.8748 1.69984 14.5331 1.0415 15.3331 1.0415H16.6664C17.4664 1.0415 18.1248 1.69984 18.1248 2.49984V14.9998C18.1248 15.7998 17.4664 16.4582 16.6664 16.4582ZM15.3331 2.2915C15.2164 2.2915 15.1248 2.38318 15.1248 2.49984V14.9998C15.1248 15.1165 15.2164 15.2082 15.3331 15.2082H16.6664C16.783 15.2082 16.8748 15.1165 16.8748 14.9998V2.49984C16.8748 2.38318 16.783 2.2915 16.6664 2.2915H15.3331Z" fill="#25282F" />
</svg>
