<svg width="396" height="230" viewBox="0 0 396 230" fill="none" xmlns="http://www.w3.org/2000/svg">
<path opacity="0.08" d="M394.335 162.608V232.573M460.998 46.1478H530.194M394.499 -0.345806V69.6203M24.3845 114.668V93.1202H46.4289V114.668H24.3845ZM23.2689 114.668V93.1202H1.78226V114.668H23.2689ZM46.4289 92.0036H24.3845V69.897H46.4289V92.0036ZM23.2689 92.0036V69.897H1.78226V92.0036H23.2689ZM46.4289 68.7805H24.3845V46.6739H46.4289V68.7805ZM23.2689 68.7805V46.6739H1.78226V68.7805H23.2689ZM46.4289 45.5573H24.3845V23.4508H46.4289V45.5573ZM23.2689 45.5573V23.4508H1.78226V45.5573H23.2689ZM46.4289 22.3343H24.3845V0.227656H46.4289V22.3343ZM23.2689 22.3343V0.227656H1.78226V22.3343H23.2689ZM46.4289 -0.888897H24.3845V-22.9955H46.4289V-0.888897ZM23.2689 -0.888897V-22.9955H1.78226V-0.888897H23.2689ZM46.4289 -24.112H24.3845V-46.2186H46.4289V-24.112ZM23.2689 -24.112V-46.2186H1.78226V-24.112H23.2689ZM46.4289 -47.3351H24.3845V-68.8834H46.4289V-47.3351ZM23.2689 -47.3351V-68.8834H1.78226V-47.3351H23.2689ZM0.666656 -70H579.667V301H0.666656V-70ZM69.5888 114.668H47.5445V93.1202H69.5888V114.668ZM69.5888 92.0036H47.5445V69.897H69.5888V92.0036ZM69.5888 68.7805H47.5445V46.6739H69.5888V68.7805ZM69.5888 45.5573H47.5445V23.4508H69.5888V45.5573ZM69.5888 22.3343H47.5445V0.227656H69.5888V22.3343ZM69.5888 -0.888897H47.5445V-22.9955H69.5888V-0.888897ZM69.5888 -24.112H47.5445V-46.2186H69.5888V-24.112ZM69.5888 -47.3351H47.5445V-68.8834H69.5888V-47.3351ZM70.7045 -47.3351V-68.8834H92.7489V-47.3351H70.7045ZM93.8645 -47.3351V-68.8834H115.909V-47.3351H93.8645ZM117.024 -47.3351V-68.8834H139.069V-47.3351H117.024ZM140.184 -47.3351V-68.8834H162.229V-47.3351H140.184ZM163.344 -47.3351V-68.8834H185.389V-47.3351H163.344ZM186.504 -47.3351V-68.8834H208.549V-47.3351H186.504ZM209.664 -47.3351V-68.8834H231.709V-47.3351H209.664ZM232.824 -47.3351V-68.8834H254.869V-47.3351H232.824ZM255.984 -47.3351V-68.8834H278.029V-47.3351H255.984ZM279.144 -47.3351V-68.8834H301.189V-47.3351H279.144ZM302.304 -47.3351V-68.8834H324.349V-47.3351H302.304ZM325.464 -47.3351V-68.8834H347.509V-47.3351H325.464ZM348.624 -47.3351V-68.8834H370.669V-47.3351H348.624ZM371.784 -47.3351V-68.8834H393.829V-47.3351H371.784ZM394.944 -47.3351V-68.8834H416.989V-47.3351H394.944ZM418.104 -47.3351V-68.8834H440.149V-47.3351H418.104ZM441.264 -47.3351V-68.8834H463.309V-47.3351H441.264ZM464.424 -47.3351V-68.8834H486.469V-47.3351H464.424ZM487.584 -47.3351V-68.8834H509.629V-47.3351H487.584ZM510.744 -47.3351V-68.8834H532.789V-47.3351H510.744ZM533.904 -47.3351V-68.8834H555.949V-47.3351H533.904ZM557.064 -47.3351V-68.8834H578.551V-47.3351H557.064ZM557.064 -46.2186H578.551V-24.112H557.064V-46.2186ZM557.064 -22.9955H578.551V-0.888897H557.064V-22.9955ZM557.064 0.227656H578.551V22.3343H557.064V0.227656ZM557.064 23.4508H578.551V45.5573H557.064V23.4508ZM557.064 46.6739H578.551V68.7805H557.064V46.6739ZM557.064 69.897H578.551V92.0036H557.064V69.897ZM557.064 93.1202H578.551V114.668H557.064V93.1202ZM555.949 93.1202V114.668H533.904V93.1202H555.949ZM532.789 93.1202V114.668H510.744V93.1202H532.789ZM509.629 93.1202V114.668H487.584V93.1202H509.629ZM486.469 93.1202V114.668H464.424V93.1202H486.469ZM463.309 93.1202V114.668H441.264V93.1202H463.309ZM440.149 93.1202V114.668H418.104V93.1202H440.149ZM416.989 93.1202V114.668H394.944V93.1202H416.989ZM393.829 93.1202V114.668H371.784V93.1202H393.829ZM370.669 93.1202V114.668H348.624V93.1202H370.669ZM347.509 93.1202V114.668H325.464V93.1202H347.509ZM324.349 93.1202V114.668H302.304V93.1202H324.349ZM301.189 93.1202V114.668H279.144V93.1202H301.189ZM278.029 93.1202V114.668H255.984V93.1202H278.029ZM254.869 93.1202V114.668H232.824V93.1202H254.869ZM231.709 93.1202V114.668H209.664V93.1202H231.709ZM208.549 93.1202V114.668H186.504V93.1202H208.549ZM185.389 93.1202V114.668H163.344V93.1202H185.389ZM162.229 93.1202V114.668H140.184V93.1202H162.229ZM139.069 93.1202V114.668H117.024V93.1202H139.069ZM115.909 93.1202V114.668H93.8645V93.1202H115.909ZM92.7489 93.1202V114.668H70.7045V93.1202H92.7489ZM92.7489 92.0036H70.7045V69.897H92.7489V92.0036ZM92.7489 68.7805H70.7045V46.6739H92.7489V68.7805ZM92.7489 45.5573H70.7045V23.4508H92.7489V45.5573ZM92.7489 22.3343H70.7045V0.227656H92.7489V22.3343ZM92.7489 -0.888897H70.7045V-22.9955H92.7489V-0.888897ZM92.7489 -24.112H70.7045V-46.2186H92.7489V-24.112ZM93.8645 -24.112V-46.2186H115.909V-24.112H93.8645ZM117.024 -24.112V-46.2186H139.069V-24.112H117.024ZM140.184 -24.112V-46.2186H162.229V-24.112H140.184ZM163.344 -24.112V-46.2186H185.389V-24.112H163.344ZM186.504 -24.112V-46.2186H208.549V-24.112H186.504ZM209.664 -24.112V-46.2186H231.709V-24.112H209.664ZM232.824 -24.112V-46.2186H254.869V-24.112H232.824ZM255.984 -24.112V-46.2186H278.029V-24.112H255.984ZM279.144 -24.112V-46.2186H301.189V-24.112H279.144ZM302.304 -24.112V-46.2186H324.349V-24.112H302.304ZM325.464 -24.112V-46.2186H347.509V-24.112H325.464ZM348.624 -24.112V-46.2186H370.669V-24.112H348.624ZM371.784 -24.112V-46.2186H393.829V-24.112H371.784ZM394.944 -24.112V-46.2186H416.989V-24.112H394.944ZM418.104 -24.112V-46.2186H440.149V-24.112H418.104ZM441.264 -24.112V-46.2186H463.309V-24.112H441.264ZM464.424 -24.112V-46.2186H486.469V-24.112H464.424ZM487.584 -24.112V-46.2186H509.629V-24.112H487.584ZM510.744 -24.112V-46.2186H532.789V-24.112H510.744ZM533.904 -24.112V-46.2186H555.949V-24.112H533.904ZM533.904 -22.9955H555.949V-0.888897H533.904V-22.9955ZM533.904 0.227656H555.949V22.3343H533.904V0.227656ZM533.904 23.4508H555.949V45.5573H533.904V23.4508ZM533.904 46.6739H555.949V68.7805H533.904V46.6739ZM533.904 69.897H555.949V92.0036H533.904V69.897ZM532.789 69.897V92.0036H510.744V69.897H532.789ZM509.629 69.897V92.0036H487.584V69.897H509.629ZM486.469 69.897V92.0036H464.424V69.897H486.469ZM463.309 69.897V92.0036H441.264V69.897H463.309ZM440.149 69.897V92.0036H418.104V69.897H440.149ZM416.989 69.897V92.0036H394.944V69.897H416.989ZM393.829 69.897V92.0036H371.784V69.897H393.829ZM370.669 69.897V92.0036H348.624V69.897H370.669ZM347.509 69.897V92.0036H325.464V69.897H347.509ZM324.349 69.897V92.0036H302.304V69.897H324.349ZM301.189 69.897V92.0036H279.144V69.897H301.189ZM278.029 69.897V92.0036H255.984V69.897H278.029ZM254.869 69.897V92.0036H232.824V69.897H254.869ZM231.709 69.897V92.0036H209.664V69.897H231.709ZM208.549 69.897V92.0036H186.504V69.897H208.549ZM185.389 69.897V92.0036H163.344V69.897H185.389ZM162.229 69.897V92.0036H140.184V69.897H162.229ZM139.069 69.897V92.0036H117.024V69.897H139.069ZM115.909 69.897V92.0036H93.8645V69.897H115.909ZM115.909 68.7805H93.8645V46.6739H115.909V68.7805ZM115.909 45.5573H93.8645V23.4508H115.909V45.5573ZM115.909 22.3343H93.8645V0.227656H115.909V22.3343ZM115.909 -0.888897H93.8645V-22.9955H115.909V-0.888897ZM117.024 -0.888897V-22.9955H139.069V-0.888897H117.024ZM140.184 -0.888897V-22.9955H162.229V-0.888897H140.184ZM163.344 -0.888897V-22.9955H185.389V-0.888897H163.344ZM186.504 -0.888897V-22.9955H208.549V-0.888897H186.504ZM209.664 -0.888897V-22.9955H231.709V-0.888897H209.664ZM232.824 -0.888897V-22.9955H254.869V-0.888897H232.824ZM255.984 -0.888897V-22.9955H278.029V-0.888897H255.984ZM279.144 -0.888897V-22.9955H301.189V-0.888897H279.144ZM302.304 -0.888897V-22.9955H324.349V-0.888897H302.304ZM325.464 -0.888897V-22.9955H347.509V-0.888897H325.464ZM348.624 -0.888897V-22.9955H370.669V-0.888897H348.624ZM371.784 -0.888897V-22.9955H393.829V-0.888897H371.784ZM394.944 -0.888897V-22.9955H416.989V-0.888897H394.944ZM418.104 -0.888897V-22.9955H440.149V-0.888897H418.104ZM441.264 -0.888897V-22.9955H463.309V-0.888897H441.264ZM464.424 -0.888897V-22.9955H486.469V-0.888897H464.424ZM487.584 -0.888897V-22.9955H509.629V-0.888897H487.584ZM510.744 -0.888897V-22.9955H532.789V-0.888897H510.744ZM510.744 0.227656H532.789V22.3343H510.744V0.227656ZM510.744 23.4508H532.789V45.5573H510.744V23.4508ZM510.744 46.6739H532.789V68.7805H510.744V46.6739ZM509.629 46.6739V68.7805H487.584V46.6739H509.629ZM486.469 46.6739V68.7805H464.424V46.6739H486.469ZM463.309 46.6739V68.7805H441.264V46.6739H463.309ZM440.149 46.6739V68.7805H418.104V46.6739H440.149ZM416.989 46.6739V68.7805H394.944V46.6739H416.989ZM393.829 46.6739V68.7805H371.784V46.6739H393.829ZM370.669 46.6739V68.7805H348.624V46.6739H370.669ZM347.509 46.6739V68.7805H325.464V46.6739H347.509ZM324.349 46.6739V68.7805H302.304V46.6739H324.349ZM301.189 46.6739V68.7805H279.144V46.6739H301.189ZM278.029 46.6739V68.7805H255.984V46.6739H278.029ZM254.869 46.6739V68.7805H232.824V46.6739H254.869ZM231.709 46.6739V68.7805H209.664V46.6739H231.709ZM208.549 46.6739V68.7805H186.504V46.6739H208.549ZM185.389 46.6739V68.7805H163.344V46.6739H185.389ZM162.229 46.6739V68.7805H140.184V46.6739H162.229ZM139.069 46.6739V68.7805H117.024V46.6739H139.069ZM139.069 45.5573H117.024V23.4508H139.069V45.5573ZM139.069 22.3343H117.024V0.227656H139.069V22.3343ZM140.184 22.3343V0.227656H162.229V22.3343H140.184ZM163.344 22.3343V0.227656H185.389V22.3343H163.344ZM186.504 22.3343V0.227656H208.549V22.3343H186.504ZM209.664 22.3343V0.227656H231.709V22.3343H209.664ZM232.824 22.3343V0.227656H254.869V22.3343H232.824ZM255.984 22.3343V0.227656H278.029V22.3343H255.984ZM279.144 22.3343V0.227656H301.189V22.3343H279.144ZM302.304 22.3343V0.227656H324.349V22.3343H302.304ZM325.464 22.3343V0.227656H347.509V22.3343H325.464ZM348.624 22.3343V0.227656H370.669V22.3343H348.624ZM371.784 22.3343V0.227656H393.829V22.3343H371.784ZM394.944 22.3343V0.227656H416.989V22.3343H394.944ZM418.104 22.3343V0.227656H440.149V22.3343H418.104ZM441.264 22.3343V0.227656H463.309V22.3343H441.264ZM464.424 22.3343V0.227656H486.469V22.3343H464.424ZM487.584 22.3343V0.227656H509.629V22.3343H487.584ZM487.584 23.4508H509.629V45.5573H487.584V23.4508ZM486.469 23.4508V45.5573H464.424V23.4508H486.469ZM463.309 23.4508V45.5573H441.264V23.4508H463.309ZM440.149 23.4508V45.5573H418.104V23.4508H440.149ZM416.989 23.4508V45.5573H394.944V23.4508H416.989ZM393.829 23.4508V45.5573H371.784V23.4508H393.829ZM370.669 23.4508V45.5573H348.624V23.4508H370.669ZM347.509 23.4508V45.5573H325.464V23.4508H347.509ZM324.349 23.4508V45.5573H302.304V23.4508H324.349ZM301.189 23.4508V45.5573H279.144V23.4508H301.189ZM278.029 23.4508V45.5573H255.984V23.4508H278.029ZM254.869 23.4508V45.5573H232.824V23.4508H254.869ZM231.709 23.4508V45.5573H209.664V23.4508H231.709ZM208.549 23.4508V45.5573H186.504V23.4508H208.549ZM185.389 23.4508V45.5573H163.344V23.4508H185.389ZM162.229 23.4508V45.5573H140.184V23.4508H162.229ZM24.3845 299.883V278.335H46.4289V299.883H24.3845ZM23.2689 299.883V278.335H1.78226V299.883H23.2689ZM46.4289 277.219H24.3845V255.112H46.4289V277.219ZM23.2689 277.219V255.112H1.78226V277.219H23.2689ZM46.4289 253.995H24.3845V231.889H46.4289V253.995ZM23.2689 253.995V231.889H1.78226V253.995H23.2689ZM46.4289 230.772H24.3845V208.666H46.4289V230.772ZM23.2689 230.772V208.666H1.78226V230.772H23.2689ZM46.4289 207.549H24.3845V185.443H46.4289V207.549ZM23.2689 207.549V185.443H1.78226V207.549H23.2689ZM46.4289 184.326H24.3845V162.22H46.4289V184.326ZM23.2689 184.326V162.22H1.78226V184.326H23.2689ZM46.4289 161.103H24.3845V138.996H46.4289V161.103ZM23.2689 161.103V138.996H1.78226V161.103H23.2689ZM46.4289 137.88H24.3845V116.332H46.4289V137.88ZM23.2689 137.88V116.332H1.78226V137.88H23.2689ZM69.5888 299.883H47.5445V278.335H69.5888V299.883ZM69.5888 277.219H47.5445V255.112H69.5888V277.219ZM69.5888 253.995H47.5445V231.889H69.5888V253.995ZM69.5888 230.772H47.5445V208.666H69.5888V230.772ZM69.5888 207.549H47.5445V185.443H69.5888V207.549ZM69.5888 184.326H47.5445V162.22H69.5888V184.326ZM69.5888 161.103H47.5445V138.996H69.5888V161.103ZM69.5888 137.88H47.5445V116.332H69.5888V137.88ZM70.7045 137.88V116.332H92.7489V137.88H70.7045ZM93.8645 137.88V116.332H115.909V137.88H93.8645ZM117.024 137.88V116.332H139.069V137.88H117.024ZM140.184 137.88V116.332H162.229V137.88H140.184ZM163.344 137.88V116.332H185.389V137.88H163.344ZM186.504 137.88V116.332H208.549V137.88H186.504ZM209.664 137.88V116.332H231.709V137.88H209.664ZM232.824 137.88V116.332H254.869V137.88H232.824ZM255.984 137.88V116.332H278.029V137.88H255.984ZM279.144 137.88V116.332H301.189V137.88H279.144ZM302.304 137.88V116.332H324.349V137.88H302.304ZM325.464 137.88V116.332H347.509V137.88H325.464ZM348.624 137.88V116.332H370.669V137.88H348.624ZM371.784 137.88V116.332H393.829V137.88H371.784ZM394.944 137.88V116.332H416.989V137.88H394.944ZM418.104 137.88V116.332H440.149V137.88H418.104ZM441.264 137.88V116.332H463.309V137.88H441.264ZM464.424 137.88V116.332H486.469V137.88H464.424ZM487.584 137.88V116.332H509.629V137.88H487.584ZM510.744 137.88V116.332H532.789V137.88H510.744ZM533.904 137.88V116.332H555.949V137.88H533.904ZM557.064 137.88V116.332H578.551V137.88H557.064ZM557.064 138.996H578.551V161.103H557.064V138.996ZM557.064 162.22H578.551V184.326H557.064V162.22ZM557.064 185.443H578.551V207.549H557.064V185.443ZM557.064 208.666H578.551V230.772H557.064V208.666ZM557.064 231.889H578.551V253.995H557.064V231.889ZM557.064 255.112H578.551V277.219H557.064V255.112ZM557.064 278.335H578.551V299.883H557.064V278.335ZM555.949 278.335V299.883H533.904V278.335H555.949ZM532.789 278.335V299.883H510.744V278.335H532.789ZM509.629 278.335V299.883H487.584V278.335H509.629ZM486.469 278.335V299.883H464.424V278.335H486.469ZM463.309 278.335V299.883H441.264V278.335H463.309ZM440.149 278.335V299.883H418.104V278.335H440.149ZM416.989 278.335V299.883H394.944V278.335H416.989ZM393.829 278.335V299.883H371.784V278.335H393.829ZM370.669 278.335V299.883H348.624V278.335H370.669ZM347.509 278.335V299.883H325.464V278.335H347.509ZM324.349 278.335V299.883H302.304V278.335H324.349ZM301.189 278.335V299.883H279.144V278.335H301.189ZM278.029 278.335V299.883H255.984V278.335H278.029ZM254.869 278.335V299.883H232.824V278.335H254.869ZM231.709 278.335V299.883H209.664V278.335H231.709ZM208.549 278.335V299.883H186.504V278.335H208.549ZM185.389 278.335V299.883H163.344V278.335H185.389ZM162.229 278.335V299.883H140.184V278.335H162.229ZM139.069 278.335V299.883H117.024V278.335H139.069ZM115.909 278.335V299.883H93.8645V278.335H115.909ZM92.7489 278.335V299.883H70.7045V278.335H92.7489ZM92.7489 277.219H70.7045V255.112H92.7489V277.219ZM92.7489 253.995H70.7045V231.889H92.7489V253.995ZM92.7489 230.772H70.7045V208.666H92.7489V230.772ZM92.7489 207.549H70.7045V185.443H92.7489V207.549ZM92.7489 184.326H70.7045V162.22H92.7489V184.326ZM92.7489 161.103H70.7045V138.996H92.7489V161.103ZM93.8645 161.103V138.996H115.909V161.103H93.8645ZM117.024 161.103V138.996H139.069V161.103H117.024ZM140.184 161.103V138.996H162.229V161.103H140.184ZM163.344 161.103V138.996H185.389V161.103H163.344ZM186.504 161.103V138.996H208.549V161.103H186.504ZM209.664 161.103V138.996H231.709V161.103H209.664ZM232.824 161.103V138.996H254.869V161.103H232.824ZM255.984 161.103V138.996H278.029V161.103H255.984ZM279.144 161.103V138.996H301.189V161.103H279.144ZM302.304 161.103V138.996H324.349V161.103H302.304ZM325.464 161.103V138.996H347.509V161.103H325.464ZM348.624 161.103V138.996H370.669V161.103H348.624ZM371.784 161.103V138.996H393.829V161.103H371.784ZM394.944 161.103V138.996H416.989V161.103H394.944ZM418.104 161.103V138.996H440.149V161.103H418.104ZM441.264 161.103V138.996H463.309V161.103H441.264ZM464.424 161.103V138.996H486.469V161.103H464.424ZM487.584 161.103V138.996H509.629V161.103H487.584ZM510.744 161.103V138.996H532.789V161.103H510.744ZM533.904 161.103V138.996H555.949V161.103H533.904ZM533.904 162.22H555.949V184.326H533.904V162.22ZM533.904 185.443H555.949V207.549H533.904V185.443ZM533.904 208.666H555.949V230.772H533.904V208.666ZM533.904 231.889H555.949V253.995H533.904V231.889ZM533.904 255.112H555.949V277.219H533.904V255.112ZM532.789 255.112V277.219H510.744V255.112H532.789ZM509.629 255.112V277.219H487.584V255.112H509.629ZM486.469 255.112V277.219H464.424V255.112H486.469ZM463.309 255.112V277.219H441.264V255.112H463.309ZM440.149 255.112V277.219H418.104V255.112H440.149ZM416.989 255.112V277.219H394.944V255.112H416.989ZM393.829 255.112V277.219H371.784V255.112H393.829ZM370.669 255.112V277.219H348.624V255.112H370.669ZM347.509 255.112V277.219H325.464V255.112H347.509ZM324.349 255.112V277.219H302.304V255.112H324.349ZM301.189 255.112V277.219H279.144V255.112H301.189ZM278.029 255.112V277.219H255.984V255.112H278.029ZM254.869 255.112V277.219H232.824V255.112H254.869ZM231.709 255.112V277.219H209.664V255.112H231.709ZM208.549 255.112V277.219H186.504V255.112H208.549ZM185.389 255.112V277.219H163.344V255.112H185.389ZM162.229 255.112V277.219H140.184V255.112H162.229ZM139.069 255.112V277.219H117.024V255.112H139.069ZM115.909 255.112V277.219H93.8645V255.112H115.909ZM115.909 253.995H93.8645V231.889H115.909V253.995ZM115.909 230.772H93.8645V208.666H115.909V230.772ZM115.909 207.549H93.8645V185.443H115.909V207.549ZM115.909 184.326H93.8645V162.22H115.909V184.326ZM117.024 184.326V162.22H139.069V184.326H117.024ZM140.184 184.326V162.22H162.229V184.326H140.184ZM163.344 184.326V162.22H185.389V184.326H163.344ZM186.504 184.326V162.22H208.549V184.326H186.504ZM209.664 184.326V162.22H231.709V184.326H209.664ZM232.824 184.326V162.22H254.869V184.326H232.824ZM255.984 184.326V162.22H278.029V184.326H255.984ZM279.144 184.326V162.22H301.189V184.326H279.144ZM302.304 184.326V162.22H324.349V184.326H302.304ZM325.464 184.326V162.22H347.509V184.326H325.464ZM348.624 184.326V162.22H370.669V184.326H348.624ZM371.784 184.326V162.22H393.829V184.326H371.784ZM394.944 184.326V162.22H416.989V184.326H394.944ZM418.104 184.326V162.22H440.149V184.326H418.104ZM441.264 184.326V162.22H463.309V184.326H441.264ZM464.424 184.326V162.22H486.469V184.326H464.424ZM487.584 184.326V162.22H509.629V184.326H487.584ZM510.744 184.326V162.22H532.789V184.326H510.744ZM510.744 185.443H532.789V207.549H510.744V185.443ZM510.744 208.666H532.789V230.772H510.744V208.666ZM510.744 231.889H532.789V253.995H510.744V231.889ZM509.629 231.889V253.995H487.584V231.889H509.629ZM486.469 231.889V253.995H464.424V231.889H486.469ZM463.309 231.889V253.995H441.264V231.889H463.309ZM440.149 231.889V253.995H418.104V231.889H440.149ZM416.989 231.889V253.995H394.944V231.889H416.989ZM393.829 231.889V253.995H371.784V231.889H393.829ZM370.669 231.889V253.995H348.624V231.889H370.669ZM347.509 231.889V253.995H325.464V231.889H347.509ZM324.349 231.889V253.995H302.304V231.889H324.349ZM301.189 231.889V253.995H279.144V231.889H301.189ZM278.029 231.889V253.995H255.984V231.889H278.029ZM254.869 231.889V253.995H232.824V231.889H254.869ZM231.709 231.889V253.995H209.664V231.889H231.709ZM208.549 231.889V253.995H186.504V231.889H208.549ZM185.389 231.889V253.995H163.344V231.889H185.389ZM162.229 231.889V253.995H140.184V231.889H162.229ZM139.069 231.889V253.995H117.024V231.889H139.069ZM139.069 230.772H117.024V208.666H139.069V230.772ZM139.069 207.549H117.024V185.443H139.069V207.549ZM140.184 207.549V185.443H162.229V207.549H140.184ZM163.344 207.549V185.443H185.389V207.549H163.344ZM186.504 207.549V185.443H208.549V207.549H186.504ZM209.664 207.549V185.443H231.709V207.549H209.664ZM232.824 207.549V185.443H254.869V207.549H232.824ZM255.984 207.549V185.443H278.029V207.549H255.984ZM279.144 207.549V185.443H301.189V207.549H279.144ZM302.304 207.549V185.443H324.349V207.549H302.304ZM325.464 207.549V185.443H347.509V207.549H325.464ZM348.624 207.549V185.443H370.669V207.549H348.624ZM371.784 207.549V185.443H393.829V207.549H371.784ZM394.944 207.549V185.443H416.989V207.549H394.944ZM418.104 207.549V185.443H440.149V207.549H418.104ZM441.264 207.549V185.443H463.309V207.549H441.264ZM464.424 207.549V185.443H486.469V207.549H464.424ZM487.584 207.549V185.443H509.629V207.549H487.584ZM487.584 208.666H509.629V230.772H487.584V208.666ZM486.469 208.666V230.772H464.424V208.666H486.469ZM463.309 208.666V230.772H441.264V208.666H463.309ZM440.149 208.666V230.772H418.104V208.666H440.149ZM416.989 208.666V230.772H394.944V208.666H416.989ZM393.829 208.666V230.772H371.784V208.666H393.829ZM370.669 208.666V230.772H348.624V208.666H370.669ZM347.509 208.666V230.772H325.464V208.666H347.509ZM324.349 208.666V230.772H302.304V208.666H324.349ZM301.189 208.666V230.772H279.144V208.666H301.189ZM278.029 208.666V230.772H255.984V208.666H278.029ZM254.869 208.666V230.772H232.824V208.666H254.869ZM231.709 208.666V230.772H209.664V208.666H231.709ZM208.549 208.666V230.772H186.504V208.666H208.549ZM185.389 208.666V230.772H163.344V208.666H185.389ZM162.229 208.666V230.772H140.184V208.666H162.229Z" stroke="url(#paint0_linear_6234_1031)" stroke-width="1.22952"/>
<defs>
<linearGradient id="paint0_linear_6234_1031" x1="394.499" y1="34.6373" x2="395.588" y2="34.6373" gradientUnits="userSpaceOnUse">
<stop stop-color="#5973FE"/>
<stop offset="1" stop-color="#6966FF" stop-opacity="0"/>
</linearGradient>
</defs>
</svg>
