<svg width="33" height="33" viewBox="0 0 33 33" fill="none" xmlns="http://www.w3.org/2000/svg">
<g clip-path="url(#clip0_6232_31310)">
<path d="M32.0405 20.3689L29.9557 18.2841C29.7409 18.0692 29.44 17.9638 29.1381 17.9973L24.1368 18.5532C22.6873 16.3165 20.952 14.1449 19.1841 12.377L12.9296 6.12257C10.7345 3.92735 8.35938 2.20316 6.24192 1.26753C3.934 0.247773 2.1048 0.244397 1.09117 1.25797C0.0776573 2.27154 0.0810325 4.1008 1.10079 6.40866C2.03642 8.52612 3.76061 10.9012 5.95577 13.0964L12.2102 19.3508C13.978 21.1187 16.1497 22.854 18.3864 24.3035L17.8305 29.3048C17.7969 29.6068 17.9024 29.9076 18.1173 30.1224L20.202 32.2073C20.391 32.3962 20.646 32.5002 20.9092 32.5002C20.9586 32.5002 21.0083 32.4965 21.0579 32.4891C21.3718 32.4419 21.6446 32.2485 21.793 31.9681L24.2908 27.2497C24.6823 27.3601 25.1252 27.4547 25.553 27.4547C26.0295 27.4547 26.4861 27.3376 26.8285 26.9953C27.4781 26.3456 27.3166 25.2849 27.0833 24.4575L31.8013 21.9599C32.0818 21.8115 32.2751 21.5386 32.3223 21.2248C32.3695 20.9108 32.265 20.5932 32.0405 20.3689Z" fill="#9945FF"/>
<path d="M29.9556 4.38494L27.1758 1.60518C26.9117 1.34116 26.5225 1.24615 26.1664 1.35904L15.2879 4.80835C15.0645 4.87917 14.9957 5.16156 15.1614 5.32726L21.3648 11.5307C21.4721 11.638 21.6411 11.6527 21.7653 11.5655L29.8043 5.92374C29.9852 5.79679 30.1279 5.61878 30.1972 5.40895C30.3186 5.04193 30.2191 4.64846 29.9556 4.38494Z" fill="#9945FF"/>
<path d="M4.21832 30.1564L1.43855 27.3766C1.17453 27.1126 1.07953 26.7233 1.19241 26.3672L4.64172 15.4887C4.71254 15.2653 4.99494 15.1965 5.16063 15.3622L11.3641 21.5656C11.4714 21.6729 11.4861 21.8419 11.3989 21.9661L5.75712 30.0052C5.63017 30.1861 5.45216 30.3287 5.24233 30.3981C4.87524 30.5194 4.48177 30.4199 4.21832 30.1564Z" fill="#9945FF"/>
</g>
<defs>
<clipPath id="clip0_6232_31310">
<rect width="32" height="32" fill="white" transform="translate(0.333374 0.5)"/>
</clipPath>
</defs>
</svg>
