<svg width="33" height="33" viewBox="0 0 33 33" fill="none" xmlns="http://www.w3.org/2000/svg">
<g clip-path="url(#clip0_6232_31298)">
<path d="M10.3346 22.7534C9.48843 22.2681 8.91666 21.3562 8.91666 20.3125C8.91666 16.0046 12.4213 12.5 16.7292 12.5H19.9486L20.1003 10H1.85806L3.16837 31.6191C3.19839 32.114 3.60831 32.5 4.10416 32.5H9.8566C9.26675 31.7161 8.91666 30.7419 8.91666 29.6875C8.91666 28.4719 9.69205 27.4341 10.7741 27.0422C10.3905 26.4541 10.1667 25.7529 10.1667 25C10.1667 24.2463 10.391 23.5444 10.7753 22.9558C10.4696 22.887 10.3 22.8193 10.3346 22.7534Z" fill="#9945FF"/>
<path d="M10.9782 8.12524C10.9789 8.12524 10.9796 8.125 10.9804 8.125H20.3542C20.872 8.125 21.2917 7.70532 21.2917 7.1875C21.2917 6.66968 20.872 6.25 20.3542 6.25H12.7099L15.237 2.375H18.4792C18.997 2.375 19.4167 1.95532 19.4167 1.4375C19.4167 0.919678 18.997 0.5 18.4792 0.5H14.7292C14.4123 0.5 14.1169 0.659912 13.944 0.925293L10.4713 6.25H1.60416C1.08633 6.25 0.666656 6.66968 0.666656 7.1875C0.666656 7.70532 1.08633 8.125 1.60416 8.125H10.9748C10.976 8.125 10.9772 8.12524 10.9782 8.12524Z" fill="#9945FF"/>
<path d="M10.7917 20.3125C10.7917 20.8303 11.2113 21.25 11.7292 21.25H31.7292C32.247 21.25 32.6667 20.8303 32.6667 20.3125C32.6667 17.0386 30.0031 14.375 26.7292 14.375H16.7292C13.4552 14.375 10.7917 17.0386 10.7917 20.3125Z" fill="#9945FF"/>
<path d="M13.9167 23.125C12.881 23.125 12.0417 23.9644 12.0417 25C12.0417 26.0356 12.881 26.875 13.9167 26.875H29.5417C30.5773 26.875 31.4167 26.0356 31.4167 25C31.4167 23.9644 30.5773 23.125 29.5417 23.125H13.9167Z" fill="#9945FF"/>
<path d="M31.7292 28.75H11.7292C11.2113 28.75 10.7917 29.1697 10.7917 29.6875C10.7917 31.2383 12.0534 32.5 13.6042 32.5H29.8542C31.4049 32.5 32.6667 31.2383 32.6667 29.6875C32.6667 29.1697 32.247 28.75 31.7292 28.75Z" fill="#9945FF"/>
</g>
<defs>
<clipPath id="clip0_6232_31298">
<rect width="32" height="32" fill="white" transform="translate(0.666656 0.5)"/>
</clipPath>
</defs>
</svg>
