<svg width="32" height="32" viewBox="0 0 32 32" fill="none" xmlns="http://www.w3.org/2000/svg">
<g clip-path="url(#clip0_6234_801)">
<path d="M16 32C15.8827 32 15.7653 31.984 15.6507 31.9533C15.52 31.9173 2.66666 28.2813 2.66666 15.9V5.89863C2.66666 5.3453 3.00799 4.8493 3.52666 4.65197L15.5267 0.0866338C15.832 -0.0293662 16.1693 -0.0293662 16.4747 0.0866338L28.4747 4.65197C28.992 4.8493 29.3333 5.3453 29.3333 5.89863V15.9C29.3333 28.2826 16.48 31.9186 16.3493 31.9533C16.2347 31.984 16.1173 32 16 32ZM5.33332 6.8173V15.9C5.33332 25.296 14.0853 28.652 16 29.2733C17.9147 28.652 26.6667 25.296 26.6667 15.9V6.8173L16 2.75997L5.33332 6.8173Z" fill="#9945FF"/>
<path d="M16.3333 24H15.6667C14.38 24 13.3333 22.9533 13.3333 21.6667V18.6667H10.3333C9.04667 18.6667 8 17.62 8 16.3333V15.6667C8 14.38 9.04667 13.3333 10.3333 13.3333H13.3333V10.3333C13.3333 9.04667 14.38 8 15.6667 8H16.3333C17.62 8 18.6667 9.04667 18.6667 10.3333V13.3333H21.6667C22.9533 13.3333 24 14.38 24 15.6667V16.3333C24 17.62 22.9533 18.6667 21.6667 18.6667H18.6667V21.6667C18.6667 22.9533 17.62 24 16.3333 24Z" fill="#9945FF"/>
</g>
<defs>
<clipPath id="clip0_6234_801">
<rect width="32" height="32" fill="white"/>
</clipPath>
</defs>
</svg>
