<svg width="33" height="32" viewBox="0 0 33 32" fill="none" xmlns="http://www.w3.org/2000/svg">
<g clip-path="url(#clip0_6234_790)">
<path d="M28.2566 31.0625H23.2358C22.718 31.0625 22.2983 30.6427 22.2983 30.125V9.97498C22.2983 9.45723 22.718 9.03748 23.2358 9.03748H28.2566C28.7743 9.03748 29.1941 9.45723 29.1941 9.97498V30.125C29.1941 30.6427 28.7743 31.0625 28.2566 31.0625Z" fill="#58ff44"/>
<path d="M28.2566 9.03748H25.7461V31.0625H28.2566C28.7743 31.0625 29.1941 30.6427 29.1941 30.125V9.97498C29.1941 9.45723 28.7743 9.03748 28.2566 9.03748Z" fill="#58ff44"/>
<path d="M19.2191 31.0625H14.1983C13.6805 31.0625 13.2608 30.6427 13.2608 30.125V2.9458C13.2608 2.42805 13.6805 2.0083 14.1983 2.0083H19.2191C19.7368 2.0083 20.1566 2.42805 20.1566 2.9458V30.125C20.1566 30.6427 19.7368 31.0625 19.2191 31.0625Z" fill="#58ff44"/>
<path d="M19.2191 2.0083H16.7086V31.0625H19.2191C19.7368 31.0625 20.1566 30.6427 20.1566 30.125V2.9458C20.1566 2.42805 19.7368 2.0083 19.2191 2.0083Z" fill="#58ff44"/>
<path d="M10.1816 31.0625H5.16076C4.64301 31.0625 4.22326 30.6427 4.22326 30.125V17.0042C4.22326 16.4864 4.64301 16.0667 5.16076 16.0667H10.1816C10.6993 16.0667 11.1191 16.4864 11.1191 17.0042V30.125C11.1191 30.6427 10.6993 31.0625 10.1816 31.0625Z" fill="#58ff44"/>
<path d="M10.1816 16.0667H7.67113V31.0625H10.1816C10.6993 31.0625 11.1191 30.6427 11.1191 30.125V17.0042C11.1191 16.4864 10.6993 16.0667 10.1816 16.0667Z" fill="#58ff44"/>
<path d="M31.2691 32H1.14407C0.626323 32 0.206573 31.5802 0.206573 31.0625V0.9375C0.206573 0.41975 0.626323 0 1.14407 0C1.66182 0 2.08157 0.41975 2.08157 0.9375V30.125H31.2691C31.7868 30.125 32.2066 30.5448 32.2066 31.0625C32.2066 31.5802 31.7868 32 31.2691 32Z" fill="#58ff44"/>
<path d="M31.2691 30.125H16.7086V32H31.2691C31.7868 32 32.2066 31.5803 32.2066 31.0625C32.2066 30.5447 31.7868 30.125 31.2691 30.125Z" fill="#58ff44"/>
</g>
<defs>
<clipPath id="clip0_6234_790">
<rect width="32" height="32" fill="white" transform="translate(0.206573)"/>
</clipPath>
</defs>
</svg>
