<svg width="32" height="32" viewBox="0 0 32 32" fill="none" xmlns="http://www.w3.org/2000/svg">
<path d="M16 11.3125C18.5888 11.3125 20.6875 9.21383 20.6875 6.625C20.6875 4.03617 18.5888 1.9375 16 1.9375C13.4112 1.9375 11.3125 4.03617 11.3125 6.625C11.3125 9.21383 13.4112 11.3125 16 11.3125Z" fill="#58ff44"/>
<path d="M20.6875 30.1251C20.6875 29.1885 19.9889 28.3892 19.0634 28.2666L5.12631 26.3998C3.48931 26.1846 1.93656 27.5094 1.9375 29.1876C1.9375 30.7384 3.19913 32.0001 4.75 32.0001H18.8125C19.8461 32.0001 20.6875 31.1587 20.6875 30.1251Z" fill="#58ff44"/>
<path d="M30.125 21.0759C27.0232 21.0759 24.4375 18.4902 24.4375 15.3884C24.4375 13.1408 22.6082 11.3125 20.3607 11.3125H11.6393C9.39175 11.3125 7.5625 13.1408 7.5625 15.3884C7.5625 18.4902 4.97681 21.0759 1.875 21.0759C0.841375 21.0759 0 21.9173 0 22.9509C0 23.9846 0.841375 24.8259 1.875 24.8259C6.72819 24.8259 10.7785 21.0564 11.25 16.3259V25.3338L16.0012 25.9644L20.75 25.3366V16.4673C21.2876 21.1313 25.3202 24.8259 30.125 24.8259C31.1586 24.8259 32 23.9846 32 22.9509C32 21.9173 31.1586 21.0759 30.125 21.0759Z" fill="#58ff44"/>
<path d="M30.0625 29.1876C30.0634 27.5094 28.5107 26.1846 26.8737 26.3998L21.1144 27.1712C21.9979 27.8631 22.5625 28.9372 22.5625 30.1251C22.5625 30.8111 22.3639 31.4463 22.041 32.0001H27.25C28.8009 32.0001 30.0625 30.7384 30.0625 29.1876Z" fill="#58ff44"/>
</svg>
