<svg width="116" height="42" viewBox="0 0 116 42" fill="none" xmlns="http://www.w3.org/2000/svg">
<g clip-path="url(#clip0_2007_2221)">
<g opacity="0.5">
<path d="M89.1539 16.4611H86.7475C86.4729 16.4611 86.1983 16.3443 86.0028 16.1295L85.0253 15.0322C84.7321 14.7193 84.2619 14.6773 83.9315 14.9714C83.9128 14.9901 83.8942 15.0088 83.871 15.0322L83.0285 15.9754C82.7539 16.2883 82.3629 16.4657 81.9533 16.4657H68.7575C68.3852 17.5631 68.1338 18.7025 68.0361 19.8606H80.4871C80.7012 19.8606 80.9153 19.7625 81.0736 19.6037L82.2279 18.3896C82.3629 18.2309 82.577 18.1561 82.7725 18.1561H82.8097C83.0238 18.1561 83.2379 18.2542 83.3962 18.413L84.3737 19.5103C84.5505 19.7251 84.8251 19.8419 85.1184 19.8419H95.284C95.1863 18.6838 94.9535 17.5491 94.5625 16.4471H89.1493V16.4611H89.1539ZM75.5905 26.9724C75.8046 26.9724 76.0187 26.8743 76.1769 26.7156L77.3313 25.5015C77.4663 25.3427 77.685 25.268 77.8805 25.268H77.941C78.1551 25.268 78.3692 25.366 78.5275 25.5248L79.505 26.6222C79.7005 26.837 79.9565 26.9537 80.2497 26.9537H94.0226C94.5486 25.875 94.921 24.717 95.1583 23.5402H81.9253C81.6507 23.5402 81.3761 23.4235 81.2039 23.2087L80.2264 22.1113C80.0914 21.9525 79.8727 21.8545 79.6399 21.8545C79.4258 21.8545 79.2117 21.9525 79.0721 22.1113L78.2296 23.0546C77.955 23.3674 77.564 23.5449 77.1358 23.5449H68.2595C68.4736 24.7216 68.8646 25.8797 69.3719 26.9771H75.5905V26.9724ZM85.3604 12.7534C85.5745 12.7534 85.7887 12.6553 85.9469 12.4965L87.1012 11.2824C87.2362 11.1237 87.455 11.049 87.6505 11.049H87.711C87.9251 11.049 88.1392 11.147 88.2789 11.3058L89.2563 12.4031C89.4518 12.618 89.7078 12.7347 89.9964 12.7347H92.6169C88.0834 6.67351 79.5189 5.45941 73.4819 10.0076C72.4486 10.7921 71.527 11.6934 70.7637 12.7347H85.3651L85.3604 12.7534ZM80.0868 30.3626H76.5074C76.2328 30.3626 75.9582 30.2458 75.7859 30.031L74.8085 28.9336C74.5152 28.6208 74.0265 28.5788 73.7147 28.8729C73.696 28.8916 73.6774 28.9103 73.6542 28.9336L72.8117 29.8956C72.5371 30.2085 72.1461 30.3859 71.7365 30.3859H71.6759C76.8146 35.9147 85.4768 36.2276 90.9878 31.0723C91.2206 30.8575 91.4579 30.6194 91.6721 30.3859L80.0868 30.3626ZM21.2063 33.8368L18.4322 27.0518H5.99976L3.22563 33.8368H0L12.195 8.18647L24.4319 33.8368H21.2063ZM7.05635 24.4788H17.3569L12.1764 13.5379L7.05635 24.4788ZM28.8724 33.8368V8.18647H35.9893C41.5608 8.18647 44.4746 10.7361 44.4746 15.5598C44.4746 20.2061 41.3653 22.8725 35.952 22.8725H31.8653V33.8134H28.8724V33.8368ZM31.8839 20.2061H35.2818C39.5826 20.2061 41.477 18.7959 41.477 15.5598C41.477 12.2257 39.5593 10.8528 35.3004 10.8528H31.8979L31.8839 20.2061ZM55.3756 10.9089H46.5598V8.16312H67.2029V10.9089H58.3871V33.8321H55.3942V10.9089H55.3756ZM99.515 29.1484L102.094 27.3833L102.289 27.7943C103.872 30.6988 105.613 31.8522 108.252 31.8522C111.184 31.8522 113.237 29.8115 113.237 27.36C113.237 25.0438 112.082 23.4795 107.451 21.5556C102.136 19.3376 100.334 17.0634 100.334 13.79C100.334 10.2411 103.108 7.45801 107.917 7.45801C111.454 7.45801 113.879 8.9663 115.248 11.4365L113.158 12.8888L112.553 12.73C111.459 11.0303 110.127 10.0497 107.861 10.0497C105.087 10.0497 103.462 11.6187 103.462 13.7153C103.462 15.6766 104.5 16.7926 109.034 18.8706C114.917 21.5556 116.365 23.755 116.365 27.3226C116.365 31.2078 113.041 34.4998 108.312 34.4998C104.323 34.5419 101.586 33.0102 99.515 29.1484Z" fill="#ffffff"/>
</g>
</g>
<defs>
<clipPath id="clip0_2007_2221">
<rect width="116" height="42" fill="#ffffff"/>
</clipPath>
</defs>
</svg>
