<svg width="167" height="42" viewBox="0 0 167 42" fill="none" xmlns="http://www.w3.org/2000/svg">
<g clip-path="url(#clip0_2004_2159)">
<g opacity="0.5">
<path d="M1.44971 12.7715V29.2286C1.44971 30.2374 2.04423 31.2462 2.89927 31.7473L17.3615 39.9758C18.2967 40.4769 19.4055 40.4769 20.3407 39.9758L34.8029 31.7473C35.7381 31.2462 36.2525 30.2374 36.2525 29.2286V12.7715C36.2525 11.7627 35.658 10.7539 34.8029 10.2528L20.3341 2.0242C19.3989 1.5231 18.29 1.5231 17.3548 2.0242L2.89259 10.2528C1.95739 10.7539 1.44971 11.7627 1.44971 12.7715Z" fill="#252525"/>
<path d="M22.0374 24.1912L19.9934 29.7363C19.9065 29.9011 19.9065 30.0725 19.9934 30.2374L23.5672 39.811L27.6486 37.4572L22.7121 24.1912C22.632 23.855 22.2044 23.855 22.0374 24.1912Z" fill="#9F9F9F"/>
<path d="M26.1189 14.789C26.0321 14.4527 25.6113 14.4527 25.4376 14.789L23.3935 20.3341C23.3067 20.4989 23.3067 20.6703 23.3935 20.8352L29.1784 36.5406L33.2599 34.1868L26.1189 14.789Z" fill="#9F9F9F"/>
<path d="M18.8043 2.61099C18.8911 2.61099 18.9713 2.61099 19.0581 2.6967L34.7094 11.5978C34.8764 11.6835 34.9632 11.8484 34.9632 12.0989V29.9011C34.9632 30.0659 34.8764 30.3231 34.7094 30.4022L19.0581 39.3033C18.9713 39.389 18.8911 39.389 18.8043 39.389C18.7174 39.389 18.6373 39.389 18.5504 39.3033L2.8992 30.4022C2.7322 30.3165 2.64536 30.1516 2.64536 29.9011V12.0989C2.64536 11.9341 2.7322 11.6769 2.8992 11.5978L18.5504 2.6967C18.6306 2.61099 18.7174 2.61099 18.8043 2.61099ZM18.8043 0.0065918C18.2098 0.0065918 17.6954 0.171427 17.1877 0.42857L1.53648 9.32967C0.514442 9.91648 -0.0800781 10.9253 -0.0800781 12.0989V29.9011C-0.0800781 30.9956 0.514442 32.0835 1.53648 32.6703L17.1877 41.5714C17.6954 41.822 18.2098 41.9934 18.8043 41.9934C19.3988 41.9934 19.9132 41.8286 20.4208 41.5714L36.0721 32.6703C37.0941 32.0835 37.6886 31.0747 37.6886 29.9011V12.0989C37.6886 11.0044 37.0941 9.91648 36.0721 9.32967L20.501 0.42857C19.9933 0.17802 19.479 0.0065918 18.8844 0.0065918H18.8043Z" fill="#ffffff"/>
<path d="M8.5105 36.5341L9.95338 32.6703L12.8458 35.0242L10.1271 37.5429L8.5105 36.5341Z" fill="#213147"/>
<path d="M17.5284 10.8395H13.527C13.2732 10.8395 12.9325 11.0044 12.8457 11.2615L4.34204 34.2659L8.42352 36.6198L17.7822 11.3406C17.869 11.0901 17.6954 10.8395 17.4415 10.8395H17.5284Z" fill="#ffffff"/>
<path d="M24.4154 10.8396H20.4141C20.1602 10.8396 19.8196 11.0044 19.7327 11.2615L10.04 37.4571L14.1215 39.811L24.6692 11.2615C24.7561 11.011 24.5824 10.7604 24.3286 10.7604L24.4154 10.8396Z" fill="#ffffff"/>
<path d="M54.5357 15.6263C54.9632 15.6263 55.3039 15.7121 55.5577 15.8769C55.8115 16.0417 56.0654 16.378 56.3259 16.8L61.5163 26.0373C61.6031 26.123 61.6031 26.2022 61.5163 26.2879C61.5163 26.3736 61.4294 26.3736 61.2624 26.3736H59.3052C59.1382 26.3736 59.0513 26.2879 58.9645 26.2088L57.8489 24.1912H50.5343L49.4255 26.2088C49.3386 26.3736 49.2585 26.3736 49.0848 26.3736H47.0407C46.8737 26.3736 46.7869 26.3736 46.7869 26.2879C46.7869 26.2022 46.7869 26.123 46.7869 26.0373L51.8904 16.8C52.1442 16.2989 52.3981 16.0417 52.6586 15.8769C52.9191 15.7121 53.1663 15.6263 53.5069 15.6263H54.4421H54.5357ZM51.4695 22.4307H56.8269L54.362 17.8945C54.2751 17.8088 54.2751 17.8088 54.195 17.8088H54.1081C54.0213 17.8088 53.9411 17.8088 53.9411 17.8945L51.4695 22.4307Z" fill="#ffffff"/>
<path d="M72.8256 15.6263C74.0146 15.6263 74.8697 15.8769 75.3773 16.4637C75.885 16.9648 76.1455 17.8088 76.1455 18.8176V19.6549C76.1455 20.578 75.9786 21.2505 75.6379 21.7516C75.2972 22.2527 74.7027 22.589 73.8543 22.7604L76.4929 26.0373C76.5797 26.123 76.5798 26.2022 76.5798 26.2879C76.5798 26.3736 76.4929 26.4527 76.3259 26.4527H74.2818C74.1148 26.4527 74.028 26.4527 74.028 26.367C73.9411 26.367 73.9411 26.2813 73.861 26.2022L71.3961 23.011H66.3794V26.1165C66.3794 26.367 66.2925 26.4527 66.0387 26.4527H64.3353C64.0815 26.4527 63.9946 26.367 63.9946 26.1165V16.1274C63.9946 15.7912 64.1616 15.6263 64.5023 15.6263H72.9258H72.8256ZM66.3594 21.1648H72.3112C72.8189 21.1648 73.2464 21.0791 73.4201 20.8285C73.6739 20.578 73.7608 20.2417 73.7608 19.8197V19.1472C73.7608 18.6461 73.6739 18.3099 73.4201 18.1384C73.1663 17.8879 72.8256 17.8022 72.3112 17.8022H66.5264C66.3594 17.8022 66.3594 17.8879 66.3594 17.967V21.1648Z" fill="#ffffff"/>
<path d="M89.2449 15.6263C90.3538 15.6263 91.1153 15.8769 91.5428 16.2989C91.9703 16.7208 92.2242 17.3934 92.2242 18.2307V18.989C92.2242 19.8263 91.8835 20.4989 91.2021 20.9208C91.8835 21.3428 92.311 22.0154 92.311 22.9384V23.8615C92.311 24.2835 92.2242 24.6198 92.144 24.956C92.0639 25.2923 91.8902 25.5428 91.7165 25.7934C91.4627 26.0439 91.2088 26.2154 90.8681 26.2945C90.5275 26.3802 90.0999 26.4593 89.5923 26.4593H80.3204C79.9797 26.4593 79.8127 26.2945 79.8127 25.9582V16.134C79.8127 15.7978 79.9797 15.6329 80.3204 15.6329H89.3384H89.2449V15.6263ZM82.1841 20.0769H88.5635C89.0712 20.0769 89.4119 19.9912 89.5856 19.8263C89.7593 19.6615 89.8394 19.4901 89.8394 19.1538V18.6527C89.8394 18.3165 89.7526 18.0659 89.5856 17.9802C89.4186 17.8154 89.0779 17.7296 88.7372 17.7296H82.3578C82.1908 17.7296 82.1908 17.8154 82.1908 17.8945V20.0769H82.1841ZM82.1841 21.7582V24.0263C82.1841 24.1912 82.271 24.1912 82.3511 24.1912H88.7305C89.1581 24.1912 89.4119 24.1055 89.5789 23.9406C89.7459 23.7758 89.8327 23.5187 89.8327 23.2681V22.6813C89.8327 22.345 89.7459 22.0945 89.5789 21.923C89.4119 21.7516 89.0712 21.6725 88.47 21.6725H82.0973L82.1841 21.7582Z" fill="#ffffff"/>
<path d="M98.0892 15.6263C98.3431 15.6263 98.4299 15.7121 98.4299 15.9626V26.0373C98.4299 26.2879 98.3431 26.3736 98.0892 26.3736H96.3858C96.132 26.3736 96.0452 26.2879 96.0452 26.0373V15.9626C96.0452 15.7121 96.132 15.6263 96.3858 15.6263H98.0892Z" fill="#ffffff"/>
<path d="M114.509 15.6263C114.762 15.6263 114.849 15.7121 114.849 15.9626V17.4725C114.849 17.723 114.762 17.8088 114.509 17.8088H109.572V26.0373C109.572 26.2879 109.485 26.3736 109.231 26.3736H107.528C107.274 26.3736 107.187 26.2879 107.187 26.0373V17.8088H102.251C101.997 17.8088 101.91 17.723 101.91 17.4725V15.9626C101.91 15.7121 101.997 15.6263 102.251 15.6263H114.415H114.509Z" fill="#ffffff"/>
<path d="M126.847 15.6263C128.036 15.6263 128.891 15.8769 129.398 16.4637C129.906 16.9648 130.167 17.8088 130.167 18.8176V19.6549C130.167 20.578 130 21.2505 129.659 21.7516C129.318 22.2527 128.724 22.589 127.875 22.7604L130.514 26.0373C130.601 26.123 130.601 26.2022 130.601 26.2879C130.601 26.3736 130.514 26.4527 130.347 26.4527H128.303C128.136 26.4527 128.049 26.4527 128.049 26.367C127.962 26.367 127.962 26.2813 127.882 26.2022L125.417 23.011H120.4V26.1165C120.4 26.367 120.314 26.4527 120.06 26.4527H118.356C118.102 26.4527 118.016 26.367 118.016 26.1165V16.1274C118.016 15.7912 118.183 15.6263 118.523 15.6263H126.947H126.847ZM120.38 21.1648H126.332C126.84 21.1648 127.267 21.0791 127.441 20.8285C127.695 20.578 127.782 20.2417 127.782 19.8197V19.1472C127.782 18.6461 127.695 18.3099 127.441 18.1384C127.187 17.8879 126.847 17.8022 126.332 17.8022H120.547C120.38 17.8022 120.38 17.8879 120.38 17.967V21.1648Z" fill="#ffffff"/>
<path d="M135.611 15.6263C135.865 15.6263 135.951 15.7121 135.951 15.9626V22.0945C135.951 22.5165 135.951 22.8527 136.038 23.1033C136.125 23.3538 136.205 23.6044 136.379 23.7758C136.553 23.9472 136.72 24.0263 136.973 24.1121C137.227 24.1978 137.568 24.1978 137.996 24.1978H142.338C142.765 24.1978 143.106 24.1978 143.36 24.1121C143.613 24.0263 143.867 23.9472 143.954 23.7758C144.121 23.611 144.208 23.3538 144.295 23.1033C144.382 22.8527 144.382 22.5165 144.382 22.0945V15.9626C144.382 15.7121 144.468 15.6263 144.722 15.6263H146.426C146.679 15.6263 146.766 15.7121 146.766 15.9626V22.345C146.766 23.1033 146.68 23.6901 146.513 24.1912C146.346 24.6923 146.085 25.1143 145.744 25.4505C145.404 25.7868 144.976 26.0373 144.382 26.123C143.787 26.2879 143.193 26.3736 142.338 26.3736H137.829C137.06 26.3736 136.379 26.2879 135.784 26.123C135.277 25.9582 134.762 25.7011 134.422 25.4505C134.081 25.1143 133.827 24.6923 133.654 24.1912C133.487 23.6901 133.4 23.0176 133.4 22.345V15.9626C133.4 15.7121 133.486 15.6263 133.74 15.6263H135.444H135.611Z" fill="#ffffff"/>
<path d="M153.473 15.6263C153.727 15.6263 153.901 15.6263 154.068 15.7121C154.235 15.7121 154.408 15.7978 154.495 15.8769C154.582 15.9626 154.749 16.0417 154.836 16.2132C154.923 16.378 155.003 16.5494 155.177 16.8L158.41 24.1912C158.497 24.2769 158.497 24.356 158.664 24.356H158.831C158.917 24.356 158.998 24.2703 159.084 24.1912L162.317 16.8C162.404 16.5494 162.485 16.378 162.658 16.2132C162.745 16.0483 162.825 15.9626 162.999 15.8769C163.086 15.7912 163.253 15.7121 163.426 15.7121C163.6 15.7121 163.767 15.6263 164.021 15.6263H165.724C166.232 15.6263 166.66 15.7121 166.833 15.9626C167 16.2132 167.087 16.6351 167.087 17.2219V26.0373C167.087 26.2879 167 26.3736 166.746 26.3736H165.13C164.876 26.3736 164.789 26.2879 164.789 26.0373V17.9802C164.789 17.8945 164.702 17.8154 164.702 17.8154H164.535C164.448 17.8154 164.368 17.9011 164.368 17.9011L161.222 24.7846C161.135 25.0351 160.968 25.2857 160.794 25.4571C160.621 25.6285 160.541 25.7934 160.367 25.9582C160.2 26.0439 160.026 26.2088 159.859 26.2088C159.692 26.2945 159.432 26.2945 159.178 26.2945H158.41C158.156 26.2945 157.902 26.2945 157.728 26.2088C157.555 26.123 157.388 26.0439 157.221 25.9582C157.054 25.8725 156.967 25.7077 156.793 25.4571C156.626 25.2923 156.539 25.0351 156.366 24.7846L153.219 17.9011C153.219 17.8154 153.132 17.8154 153.052 17.8154H152.885C152.798 17.8154 152.798 17.9011 152.798 17.9802V26.0439C152.798 26.2945 152.712 26.3802 152.458 26.3802H150.835C150.581 26.3802 150.494 26.2945 150.494 26.0439V17.2219C150.494 16.6351 150.581 16.2132 150.748 15.9626C150.915 15.7121 151.342 15.6263 151.857 15.6263H153.56H153.473Z" fill="#ffffff"/>
</g>
</g>
<defs>
<clipPath id="clip0_2004_2159">
<rect width="167" height="42" fill="#ffffff"/>
</clipPath>
</defs>
</svg>
