<svg width="128" height="42" viewBox="0 0 128 42" fill="none" xmlns="http://www.w3.org/2000/svg">
<g clip-path="url(#clip0_2007_2196)">
<g opacity="0.5">
<path d="M38.8904 34.6444V7.35569H47.8473C50.8176 7.35569 53.0542 7.96915 54.5522 9.19606C56.0501 10.4179 56.7991 12.2327 56.7991 14.6405C56.7991 15.9134 56.44 17.0483 55.7064 18.0248C54.9831 19.0114 53.993 19.7731 52.7362 20.3099C54.2187 20.7189 55.3884 21.5061 56.2502 22.6564C57.112 23.8168 57.5327 25.192 57.5327 26.7819C57.5327 29.2306 56.7375 31.1528 55.1421 32.5484C53.5518 33.9491 51.3049 34.6444 48.3962 34.6444H38.8904ZM42.507 21.9407V31.6895H48.4629C50.1455 31.6895 51.4742 31.2601 52.4438 30.3962C53.4133 29.5322 53.9007 28.3411 53.9007 26.833C53.9007 23.5714 52.1103 21.9407 48.5193 21.9407H42.507ZM42.507 18.9858H47.955C49.5351 18.9858 50.797 18.5871 51.7512 17.7998C52.6951 17.0125 53.1722 15.9492 53.1722 14.5996C53.1722 13.0966 52.731 12.0077 51.8538 11.3278C50.9766 10.6428 49.6377 10.3054 47.8473 10.3054H42.507V18.9858ZM77.9859 27.5078H66.505L63.9297 34.6495H60.2054L70.6654 7.35569H73.8255L84.3008 34.6495H80.597L77.9859 27.5078ZM67.6028 24.553H76.9188L72.2506 11.7981L67.6028 24.553ZM96.0587 22.4826C92.9654 21.593 90.7133 20.499 89.2974 19.2057C87.8867 17.9123 87.1788 16.3122 87.1788 14.4156C87.1788 12.2685 88.0457 10.4894 89.7643 9.07848C91.4931 7.67264 93.7297 6.96716 96.4845 6.96716C98.3672 6.96716 100.05 7.33013 101.517 8.05605C102.994 8.77687 104.128 9.77885 104.939 11.0569C105.749 12.3298 106.155 13.7254 106.155 15.2335H102.528C102.528 13.5823 101.999 12.2838 100.948 11.3381C99.896 10.3974 98.4031 9.92199 96.4845 9.92199C94.7044 9.92199 93.3193 10.3105 92.3241 11.0927C91.3238 11.8799 90.8262 12.9586 90.8262 14.3491C90.8262 15.4636 91.293 16.4093 92.2472 17.1761C93.1911 17.943 94.8019 18.6484 97.0796 19.2875C99.3522 19.9265 101.137 20.632 102.42 21.3988C103.702 22.1656 104.657 23.0602 105.277 24.0929C105.898 25.1153 106.206 26.3269 106.206 27.7123C106.206 29.9258 105.339 31.6998 103.61 33.0289C101.876 34.3581 99.5676 35.0227 96.6692 35.0227C94.7865 35.0227 93.0269 34.6648 91.4007 33.9491C89.7745 33.2283 88.5177 32.2417 87.6302 30.9943C86.7427 29.7469 86.3067 28.3257 86.3067 26.741H89.9336C89.9336 28.3871 90.544 29.6856 91.7701 30.6364C92.991 31.5873 94.6223 32.0678 96.6692 32.0678C98.5775 32.0678 100.034 31.6793 101.05 30.9023C102.071 30.1303 102.579 29.0721 102.579 27.743C102.579 26.4036 102.102 25.3709 101.168 24.6399C100.24 23.9191 98.5314 23.1931 96.0587 22.4826ZM126.331 22.0531H114.465V31.6895H128.249V34.6444H110.854V7.35569H128.065V10.3105H114.465V19.0983H126.331V22.0531Z" fill="#ffffff"/>
<path d="M16.3287 37.3334C25.3779 37.3334 32.7189 30.023 32.7189 21C32.7189 11.9822 25.3831 4.66669 16.3287 4.66669C7.74625 4.66669 0.697675 11.2511 0 19.6249H21.6587V22.3701H0C0.697675 30.7489 7.74625 37.3334 16.3287 37.3334Z" fill="#ffffff"/>
</g>
</g>
<defs>
<clipPath id="clip0_2007_2196">
<rect width="128" height="42" fill="#ffffff"/>
</clipPath>
</defs>
</svg>
