<svg width="166" height="42" viewBox="0 0 166 42" fill="none" xmlns="http://www.w3.org/2000/svg">
<g opacity="0.5">
<path d="M7.52976 21L3.7848 24.7607L0 21L3.7848 17.206L7.52976 21ZM16.693 11.8146L23.147 18.2843L26.9318 14.497L16.693 4.26654L6.45408 14.5302L10.2389 18.3176L16.693 11.8146ZM29.6011 17.206L25.8495 21L29.6343 24.794L33.4125 21L29.6011 17.206ZM16.693 30.1854L10.2389 23.6824L6.45408 27.4764L16.693 37.7401L26.9318 27.4764L23.147 23.689L16.693 30.1854ZM16.693 24.7607L20.4778 20.9667L16.693 17.2127L12.9082 21L16.693 24.7607ZM56.4666 25.1467V25.0802C56.4666 22.6307 55.1651 21.386 53.047 20.5673C54.3484 19.8485 55.4573 18.6703 55.4573 16.6136V16.547C55.4573 13.6716 53.1399 11.8079 49.4282 11.8079H40.9157V30.1521H49.6207C53.7574 30.1854 56.4666 28.4814 56.4666 25.1467ZM51.4401 17.3058C51.4401 18.677 50.3312 19.2295 48.5384 19.2295H44.82V15.3423H48.804C50.4972 15.3423 51.4467 16.0279 51.4467 17.2393V17.3058H51.4401ZM52.456 24.6276C52.456 25.9987 51.3803 26.6244 49.6207 26.6244H44.8333V22.6041H49.4946C51.5463 22.6041 52.4626 23.3562 52.4626 24.6009V24.6276H52.456ZM64.906 30.1854V11.8146H60.8622V30.1521H64.906V30.1854ZM86.5524 30.1854V11.8146H82.575V23.1233L74.0028 11.8146H70.2844V30.1521H74.2618V18.5173L83.1328 30.1854H86.5524ZM108.85 30.1854L100.994 11.7214H97.276L89.4209 30.1854H93.5642L95.2242 26.0653H102.953L104.613 30.1854H108.85ZM101.519 22.5043H96.6651L99.1086 16.5604L101.519 22.5043ZM128.052 30.1854V11.8146H124.075V23.1233L115.503 11.8146H111.784V30.1521H115.762V18.5173L124.633 30.1854H128.052ZM148.822 27.2101L146.246 24.6276C144.812 25.9321 143.537 26.7841 141.419 26.7841C138.291 26.7841 136.107 24.1683 136.107 21.0333V20.9334C136.107 17.7984 138.324 15.2158 141.419 15.2158C143.245 15.2158 144.679 16.0012 146.113 17.2726L148.69 14.2973C146.996 12.6333 144.938 11.4551 141.485 11.4551C135.881 11.4551 131.937 15.735 131.937 20.9334V21C131.937 26.2583 135.947 30.445 141.326 30.445C144.845 30.4783 146.93 29.2336 148.822 27.2101ZM166 30.1854V26.5911H156.053V22.7372H164.692V19.1429H156.053V15.4155H165.867V11.8212H152.076V30.1521H166V30.1854Z" fill="#ffffff"/>
</g>
</svg>
