<svg width="146" height="42" viewBox="0 0 146 42" fill="none" xmlns="http://www.w3.org/2000/svg">
<g opacity="0.5">
<path d="M4.27488 12.1573L11.1077 8.21362L17.9405 12.1573L15.3767 13.5437L11.1077 11.0913L6.72768 13.5437L4.27488 12.1573ZM17.8354 17.0563L15.3767 15.6699L11.1077 18.1224L6.72768 15.6699L4.26904 17.0563V19.934L8.54392 22.3864V27.3961L11.0026 28.8874L13.4612 27.3961V22.4971L17.7361 20.0447V17.0622H17.8354V17.0563ZM17.8354 24.9437V22.066L15.3767 23.5573V26.3243L17.8354 24.9437ZM19.6516 25.8991L15.3826 28.3515V31.2292L22.2212 27.2855V19.4039L19.6574 21L19.6516 25.8991ZM17.193 14.6097L19.6516 16.101V18.9787L22.1102 17.4874V14.6097L19.6516 13.1185L17.193 14.6097ZM8.54392 29.4175V32.2952L11.0026 33.7864L13.4612 32.2952V29.4175L11.0026 30.9088L8.54392 29.4175ZM4.26904 24.9437L6.72768 26.3301V23.4525L4.26904 21.9612V24.9437ZM8.54392 14.6097L11.0026 16.101L13.5663 14.6097L11.1077 13.1185L8.54392 14.6097ZM2.45864 16.101L5.0224 14.6097L2.45864 13.1185L0 14.6097V17.4874L2.45864 18.9787V16.101ZM2.45864 21L0 19.5088V27.3903L6.83864 31.334V28.4563L2.56376 26.0039V20.9942L2.45864 21Z" fill="#ffffff"/>
<path d="M41.8669 24.3029C41.8669 22.3864 40.7982 21.4252 39.1981 20.7845C40.2668 20.2544 41.1194 19.2932 41.1194 17.6971C41.1194 15.4602 39.3032 13.9689 36.4182 13.9689H29.7957V28.2466H36.6285C39.7295 28.1359 41.8669 26.8602 41.8669 24.3029ZM37.9133 18.2272C37.9133 19.2932 37.0606 19.7184 35.6707 19.7184H32.7857V16.6311H35.8809C37.2767 16.6311 37.9133 17.167 37.9133 18.2272ZM38.7717 23.8777C38.7717 24.9437 37.9191 25.4738 36.5292 25.4738H32.7916V22.3864H36.4241C38.0242 22.2757 38.7717 22.9165 38.7717 23.8777Z" fill="#ffffff"/>
<path d="M57.3546 28.1359V13.9689H54.2535V22.7068L47.5258 13.9689H44.6467V28.2466H47.7419V19.1883L54.6857 28.2466H57.3546V28.1359Z" fill="#ffffff"/>
<path d="M73.0525 24.3029C73.0525 22.3864 71.9838 21.4252 70.3836 20.7845C71.4523 20.2544 72.305 19.2932 72.305 17.6971C72.305 15.4602 70.4887 13.9689 67.6038 13.9689H60.9812V28.2466H67.814C70.915 28.1359 73.0525 26.8602 73.0525 24.3029ZM69.2098 18.2272C69.2098 19.2932 68.3571 19.7184 66.9672 19.7184H64.0822V16.6311H67.1774C68.4622 16.6311 69.2098 17.167 69.2098 18.2272ZM69.9573 23.8777C69.9573 24.9437 69.1046 25.4738 67.7147 25.4738H63.9771V22.3864H67.6096C69.2098 22.2757 69.9573 22.9165 69.9573 23.8777Z" fill="#ffffff"/>
<path d="M91.9565 25.6894L90.3564 24.0932C89.1825 25.2641 88.0087 25.9049 86.2976 25.9049C83.5177 25.9049 81.5964 23.668 81.5964 20.7903C81.5964 18.0175 83.6287 15.7864 86.2976 15.7864C87.8977 15.7864 89.1825 16.5321 90.2513 17.5981L91.8514 15.6816C90.4615 14.4059 88.8613 13.4447 86.2976 13.4447C82.0227 13.4447 78.9275 16.7476 78.9275 20.7962C78.9275 24.9496 82.0227 28.1476 86.1925 28.1476C88.8613 28.136 90.4615 27.1806 91.9565 25.6894Z" fill="#ffffff"/>
<path d="M104.133 21.9612V27.9262H106.592V13.6486H104.133V19.6136H97.3002V13.6486H94.8416V27.9262H97.3002V21.9612H104.133Z" fill="#ffffff"/>
<path d="M117.91 13.6486H115.562L109.26 28.0311H111.824L113.319 24.6233H120.047L121.542 28.0311H124.211L117.91 13.6486ZM119.194 22.2757H114.283L116.742 16.6311L119.194 22.2757Z" fill="#ffffff"/>
<path d="M126.991 13.6486V27.9262H129.444V13.6486H126.991Z" fill="#ffffff"/>
<path d="M143.436 23.5573L135.745 13.7534H133.502V28.0311H135.961V17.802L143.863 27.9262H146V13.6486H143.541V23.5573H143.436Z" fill="#ffffff"/>
</g>
</svg>
