<svg width="137" height="42" viewBox="0 0 137 42" fill="none" xmlns="http://www.w3.org/2000/svg">
<g clip-path="url(#clip0_2004_2101)">
<g mask="url(#mask0_2004_2101)">
<g opacity="0.5">
<path d="M47.1881 20.737C47.1488 19.76 47.3021 18.7849 47.6394 17.8678C47.9768 16.9507 48.4913 16.1099 49.1535 15.3938C49.8156 14.6778 50.6122 14.1006 51.4973 13.6957C52.3824 13.2908 53.3385 13.0661 54.3104 13.0347H54.6124C58.3687 13.0347 60.5856 15.2565 61.2411 17.856L58.9063 18.6411C58.6966 17.6724 58.1474 16.8118 57.3592 16.2163C56.5709 15.6208 55.596 15.3301 54.6124 15.3972C52.1818 15.3972 49.7439 17.1821 49.7439 20.7814C49.7439 24.3808 52.1229 26.099 54.6418 26.099C55.6304 26.1262 56.5994 25.8191 57.3939 25.227C58.1884 24.6349 58.7625 23.7919 59.0242 22.8329L61.3148 23.5735C60.9194 25.0364 60.0399 26.32 58.8214 27.2127C57.603 28.1053 56.1183 28.5537 54.6124 28.4838C52.6777 28.5195 50.8081 27.7813 49.4146 26.4314C48.021 25.0815 47.2176 23.2304 47.1808 21.2851C47.1734 21.1073 47.1808 20.9222 47.1881 20.737Z" fill="#ffffff"/>
<path d="M65.8592 28.1431H63.4434V12.9902H65.8592V18.9151C66.2099 18.4968 66.651 18.1646 67.1488 17.9439C67.6466 17.7231 68.188 17.6196 68.7316 17.6413C71.2285 17.6413 72.4143 19.4409 72.4143 21.685V28.1431H70.0869V22.1146C70.1566 21.6006 70.0227 21.0797 69.7141 20.6641C69.4055 20.2485 68.9469 19.9715 68.437 19.8927C68.2926 19.8778 68.1469 19.8778 68.0025 19.8927C67.4438 19.8927 66.908 20.1159 66.513 20.5131C66.1179 20.9103 65.896 21.4491 65.896 22.0109C65.8923 22.0725 65.8923 22.1344 65.896 22.196L65.8592 28.1431Z" fill="#ffffff"/>
<path d="M77.835 22.3071L80.4276 21.8998C81.0169 21.8257 81.1642 21.5221 81.1642 21.1592C81.1642 20.3001 80.5897 19.6113 79.2492 19.6113C78.7429 19.5701 78.241 19.7313 77.8521 20.0599C77.4633 20.3885 77.2191 20.858 77.1723 21.3665V21.4776L74.9627 20.9814C75.1468 19.2188 76.7376 17.6487 79.2271 17.6487C82.35 17.6487 83.5358 19.4261 83.5358 21.4999V26.5582C83.5332 27.1063 83.5752 27.6537 83.6611 28.195H81.4515C81.3719 27.7654 81.3397 27.3282 81.3557 26.8915C81.0203 27.4105 80.5554 27.832 80.0075 28.114C79.4595 28.396 78.8477 28.5286 78.2329 28.4986C77.3931 28.5683 76.5602 28.3003 75.9167 27.7532C75.2733 27.2062 74.8718 26.4249 74.8005 25.5806C74.8005 25.5288 74.8005 25.4769 74.8005 25.4325C74.7637 23.5588 76.0968 22.5515 77.835 22.3071ZM81.179 23.9439V23.4773L78.5347 23.8772C78.1758 23.8887 77.8351 24.0392 77.584 24.2972C77.3328 24.5553 77.1905 24.9011 77.1869 25.2622C77.1897 25.4411 77.228 25.6177 77.2994 25.7816C77.3708 25.9455 77.474 26.0935 77.6029 26.2169C77.7318 26.3403 77.8839 26.4366 78.0502 26.5003C78.2165 26.564 78.3938 26.5938 78.5717 26.5878H78.6821C78.9835 26.6196 79.2883 26.591 79.5787 26.5038C79.8692 26.4166 80.1396 26.2725 80.3744 26.0797C80.6092 25.887 80.8038 25.6494 80.9469 25.3807C81.0901 25.112 81.1789 24.8175 81.2084 24.5141C81.2189 24.3232 81.2066 24.1318 81.1716 23.9439H81.179Z" fill="#ffffff"/>
<path d="M87.6459 12.7829C87.8535 12.7799 88.0596 12.8183 88.2524 12.8957C88.4453 12.9731 88.621 13.088 88.7695 13.2339C88.918 13.3798 89.0364 13.5538 89.1178 13.7458C89.1993 13.9379 89.2422 14.1442 89.2441 14.353C89.2441 14.6655 89.1522 14.971 88.98 15.2311C88.8077 15.4913 88.5629 15.6944 88.2761 15.815C87.9894 15.9356 87.6736 15.9682 87.3685 15.9089C87.0634 15.8495 86.7825 15.7007 86.5612 15.4813C86.3399 15.2619 86.1881 14.9815 86.1248 14.6756C86.0615 14.3696 86.0896 14.0517 86.2055 13.7617C86.3214 13.4717 86.52 13.2227 86.7763 13.0459C87.0326 12.8691 87.3351 12.7724 87.6459 12.7681V12.7829ZM86.4674 28.1876V17.9523H88.8832V28.1431L86.4674 28.1876Z" fill="#ffffff"/>
<path d="M94.385 28.1433H91.9766V17.9525H94.3261V19.3078C94.6324 18.7874 95.0723 18.3594 95.5998 18.0688C96.1272 17.7782 96.7227 17.6357 97.3238 17.6562C99.7985 17.6562 101.006 19.4559 101.006 21.7V28.1433H98.598V22.1147C98.598 20.8631 98.0308 19.8484 96.5136 19.8484C96.2331 19.8504 95.9557 19.9079 95.6973 20.0176C95.4389 20.1273 95.2045 20.2872 95.0076 20.488C94.8106 20.6888 94.6549 20.9266 94.5493 21.188C94.4438 21.4493 94.3904 21.729 94.3924 22.011C94.3924 22.0925 94.3924 22.174 94.3924 22.2554L94.385 28.1433Z" fill="#ffffff"/>
<path d="M103.924 28.1431V12.9902H106.34V28.1431H103.924Z" fill="#ffffff"/>
<path d="M110.647 12.783C110.958 12.7815 111.263 12.873 111.522 13.0457C111.781 13.2185 111.983 13.4648 112.103 13.7534C112.222 14.0419 112.254 14.3597 112.194 14.6664C112.133 14.9731 111.984 15.2549 111.764 15.4759C111.544 15.697 111.264 15.8474 110.959 15.908C110.654 15.9686 110.338 15.9368 110.051 15.8165C109.764 15.6961 109.519 15.4928 109.347 15.2323C109.175 14.9717 109.084 14.6657 109.086 14.3531C109.09 13.9379 109.256 13.5407 109.548 13.2471C109.84 12.9535 110.234 12.7868 110.647 12.783ZM109.462 28.1877V17.9524H111.855V28.1432L109.462 28.1877Z" fill="#ffffff"/>
<path d="M117.394 28.1431H114.979V17.9523H117.328V19.3077C117.635 18.7878 118.075 18.3602 118.602 18.0697C119.13 17.7792 119.725 17.6364 120.326 17.6561C122.8 17.6561 124.008 19.4558 124.008 21.6998V28.1431H121.593V22.1146C121.662 21.6007 121.528 21.0798 121.22 20.6642C120.911 20.2485 120.453 19.9715 119.943 19.8927C119.796 19.8779 119.648 19.8779 119.501 19.8927C118.938 19.8986 118.401 20.1275 118.005 20.5296C117.609 20.9318 117.387 21.4747 117.387 22.0405C117.379 22.1267 117.379 22.2135 117.387 22.2997L117.394 28.1431Z" fill="#ffffff"/>
<path d="M132.251 22.2553L136.5 28.1801H133.554L130.608 23.9809L129.363 25.2992V28.1431H126.97V12.9902H129.363V22.0701L133.252 17.9523H136.456L132.251 22.2553Z" fill="#ffffff"/>
<path d="M18.5891 8.88732L29.0331 14.9159V27.0323L18.6186 33.0979L8.18199 27.0841V14.9751L18.5891 8.88732ZM18.5891 0L14.7592 2.22183L4.32995 8.30965L0.5 10.5315V31.5426L4.32995 33.7644L14.7739 39.793L18.6039 42.0148L22.4338 39.793L32.841 33.72L36.6709 31.4981V10.4574L32.841 8.23558L22.4044 2.22183L18.5744 0H18.5891Z" fill="#ffffff"/>
</g>
</g>
</g>
<defs>
<clipPath id="clip0_2004_2101">
<rect width="137" height="42" fill="#ffffff"/>
</clipPath>
</defs>
</svg>
