<svg width="197" height="42" viewBox="0 0 197 42" fill="none" xmlns="http://www.w3.org/2000/svg">
<g opacity="0.5">
<path d="M29.1963 24.3244C28.6069 24.6864 27.9193 24.7523 27.3954 24.456C26.7405 24.0611 26.3475 23.1724 26.3475 21.9546V18.2354C26.3475 16.4581 25.6599 15.1744 24.4811 14.8453C22.4837 14.2529 20.9775 16.7214 20.4208 17.643L16.8844 23.337V16.3264C16.8517 14.7137 16.3277 13.7592 15.3454 13.463C14.6905 13.2655 13.7082 13.3642 12.7586 14.8124L4.8672 27.517C3.81938 25.5093 3.26273 23.2712 3.26273 21.0001C3.26273 13.3313 9.38593 7.11065 16.8844 7.11065C24.3829 7.11065 30.5061 13.3313 30.5061 21.0001V21.0331V21.066C30.5716 22.5471 30.1131 23.732 29.1963 24.3244ZM33.5186 21.0001V20.9672V20.9343C33.4858 11.6198 26.0201 4.01678 16.8844 4.01678C7.71597 4.01678 0.250244 11.6198 0.250244 21.0001C0.250244 30.3476 7.71597 37.9835 16.8844 37.9835C21.1084 37.9835 25.1032 36.3707 28.1812 33.4414C28.8034 32.849 28.8361 31.8945 28.2467 31.2691C27.6901 30.6438 26.7405 30.6109 26.1183 31.1704C26.1183 31.1704 26.1183 31.1704 26.0856 31.2033C23.597 33.5731 20.2571 34.9225 16.8189 34.9225C12.7914 34.9225 9.18947 33.1452 6.70089 30.3146L13.8064 18.8608V24.1598C13.8064 26.6942 14.7888 27.517 15.6074 27.7474C16.426 27.9778 17.6703 27.8132 19.0128 25.6739L22.9094 19.3215C23.0403 19.1241 23.1386 18.9266 23.2696 18.7949V22.0205C23.2696 24.3902 24.2191 26.2992 25.8564 27.2208C27.3299 28.0765 29.1963 27.9778 30.7353 27.0233C32.6345 25.7726 33.6495 23.6003 33.5186 21.0001ZM56.7016 15.2074C57.0945 15.4378 57.4547 15.9973 57.4547 16.491C57.4547 17.2809 56.7998 17.9392 56.0467 17.9392C55.8502 17.9392 55.6865 17.8734 55.5228 17.8404C54.6387 17.1822 53.5254 16.7543 52.3466 16.7543C49.5633 16.7543 47.6641 19.0253 47.6641 21.8559C47.6641 24.6864 49.5961 26.9246 52.3466 26.9246C53.7219 26.9246 54.9661 26.365 55.883 25.4764C56.1122 25.3118 56.4069 25.2131 56.7016 25.2131C57.4547 25.2131 58.0441 25.8055 58.0441 26.5625C58.0441 27.0562 57.7494 27.4841 57.3892 27.7145C56.0467 28.8664 54.2458 29.6235 52.3793 29.6235C48.1226 29.6235 44.6517 26.1017 44.6517 21.7571C44.6517 17.4126 48.1226 13.8908 52.3793 13.8908C53.9511 13.8579 55.4573 14.3516 56.7016 15.2074ZM64.4948 18.4987C67.409 18.4987 69.8321 20.9672 69.8321 24.0282C69.8321 27.0562 67.3763 29.6564 64.4948 29.6564C61.4495 29.6564 58.9282 27.0891 58.9282 24.0282C58.9282 20.9672 61.4495 18.4987 64.4948 18.4987ZM64.462 26.9246C65.7391 26.9246 66.8196 25.7068 66.8196 24.0611C66.8196 22.4154 65.7391 21.3622 64.462 21.3622C63.0868 21.3622 61.9407 22.3825 61.9407 24.0611C61.9407 25.6738 63.0868 26.9246 64.462 26.9246ZM71.6658 27.9449V20.1773C71.6658 19.3215 72.3207 18.6304 73.172 18.6304C73.9906 18.6304 74.6783 19.3215 74.6783 20.1773V27.9449C74.6783 28.8006 73.9906 29.4918 73.172 29.4918C72.3534 29.4918 71.6658 28.7677 71.6658 27.9449ZM71.4366 15.7011C71.4366 14.6807 72.2224 13.8908 73.172 13.8908C74.1544 13.8908 74.9402 14.7137 74.9402 15.7011C74.9402 16.6885 74.1544 17.4784 73.172 17.4784C72.1897 17.4455 71.4366 16.6556 71.4366 15.7011ZM80.4413 23.7319V27.9449C80.4413 28.8006 79.7537 29.4918 78.9351 29.4918C78.1164 29.4918 77.4288 28.8006 77.4288 27.9449V19.8152C77.4288 19.157 77.9527 18.6304 78.6076 18.6304C79.2625 18.6304 79.7537 19.1899 79.7537 19.8152C80.9652 18.6633 82.0458 18.4987 83.0608 18.4987C86.0733 18.4987 87.4158 20.7697 87.4158 23.3699V27.9449C87.4158 28.8006 86.7282 29.4918 85.9096 29.4918C85.091 29.4918 84.4034 28.8006 84.4034 27.9449V23.7319C84.4034 22.4154 84.2396 21.2964 82.3405 21.2964C80.9979 21.2964 80.4413 22.4154 80.4413 23.7319ZM97.1737 25.3447C96.8135 25.3447 96.5843 25.1801 96.3878 24.9498L92.8842 21.1318V27.9449C92.8842 28.8006 92.1965 29.4918 91.3779 29.4918C90.5593 29.4918 89.8717 28.8006 89.8717 27.9449V14.4504C89.9699 14.22 90.1991 14.0554 90.4283 14.0554C90.6903 14.0554 90.9195 14.2858 91.0832 14.4504L96.6825 20.7697C96.8462 20.9672 97.0427 21.066 97.1737 21.066C97.2719 21.066 97.5011 20.9672 97.6648 20.7697L103.264 14.4504C103.428 14.2858 103.624 14.0554 103.919 14.0554C104.181 14.0554 104.41 14.22 104.476 14.4504V27.9449C104.476 28.8006 103.821 29.4918 102.969 29.4918C102.151 29.4918 101.463 28.8006 101.463 27.9449V21.1318L97.9595 24.9498C97.6976 25.1801 97.4684 25.3447 97.1737 25.3447ZM111.647 26.9246C112.989 26.9246 114.135 25.7068 114.135 24.0611C114.135 22.4154 112.956 21.3293 111.647 21.3293C110.337 21.3293 109.256 22.4483 109.256 24.0611C109.256 25.6409 110.304 26.9246 111.647 26.9246ZM114.856 28.3069L114.79 27.9449C114.201 29.0968 112.334 29.6235 111.156 29.6235C108.34 29.6235 106.244 27.0562 106.244 23.9953C106.244 20.9672 108.372 18.4658 111.319 18.4658C111.81 18.4658 113.513 18.5974 114.823 20.1444L114.888 19.7823C114.888 19.1241 115.38 18.5975 116.034 18.5975C116.689 18.5975 117.213 19.157 117.213 19.7823V28.274C117.213 28.9323 116.689 29.4589 116.034 29.4589C115.347 29.4918 114.856 28.9323 114.856 28.3069ZM125.498 21.2964H125.17C123.271 21.3951 122.911 22.4812 122.911 23.7319V27.9449C122.911 28.8006 122.223 29.4918 121.405 29.4918C120.586 29.4918 119.898 28.8006 119.898 27.9449V19.8152C119.898 19.157 120.422 18.6304 121.077 18.6304C121.732 18.6304 122.223 19.1899 122.223 19.8152C123.336 18.762 124.253 18.5316 125.17 18.4987H125.465C126.185 18.4987 126.84 19.1241 126.84 19.914C126.873 20.6381 126.218 21.2964 125.498 21.2964ZM137.122 27.2208C137.253 27.4512 137.351 27.6816 137.351 27.9449C137.351 28.7348 136.631 29.4589 135.845 29.4589C135.321 29.4589 134.862 29.0639 134.502 28.6031L131.031 24.5548V27.912C131.031 28.7677 130.344 29.4589 129.525 29.4589C128.707 29.4589 128.019 28.7677 128.019 27.912V15.5694C128.019 14.7137 128.674 14.0225 129.525 14.0225C130.377 14.0225 131.031 14.7137 131.031 15.5694V23.2712L134.502 19.4203C134.862 19.0253 135.288 18.5975 135.812 18.5975C136.565 18.5975 137.253 19.2886 137.253 20.0786C137.253 20.309 137.187 20.5723 137.056 20.7697L134.306 23.7978L137.122 27.2208ZM143.016 21.3293C142.197 21.3293 140.855 21.7571 140.855 23.0408H145.21C145.177 21.7571 143.802 21.3293 143.016 21.3293ZM146.945 24.9827H140.855C140.855 26.7929 142.59 27.0891 143.343 27.0891C143.9 27.0891 144.686 26.9904 145.308 26.6942C145.504 26.5625 145.799 26.4638 146.094 26.4638C146.749 26.4638 147.305 27.0233 147.305 27.7145C147.305 28.1753 147.011 28.5702 146.65 28.8006C145.734 29.4918 144.522 29.6564 143.376 29.6564C140.331 29.6564 137.809 28.0107 137.809 24.1598C137.809 21.1318 139.348 18.4987 142.95 18.4987C145.865 18.4987 148.058 20.4077 148.124 23.7978C148.124 24.4231 147.6 24.9827 146.945 24.9827ZM155.328 29.6235H154.509C152.217 29.6235 150.875 28.6031 150.875 25.0156V21.2964H150.089C149.368 21.2964 148.746 20.6381 148.746 19.914C148.746 19.1241 149.401 18.4987 150.089 18.4987H150.875V15.6352C150.875 14.7795 151.529 14.0883 152.381 14.0883C153.199 14.0883 153.887 14.7795 153.887 15.6352V18.4987H155.131C155.852 18.4987 156.474 19.1241 156.474 19.914C156.474 20.6381 155.819 21.2964 155.131 21.2964H153.887V24.4231C153.887 26.4967 153.985 26.9246 154.902 26.9246H155.328C156.048 26.9246 156.67 27.517 156.67 28.274C156.67 28.9981 156.048 29.6235 155.328 29.6235ZM169.899 15.2074C170.292 15.4378 170.652 15.9973 170.652 16.491C170.652 17.2809 169.997 17.9392 169.244 17.9392C169.048 17.9392 168.884 17.8734 168.72 17.8404C167.836 17.1822 166.723 16.7543 165.544 16.7543C162.761 16.7543 160.862 19.0253 160.862 21.8559C160.862 24.6864 162.793 26.9246 165.544 26.9246C166.919 26.9246 168.164 26.365 169.08 25.4764C169.31 25.3118 169.604 25.2131 169.899 25.2131C170.652 25.2131 171.242 25.8055 171.242 26.5625C171.242 27.0562 170.947 27.4841 170.587 27.7145C169.244 28.8664 167.443 29.6235 165.577 29.6235C161.32 29.6235 157.849 26.1017 157.849 21.7571C157.849 17.4126 161.32 13.8908 165.577 13.8908C167.148 13.8579 168.687 14.3516 169.899 15.2074ZM177.528 26.9246C178.871 26.9246 180.017 25.7068 180.017 24.0611C180.017 22.4154 178.838 21.3293 177.528 21.3293C176.186 21.3293 175.138 22.4483 175.138 24.0611C175.138 25.6409 176.219 26.9246 177.528 26.9246ZM180.737 28.3069L180.672 27.9449C180.083 29.0968 178.216 29.6235 177.037 29.6235C174.221 29.6235 172.126 27.0562 172.126 23.9953C172.126 20.9672 174.254 18.4658 177.201 18.4658C177.692 18.4658 179.395 18.5974 180.705 20.1444L180.77 19.7823C180.77 19.1241 181.261 18.5975 181.916 18.5975C182.571 18.5975 183.095 19.157 183.095 19.7823V28.274C183.095 28.9323 182.571 29.4589 181.916 29.4589C181.229 29.4918 180.737 28.9323 180.737 28.3069ZM191.314 26.9246C192.656 26.9246 193.704 25.6409 193.704 24.0611C193.704 22.4154 192.624 21.3293 191.314 21.3293C189.971 21.3293 188.825 22.4154 188.825 24.0611C188.825 25.7068 189.971 26.9246 191.314 26.9246ZM188.825 28.7348V32.5857C188.825 33.4414 188.138 34.1326 187.319 34.1326C186.5 34.1326 185.813 33.4414 185.813 32.5857V19.8152C185.813 19.157 186.337 18.6304 186.992 18.6304C187.646 18.6304 188.138 19.1899 188.138 19.9469C189.251 18.7949 190.626 18.4987 191.674 18.4987C194.588 18.4987 196.749 20.9672 196.749 24.0282C196.749 27.0562 194.687 29.6564 191.838 29.6564C190.954 29.6235 189.644 29.3602 188.825 28.7348Z" fill="#ffffff"/>
</g>
</svg>
