<svg width="135" height="42" viewBox="0 0 135 42" fill="none" xmlns="http://www.w3.org/2000/svg">
<g opacity="0.5">
<path fill-rule="evenodd" clip-rule="evenodd" d="M20.4337 2.87868C30.4382 2.87868 38.5079 10.9483 38.5079 21C38.5079 30.9101 30.3438 39.0742 20.2921 39.027C10.5708 38.9326 2.40674 30.9101 2.40674 20.9528C2.40674 10.9483 10.4292 2.83149 20.4337 2.87868ZM6.70112 30.391C6.70112 30.5798 6.7955 30.6742 6.88988 30.8158C7.59775 31.8068 8.4 32.7506 9.34382 33.5528C9.76854 33.9304 10.1933 34.3079 10.6652 34.6382C11.9865 35.4877 13.3551 36.2899 14.8652 36.809C16.0921 37.2337 17.3663 37.5641 18.6404 37.7056C19.6315 37.8 20.6697 37.8472 21.6607 37.7056C22.227 37.6113 22.8404 37.6113 23.4067 37.3753C23.5011 37.4225 23.5483 37.3281 23.5955 37.3281C24.7753 37.1394 25.9079 36.7618 27.0404 36.2899C30.7213 34.6854 33.5056 32.0899 35.2989 28.5034C36.9034 25.3416 37.4225 21.991 36.9034 18.4989C36.4315 15.1483 35.0157 12.2225 32.7506 9.76857C29.7303 6.32363 25.8607 4.53037 21.2831 4.24722C19.2539 4.10565 17.2247 4.3888 15.2899 5.04947C12.1281 6.08767 9.53258 7.88093 7.40899 10.4764C5.00224 13.4495 3.82247 16.8472 3.6809 20.6225C3.6337 21.5663 3.72809 22.463 3.86966 23.4068C4.15281 25.5304 4.86067 27.5596 5.94606 29.4C6.22921 29.6832 6.41797 30.0607 6.70112 30.391Z" fill="#AAADC0"/>
<path fill-rule="evenodd" clip-rule="evenodd" d="M23.4068 37.3281C22.8405 37.6113 22.227 37.6113 21.6607 37.6584C20.6697 37.8 19.6315 37.7528 18.6405 37.6584C17.3663 37.5169 16.0922 37.1865 14.8652 36.7618C13.3551 36.2427 11.9866 35.4405 10.6652 34.591C10.1933 34.2607 9.76859 33.8832 9.34387 33.5056C8.40005 32.7034 7.5978 31.7596 6.88993 30.7686C6.79555 30.627 6.70117 30.4854 6.70117 30.3438C7.83376 27.7955 8.25847 25.1056 8.49443 22.3686C8.58881 21.0944 8.636 19.8202 8.87196 18.5461C9.10791 17.0832 9.67421 15.7618 10.7124 14.6292C11.6562 13.6382 12.836 12.9775 14.1102 12.5056C15.1484 12.0809 16.2338 11.7034 17.4135 11.6562C18.4989 11.609 19.5371 11.7506 20.5753 11.9865C22.1326 12.3641 23.6899 12.836 25.1529 13.5438C26.3326 14.0157 27.5596 14.4877 28.7866 14.8652C30.0607 15.2427 31.3349 15.6674 32.4203 16.4697C33.7888 17.5079 34.1663 18.8292 33.5529 20.4337C33.1753 21.4247 32.4675 22.1798 31.7596 22.9348C30.4854 24.2562 29.1169 25.4832 27.8899 26.8517C26.4742 28.5034 25.2 30.2023 24.3034 32.1843C23.5484 33.836 23.1236 35.5349 23.4068 37.3281ZM32.5147 21.8023C32.4675 21.8023 32.4203 21.8023 32.3731 21.8495C32.3259 21.8495 32.2787 21.8966 32.2787 21.9438C32.2787 21.9438 32.2787 21.9438 32.2787 21.991C32.3259 21.991 32.3731 21.9438 32.3731 21.8966L32.5147 21.8023C32.609 21.8023 32.5618 21.8023 32.5147 21.8023ZM18.0742 13.591C16.2809 13.591 14.818 15.054 14.818 16.8C14.818 18.5933 16.2809 20.009 18.027 20.0562C19.8203 20.0562 21.236 18.5933 21.2832 16.8C21.2832 15.0068 19.8675 13.591 18.0742 13.591ZM20.7169 23.5011C21 23.9259 21.5191 24.3034 22.1326 24.4922C23.3596 24.9169 24.5866 24.9169 25.8135 24.6809C27.9843 24.2562 30.0135 23.5011 31.854 22.2742C31.9484 22.1798 32.1371 22.1798 32.1843 21.991C32.0899 21.9438 32.0427 21.991 31.9956 22.0382C31.3821 22.4157 30.7214 22.6989 30.0607 22.982C28.3618 23.6899 26.5686 24.1618 24.6809 24.2562C23.3124 24.3506 21.9439 24.2562 20.7169 23.5011ZM29.636 20.7169C30.0135 20.7169 30.3439 20.3865 30.3439 19.9618C30.3439 19.5843 30.0135 19.254 29.5888 19.3011C29.2113 19.3011 28.9281 19.6315 28.9281 20.009C28.9281 20.4337 29.2113 20.7169 29.636 20.7169Z" fill="#A9ACBF"/>
<path fill-rule="evenodd" clip-rule="evenodd" d="M20.5282 11.9866C19.49 11.7978 18.4518 11.609 17.3664 11.6562C16.1866 11.7034 15.1484 12.0809 14.063 12.5057C12.7888 12.9776 11.6091 13.6383 10.6652 14.6293C9.62704 15.7147 9.06075 17.036 8.8248 18.5461C8.63603 19.8203 8.58884 21.0944 8.44727 22.3686C8.21131 25.1057 7.78659 27.8427 6.65401 30.3439C6.32367 30.0607 6.13491 29.636 5.94615 29.3057C4.86075 27.4652 4.15289 25.436 3.86974 23.3124C3.72817 22.3686 3.63379 21.472 3.68098 20.5281C3.82255 16.7529 5.00233 13.3551 7.40907 10.3821C9.48547 7.78657 12.1282 5.99331 15.29 4.95511C17.2248 4.34162 19.254 4.05848 21.2832 4.15286C25.8136 4.43601 29.6832 6.27646 32.7506 9.62702C35.0158 12.1281 36.3843 15.054 36.9034 18.3574C37.4225 21.8495 36.9035 25.2001 35.299 28.3618C33.5057 31.9484 30.7214 34.5439 27.0405 36.1484C25.9551 36.6203 24.8225 36.9978 23.5956 37.1866C23.5012 37.1866 23.454 37.3281 23.4068 37.2338C23.1237 35.4405 23.5484 33.7416 24.2563 32.0899C25.1529 30.1079 26.427 28.409 27.8428 26.7574C29.0225 25.3888 30.3911 24.1147 31.7124 22.8405C32.4675 22.0854 33.1282 21.3304 33.5057 20.3394C34.1664 18.7349 33.7888 17.4135 32.3731 16.3753C31.2877 15.5731 30.0136 15.1484 28.7394 14.7708C27.5124 14.3933 26.2855 13.9214 25.1057 13.4495C24.8697 12.6472 24.3034 12.1281 23.5484 11.845C22.5574 11.609 21.5664 11.7034 20.5282 11.9866ZM35.9596 22.0383H36.054C36.2428 21.3776 36.2428 20.6697 36.2428 19.9618C36.2428 19.1596 36.1484 18.3574 36.0068 17.5551C35.4877 14.9596 34.3079 12.6944 32.4675 10.7596C31.3349 9.57983 30.0608 8.58881 28.7866 7.55061C27.654 6.60679 26.427 5.89893 25.0113 5.5214C23.6428 5.19106 22.3214 5.0023 20.9057 5.23825C20.8113 5.23825 20.7169 5.23825 20.7169 5.33264C20.7169 5.42702 20.8113 5.42702 20.9057 5.42702C22.9821 5.80454 24.9641 6.46522 26.899 7.22028C28.7866 7.97533 30.3911 9.06073 31.5709 10.7596C32.3731 11.9394 33.1282 13.1663 33.7416 14.4877C34.5439 16.2809 35.1574 18.1214 35.5349 20.009C35.7237 20.7641 35.8652 21.3776 35.9596 22.0383Z" fill="#DADEEF"/>
<path fill-rule="evenodd" clip-rule="evenodd" d="M18.0743 13.5909C19.8676 13.5909 21.2833 15.0539 21.2833 16.7999C21.2833 18.5932 19.8204 20.0089 18.0271 20.0561C16.2338 20.0561 14.8181 18.5932 14.8181 16.7999C14.8181 15.0067 16.281 13.5909 18.0743 13.5909ZM20.3395 16.8471C20.3395 15.573 19.3485 14.582 18.0743 14.582C16.8001 14.582 15.8091 15.573 15.8091 16.8471C15.8091 18.0741 16.8001 19.1123 18.0271 19.1123H18.0743C19.3013 19.1123 20.2923 18.1213 20.3395 16.8471Z" fill="#FCFDFB"/>
<path fill-rule="evenodd" clip-rule="evenodd" d="M20.7168 23.5012C21.9438 24.2562 23.3123 24.3506 24.6809 24.3034C26.5685 24.209 28.3618 23.7843 30.0607 23.0293C30.7213 22.7461 31.382 22.463 31.9955 22.0854C32.0427 22.0382 32.0899 21.991 32.1843 22.0382C32.1371 22.1798 31.9955 22.227 31.8539 22.3214C30.0135 23.5484 27.9843 24.3034 25.8135 24.7281C24.5865 24.9641 23.3123 24.9641 22.1326 24.5394C21.5191 24.3034 20.9528 23.9259 20.7168 23.5012ZM20.5281 11.9866C21.5191 11.7034 22.5573 11.609 23.5483 11.9866C24.3034 12.2697 24.8696 12.7888 25.1056 13.591C23.6899 12.836 22.1326 12.3641 20.5281 11.9866Z" fill="#7E8295"/>
<path fill-rule="evenodd" clip-rule="evenodd" d="M29.6358 20.7169C29.2583 20.7169 28.928 20.3865 28.928 20.009C28.928 19.6315 29.2111 19.3011 29.5886 19.3011C29.9662 19.3011 30.2965 19.5843 30.3437 19.9618C30.2965 20.3865 30.0134 20.7169 29.6358 20.7169Z" fill="#FCFDFB"/>
<path fill-rule="evenodd" clip-rule="evenodd" d="M32.3729 21.8967C32.3729 21.9439 32.3258 21.9911 32.2786 21.9911C32.2786 21.8967 32.3258 21.8495 32.3729 21.8967ZM32.5145 21.8023L32.3729 21.8967L32.3258 21.8495C32.4201 21.8023 32.4673 21.8023 32.5145 21.8023Z" fill="#A9ACBF"/>
<path fill-rule="evenodd" clip-rule="evenodd" d="M35.9597 22.0383C35.8181 21.3776 35.6765 20.7641 35.5821 20.1034C35.2046 18.1686 34.5439 16.3281 33.7889 14.5821C33.2226 13.2607 32.4675 12.0338 31.6181 10.854C30.4383 9.15511 28.881 8.06972 26.9462 7.31466C24.9642 6.55961 23.0293 5.85174 20.9529 5.5214C20.8585 5.5214 20.7642 5.5214 20.7642 5.42702C20.7642 5.33264 20.8585 5.33264 20.9529 5.33264C22.3215 5.09669 23.69 5.23826 25.0585 5.61579C26.4743 5.99331 27.7012 6.74837 28.8338 7.645C30.108 8.6832 31.3821 9.67421 32.5147 10.854C34.3552 12.7888 35.5349 15.054 36.054 17.6495C36.1956 18.4517 36.29 19.254 36.29 20.0562C36.29 20.7169 36.29 21.4248 36.1012 22.1326L35.9597 22.0383Z" fill="#FFFEFC"/>
<path fill-rule="evenodd" clip-rule="evenodd" d="M20.3394 16.8471C20.3394 18.0741 19.3484 19.1123 18.1214 19.1123H18.0743C16.8473 19.1123 15.8091 18.1212 15.8091 16.8471V16.7999C15.8091 15.5257 16.8473 14.5347 18.0743 14.5347C19.3012 14.5347 20.3394 15.5729 20.3394 16.8471Z" fill="#7E8295"/>
<path fill-rule="evenodd" clip-rule="evenodd" d="M91.9282 25.9551C91.881 26.0023 91.8338 26.0023 91.7866 26.0494C90.3237 27.7011 88.4833 27.9843 86.5012 27.4652C84.0473 26.8517 82.726 25.1056 82.2068 22.6989C81.8765 21.1416 81.9709 19.5843 82.5844 18.1214C83.6698 15.5259 86.1237 14.1101 88.908 14.4877C90.1821 14.6764 91.3619 15.1011 92.2585 16.045C92.9192 16.7528 93.2967 17.6023 93.4383 18.5461C93.4855 18.7348 93.3911 18.782 93.2495 18.782C92.6833 18.782 92.0698 18.782 91.5035 18.782C91.3619 18.782 91.3147 18.7348 91.2675 18.5933C90.9844 17.3191 90.1349 16.6112 88.908 16.3753C87.4922 16.0921 86.2653 16.3753 85.3215 17.5079C84.472 18.5461 84.2361 19.8202 84.2361 21.1416C84.2361 22.1326 84.4248 23.0764 84.8495 23.9259C85.8406 25.8135 88.2945 26.4742 90.1349 25.3888C91.1731 24.7753 91.5035 23.7843 91.5979 22.6517C91.5979 22.4157 91.4563 22.4629 91.3147 22.4629C90.3709 22.4629 89.4743 22.4629 88.5304 22.4629C88.2473 22.4629 88.2001 22.3686 88.2001 22.1326C88.2001 21.7551 88.2001 21.4247 88.2001 21.0472C88.2001 20.8112 88.2945 20.7641 88.4833 20.7641C90.0877 20.7641 91.7394 20.7641 93.3439 20.7641C93.5327 20.7641 93.6271 20.8112 93.6271 21C93.6271 23.0764 93.6271 25.1056 93.6271 27.182C93.6271 27.3708 93.5799 27.418 93.3911 27.418C93.0136 27.418 92.5417 27.5124 92.2585 27.3708C91.9754 27.182 92.0698 26.7101 91.9754 26.3326C91.9754 26.191 91.9282 26.0495 91.9282 25.9551ZM54.5529 18.782C54.2698 18.782 53.9866 18.782 53.6563 18.782C53.4675 18.782 53.4203 18.7348 53.3731 18.5461C52.9956 17.2247 52.1462 16.4225 50.7776 16.2809C49.2675 16.1393 47.9934 16.6112 47.2383 17.9798C46.1057 20.0562 46.1529 22.1798 47.2855 24.209C48.0406 25.5775 49.6922 26.191 51.2024 25.7663C52.5237 25.3888 53.1372 24.3978 53.4203 23.1236C53.5147 22.6045 53.5147 22.6045 54.0338 22.6045C54.5057 22.6045 54.9776 22.6045 55.4495 22.6045C55.6383 22.6045 55.6855 22.6517 55.6383 22.8405C55.4024 25.3416 53.7979 27.2764 51.3439 27.6539C47.8046 28.2202 44.8788 26.0494 44.3125 22.5101C44.0765 20.9528 44.2181 19.4427 44.8316 17.9798C45.917 15.5259 48.3237 14.2045 51.0136 14.5348C52.2878 14.7236 53.4675 15.1483 54.4113 16.0921C55.072 16.8 55.4495 17.6495 55.5911 18.5933C55.6383 18.782 55.5911 18.8292 55.4024 18.8292C55.1664 18.7348 54.8361 18.782 54.5529 18.782ZM124.018 27.3708C123.216 27.3708 122.508 27.3708 121.753 27.3708C121.564 27.3708 121.47 27.2764 121.423 27.1348C120.62 25.8135 119.771 24.5393 118.969 23.218C118.827 22.982 118.78 22.982 118.544 23.1708C117.742 23.7371 117.411 24.4921 117.553 25.4832C117.647 26.0023 117.553 26.5686 117.553 27.1348C117.553 27.3708 117.459 27.418 117.27 27.418C116.798 27.418 116.326 27.418 115.854 27.418C115.618 27.418 115.571 27.3236 115.571 27.0877C115.571 25.1528 115.571 23.218 115.571 21.236C115.571 19.2068 115.571 17.1775 115.571 15.1011C115.571 14.7708 115.665 14.6764 115.996 14.7236C116.42 14.7708 116.845 14.7708 117.27 14.7236C117.553 14.7236 117.6 14.818 117.6 15.0539C117.6 17.1775 117.6 19.3011 117.6 21.4247V21.8023L117.694 21.8495C117.836 21.6607 118.025 21.4719 118.166 21.2832C119.11 20.2921 120.054 19.3483 121.045 18.3573C121.139 18.2629 121.234 18.1686 121.375 18.1686C122.13 18.1686 122.885 18.1686 123.641 18.1686C123.641 18.3101 123.499 18.3573 123.452 18.4517C122.461 19.3955 121.517 20.3393 120.479 21.2832C120.243 21.4719 120.243 21.6135 120.432 21.8966C121.564 23.5955 122.697 25.2944 123.829 26.9933C123.829 27.1348 123.924 27.2292 124.018 27.3708ZM100.706 23.3124C99.6675 23.3124 98.6765 23.3124 97.6383 23.3124C97.4024 23.3124 97.3552 23.3596 97.3552 23.5955C97.4495 25.436 99.1484 26.5686 100.847 25.8607C101.319 25.6719 101.697 25.2944 101.885 24.7753C101.98 24.5393 102.121 24.4921 102.31 24.4921C102.735 24.4921 103.207 24.4921 103.632 24.4921C103.868 24.4921 103.915 24.5393 103.82 24.7753C103.301 26.427 102.169 27.3236 100.47 27.5596C98.9597 27.7955 97.5439 27.4652 96.4585 26.3326C95.7035 25.5304 95.3731 24.4921 95.2788 23.4068C95.1844 22.0854 95.3731 20.8112 96.2226 19.6787C97.308 18.2629 98.7709 17.7438 100.47 18.027C102.263 18.3573 103.348 19.4899 103.868 21.1888C104.056 21.8023 104.103 22.4157 104.056 23.0764C104.056 23.3124 103.962 23.3596 103.773 23.3596C102.782 23.3124 101.744 23.3124 100.706 23.3124ZM99.7147 21.991C100.423 21.991 101.13 21.991 101.791 21.991C102.027 21.991 102.074 21.9438 102.027 21.7079C101.838 20.4809 100.942 19.5843 99.7619 19.5371C98.5349 19.4899 97.5439 20.3393 97.3552 21.6135C97.308 21.8495 97.3552 21.9438 97.6383 21.9438C98.3462 21.991 99.0069 21.991 99.7147 21.991ZM57.0069 22.7933C57.0069 22.227 57.1012 21.6135 57.2428 21.0472C57.8563 19.0652 59.6024 17.8382 61.7731 17.9798C63.4248 18.0742 64.7934 18.6405 65.5956 20.1034C66.5394 21.8966 66.5394 23.7843 65.5484 25.5303C64.6518 27.182 63.0945 27.7011 61.3012 27.6068C58.6113 27.4652 57.0069 25.6247 57.0069 22.7933ZM59.0361 22.7933C59.0361 23.5955 59.1776 24.3034 59.6495 24.9641C60.4046 26.0495 61.8675 26.3798 62.9529 25.6247C63.1889 25.436 63.4248 25.2472 63.6136 25.0112C64.4158 23.8315 64.463 21.8495 63.6136 20.6225C62.6226 19.2068 60.5462 19.2068 59.6024 20.6697C59.1776 21.2832 59.0361 22.0382 59.0361 22.7933ZM124.537 22.8405C124.537 21.5191 124.82 20.3393 125.717 19.3483C126.614 18.3101 127.841 17.9326 129.162 17.9326C130.483 17.9326 131.71 18.3101 132.654 19.3483C133.645 20.4809 133.881 21.8495 133.787 23.3124C133.739 23.8315 133.645 24.3506 133.456 24.8225C132.748 26.6629 131.05 27.7011 128.879 27.5596C126.33 27.418 124.726 25.7663 124.584 23.218C124.584 23.1236 124.537 22.9348 124.537 22.8405ZM131.757 22.9348C131.757 21.991 131.521 21.1888 131.191 20.6225C130.483 19.4899 128.973 19.2068 127.888 19.9146C127.605 20.1034 127.369 20.3393 127.18 20.6225C126.378 21.8023 126.425 23.7843 127.18 24.9169C127.935 26.0023 129.398 26.3326 130.483 25.5775C130.766 25.3888 130.955 25.2 131.144 24.9169C131.616 24.3034 131.757 23.5483 131.757 22.9348ZM74.09 19.4899C74.6563 18.782 75.317 18.2629 76.2136 18.027C77.0158 17.8382 77.8181 17.8854 78.5731 18.2157C79.7057 18.6877 80.1776 19.6787 80.2248 20.8584C80.272 22.9348 80.2248 25.0113 80.2248 27.0877C80.2248 27.3236 80.1776 27.3708 79.9417 27.3708C79.4698 27.3708 78.9979 27.3708 78.526 27.3708C78.29 27.3708 78.1956 27.3236 78.1956 27.0405C78.1956 25.2944 78.1956 23.5011 78.1956 21.7551C78.1956 21.3775 78.1484 21 78.054 20.6697C77.7709 19.7259 76.8743 19.3483 75.7889 19.6315C74.8451 19.9146 74.2316 20.7641 74.2316 21.8495C74.2316 23.5483 74.2316 25.2944 74.2316 26.9933C74.2316 27.2764 74.1844 27.418 73.854 27.3708C73.4293 27.3236 72.9574 27.3236 72.5327 27.3708C72.2967 27.3708 72.2024 27.3236 72.2024 27.0405C72.2024 25.7191 72.2024 24.445 72.2024 23.1236C72.2024 21.6135 72.2024 20.1034 72.2024 18.5933C72.2024 18.2629 72.2967 18.1686 72.6271 18.2157C73.0518 18.2629 73.4293 18.2157 73.854 18.2157C74.09 18.2157 74.1844 18.2629 74.1372 18.4989C74.09 18.8292 74.09 19.1596 74.09 19.4899ZM112.787 21.2832C112.739 21.2832 112.692 21.2832 112.645 21.2832C112.126 21.3303 111.796 21.2832 111.56 20.6697C110.993 19.2539 108.728 19.2068 107.784 20.5281C107.454 20.9528 107.312 21.4719 107.218 22.0382C107.124 22.9348 107.124 23.8315 107.501 24.6809C107.973 25.7191 108.823 26.191 109.908 26.0494C110.805 25.9079 111.418 25.3416 111.654 24.3506C111.701 24.0674 111.843 23.973 112.126 24.0202C112.598 24.0202 113.023 24.0202 113.494 24.0202C113.73 24.0202 113.778 24.1146 113.73 24.3034C113.259 26.5686 111.654 27.8427 109.294 27.7011C106.935 27.5596 105.378 26.0023 105.189 23.5955C105.094 22.5573 105.189 21.5191 105.614 20.5281C106.321 18.8764 107.926 17.9326 109.814 18.027C110.946 18.0742 111.984 18.3573 112.834 19.1596C113.353 19.6787 113.636 20.3393 113.778 21.0472C113.825 21.2832 113.73 21.3775 113.494 21.3303C113.306 21.2832 113.07 21.2832 112.787 21.2832ZM69.9844 22.8405C69.9844 24.209 69.9844 25.5775 69.9844 26.9461C69.9844 27.3236 69.89 27.418 69.5597 27.3708C69.1349 27.3236 68.7574 27.3236 68.3327 27.3708C68.0495 27.3708 67.9552 27.3236 67.9552 26.9933C67.9552 24.5393 67.9552 22.0854 67.9552 19.6315C67.9552 19.2539 67.9552 18.8764 67.9552 18.4989C67.9552 18.2629 68.0024 18.2157 68.2383 18.2157C68.7102 18.2157 69.1821 18.2157 69.654 18.2157C69.9372 18.2157 70.0316 18.2629 70.0316 18.5933C69.9844 20.009 69.9844 21.4247 69.9844 22.8405ZM69.0406 14.7236C69.3237 14.7708 69.7484 14.582 69.9372 14.7708C70.1259 14.9596 69.9844 15.3843 69.9844 15.7146C69.9844 15.9978 70.1259 16.3753 69.9372 16.5641C69.7484 16.7528 69.3709 16.6112 69.0877 16.6112C68.7102 16.6112 68.2383 16.7528 68.0024 16.5641C67.8136 16.3281 67.9552 15.8562 67.9552 15.5259C67.9552 14.7236 67.9552 14.7236 68.7574 14.7236H69.0406Z" fill="#ffffff"/>
</g>
</svg>
