<svg width="117" height="42" viewBox="0 0 117 42" fill="none" xmlns="http://www.w3.org/2000/svg">
<g clip-path="url(#clip0_2004_2122)">
<g mask="url(#mask0_2004_2122)">
<g opacity="0.5">
<path d="M52.955 21.4168C52.955 22.6815 52.716 23.7723 52.238 24.705C51.7918 25.5903 51.1544 26.365 50.3577 26.9815C49.577 27.5823 48.6847 28.0249 47.7286 28.2936C46.7566 28.5782 45.7687 28.7047 44.7649 28.7205H39.3154V14.2396H44.5896C45.6253 14.2396 46.6451 14.3661 47.6489 14.6032C48.605 14.8245 49.5132 15.2198 50.3259 15.7889C51.1226 16.358 51.7759 17.1168 52.222 18.0021C52.716 18.9032 52.955 20.0573 52.955 21.4168ZM49.2902 21.4168C49.322 20.7212 49.1786 20.0256 48.8918 19.3775C48.6528 18.8716 48.2704 18.4289 47.8242 18.097C47.3621 17.765 46.8522 17.5437 46.2945 17.4172C45.7209 17.2749 45.1154 17.2117 44.5259 17.2117H42.7731V25.6852H44.4462C45.0676 25.6852 45.6731 25.622 46.2786 25.4639C46.8363 25.3374 47.3621 25.1003 47.8242 24.7525C48.2863 24.4047 48.6528 23.962 48.8918 23.4403C49.1786 22.808 49.3061 22.1124 49.2902 21.4168ZM62.1808 22.4444C62.1967 21.9385 62.0055 21.4484 61.6709 21.069C61.3363 20.6896 60.8264 20.4999 60.1572 20.4999C59.8544 20.4999 59.5358 20.5473 59.2489 20.658C58.9781 20.7528 58.7391 20.8951 58.5319 21.0848C58.3248 21.2587 58.1654 21.4642 58.038 21.7014C57.9105 21.9385 57.8467 22.1914 57.8308 22.4444H62.1808ZM65.288 23.7249V24.1359C65.288 24.2624 65.288 24.3889 65.272 24.5312H57.8308C57.8467 24.7999 57.9424 25.0687 58.0858 25.3058C58.2292 25.5429 58.4204 25.7484 58.6434 25.9065C58.8665 26.0804 59.1374 26.2069 59.4083 26.3017C59.6951 26.3966 59.9819 26.444 60.2847 26.444C60.7627 26.4598 61.2248 26.3492 61.6391 26.1437C61.9896 25.9539 62.3083 25.701 62.5473 25.3848L64.9055 26.8551C64.4275 27.5506 63.7583 28.1039 62.9935 28.4675C62.133 28.8628 61.1929 29.0525 60.2369 29.0367C59.488 29.0367 58.755 28.926 58.0539 28.6731C57.3847 28.4517 56.7792 28.0881 56.2533 27.6297C55.7275 27.1554 55.3132 26.5863 55.0424 25.9381C54.7396 25.2109 54.5803 24.4363 54.5962 23.6459C54.5803 22.8712 54.7396 22.0966 55.0264 21.3852C55.2973 20.737 55.6957 20.1521 56.2055 19.662C56.7154 19.1878 57.305 18.8084 57.9583 18.5712C58.6594 18.3025 59.3924 18.176 60.1413 18.176C60.8583 18.1602 61.5594 18.3025 62.2286 18.5554C62.85 18.7926 63.4077 19.172 63.8539 19.6462C64.316 20.1521 64.6825 20.737 64.9215 21.3852C65.1764 22.144 65.3039 22.9345 65.288 23.7249ZM78.9594 24.4837C78.9753 25.1793 78.816 25.8749 78.4814 26.4756C78.1786 26.9973 77.7484 27.4558 77.2226 27.772C76.6808 28.1039 76.0753 28.3411 75.438 28.4834C74.7687 28.6256 74.0836 28.7047 73.3825 28.7047H67.5825V14.2238H73.3984C73.972 14.2238 74.5616 14.287 75.1352 14.3977C75.7088 14.5084 76.2506 14.6981 76.7446 14.9984C77.2226 15.283 77.6209 15.6624 77.9237 16.1367C78.2264 16.6109 78.3858 17.2275 78.3858 17.9547C78.4176 18.6819 78.1786 19.3775 77.7325 19.9466C77.2704 20.4841 76.6808 20.8793 75.9956 21.0848V21.1323C76.394 21.1955 76.7924 21.322 77.1588 21.5117C78.2742 22.0492 78.9913 23.219 78.9594 24.4837ZM74.9599 18.4131C74.9918 17.9705 74.7687 17.5595 74.3863 17.3381C74.0039 17.1168 73.4462 17.0062 72.7132 17.0062H70.9764V19.994H72.8726C73.5259 19.994 74.0517 19.8675 74.4022 19.5988C74.7847 19.3142 74.9918 18.8716 74.9599 18.4131ZM75.438 24.1517C75.438 23.551 75.2149 23.14 74.7528 22.9028C74.3066 22.6657 73.7011 22.555 72.9363 22.555H70.9764V25.8749H72.9522C73.2391 25.8749 73.5259 25.8433 73.8127 25.7959C74.0836 25.7484 74.3544 25.6694 74.6094 25.5429C74.8484 25.4164 75.0555 25.2425 75.1989 25.0212C75.3583 24.7683 75.438 24.4679 75.438 24.1517ZM87.1654 24.2624H86.7352C86.3687 24.2624 85.9863 24.2782 85.6198 24.3098C85.2693 24.3414 84.9347 24.4047 84.616 24.4995C84.3451 24.5786 84.0902 24.7209 83.883 24.9264C83.6918 25.1161 83.5803 25.3848 83.5962 25.6536C83.5962 25.8275 83.644 26.0014 83.7237 26.1437C83.8033 26.2701 83.9308 26.3966 84.0583 26.4756C84.2017 26.5547 84.361 26.6179 84.5363 26.6495C84.7116 26.6812 84.8709 26.697 85.0462 26.697C85.7314 26.697 86.2572 26.5073 86.6237 26.1278C86.9902 25.7484 87.1654 25.2425 87.1654 24.6102V24.2624ZM80.9511 19.8992C81.5566 19.3301 82.2737 18.8874 83.0704 18.6187C83.8671 18.3341 84.6957 18.1918 85.5402 18.1918C86.2891 18.176 87.022 18.2867 87.7391 18.508C88.2967 18.6977 88.8066 19.0297 89.1891 19.4881C89.5874 19.9782 89.8583 20.5473 90.0017 21.1639C90.1929 21.9543 90.2726 22.7606 90.2566 23.5668V28.7047H87.1654V27.6139H87.1017C86.8149 28.0565 86.4006 28.4043 85.9226 28.594C85.3808 28.8312 84.7913 28.9418 84.2017 28.9418C83.7715 28.9418 83.3413 28.8944 82.927 28.7837C82.4967 28.6731 82.0825 28.4992 81.716 28.2462C81.3336 27.9933 81.0308 27.6613 80.8077 27.2661C80.5528 26.8076 80.4413 26.2859 80.4572 25.7484C80.4572 25.0054 80.6643 24.4205 81.0627 23.962C81.4929 23.4878 82.0347 23.14 82.6242 22.9186C83.3094 22.6657 84.0264 22.4918 84.7594 22.4286C85.5242 22.3495 86.2891 22.3021 87.0539 22.3021V22.144C87.0539 21.6381 86.8786 21.2745 86.5121 21.0374C86.1138 20.7845 85.6517 20.658 85.1896 20.6738C84.7116 20.6738 84.2336 20.7845 83.8033 20.9742C83.3891 21.1639 83.0066 21.401 82.6561 21.7172L80.9511 19.8992ZM99.5143 28.7047V23.14C99.5143 22.8712 99.4984 22.5867 99.4347 22.3179C99.3869 22.0808 99.3072 21.8437 99.1957 21.6381C99.0841 21.4484 98.9248 21.2745 98.7336 21.1639C98.5105 21.0374 98.2396 20.9742 97.9847 20.99C97.7138 20.99 97.4429 21.0374 97.188 21.1639C96.9649 21.2745 96.7737 21.4326 96.6303 21.6381C96.4709 21.8437 96.3594 22.0966 96.2957 22.3495C96.216 22.6183 96.1841 22.9028 96.1841 23.1716V28.6889H92.7902V18.508H96.0726V19.915H96.1044C96.2319 19.6778 96.3913 19.4723 96.5825 19.2668C96.7896 19.0455 97.0286 18.8716 97.2836 18.7293C97.5544 18.5712 97.8572 18.4448 98.1599 18.3657C98.4946 18.2709 98.8292 18.2234 99.1638 18.2234C99.7693 18.2076 100.375 18.3341 100.917 18.587C101.379 18.8084 101.777 19.1403 102.08 19.5356C102.382 19.9308 102.606 20.3892 102.717 20.8793C102.845 21.3694 102.908 21.8753 102.908 22.397V28.6889L99.5143 28.7047ZM116.5 28.7047H112.309L108.947 23.8198H108.884V28.7047H105.49V13.2437H108.884V22.6499H108.947L112.23 18.5238H116.341L112.389 23.1242L116.5 28.7047Z" fill="#ffffff"/>
<path opacity="0.8" d="M27.1099 26.5233C27.1099 31.4873 22.983 35.5185 17.9 35.5185H0.5V29.5112H17.9C19.5731 29.5112 20.9275 28.1674 20.9275 26.5075C20.9275 24.8476 19.5731 23.5038 17.9 23.5038H11.7654V17.5123H17.9C19.5731 17.5123 20.9275 16.1685 20.9275 14.5086C20.9275 12.8487 19.5731 11.5049 17.9 11.5049H0.5V5.49756H17.9C22.983 5.51337 27.1099 9.54462 27.1099 14.5086C27.1099 16.7376 26.2813 18.8718 24.7676 20.5159C26.2813 22.1601 27.1099 24.3101 27.1099 26.5233Z" fill="#ffffff"/>
<path opacity="0.12" d="M0.5 29.5112H15.4462C12.2753 33.1472 7.22418 35.5185 1.53571 35.5185C1.18516 35.5185 0.850549 35.5027 0.515934 35.4869C0.5 35.5027 0.5 29.5112 0.5 29.5112ZM18.5692 23.5038H12.7852V17.5123H18.5692C19.0313 19.4884 19.0313 21.5435 18.5692 23.5038ZM15.4462 11.5049H0.5V5.52918C0.834615 5.51337 1.18517 5.49756 1.51978 5.49756C7.20824 5.51337 12.2593 7.86888 15.4462 11.5049Z" fill="#ffffff"/>
<path d="M0.5 5.51343C8.97692 5.51343 15.8445 12.2322 15.8445 20.516C15.8445 28.7998 8.97692 35.5186 0.5 35.5186V29.5112C5.58297 29.5112 9.70989 25.48 9.70989 20.516C9.70989 15.552 5.58297 11.5208 0.5 11.5208V5.51343Z" fill="#ffffff"/>
</g>
</g>
</g>
<defs>
<clipPath id="clip0_2004_2122">
<rect width="117" height="42" fill="#ffffff"/>
</clipPath>
</defs>
</svg>
