<svg width="110" height="42" viewBox="0 0 110 42" fill="none" xmlns="http://www.w3.org/2000/svg">
<g opacity="0.5">
<path d="M83.5688 5.37769L89.9382 14.4777L86.6114 19.4444L76.7812 5.37769H83.5688Z" fill="url(#paint0_linear_2004_2116)"/>
<path d="M98.5149 36.2779L91.46 26.2113L94.7868 21.3779L105.169 36.2779H98.5149Z" fill="url(#paint1_linear_2004_2116)"/>
<path d="M36.8087 5.37769L43.5961 14.761L39.8681 19.9943L29.7705 5.37769H36.8087Z" fill="url(#paint2_linear_2004_2116)"/>
<path d="M97.8625 5.37775L76.2464 36.2611H82.8834L104.633 5.36108H97.8625V5.37775ZM68.4894 5.37775H74.3072V36.2778H68.4894V35.1111C66.8176 36.0278 64.8783 36.5444 62.8387 36.5444C56.3355 36.5444 51.0527 31.3111 51.0527 24.8611C51.0527 18.4111 56.3188 13.1777 62.8387 13.1777C64.895 13.1777 66.8176 13.6944 68.4894 14.6111V5.37775ZM62.7719 31.4111C66.4498 31.4111 69.4423 28.4444 69.4423 24.7944C69.4423 21.1444 66.4498 18.1777 62.7719 18.1777C59.094 18.1777 56.1015 21.1444 56.1015 24.7944C56.1015 28.4444 59.094 31.4111 62.7719 31.4111ZM51.6378 5.37775L30.0217 36.2611H36.7924L58.3751 5.36108H51.6378V5.37775ZM22.2814 5.37775H28.0992V36.2778H22.2814V35.1111C20.6096 36.0278 18.6703 36.5444 16.6308 36.5444C10.1275 36.5444 4.84473 31.3111 4.84473 24.8611C4.84473 18.4111 10.1108 13.1777 16.6308 13.1777C18.6871 13.1777 20.6096 13.6944 22.2814 14.6111V5.37775ZM16.5639 31.4111C20.2418 31.4111 23.2343 28.4444 23.2343 24.7944C23.2343 21.1444 20.2418 18.1777 16.5639 18.1777C12.886 18.1777 9.8935 21.1444 9.8935 24.7944C9.8935 28.4444 12.886 31.4111 16.5639 31.4111Z" fill="#ffffff"/>
</g>
<defs>
<linearGradient id="paint0_linear_2004_2116" x1="81.3359" y1="7.89371" x2="90.413" y2="18.8856" gradientUnits="userSpaceOnUse">
<stop stop-color="#ffffff"/>
<stop offset="1" stop-color="#060707" stop-opacity="0.55"/>
</linearGradient>
<linearGradient id="paint1_linear_2004_2116" x1="100.294" y1="33.733" x2="89.145" y2="18.6569" gradientUnits="userSpaceOnUse">
<stop stop-color="#ffffff"/>
<stop offset="1" stop-color="#636363" stop-opacity="0.36"/>
</linearGradient>
<linearGradient id="paint2_linear_2004_2116" x1="34.5005" y1="8.0218" x2="43.91" y2="19.5633" gradientUnits="userSpaceOnUse">
<stop stop-color="#ffffff"/>
<stop offset="1" stop-color="#5D5D5D" stop-opacity="0.55"/>
</linearGradient>
</defs>
</svg>
