<svg width="163" height="42" viewBox="0 0 163 42" fill="none" xmlns="http://www.w3.org/2000/svg">
<g clip-path="url(#clip0_2004_2131)">
<g mask="url(#mask0_2004_2131)">
<g opacity="0.5">
<path d="M15.2806 0.401142C16.3045 -0.135992 17.8597 -0.135992 18.877 0.401142L29.3098 5.87603C29.9254 6.1996 30.2624 6.67849 30.3272 7.1768H30.3337V34.6936C30.3207 35.2372 29.9773 35.7743 29.3098 36.1238L18.877 41.5987C17.8532 42.1358 16.298 42.1358 15.2806 41.5987L4.84782 36.1238C4.18038 35.7743 3.86286 35.2307 3.84342 34.6936C3.84342 34.6418 3.84342 34.5965 3.84342 34.5577V7.35153C3.84342 7.31917 3.84342 7.29328 3.84342 7.26093V7.17033H3.8499C3.89526 6.66555 4.21926 6.1996 4.84782 5.86955L15.2806 0.401142ZM28.6942 22.5272L18.8835 27.6785C17.8597 28.2156 16.3045 28.2156 15.2871 27.6785L5.48934 22.5401V34.6353L15.2806 39.7478C15.8314 40.039 16.4081 40.3303 16.9654 40.3626L17.0756 40.3691C17.6588 40.3691 18.229 40.0779 18.8057 39.7996L28.6877 34.5965V22.5272H28.6942ZM2.15214 34.0917C2.15214 35.1466 2.27526 35.839 2.5215 36.3244C2.72238 36.7321 3.02694 37.0363 3.58422 37.4116L3.61662 37.431C3.73974 37.5152 3.87582 37.5993 4.03782 37.6964L4.23222 37.8129L4.8219 38.1688L3.97302 39.5666L3.31206 39.1654L3.2019 39.1007C3.0075 38.9842 2.85198 38.8806 2.70294 38.7836C1.11534 37.7287 0.525655 36.5768 0.512695 34.1694V34.0982C0.512695 34.0917 2.15214 34.0917 2.15214 34.0917ZM16.2591 15.1561C16.1813 15.182 16.1101 15.2144 16.0453 15.2467L5.61894 20.7152C5.60598 20.7216 5.5995 20.7281 5.58654 20.7346L5.58006 20.741L5.5995 20.7475L5.62542 20.7605L16.0582 26.2353C16.123 26.2677 16.1943 26.3001 16.2721 26.3259V15.1561H16.2591ZM17.905 15.1561V26.3259C17.9828 26.3001 18.0541 26.2677 18.1189 26.2353L28.5517 20.7605C28.5646 20.754 28.5711 20.7475 28.5841 20.741L28.5905 20.7346L28.5711 20.7281L28.5452 20.7152L18.1124 15.2403C18.0476 15.2079 17.9763 15.1756 17.905 15.1561ZM28.6942 9.13119L19.3371 14.0431L28.6942 18.9549V9.13119ZM5.48934 9.13766V18.9355L14.827 14.0366L5.48934 9.13766ZM18.1124 1.84428C17.5681 1.55954 16.5896 1.55954 16.0453 1.84428L5.61894 7.31917C5.60598 7.32564 5.5995 7.33211 5.58654 7.33858L5.58006 7.34506L5.5995 7.35153L5.62542 7.36447L16.0582 12.8394C16.6025 13.1241 17.581 13.1241 18.1253 12.8394L28.5581 7.36447C28.5711 7.358 28.5776 7.35153 28.5905 7.34506L28.597 7.33858L28.5776 7.33211L28.5517 7.31917C28.5452 7.31917 18.1124 1.84428 18.1124 1.84428ZM30.2365 2.44613L30.8974 2.8409L31.0076 2.91208C31.202 3.02857 31.3575 3.13211 31.5065 3.22918C33.0941 4.29051 33.6838 5.44891 33.6903 7.8563V7.92749H32.0509C32.0509 6.87264 31.9277 6.18019 31.6815 5.69482C31.4806 5.28712 31.1761 4.98296 30.6188 4.60761L30.5864 4.5882C30.4633 4.50407 30.3272 4.41994 30.1652 4.32287L29.9708 4.20638L29.3811 3.85045L30.2365 2.44613Z" fill="#ffffff"/>
<path d="M50.3697 33.5416V18.1977H54.6271V15.389H50.3697V13.3699C50.3697 11.092 51.3677 9.94651 53.3635 9.94651C53.9402 9.94651 54.5558 10.0436 55.2038 10.2377V7.2479C54.4068 7.00846 53.532 6.8855 52.5665 6.8855C50.7132 6.8855 49.2746 7.41616 48.2508 8.47101C47.2269 9.52587 46.715 11.0661 46.715 13.0787V15.3826H43.2158V18.1912H46.715V33.5351H50.3697V33.5416ZM65.1765 33.794C66.5697 33.794 67.7945 33.5028 68.8442 32.9268C69.894 32.3508 70.6781 31.5225 71.2094 30.4417V33.5416H74.8188V15.389H71.2094V18.34C70.6521 17.2593 69.8616 16.4245 68.8248 15.8356C67.788 15.2467 66.5762 14.9555 65.1765 14.9555C63.6084 14.9555 62.2152 15.3502 60.9905 16.1462C59.7657 16.9357 58.8067 18.0553 58.1198 19.4984C57.4329 20.9416 57.0895 22.5983 57.0895 24.4685C57.0895 26.3388 57.4265 27.9826 58.1004 29.3869C58.7743 30.7912 59.7204 31.8784 60.9321 32.6485C62.1504 33.4122 63.563 33.794 65.1765 33.794ZM66.0449 30.9142C64.386 30.9142 63.09 30.3511 62.1633 29.2186C61.2367 28.0926 60.7701 26.5071 60.7701 24.4621C60.7701 22.3977 61.2367 20.7798 62.1633 19.6149C63.09 18.4501 64.373 17.8676 66.006 17.8676C67.6649 17.8676 68.9479 18.4306 69.8551 19.5632C70.7558 20.6892 71.2094 22.3006 71.2094 24.3909C71.2094 26.4553 70.7558 28.0602 69.8551 29.1992C68.9479 30.3447 67.6778 30.9142 66.0449 30.9142ZM83.7741 33.5416V23.2066C83.7741 21.5952 84.2407 20.3138 85.1673 19.3496C86.094 18.3918 87.3252 17.9065 88.8674 17.9065C90.2153 17.9065 91.1937 18.2689 91.8093 18.9872C92.4249 19.7055 92.7295 20.8575 92.7295 22.443V33.5351H96.3777V22.2359C96.3777 17.3823 94.2005 14.9619 89.8394 14.9619C88.4462 14.9619 87.1956 15.2661 86.1005 15.8809C85.0053 16.4957 84.1694 17.3758 83.5927 18.5277L83.2687 15.3955H79.8732C80.0676 16.9098 80.1648 18.6118 80.1648 20.508V33.5481H83.7741V33.5416ZM108.58 33.794C109.59 33.794 110.491 33.6645 111.288 33.3992V30.4482C110.64 30.6424 109.999 30.7394 109.377 30.7394C108.411 30.7394 107.659 30.4806 107.122 29.9628C106.577 29.4451 106.312 28.565 106.312 27.316V18.1977H111.334V15.389H106.312V9.59058L102.663 10.8525V15.389H99.1253V18.1977H102.663V27.6008C102.663 29.6199 103.182 31.1536 104.219 32.2085C105.242 33.2698 106.7 33.794 108.58 33.794ZM122.518 33.794C124.274 33.794 125.829 33.4122 127.177 32.642C128.525 31.8719 129.568 30.7783 130.301 29.361C131.033 27.9437 131.402 26.287 131.402 24.3909C131.402 22.4947 131.033 20.8316 130.301 19.4014C129.568 17.9712 128.525 16.871 127.177 16.1074C125.829 15.3373 124.274 14.9555 122.518 14.9555C120.736 14.9555 119.174 15.3373 117.827 16.1074C116.479 16.8775 115.435 17.9712 114.703 19.4014C113.971 20.8316 113.602 22.4947 113.602 24.3909C113.602 26.287 113.971 27.9437 114.703 29.361C115.435 30.7783 116.479 31.8719 117.827 32.642C119.174 33.4122 120.736 33.794 122.518 33.794ZM122.479 30.9142C120.82 30.9142 119.537 30.3641 118.63 29.2575C117.729 28.1508 117.276 26.533 117.276 24.3974C117.276 22.3071 117.736 20.7021 118.65 19.5696C119.563 18.4436 120.853 17.8741 122.512 17.8741C124.151 17.8741 125.421 18.4371 126.322 19.5696C127.223 20.6957 127.676 22.3071 127.676 24.3974C127.676 26.533 127.229 28.1573 126.341 29.2575C125.454 30.3641 124.164 30.9142 122.479 30.9142ZM139.269 33.5416V23.2778C139.269 21.6211 139.677 20.3138 140.494 19.3496C141.31 18.3918 142.418 17.9065 143.818 17.9065C145.023 17.9065 145.891 18.2689 146.436 18.9872C146.98 19.7055 147.246 20.851 147.246 22.4106V33.5416H150.894V23.2778C150.894 21.6211 151.296 20.3138 152.106 19.3496C152.909 18.3918 154.011 17.9065 155.411 17.9065C156.616 17.9065 157.484 18.2689 158.028 18.9872C158.573 19.7055 158.838 20.851 158.838 22.4106V33.5416H162.487V22.2359C162.487 17.3823 160.465 14.9619 156.421 14.9619C155.074 14.9619 153.862 15.2726 152.793 15.9003C151.723 16.5216 150.907 17.3758 150.356 18.4565C149.488 16.1268 147.648 14.9619 144.829 14.9619C143.507 14.9619 142.347 15.2596 141.362 15.8615C140.377 16.4633 139.619 17.3111 139.087 18.4177L138.763 15.389H135.368C135.562 16.9034 135.66 18.6054 135.66 20.5015V33.5416H139.269Z" fill="#ffffff"/>
</g>
</g>
</g>
<defs>
<clipPath id="clip0_2004_2131">
<rect width="163" height="42" fill="#ffffff"/>
</clipPath>
</defs>
</svg>
