<svg width="134" height="42" viewBox="0 0 134 42" fill="none" xmlns="http://www.w3.org/2000/svg">
<g clip-path="url(#clip0_2004_2187)">
<g opacity="0.5">
<path fill-rule="evenodd" clip-rule="evenodd" d="M9.47933 35.1606C5.00969 31.8231 2.12423 26.4964 2.12423 20.4909C2.12423 10.3843 10.3186 2.19151 20.4271 2.19151C28.7723 2.19151 37.8719 7.17882 40.0784 14.8059C37.6079 6.29261 29.7436 0.0513916 20.4177 0.0513916C9.121 0.0513916 -0.0351562 9.2058 -0.0351562 20.5003C-0.0351562 31.7949 9.121 40.9493 20.4177 40.9493C31.7144 40.9493 40.8705 31.7949 40.8705 20.5003V19.4256H39.7484C39.7107 19.4256 39.6635 19.4256 39.5975 19.4256C39.4655 19.4256 39.2769 19.4161 39.0317 19.4067C38.5508 19.3878 37.8813 19.3596 37.127 19.2936C35.5899 19.1616 33.8455 18.8976 32.6479 18.4262C30.7337 17.6626 29.6493 16.6444 28.414 15.4564L28.3386 15.3905C27.1033 14.2025 25.7077 12.8638 23.2937 11.7325C20.9175 10.6105 18.2866 10.7897 16.3535 11.1951C15.3728 11.3931 14.5336 11.6665 13.9395 11.8833C13.6378 11.987 13.402 12.0907 13.2323 12.1567C12.2611 12.5621 11.3181 13.0524 10.3657 13.4955C10.3657 13.4955 12.2328 14.0046 13.1663 14.2968C13.204 14.3063 13.2512 14.3251 13.3172 14.344C13.4586 14.3911 13.6566 14.4571 13.8924 14.5608C14.3827 14.7588 15.0239 15.0605 15.6557 15.4659C16.6553 16.107 17.4851 16.9178 17.8245 17.9077C15.7029 18.1905 13.7132 19.1144 12.2328 19.9912C11.3275 20.5192 10.5826 21.0471 10.0545 21.4431C9.79051 21.6411 9.58305 21.8108 9.44161 21.9239C9.31903 22.0276 7.40481 23.7058 7.40481 23.7058C7.40481 23.7058 9.87537 23.9698 11.0918 24.2149C11.9027 24.3752 12.9966 24.6391 14.1376 25.0351C15.2785 25.4311 16.4384 25.959 17.4002 26.6284C18.362 27.2978 19.0693 28.0803 19.4181 28.9665C20.4271 31.5497 19.437 34.0764 17.4379 35.4906C15.4671 36.8859 12.4779 37.2159 9.47933 35.1606ZM16.4572 38.366C17.2588 38.1021 18.0131 37.7249 18.6921 37.2441C21.4078 35.3114 22.8317 31.7854 21.4267 28.184C20.8703 26.7698 19.8142 25.6856 18.6355 24.8654C17.4568 24.0452 16.1084 23.4418 14.8542 23.0081C14.0338 22.7253 13.2323 22.499 12.5345 22.3293C12.7797 22.1691 13.0437 21.9994 13.3266 21.8391C14.9862 20.868 17.0702 19.9724 19.0692 19.9724C22.0867 19.9724 24.331 20.8963 26.4809 21.8862C26.679 21.9805 26.8675 22.0653 27.0656 22.1596C28.9798 23.0553 30.9977 24.0075 33.3363 24.0075C35.6088 24.0075 37.3721 23.3664 38.5886 22.7064C37.5042 31.776 29.7813 38.8092 20.4177 38.8092C19.0598 38.7903 17.7302 38.6395 16.4572 38.366ZM36.2594 21.3677C35.4579 21.6411 34.4772 21.8391 33.3363 21.8391C31.4975 21.8391 29.9227 21.1037 27.9237 20.1704C27.7445 20.0855 27.5653 20.0007 27.3862 19.9158C25.3871 18.9919 23.0674 18.002 20.0499 17.8228C19.6445 15.8241 18.1263 14.4571 16.8344 13.6274C16.693 13.5332 16.5421 13.4483 16.4007 13.3635C16.5327 13.3352 16.6647 13.3069 16.7967 13.2786C18.5412 12.9204 20.6251 12.8261 22.379 13.6557C24.4724 14.6362 25.6511 15.777 26.877 16.9555L26.9147 16.9932C28.1783 18.2094 29.5173 19.4727 31.8464 20.4061C33.1477 20.934 34.8261 21.2168 36.2594 21.3677Z" fill="#ffffff"/>
<path d="M8.1687 7.31073C8.19699 7.28245 8.21585 7.26359 8.24414 7.24474L8.1687 7.31073ZM7.36719 34.1894C7.3389 34.1706 7.31061 34.1423 7.29175 34.114L7.36719 34.1894ZM18.6167 15.9466C18.5884 15.9278 18.5601 15.8995 18.5507 15.8712L18.6167 15.9466ZM18.1641 25.2896C18.1358 25.2707 18.1075 25.2519 18.0887 25.233L18.1641 25.2896ZM18.2112 25.3179L18.2867 25.3744C18.2584 25.3556 18.2301 25.3367 18.2112 25.3179ZM125.728 30.3146L129.566 25.5347C129.594 25.5064 129.594 25.4593 129.575 25.431C129.556 25.3933 129.518 25.3744 129.481 25.3744H127.934C127.906 25.3744 127.878 25.3839 127.859 25.4121L123.012 31.3799C122.984 31.4177 122.937 31.4271 122.899 31.4082C122.861 31.3988 122.833 31.3517 122.833 31.314V25.4593C122.833 25.4027 122.786 25.3556 122.729 25.3556H121.494C121.437 25.3556 121.39 25.4027 121.39 25.4593L121.371 37.3383C121.371 37.3666 121.381 37.3949 121.4 37.4137C121.418 37.4326 121.447 37.442 121.475 37.442H122.729C122.786 37.442 122.833 37.3949 122.833 37.3383V33.9726C122.833 33.9537 122.842 33.9255 122.852 33.9066L124.464 31.8513C124.483 31.8231 124.521 31.8136 124.549 31.8136C124.587 31.8136 124.615 31.8325 124.634 31.8608L127.887 37.3949C127.906 37.4232 127.934 37.442 127.972 37.442H129.773C129.273 36.3201 126.086 31.0594 125.709 30.4372C125.699 30.39 125.709 30.3523 125.728 30.3146ZM93.7331 25.3273H92.4601C92.4223 25.3273 92.3941 25.3556 92.3846 25.3933L91.7246 35.2925C91.7246 35.3302 91.6963 35.3585 91.6585 35.3585C91.6208 35.3585 91.5831 35.3396 91.5831 35.3019L90.1121 28.561C90.1027 28.5233 90.0744 28.5045 90.0367 28.5045H88.3205C88.2827 28.5045 88.2545 28.5327 88.245 28.561C88.1319 29.1173 87.2549 33.4918 86.8683 35.3208C86.8589 35.3585 86.8306 35.3773 86.7929 35.3773C86.7551 35.3773 86.7269 35.3491 86.7269 35.3113C86.6137 33.1995 86.0762 26.1381 86.0102 25.3933C86.0102 25.3556 85.9725 25.3273 85.9348 25.3273C85.699 25.3273 84.9258 25.3273 84.6712 25.3273C84.6523 25.3273 84.6335 25.3367 84.6146 25.3461C84.6052 25.365 84.5958 25.3839 84.5958 25.4027L85.5104 37.4609C85.5104 37.4609 85.5293 37.4232 85.5199 37.4609C85.5293 37.4797 85.567 37.4609 85.567 37.4609H87.651C87.651 37.4609 88.9334 30.8614 89.0654 30.324C89.0748 30.2958 89.0937 30.2769 89.1125 30.2675C89.1408 30.258 89.1691 30.2675 89.1974 30.2863C89.4332 30.5126 90.6024 36.7161 90.725 37.3949C90.7345 37.4326 90.7627 37.4609 90.8004 37.4609H92.8184C92.8561 37.4609 92.8844 37.4326 92.8938 37.3949L93.7991 25.4027C93.7991 25.3839 93.7896 25.365 93.7802 25.3461C93.7708 25.3367 93.7519 25.3273 93.7331 25.3273ZM56.9576 4.67094C57.1367 4.67094 57.1744 4.71808 57.1744 4.88778C57.1744 4.95378 57.1744 5.01977 57.1744 5.09519V5.774C57.1744 5.85885 57.1744 5.93427 57.1744 6.01912V6.82049C57.1744 6.91476 57.1744 7.00904 57.1744 7.10332V8.59291C57.1744 8.69662 57.1744 8.80033 57.1744 8.90403V10.4879C57.1744 10.5916 57.1744 10.6953 57.1744 10.8085V12.6563C57.1744 12.7506 57.1744 12.8543 57.1744 12.9486V13.7876C57.1744 13.8725 57.1744 13.9668 57.1744 14.0516V14.787C57.1744 14.8624 57.1744 14.9378 57.1744 15.0133V15.4281C57.1744 15.4941 57.1744 15.5506 57.1744 15.6166V15.9466C57.1744 16.2483 57.1744 16.4651 57.1744 16.5594C57.1744 16.6254 57.2027 16.7008 57.1461 16.7574C56.7218 16.748 56.2975 16.748 55.8731 16.7574C55.8071 16.6914 55.8449 16.5971 55.8449 16.5217V7.15046C55.8449 7.08447 55.8449 7.0279 55.8449 6.9619C55.8354 6.89591 55.7977 6.88648 55.7411 6.90534L55.7317 6.93362C55.7223 6.95247 55.7223 6.97133 55.7034 6.99019C55.6846 7.01847 55.694 7.04675 55.6657 7.07504C55.5997 7.1316 55.1188 8.30065 54.619 9.58284L54.421 10.1014C53.8835 11.4778 53.3649 12.8166 53.3271 12.9014C53.2611 13.0334 53.28 13.0711 53.1763 12.9863C53.0254 12.8543 51.1489 8.01782 50.734 6.99961C50.7151 6.94305 50.6491 6.87705 50.6114 6.92419C50.602 6.94305 50.5926 6.9619 50.5926 6.99019V8.66834C50.5926 10.5256 50.5548 15.8995 50.5548 16.6726V16.7668H50.4134C50.3851 16.7668 50.3474 16.7668 50.3191 16.7668H50.0834C50.0362 16.7668 49.9985 16.7668 49.9513 16.7668H49.5742C49.461 16.7668 49.3761 16.7668 49.329 16.7668C49.3101 16.7668 49.2818 16.7668 49.263 16.748C49.2535 16.7291 49.2536 16.7197 49.2536 16.7008C49.263 16.352 49.263 15.3432 49.263 14.0328V10.8933C49.263 10.7802 49.263 10.667 49.263 10.5539V9.88453C49.263 7.8764 49.2536 5.91541 49.2536 4.77465V4.75579C49.2536 4.73694 49.263 4.72751 49.2724 4.71808C49.2818 4.70865 49.3007 4.70866 49.3196 4.70866C49.4987 4.70866 49.6873 4.71808 49.8759 4.71808L50.9792 4.70866C51.064 4.70866 51.1489 4.69923 51.1678 4.81236C51.2809 4.93492 52.8085 8.95117 53.148 9.81853C53.2517 10.0825 53.3366 9.94109 53.4026 9.76196C53.5063 9.47913 55.2414 4.98206 55.3451 4.8595L55.3545 4.85007V4.84064C55.3639 4.80293 55.3639 4.77465 55.3922 4.74637C55.4205 4.72751 55.6657 4.71808 55.9674 4.71808H56.2409C56.288 4.71808 56.3352 4.71808 56.3823 4.71808H56.7784C56.8255 4.67094 56.901 4.67094 56.9576 4.67094ZM73.4122 16.7385C73.8366 16.7197 74.2515 16.7291 74.6758 16.7385C74.7418 16.6726 74.7041 16.5783 74.7041 16.5029C74.7041 13.2691 74.7041 6.67907 74.7041 6.61307C74.7041 6.54708 74.7418 6.52822 74.8078 6.55651V6.56593C74.8455 6.59422 78.1365 14.9096 78.7965 16.5594C78.806 16.616 78.8343 16.6726 78.8814 16.7008C78.9286 16.7386 78.9851 16.748 79.0417 16.7385C79.3435 16.7291 80.739 16.8423 80.8994 16.7385C81.0125 16.6537 80.9371 6.18882 80.9371 4.8595C80.9371 4.71808 80.8994 4.67094 80.7485 4.67094C80.4467 4.68037 80.1356 4.67094 79.8244 4.67094C79.5886 4.67094 79.5886 4.67094 79.5886 4.90664C79.5886 8.10267 79.6075 14.6644 79.5698 14.7493C79.5321 14.787 75.7225 5.07634 75.4773 4.77465C75.4679 4.77465 75.4679 4.76522 75.4679 4.76522C75.4679 4.75579 75.4679 4.75579 75.4679 4.74637C75.4396 4.64266 75.3453 4.67094 75.2793 4.67094C74.7041 4.67094 74.1195 4.67094 73.5443 4.67094C73.3934 4.67094 73.3651 4.72751 73.3651 4.8595C73.3651 8.76261 73.3745 12.6657 73.3651 16.5688C73.3651 16.6254 73.3274 16.7008 73.4122 16.7385ZM55.6563 25.365C55.6563 25.3744 55.6185 35.3773 55.6185 35.3773L51.5072 25.3367H49.4233C49.4233 25.3367 49.4233 36.8858 49.4233 37.4232L50.734 37.4137L50.7623 27.2506C50.7623 27.2506 53.4686 34.1234 54.9019 37.4137H56.967C56.967 37.4137 56.967 25.3933 56.967 25.3556C56.9764 25.2519 55.76 25.3084 55.6563 25.365ZM68.8954 36.1599C68.8483 36.1599 68.8012 36.1693 68.754 36.1693H63.2188C63.1622 36.1787 63.1057 36.1693 63.0585 36.1504C63.0208 36.0844 63.0397 36.0184 63.0397 35.943C63.0397 34.6985 63.0397 33.4446 63.0397 32.2002C63.0397 31.9645 63.0397 31.9645 63.2754 31.9645C65.0387 31.9645 66.8021 31.9645 68.5654 31.9645C68.7351 31.9645 68.7823 31.9173 68.7729 31.7571C68.7634 31.4742 68.7729 31.1914 68.7729 30.9086C68.7729 30.6823 68.7729 30.6823 68.5371 30.6823H63.2848C63.0397 30.6823 63.0397 30.6823 63.0397 30.4372C63.0397 29.2493 63.0397 28.0519 63.0397 26.864C63.0397 26.6849 63.0962 26.6472 63.266 26.6472C65.0953 26.6566 66.9152 26.6566 68.7446 26.6472C68.82 26.6472 68.8954 26.6755 68.9615 26.6189V25.3933C68.9143 25.3367 68.8389 25.365 68.7823 25.365C66.4437 25.365 64.1146 25.365 61.7761 25.3556C61.5969 25.3556 61.5781 25.4216 61.5781 25.5724C61.5781 29.4661 61.5781 33.3504 61.5781 37.244C61.5781 37.4232 61.6346 37.4609 61.8044 37.4609C64.1241 37.4515 66.4437 37.4515 68.7634 37.4515C68.8294 37.4515 68.9049 37.4797 68.9615 37.4232C68.9615 37.0178 68.9615 36.603 68.9615 36.1976C68.9426 36.1693 68.9237 36.1599 68.8954 36.1599ZM93.8651 4.91607C93.8651 4.65209 93.8934 4.67094 93.6105 4.67094C90.9608 4.67094 88.311 4.67094 85.6613 4.67094C85.303 4.67094 84.9352 4.68037 84.5769 4.67094C84.4355 4.67094 84.3977 4.71808 84.3977 4.85007C84.4072 5.15176 84.4072 5.46288 84.3977 5.76457C84.3883 5.9437 84.4543 5.97198 84.6146 5.96255C85.7745 5.95313 86.9437 5.96255 88.1036 5.96255C88.4053 5.96255 88.377 5.92484 88.377 6.22653C88.377 7.83869 88.377 9.45085 88.377 11.063C88.377 12.8731 88.377 16.9177 88.377 16.9177H89.8481C89.8481 16.9177 89.8481 9.62055 89.8481 6.16997C89.8481 6.10397 89.8575 6.04741 89.8575 5.98141C89.9329 5.9437 90.0084 5.96255 90.0838 5.96255C91.2719 5.96255 92.4695 5.96255 93.6576 5.96255C93.8179 5.96255 93.8651 5.92484 93.8556 5.76457C93.8556 5.48173 93.8651 5.1989 93.8651 4.91607ZM81.88 25.4027C81.814 25.3273 81.7197 25.365 81.6443 25.365C78.6645 25.365 75.6942 25.365 72.7144 25.365C72.6767 25.365 72.6296 25.365 72.5919 25.365C72.4787 25.3556 72.4504 25.4027 72.4504 25.5064C72.4504 25.8081 72.4504 26.1192 72.4504 26.4209C72.4504 26.6472 72.4504 26.6472 72.6767 26.6472C73.8554 26.6472 75.0341 26.6472 76.2128 26.6472C76.3826 26.6472 76.4391 26.6849 76.4391 26.864C76.4297 27.8257 76.4391 28.7873 76.4391 29.7489C76.4391 32.2285 76.4391 34.708 76.4391 37.1875C76.4391 37.4986 76.4014 37.4609 76.722 37.4609C77.0238 37.4609 77.335 37.4609 77.6461 37.4609C77.929 37.4609 77.9102 37.4986 77.9102 37.2158C77.9102 33.8029 77.9102 30.39 77.9102 26.9772C77.9102 26.666 77.9102 26.666 78.2308 26.666C79.3812 26.666 80.5316 26.666 81.682 26.666C81.7574 26.666 81.8329 26.7038 81.8989 26.6378C81.8612 26.2135 81.8612 25.8081 81.88 25.4027ZM113.922 25.365C114.94 25.4027 115.893 25.6478 116.553 26.4869C117.109 27.194 117.09 27.9859 117.1 28.9664C117.109 29.6641 117.053 30.4466 116.647 31.0217C116.147 31.7288 115.299 32.1153 114.45 32.219C114.393 32.2285 114.365 32.2379 114.374 32.285L114.393 32.3227L117.383 37.4326L115.647 37.4609L112.837 32.3039L110.961 32.3322V32.681C110.961 32.7281 110.961 32.7753 110.961 32.8224V33.1618C110.961 33.2278 110.961 33.2938 110.961 33.3598V33.784C110.961 34.1612 110.961 34.576 110.961 34.9814V35.4716C110.961 35.8676 110.961 36.2541 110.961 36.5652V37.0555V37.1215V37.4232C110.952 37.442 110.942 37.4609 110.914 37.4609C110.452 37.4703 109.99 37.4703 109.537 37.4609C109.528 37.4609 109.518 37.4515 109.509 37.442C109.49 37.4232 109.481 36.3201 109.481 34.7551V34.2743V34.1517V31.2668V31.1254V30.3995C109.481 30.3052 109.481 30.2015 109.481 30.1072V29.5227C109.481 29.4284 109.481 29.3341 109.481 29.2304V28.6647V28.5233V27.8351V27.7031V26.7886V26.666V25.6196L109.471 25.5159C109.471 25.4781 109.481 25.4499 109.499 25.4216C109.565 25.3744 109.65 25.3933 109.716 25.3933C111.121 25.365 112.526 25.3084 113.922 25.365ZM113.818 26.6472H111.065C110.97 26.6472 110.952 26.666 110.952 26.7603V30.9463C110.952 31.0688 110.98 31.0688 111.131 31.0688C112.008 31.0688 112.885 31.0688 113.771 31.0688C113.997 31.0688 114.233 31.05 114.459 31.0028C115.185 30.8331 115.629 30.3429 115.714 29.6924C115.78 29.1644 115.78 28.627 115.723 28.0991C115.666 27.4957 115.346 27.0526 114.771 26.8169C114.459 26.6943 114.139 26.6378 113.818 26.6472ZM69.7724 16.6443C69.6687 16.5406 66.3117 4.94435 66.1986 4.82179L66.1891 4.81236V4.79351C66.1797 4.76522 66.1797 4.72751 66.1514 4.69923C65.5291 4.65209 64.9161 4.6898 64.2938 4.68037C64.1241 4.68037 60.9651 15.3809 60.5597 16.7291C60.7954 16.7386 61.0311 16.7385 61.2669 16.7385C61.4649 16.7385 61.8704 16.8611 62.0401 16.748C62.2098 16.6348 62.8982 13.5991 63.0491 13.4294C63.0774 13.3445 63.134 13.3257 63.2282 13.3257C64.5201 13.3257 65.8214 13.3257 67.1133 13.3257C67.1981 13.3257 67.2641 13.3445 67.2924 13.4294C67.481 13.9668 68.2165 16.5688 68.2165 16.5688C68.2259 16.6066 68.2354 16.6443 68.2448 16.6726C68.2542 16.6726 68.2542 16.682 68.2542 16.682C68.2542 16.6914 68.2542 16.6914 68.2542 16.7008C68.2637 16.7291 68.2825 16.748 68.3014 16.748C68.7917 16.7291 69.2821 16.7291 69.7818 16.748C69.829 16.7291 69.8196 16.7008 69.8007 16.6726C69.7913 16.6537 69.7818 16.6443 69.7724 16.6443ZM63.4263 12.0058C63.5489 11.5815 63.662 11.1667 63.7846 10.7613L65.0293 6.43395C65.0482 6.37738 65.0576 6.33024 65.0765 6.27367C65.0859 6.23596 65.133 6.20768 65.1707 6.20768C65.2179 6.19825 65.2556 6.22653 65.265 6.27367C65.2745 6.30195 65.2745 6.33024 65.2839 6.35852C65.8214 8.20638 66.3589 10.0637 66.8869 11.9209C66.8964 11.9492 66.8964 11.9775 66.9058 12.0152L63.4263 12.0058ZM101.956 4.67094C101.72 4.67094 100.438 4.67094 100.221 4.67094C100.192 4.67094 100.164 4.6898 100.155 4.71808L96.5525 16.9177H98.0707L99.0231 13.3257C99.0325 13.2974 99.0608 13.2785 99.0891 13.2785H103.116C103.144 13.2785 103.172 13.2974 103.182 13.3257C103.285 13.6839 104.257 16.9177 104.257 16.9177C104.257 16.9177 105.775 16.9365 105.784 16.9177C105.794 16.8234 102.22 5.38746 102.003 4.70866C101.993 4.6898 101.975 4.67094 101.956 4.67094ZM102.795 12.0152C102.484 12.0152 99.7397 11.9775 99.4097 11.9775C99.4003 11.9775 99.3908 11.9775 99.3908 11.9681C99.3908 11.9586 99.3814 11.9586 99.3908 11.9492C99.4946 11.591 100.485 8.13095 100.984 6.41509C101.003 6.33967 101.041 6.21711 101.116 6.21711C101.182 6.21711 101.22 6.33967 101.239 6.40566C101.739 8.13095 102.719 11.6381 102.823 11.9869C102.823 11.9964 102.823 11.9964 102.823 12.0058C102.814 12.0058 102.804 12.0152 102.795 12.0152ZM105.265 29.155C105.247 28.0614 104.813 27.0243 104.04 26.2512C103.266 25.4781 102.21 25.035 101.116 25.0445C98.8345 25.0445 97.0146 26.8546 96.9674 29.155C96.958 29.3718 96.9486 29.6829 96.9391 30.0129C96.9203 30.4843 96.9014 30.9746 96.9014 31.2951C96.9014 31.6345 96.9203 32.153 96.9297 32.6527C96.9391 32.9544 96.9486 33.2372 96.9486 33.4446C96.9674 34.5383 97.4012 35.5753 98.1744 36.3484C98.9476 37.1215 100.004 37.5646 101.098 37.5552C103.37 37.5552 105.199 35.745 105.247 33.4446C105.256 33.2278 105.265 32.9167 105.275 32.5867C105.294 32.1153 105.313 31.6251 105.313 31.3045C105.313 30.9651 105.294 30.4466 105.284 29.9469C105.284 29.6452 105.275 29.3624 105.265 29.155ZM103.936 31.2951C103.936 31.5968 103.917 32.0682 103.898 32.5301C103.889 32.8695 103.87 33.1901 103.87 33.4164C103.832 34.9719 102.616 36.1881 101.098 36.1881C99.5794 36.1881 98.3536 34.9719 98.3253 33.4258C98.3253 33.2089 98.3158 32.9261 98.3064 32.615C98.2876 32.153 98.2781 31.6251 98.2781 31.3045C98.2781 31.0028 98.297 30.5314 98.3159 30.0695C98.3253 29.7301 98.3441 29.419 98.3441 29.1833C98.3819 27.6277 99.5983 26.4115 101.116 26.4115C102.635 26.4115 103.86 27.6277 103.889 29.1738C103.889 29.3907 103.898 29.6735 103.908 29.9846C103.926 30.456 103.945 30.984 103.936 31.2951Z" fill="#ffffff"/>
</g>
</g>
<defs>
<clipPath id="clip0_2004_2187">
<rect width="134" height="42" fill="#ffffff"/>
</clipPath>
</defs>
</svg>
