<svg width="150" height="42" viewBox="0 0 150 42" fill="none" xmlns="http://www.w3.org/2000/svg">
<path opacity="0.5" d="M8.02029 31.1966C6.83904 31.1966 5.74217 31.038 4.72967 30.7206C3.71717 30.4033 2.86404 29.9273 2.17029 29.2926C1.47654 28.658 0.979669 27.8646 0.679669 26.9126C0.398419 25.9606 0.360919 24.85 0.567169 23.5806C0.717169 22.778 0.876544 21.9753 1.04529 21.1726C1.23279 20.37 1.42029 19.558 1.60779 18.7366C2.22654 16.2166 3.34217 14.3033 4.95467 12.9966C6.56717 11.69 8.74217 11.0366 11.4797 11.0366C12.6609 11.0366 13.7484 11.2046 14.7422 11.5406C15.7547 11.858 16.6078 12.3433 17.3015 12.9966C18.014 13.65 18.5109 14.4526 18.7922 15.4046C19.0922 16.3566 19.1297 17.4673 18.9047 18.7366C18.7734 19.558 18.614 20.37 18.4265 21.1726C18.2578 21.9753 18.0797 22.778 17.8922 23.5806C17.2547 26.138 16.1297 28.0513 14.5172 29.3206C12.9047 30.5713 10.739 31.1966 8.02029 31.1966ZM8.38592 27.1646C9.39842 27.1646 10.289 26.866 11.0578 26.2686C11.8265 25.6713 12.3703 24.7193 12.689 23.4126C12.8953 22.5913 13.0734 21.8166 13.2234 21.0886C13.3922 20.3606 13.5422 19.6046 13.6734 18.8206C13.9172 17.514 13.8047 16.562 13.3359 15.9646C12.8672 15.3673 12.1265 15.0686 11.114 15.0686C10.1015 15.0686 9.21092 15.3673 8.44217 15.9646C7.69217 16.562 7.15779 17.514 6.83904 18.8206C6.63279 19.6046 6.44529 20.3606 6.27654 21.0886C6.12654 21.8166 5.97654 22.5913 5.82654 23.4126C5.60154 24.7193 5.71404 25.6713 6.16404 26.2686C6.61404 26.866 7.35467 27.1646 8.38592 27.1646ZM21.8835 30.9166C21.696 30.9166 21.546 30.8513 21.4335 30.7206C21.321 30.59 21.2835 30.422 21.321 30.2166L25.2023 12.0166C25.2398 11.8113 25.3429 11.6433 25.5116 11.5126C25.6804 11.382 25.8585 11.3166 26.046 11.3166H33.5273C34.671 11.3166 35.7023 11.4473 36.621 11.7086C37.5585 11.97 38.3366 12.3713 38.9554 12.9126C39.5741 13.454 40.0054 14.1353 40.2491 14.9566C40.4929 15.7593 40.5023 16.702 40.2773 17.7846C39.8085 19.9313 38.8523 21.518 37.4085 22.5446C35.9835 23.5713 34.0616 24.0846 31.6429 24.0846H27.846L26.5523 30.2166C26.5148 30.422 26.4116 30.59 26.2429 30.7206C26.0929 30.8513 25.9148 30.9166 25.7085 30.9166H21.8835ZM28.5773 20.2206H31.8116C32.5804 20.2206 33.2648 20.0153 33.8648 19.6046C34.4835 19.194 34.8866 18.5686 35.0741 17.7286C35.1679 17.2433 35.1866 16.814 35.1304 16.4406C35.0741 16.0673 34.8773 15.7686 34.5398 15.5446C34.221 15.3206 33.7241 15.2086 33.0491 15.2086H29.6741L28.5773 20.2206ZM45.4742 30.9166C45.268 30.9166 45.1086 30.8513 44.9961 30.7206C44.8836 30.59 44.8461 30.422 44.8836 30.2166L48.0055 15.7126H42.9992C42.8117 15.7126 42.6617 15.6473 42.5492 15.5166C42.4367 15.3673 42.3992 15.1993 42.4367 15.0126L43.0836 12.0166C43.1211 11.8113 43.2149 11.6433 43.3649 11.5126C43.5336 11.382 43.7211 11.3166 43.9274 11.3166H59.0584C59.2646 11.3166 59.4146 11.382 59.5084 11.5126C59.6209 11.6433 59.6584 11.8113 59.6209 12.0166L58.974 15.0126C58.9365 15.1993 58.8334 15.3673 58.6646 15.5166C58.5149 15.6473 58.3367 15.7126 58.1305 15.7126H53.1242L50.0305 30.2166C49.993 30.422 49.8899 30.59 49.7211 30.7206C49.5711 30.8513 49.393 30.9166 49.1867 30.9166H45.4742ZM60.2103 30.9166C60.0041 30.9166 59.8447 30.8513 59.7322 30.7206C59.6197 30.59 59.5822 30.422 59.6197 30.2166L63.5291 12.0166C63.5666 11.8113 63.6697 11.6433 63.8385 11.5126C64.0072 11.382 64.1853 11.3166 64.3728 11.3166H68.1697C68.3572 11.3166 68.5072 11.382 68.6197 11.5126C68.7322 11.6433 68.7697 11.8113 68.7322 12.0166L64.8228 30.2166C64.7853 30.422 64.6822 30.59 64.5135 30.7206C64.3635 30.8513 64.1947 30.9166 64.0072 30.9166H60.2103ZM71.748 30.9166C71.5418 30.9166 71.3824 30.8513 71.2699 30.7206C71.1574 30.59 71.1199 30.422 71.1574 30.2166L75.0387 12.0166C75.0761 11.8113 75.1793 11.6433 75.348 11.5126C75.5168 11.382 75.7043 11.3166 75.9105 11.3166H78.948C79.248 11.3166 79.4543 11.4006 79.5668 11.5686C79.698 11.718 79.7824 11.8393 79.8199 11.9326L82.8574 20.7806L89.7199 11.9326C89.7762 11.8393 89.8887 11.718 90.0574 11.5686C90.2449 11.4006 90.4887 11.3166 90.7887 11.3166H93.8262C94.0324 11.3166 94.1918 11.382 94.3043 11.5126C94.4168 11.6433 94.4543 11.8113 94.4168 12.0166L90.5355 30.2166C90.498 30.422 90.3949 30.59 90.2262 30.7206C90.0574 30.8513 89.8699 30.9166 89.6637 30.9166H86.2887C86.1012 30.9166 85.9512 30.8513 85.8387 30.7206C85.7262 30.59 85.6887 30.422 85.7262 30.2166L87.9199 19.8846L83.6168 25.5686C83.4855 25.718 83.3262 25.8673 83.1387 26.0166C82.9699 26.1473 82.7543 26.2126 82.4918 26.2126H81.0293C80.7668 26.2126 80.5793 26.1473 80.4668 26.0166C80.3543 25.886 80.2699 25.7366 80.2137 25.5686L78.2168 19.6326L75.9387 30.2166C75.9012 30.422 75.798 30.59 75.6293 30.7206C75.4793 30.8513 75.3105 30.9166 75.123 30.9166H71.748ZM96.5578 30.9166C96.3515 30.9166 96.1922 30.8513 96.0797 30.7206C95.9672 30.59 95.9297 30.422 95.9672 30.2166L99.8765 12.0166C99.914 11.8113 100.017 11.6433 100.186 11.5126C100.355 11.382 100.533 11.3166 100.72 11.3166H104.517C104.705 11.3166 104.855 11.382 104.967 11.5126C105.08 11.6433 105.117 11.8113 105.08 12.0166L101.17 30.2166C101.133 30.422 101.03 30.59 100.861 30.7206C100.711 30.8513 100.542 30.9166 100.355 30.9166H96.5578ZM114.339 31.1966C112.464 31.1966 110.926 30.9353 109.726 30.4126C108.545 29.89 107.692 29.1993 107.167 28.3406C106.661 27.4633 106.482 26.5393 106.632 25.5686C106.67 25.4193 106.745 25.2886 106.857 25.1766C106.989 25.046 107.139 24.9806 107.307 24.9806H110.907C111.17 24.9806 111.357 25.0273 111.47 25.1206C111.582 25.214 111.695 25.3353 111.807 25.4846C111.882 25.7646 112.032 26.0353 112.257 26.2966C112.482 26.558 112.792 26.7726 113.186 26.9406C113.598 27.09 114.104 27.1646 114.704 27.1646C115.792 27.1646 116.664 26.9966 117.32 26.6606C117.976 26.3246 118.361 25.8673 118.473 25.2886C118.586 24.878 118.511 24.542 118.248 24.2806C118.004 24.0006 117.564 23.758 116.926 23.5526C116.307 23.3286 115.473 23.1046 114.423 22.8806C113.054 22.582 111.929 22.1713 111.048 21.6486C110.167 21.1073 109.548 20.426 109.192 19.6046C108.854 18.7646 108.807 17.766 109.051 16.6086C109.426 14.8913 110.354 13.538 111.836 12.5486C113.317 11.5406 115.239 11.0366 117.601 11.0366C118.82 11.0366 119.898 11.2046 120.836 11.5406C121.792 11.8766 122.589 12.3246 123.226 12.8846C123.864 13.4446 124.323 14.042 124.604 14.6766C124.886 15.2926 124.979 15.8993 124.886 16.4966C124.867 16.646 124.792 16.786 124.661 16.9166C124.529 17.0286 124.379 17.0846 124.211 17.0846H120.442C120.254 17.0846 120.086 17.0473 119.936 16.9726C119.804 16.898 119.692 16.7766 119.598 16.6086C119.598 16.198 119.382 15.8433 118.951 15.5446C118.52 15.2273 117.948 15.0686 117.236 15.0686C116.429 15.0686 115.754 15.218 115.211 15.5166C114.667 15.7966 114.329 16.2353 114.198 16.8326C114.104 17.206 114.151 17.5326 114.339 17.8126C114.545 18.0926 114.92 18.3353 115.464 18.5406C116.026 18.746 116.795 18.9606 117.77 19.1846C119.42 19.502 120.714 19.9313 121.651 20.4726C122.589 20.9953 123.217 21.658 123.536 22.4606C123.873 23.2633 123.92 24.2433 123.676 25.4006C123.264 27.3046 122.261 28.7513 120.667 29.7406C119.092 30.7113 116.982 31.1966 114.339 31.1966ZM127.138 30.9166C126.932 30.9166 126.773 30.8513 126.66 30.7206C126.548 30.59 126.51 30.422 126.548 30.2166L130.429 12.0166C130.467 11.8113 130.57 11.6433 130.738 11.5126C130.907 11.382 131.095 11.3166 131.301 11.3166H134.338C134.638 11.3166 134.845 11.4006 134.957 11.5686C135.088 11.718 135.173 11.8393 135.21 11.9326L138.248 20.7806L145.11 11.9326C145.167 11.8393 145.279 11.718 145.448 11.5686C145.635 11.4006 145.879 11.3166 146.179 11.3166H149.217C149.423 11.3166 149.582 11.382 149.695 11.5126C149.807 11.6433 149.845 11.8113 149.807 12.0166L145.926 30.2166C145.888 30.422 145.785 30.59 145.617 30.7206C145.448 30.8513 145.26 30.9166 145.054 30.9166H141.679C141.492 30.9166 141.342 30.8513 141.229 30.7206C141.117 30.59 141.079 30.422 141.117 30.2166L143.31 19.8846L139.007 25.5686C138.876 25.718 138.717 25.8673 138.529 26.0166C138.36 26.1473 138.145 26.2126 137.882 26.2126H136.42C136.157 26.2126 135.97 26.1473 135.857 26.0166C135.745 25.886 135.66 25.7366 135.604 25.5686L133.607 19.6326L131.329 30.2166C131.292 30.422 131.188 30.59 131.02 30.7206C130.87 30.8513 130.701 30.9166 130.513 30.9166H127.138Z" fill="#ffffff"/>
</svg>
