<svg width="162" height="42" viewBox="0 0 162 42" fill="none" xmlns="http://www.w3.org/2000/svg">
<g opacity="0.5">
<path d="M63.4875 14.5982C64.4752 15.1937 65.311 16.0124 65.8427 17.1288C66.4506 18.2453 66.7545 19.5851 66.7545 21.0736C66.7545 22.5623 66.4506 23.8276 65.7668 24.944C65.1589 26.0605 64.2472 26.8793 63.1074 27.4002C61.9679 27.9957 60.6002 28.2935 59.1567 28.2935C58.3208 28.2935 57.561 28.1445 56.8012 27.8469C56.0414 27.6236 55.3576 27.1769 54.8257 26.656V34.3967H50.4189V14.0028H54.2179L54.5979 15.6402C56.2693 14.3005 58.0929 13.6306 59.9923 13.6306C61.2839 13.6306 62.4996 13.9283 63.4875 14.5982ZM61.0561 23.8276C61.8158 23.1578 62.1957 22.2645 62.1957 21.1481C62.1957 20.0317 61.8158 19.1385 61.132 18.3942C60.4483 17.6499 59.5365 17.3521 58.5488 17.3521C57.713 17.3521 56.9531 17.501 56.3453 17.8732C55.7375 18.1709 55.2817 18.6919 54.9018 19.3618V22.7111C55.1296 23.3811 55.5856 23.902 56.1175 24.2742C56.7253 24.6463 57.4091 24.8696 58.2449 24.8696C59.3845 24.8696 60.2962 24.4975 61.0561 23.8276Z" fill="#ffffff"/>
<path d="M69.3363 17.2016C70.0203 16.1596 70.9319 15.2664 72.1475 14.671C73.3632 14.0755 74.7309 13.7034 76.2505 13.7034C77.7701 13.7034 79.1377 14.0011 80.3534 14.671C81.4931 15.2664 82.4048 16.1596 83.0886 17.276C83.7724 18.3925 84.0763 19.5834 84.0763 20.9976C84.0763 22.4118 83.7724 23.6027 83.0886 24.7191C82.4048 25.8355 81.569 26.7286 80.3534 27.3241C79.2136 27.9195 77.7701 28.2918 76.2505 28.2918C74.7309 28.2918 73.3632 27.994 72.1475 27.3986C70.9319 26.8031 70.0203 25.9844 69.3363 24.8679C68.7285 23.7515 68.3486 22.4861 68.3486 20.9976C68.3486 19.5834 68.7285 18.3181 69.3363 17.2016ZM73.8192 23.677C74.427 24.4213 75.2628 24.7191 76.2505 24.7191C77.2382 24.7191 78.074 24.347 78.6819 23.677C79.2897 23.0071 79.5936 22.0395 79.5936 20.9976C79.5936 19.8812 79.2897 18.9879 78.6819 18.3181C77.9979 17.5738 77.2382 17.2016 76.1746 17.2016C75.1867 17.2016 74.427 17.5738 73.7432 18.2436C73.1354 18.9879 72.8315 19.8812 72.8315 20.9976C72.8315 22.0395 73.1354 22.9328 73.8192 23.677Z" fill="#ffffff"/>
<path d="M91.2202 3.43286V27.9205H86.8135V3.43286H91.2202Z" fill="#ffffff"/>
<path d="M109.302 14.3738L100.337 34.47H96.0822L99.4251 27.2503L93.043 14.3738H98.0575L101.705 22.4122L105.352 14.3738H109.302Z" fill="#ffffff"/>
<path d="M126.169 14.3733V27.9195C126.169 29.1849 125.79 30.3758 125.03 31.4179C124.27 32.4598 123.282 33.2786 121.991 33.874C120.699 34.4695 119.331 34.7671 117.812 34.7671C116.672 34.7671 115.684 34.6183 114.849 34.395C114.013 34.0973 113.329 33.7995 112.797 33.5019C112.189 33.1297 111.582 32.6831 110.898 32.0877L113.481 29.1104C114.089 29.7059 114.773 30.1525 115.38 30.4503C115.988 30.7479 116.824 30.9712 117.736 30.9712C118.875 30.9712 119.787 30.6736 120.547 30.1525C121.307 29.6315 121.687 28.8128 121.687 27.8452V25.91C121.231 26.5798 120.623 27.1753 119.711 27.6219C118.799 28.0685 117.736 28.2918 116.52 28.2918C115.304 28.2918 114.089 27.994 113.025 27.3241C111.961 26.7286 111.126 25.8355 110.442 24.7191C109.834 23.6027 109.454 22.4118 109.454 21.0721C109.454 19.7322 109.758 18.4669 110.442 17.3505C111.126 16.234 111.961 15.3408 113.101 14.671C114.165 14.0011 115.304 13.7034 116.52 13.7034C117.66 13.7034 118.647 13.8522 119.559 14.15C120.471 14.4477 121.155 14.8943 121.611 15.4153L122.067 14.3733H126.169ZM121.687 22.7095V19.3601C121.383 18.6902 120.927 18.1692 120.243 17.797C119.559 17.4249 118.799 17.2016 117.888 17.2016C116.824 17.2016 115.912 17.5738 115.152 18.2436C114.393 18.9135 114.013 19.8067 114.013 20.9231C114.013 21.9652 114.393 22.9328 115.152 23.677C115.912 24.4213 116.824 24.7936 117.888 24.7936C119.635 24.7191 120.927 24.0492 121.687 22.7095Z" fill="#ffffff"/>
<path d="M129.818 17.2033C130.502 16.0868 131.413 15.2681 132.629 14.5982C133.845 14.0028 135.212 13.6306 136.732 13.6306C138.252 13.6306 139.619 13.9283 140.835 14.5982C141.975 15.1937 142.886 16.0868 143.57 17.2033C144.178 18.3197 144.558 19.5106 144.558 20.9248C144.558 22.339 144.254 23.5299 143.57 24.6463C142.962 25.7627 142.05 26.656 140.835 27.2514C139.695 27.8469 138.252 28.219 136.732 28.219C135.212 28.219 133.845 27.9212 132.629 27.3258C131.413 26.7303 130.502 25.9117 129.818 24.7952C129.134 23.6787 128.83 22.4135 128.83 20.8503C128.83 19.5851 129.134 18.3197 129.818 17.2033ZM134.225 23.6787C134.833 24.423 135.668 24.7208 136.656 24.7208C137.644 24.7208 138.479 24.3485 139.087 23.6787C139.695 23.0088 139.999 22.0412 139.999 20.9993C139.999 19.8827 139.695 18.9896 139.087 18.3197C138.479 17.6499 137.644 17.2777 136.656 17.2777C135.668 17.2777 134.908 17.6499 134.225 18.3197C133.541 18.9896 133.237 19.9572 133.237 20.9993C133.313 22.0412 133.617 22.9343 134.225 23.6787Z" fill="#ffffff"/>
<path d="M160.134 14.8198C161.046 15.5641 161.425 16.5317 161.5 17.7226V27.9195H157.018V19.3601C156.942 18.0203 156.258 17.3505 154.967 17.3505C153.979 17.3505 153.143 17.797 152.535 18.7646C151.928 19.7322 151.624 20.9231 151.624 22.3373V27.9195H147.217V14.3733H151.244L151.548 16.5317C152.079 15.6386 152.763 14.9687 153.675 14.4477C154.587 13.9267 155.651 13.7034 156.866 13.7034C158.158 13.7034 159.297 14.0755 160.134 14.8198Z" fill="#ffffff"/>
<path d="M31.5755 14.1517C30.8156 13.7051 29.8279 13.7051 28.9923 14.1517L23.0658 17.5755L19.0389 19.8084L13.1126 23.2322C12.3528 23.6787 11.365 23.6787 10.5293 23.2322L5.81855 20.5526C5.05875 20.106 4.5269 19.2874 4.5269 18.3942V13.1096C4.5269 12.2165 4.98278 11.3977 5.81855 10.9512L10.4533 8.34611C11.2131 7.89952 12.2008 7.89952 13.0366 8.34611L17.6713 10.9512C18.4311 11.3977 18.963 12.2165 18.963 13.1096V16.5335L22.9898 14.2261V10.8023C22.9898 9.90914 22.534 9.0904 21.6982 8.64382L13.1126 3.73142C12.3528 3.28484 11.365 3.28484 10.5293 3.73142L1.79165 8.64382C0.955875 9.0904 0.5 9.90914 0.5 10.8023V20.7016C0.5 21.5947 0.955875 22.4135 1.79165 22.8601L10.5293 27.7725C11.289 28.219 12.2768 28.219 13.1126 27.7725L19.0389 24.4231L23.0658 22.1157L28.9923 18.7664C29.752 18.3198 30.7397 18.3198 31.5755 18.7664L36.2102 21.3714C36.97 21.818 37.5019 22.6368 37.5019 23.5299V28.8144C37.5019 29.7077 37.0461 30.5263 36.2102 30.9729L31.5755 33.6525C30.8156 34.099 29.8279 34.099 28.9923 33.6525L24.3576 31.0474C23.5977 30.6008 23.0658 29.782 23.0658 28.8889V25.4652L19.0389 27.7725V31.1962C19.0389 32.0893 19.4949 32.9081 20.3305 33.3547L29.0682 38.2671C29.8279 38.7137 30.8156 38.7137 31.6515 38.2671L40.3892 33.3547C41.1489 32.9081 41.6808 32.0893 41.6808 31.1962V21.2969C41.6808 20.4038 41.2248 19.5852 40.3892 19.1386L31.5755 14.1517Z" fill="#ffffff"/>
</g>
</svg>
