<svg width="121" height="42" viewBox="0 0 121 42" fill="none" xmlns="http://www.w3.org/2000/svg">
<g opacity="0.5">
<path d="M70.3784 33.6482V41.7001H67.7974V28.1391H70.2748V30.3463H70.4388C70.7438 29.6282 71.2215 29.0514 71.8718 28.6159C72.5278 28.1803 73.3536 27.9625 74.3492 27.9625C75.2527 27.9625 76.044 28.1568 76.7231 28.5452C77.4021 28.9278 77.9287 29.4987 78.3028 30.258C78.6768 31.0173 78.8639 31.9561 78.8639 33.0744V41.7001H76.2828V33.3922C76.2828 32.4093 76.0325 31.6412 75.5318 31.0879C75.0312 30.5287 74.3435 30.2492 73.4687 30.2492C72.8702 30.2492 72.3379 30.3816 71.8718 30.6465C71.4114 30.9113 71.046 31.2998 70.7755 31.8119C70.5108 32.318 70.3784 32.9302 70.3784 33.6482Z" fill="#ffffff"/>
<path d="M61.744 41.6998V28.1388H64.3251V41.6998H61.744ZM63.0475 26.0464C62.5986 26.0464 62.2131 25.8934 61.8908 25.5873C61.5743 25.2754 61.416 24.9045 61.416 24.4749C61.416 24.0393 61.5743 23.6685 61.8908 23.3625C62.2131 23.0505 62.5986 22.8945 63.0475 22.8945C63.4964 22.8945 63.8791 23.0505 64.1956 23.3625C64.5179 23.6685 64.679 24.0393 64.679 24.4749C64.679 24.9045 64.5179 25.2754 64.1956 25.5873C63.8791 25.8934 63.4964 26.0464 63.0475 26.0464Z" fill="#ffffff"/>
<path d="M53.1917 41.9738C51.8854 41.9738 50.7603 41.6883 49.8165 41.1174C48.8785 40.5406 48.1534 39.7312 47.6412 38.6895C47.1348 37.6418 46.8816 36.4146 46.8816 35.0079C46.8816 33.6188 47.1348 32.3946 47.6412 31.3351C48.1534 30.2757 48.867 29.4487 49.782 28.8542C50.7028 28.2598 51.7789 27.9625 53.0105 27.9625C53.7586 27.9625 54.4837 28.0891 55.1858 28.3422C55.8879 28.5953 56.518 28.9925 57.0762 29.534C57.6345 30.0755 58.0747 30.7789 58.397 31.6441C58.7192 32.5034 58.8804 33.5482 58.8804 34.7783V35.7142H48.3404V33.7365H56.3511C56.3511 33.042 56.213 32.4269 55.9368 31.8913C55.6606 31.3498 55.2721 30.9231 54.7714 30.6111C54.2765 30.2992 53.6953 30.1432 53.0277 30.1432C52.3026 30.1432 51.6696 30.3257 51.1286 30.6906C50.5934 31.0496 50.1791 31.5205 49.8856 32.1032C49.5979 32.68 49.454 33.3069 49.454 33.9837V35.5288C49.454 36.4352 49.6094 37.2062 49.9201 37.8419C50.2366 38.4776 50.6769 38.9631 51.2409 39.2986C51.8048 39.6282 52.4638 39.793 53.2176 39.793C53.7068 39.793 54.1528 39.7224 54.5556 39.5812C54.9585 39.434 55.3066 39.2162 55.6001 38.9278C55.8936 38.6394 56.1181 38.2833 56.2734 37.8596L58.7164 38.3098C58.5207 39.0456 58.1697 39.69 57.6632 40.2433C57.1626 40.7907 56.5324 41.2174 55.7728 41.5235C55.0189 41.8237 54.1585 41.9738 53.1917 41.9738Z" fill="#ffffff"/>
<path d="M44.7646 28.139V30.2579H37.5222V28.139H44.7646ZM39.4645 24.89H42.0455V37.7182C42.0455 38.2303 42.1203 38.6158 42.2699 38.8748C42.4196 39.1278 42.6123 39.3015 42.8483 39.3957C43.09 39.4839 43.3518 39.5281 43.6338 39.5281C43.841 39.5281 44.0223 39.5134 44.1777 39.4839C44.333 39.4545 44.4539 39.431 44.5402 39.4133L45.0063 41.594C44.8567 41.6529 44.6438 41.7117 44.3676 41.7706C44.0913 41.8353 43.746 41.8706 43.3317 41.8765C42.6526 41.8883 42.0196 41.7647 41.4326 41.5057C40.8456 41.2467 40.3708 40.8465 40.0083 40.305C39.6457 39.7635 39.4645 39.0837 39.4645 38.2656V24.89Z" fill="#ffffff"/>
<path d="M32.7808 28.3684C32.6888 27.5326 32.309 26.8852 31.6414 26.4261C30.9738 25.9611 30.1336 25.7286 29.1208 25.7286C28.3957 25.7286 27.7684 25.8463 27.239 26.0818C26.7095 26.3113 26.2981 26.6291 26.0046 27.0353C25.7168 27.4355 25.5729 27.8917 25.5729 28.4037C25.5729 28.8334 25.6708 29.2042 25.8664 29.5161C26.0679 29.8281 26.3297 30.09 26.652 30.3019C26.98 30.5079 27.331 30.6815 27.7051 30.8228C28.0792 30.9582 28.4388 31.07 28.7841 31.1583L30.5106 31.6174C31.0745 31.7587 31.6529 31.9499 32.2457 32.1913C32.8384 32.4326 33.388 32.7504 33.8944 33.1448C34.4008 33.5391 34.8094 34.0276 35.1202 34.6103C35.4367 35.193 35.5949 35.8905 35.5949 36.7028C35.5949 37.7269 35.336 38.6363 34.818 39.4308C34.3059 40.2254 33.5606 40.8523 32.5823 41.3114C31.6097 41.7705 30.4329 42 29.0517 42C27.7281 42 26.5829 41.7852 25.6161 41.3555C24.6493 40.9258 23.8925 40.3167 23.3458 39.528C22.7991 38.7334 22.497 37.7916 22.4395 36.7028H25.1154C25.1672 37.3561 25.3744 37.9005 25.737 38.3361C26.1053 38.7657 26.5743 39.0865 27.144 39.2984C27.7195 39.5044 28.3496 39.6074 29.0345 39.6074C29.7883 39.6074 30.4588 39.4868 31.0458 39.2454C31.6385 38.9982 32.1047 38.6569 32.4442 38.2213C32.7837 37.7799 32.9535 37.2649 32.9535 36.6763C32.9535 36.1407 32.8039 35.7022 32.5046 35.3608C32.2111 35.0194 31.8112 34.7369 31.3047 34.5132C30.8041 34.2896 30.2372 34.0924 29.6042 33.9217L27.5152 33.339C26.0995 32.9446 24.9773 32.3649 24.1486 31.5997C23.3257 30.8346 22.9142 29.8222 22.9142 28.5626C22.9142 27.5209 23.1905 26.6115 23.7429 25.8346C24.2954 25.0576 25.0435 24.4543 25.9873 24.0247C26.9311 23.5891 27.9957 23.3713 29.1812 23.3713C30.3782 23.3713 31.4342 23.5862 32.3492 24.0158C33.27 24.4455 33.9951 25.037 34.5246 25.7904C35.054 26.5379 35.3302 27.3972 35.3532 28.3684H32.7808Z" fill="#ffffff"/>
<path d="M5.80958 41.956C4.62409 41.956 3.60262 41.7353 2.74515 41.2938C1.89344 40.8524 1.23739 40.252 0.777003 39.4928C0.316618 38.7276 0.0864258 37.8624 0.0864258 36.8971C0.0864258 36.1614 0.236051 35.5081 0.535301 34.9371C0.834551 34.3603 1.25177 33.8277 1.78697 33.3391C2.32217 32.8506 2.94081 32.3591 3.6429 31.8647L6.49153 29.8076C6.97493 29.4839 7.35187 29.1425 7.62235 28.7835C7.89283 28.4186 8.02806 27.9683 8.02806 27.4327C8.02806 27.0089 7.84967 26.6028 7.49287 26.2143C7.13607 25.8259 6.65842 25.6316 6.05992 25.6316C5.64557 25.6316 5.28014 25.7346 4.96363 25.9406C4.65287 26.1466 4.40829 26.4115 4.22989 26.7352C4.05725 27.0531 3.97092 27.3886 3.97092 27.7417C3.97092 28.1537 4.08026 28.5687 4.29895 28.9866C4.52339 29.4044 4.81113 29.8371 5.16217 30.2844C5.51321 30.7258 5.88152 31.1849 6.26709 31.6617L14.4763 41.7H11.5586L4.76509 33.5334C4.19536 32.8447 3.66592 32.1973 3.17676 31.591C2.6876 30.9789 2.29052 30.3609 1.98551 29.737C1.68626 29.1072 1.53664 28.4274 1.53664 27.6976C1.53664 26.8677 1.72079 26.1319 2.0891 25.4904C2.46316 24.8429 2.98397 24.3367 3.65153 23.9718C4.31909 23.6069 5.10174 23.4244 5.99949 23.4244C6.90875 23.4244 7.68853 23.6069 8.33882 23.9718C8.99487 24.3309 9.49842 24.8106 9.84946 25.4109C10.2063 26.0054 10.3847 26.6558 10.3847 27.3621C10.3847 28.2214 10.1746 28.9807 9.75451 29.6399C9.34016 30.2932 8.76756 30.8936 8.0367 31.4409L4.48886 34.1161C3.79828 34.634 3.31775 35.1461 3.04728 35.6523C2.78255 36.1526 2.65019 36.544 2.65019 36.8265C2.65019 37.3444 2.77968 37.8241 3.03864 38.2656C3.30337 38.707 3.67167 39.0602 4.14357 39.325C4.62122 39.5899 5.17943 39.7223 5.81822 39.7223C6.47427 39.7223 7.11305 39.5781 7.73457 39.2897C8.36184 38.9954 8.92869 38.5746 9.43512 38.0272C9.94729 37.4798 10.353 36.8235 10.6523 36.0584C10.9515 35.2932 11.1011 34.4368 11.1011 33.4892H13.4318C13.4318 34.6546 13.3023 35.6405 13.0434 36.4468C12.7844 37.2473 12.4708 37.9007 12.1025 38.4068C11.7399 38.9071 11.3975 39.2985 11.0752 39.5811C10.9716 39.6752 10.8738 39.7694 10.7817 39.8636C10.6897 39.9578 10.5918 40.0519 10.4882 40.1461C9.88975 40.7641 9.16464 41.2203 8.31293 41.5146C7.46697 41.8088 6.63252 41.956 5.80958 41.956Z" fill="#ffffff"/>
<path d="M112.515 10.0295V18.0813H109.934V4.52039H112.411V6.72757H112.575C112.88 6.0095 113.358 5.43269 114.008 4.99714C114.664 4.56159 115.49 4.34381 116.485 4.34381C117.389 4.34381 118.18 4.53804 118.859 4.92651C119.538 5.30909 120.065 5.88001 120.439 6.63929C120.813 7.39856 121 8.33735 121 9.45566V18.0813H118.419V9.77349C118.419 8.79056 118.169 8.02246 117.668 7.46919C117.167 6.91003 116.48 6.63046 115.605 6.63046C115.006 6.63046 114.474 6.76289 114.008 7.02775C113.548 7.29261 113.182 7.68108 112.912 8.19315C112.647 8.69933 112.515 9.31146 112.515 10.0295Z" fill="#ffffff"/>
<path d="M100.872 18.355C99.6288 18.355 98.544 18.0637 97.6175 17.481C96.691 16.8983 95.9716 16.0831 95.4594 15.0354C94.9473 13.9878 94.6912 12.7635 94.6912 11.3627C94.6912 9.95595 94.9473 8.72581 95.4594 7.67225C95.9716 6.61869 96.691 5.80055 97.6175 5.21786C98.544 4.63516 99.6288 4.34381 100.872 4.34381C102.115 4.34381 103.2 4.63516 104.126 5.21786C105.053 5.80055 105.772 6.61869 106.284 7.67225C106.796 8.72581 107.052 9.95595 107.052 11.3627C107.052 12.7635 106.796 13.9878 106.284 15.0354C105.772 16.0831 105.053 16.8983 104.126 17.481C103.2 18.0637 102.115 18.355 100.872 18.355ZM100.88 16.139C101.686 16.139 102.354 15.9212 102.883 15.4857C103.413 15.0501 103.804 14.4704 104.057 13.7464C104.316 13.0225 104.446 12.2249 104.446 11.3538C104.446 10.4886 104.316 9.69403 104.057 8.97008C103.804 8.24023 103.413 7.65459 102.883 7.21315C102.354 6.77172 101.686 6.551 100.88 6.551C100.069 6.551 99.3957 6.77172 98.8605 7.21315C98.3311 7.65459 97.9369 8.24023 97.6779 8.97008C97.4247 9.69403 97.2981 10.4886 97.2981 11.3538C97.2981 12.2249 97.4247 13.0225 97.6779 13.7464C97.9369 14.4704 98.3311 15.0501 98.8605 15.4857C99.3957 15.9212 100.069 16.139 100.88 16.139Z" fill="#ffffff"/>
<path d="M92.1899 7.83117L89.8506 8.25495C89.7527 7.94888 89.5974 7.65753 89.3844 7.3809C89.1773 7.10427 88.8953 6.87766 88.5385 6.70109C88.1817 6.52451 87.7357 6.43622 87.2005 6.43622C86.4696 6.43622 85.8596 6.60397 85.3705 6.93946C84.8813 7.26907 84.6367 7.69579 84.6367 8.21963C84.6367 8.67284 84.8007 9.03776 85.1287 9.3144C85.4568 9.59103 85.9862 9.81764 86.7171 9.99421L88.8233 10.4886C90.0434 10.777 90.9526 11.2214 91.5511 11.8218C92.1496 12.4221 92.4489 13.202 92.4489 14.1614C92.4489 14.9736 92.2187 15.6976 91.7583 16.3333C91.3037 16.963 90.6678 17.4574 89.8506 17.8165C89.0392 18.1755 88.0982 18.355 87.0278 18.355C85.5431 18.355 84.3317 18.0313 83.3937 17.3839C82.4556 16.7305 81.8802 15.8035 81.6672 14.6028L84.1619 14.2144C84.3173 14.8795 84.6367 15.3827 85.1201 15.7241C85.6035 16.0596 86.2337 16.2273 87.0106 16.2273C87.8565 16.2273 88.5327 16.0478 89.0391 15.6888C89.5456 15.3238 89.7988 14.8795 89.7988 14.3556C89.7988 13.9318 89.6434 13.5757 89.3326 13.2873C89.0276 12.9989 88.5586 12.7812 87.9256 12.634L85.6812 12.1308C84.4439 11.8424 83.5289 11.3833 82.9362 10.7535C82.3492 10.1237 82.0557 9.32617 82.0557 8.36089C82.0557 7.56042 82.2744 6.86 82.7117 6.25965C83.1491 5.65929 83.7534 5.19137 84.5245 4.85588C85.2956 4.5145 86.179 4.34381 87.1746 4.34381C88.6075 4.34381 89.7355 4.66165 90.5584 5.29732C91.3814 5.9271 91.9252 6.77172 92.1899 7.83117Z" fill="#ffffff"/>
<path d="M67.2515 23.1667V4.52039H69.7721V6.71874H69.9879C70.1375 6.43622 70.3533 6.10956 70.6353 5.73875C70.9173 5.36795 71.3086 5.04422 71.8093 4.76759C72.3099 4.48507 72.9718 4.34381 73.7947 4.34381C74.8651 4.34381 75.8204 4.62045 76.6606 5.17371C77.5008 5.72698 78.1597 6.52451 78.6374 7.56631C79.1208 8.6081 79.3625 9.86178 79.3625 11.3274C79.3625 12.7929 79.1236 14.0496 78.646 15.0972C78.1683 16.139 77.5123 16.9424 76.6778 17.5075C75.8434 18.0666 74.891 18.3462 73.8206 18.3462C73.0149 18.3462 72.356 18.2079 71.8438 17.9313C71.3374 17.6546 70.9403 17.3309 70.6526 16.9601C70.3648 16.5893 70.1433 16.2597 69.9879 15.9713H69.8325V23.1667H67.2515ZM69.7807 11.3009C69.7807 12.2544 69.9159 13.0902 70.1864 13.8082C70.4569 14.5263 70.8482 15.0884 71.3604 15.4945C71.8726 15.8948 72.4999 16.0949 73.2422 16.0949C74.0134 16.0949 74.6579 15.8859 75.1758 15.468C75.6938 15.0443 76.0851 14.4704 76.3498 13.7464C76.6203 13.0225 76.7555 12.2073 76.7555 11.3009C76.7555 10.4062 76.6232 9.6028 76.3585 8.89062C76.0995 8.17843 75.7082 7.61633 75.1845 7.20433C74.6665 6.79232 74.0191 6.58631 73.2422 6.58631C72.4941 6.58631 71.8611 6.78349 71.3431 7.17784C70.831 7.57219 70.4425 8.12252 70.1778 8.82882C69.9131 9.53512 69.7807 10.3591 69.7807 11.3009Z" fill="#ffffff"/>
<path d="M45.7681 18.0813V4.52039H48.2455V6.72757H48.4095C48.6858 5.98007 49.1375 5.39738 49.7648 4.97948C50.3921 4.5557 51.1431 4.34381 52.0178 4.34381C52.904 4.34381 53.6464 4.5557 54.2449 4.97948C54.8492 5.40326 55.2952 5.98596 55.5829 6.72757H55.721C56.0375 6.00362 56.5411 5.4268 57.2317 4.99714C57.9222 4.56159 58.7452 4.34381 59.7005 4.34381C60.9032 4.34381 61.8844 4.72933 62.6441 5.50038C63.4094 6.27142 63.7921 7.43387 63.7921 8.98773V18.0813H61.2111V9.23494C61.2111 8.31675 60.9665 7.65165 60.4774 7.23964C59.9882 6.82763 59.4041 6.62163 58.725 6.62163C57.8848 6.62163 57.2317 6.88649 56.7655 7.41622C56.2994 7.94006 56.0663 8.61398 56.0663 9.438V18.0813H53.4939V9.06719C53.4939 8.33146 53.2695 7.73994 52.8206 7.29261C52.3717 6.84529 51.7876 6.62163 51.0682 6.62163C50.5791 6.62163 50.1273 6.75406 49.713 7.01892C49.3044 7.2779 48.9735 7.63988 48.7203 8.10486C48.4728 8.56984 48.3491 9.10839 48.3491 9.72052V18.0813H45.7681Z" fill="#ffffff"/>
<path d="M36.7063 18.355C35.4633 18.355 34.3785 18.0637 33.452 17.481C32.5254 16.8983 31.8061 16.0831 31.2939 15.0354C30.7817 13.9878 30.5256 12.7635 30.5256 11.3627C30.5256 9.95595 30.7817 8.72581 31.2939 7.67225C31.8061 6.61869 32.5254 5.80055 33.452 5.21786C34.3785 4.63516 35.4633 4.34381 36.7063 4.34381C37.9493 4.34381 39.0341 4.63516 39.9606 5.21786C40.8872 5.80055 41.6065 6.61869 42.1187 7.67225C42.6309 8.72581 42.887 9.95595 42.887 11.3627C42.887 12.7635 42.6309 13.9878 42.1187 15.0354C41.6065 16.0831 40.8872 16.8983 39.9606 17.481C39.0341 18.0637 37.9493 18.355 36.7063 18.355ZM36.7149 16.139C37.5206 16.139 38.1882 15.9212 38.7176 15.4857C39.247 15.0501 39.6384 14.4704 39.8916 13.7464C40.1506 13.0225 40.28 12.2249 40.28 11.3538C40.28 10.4886 40.1506 9.69403 39.8916 8.97008C39.6384 8.24023 39.247 7.65459 38.7176 7.21315C38.1882 6.77172 37.5206 6.551 36.7149 6.551C35.9035 6.551 35.2302 6.77172 34.695 7.21315C34.1656 7.65459 33.7713 8.24023 33.5124 8.97008C33.2592 9.69403 33.1326 10.4886 33.1326 11.3538C33.1326 12.2249 33.2592 13.0225 33.5124 13.7464C33.7713 14.4704 34.1656 15.0501 34.695 15.4857C35.2302 15.9212 35.9035 16.139 36.7149 16.139Z" fill="#ffffff"/>
<path d="M19.0793 10.0295V18.0813H16.4983V0H19.0448V6.72751H19.2088C19.5196 5.99767 19.9943 5.41791 20.6331 4.98825C21.2719 4.55858 22.1064 4.34375 23.1365 4.34375C24.0457 4.34375 24.8399 4.53504 25.519 4.91762C26.2038 5.30019 26.7332 5.87112 27.1073 6.63039C27.4871 7.38378 27.677 8.32551 27.677 9.45559V18.0813H25.096V9.77343C25.096 8.77872 24.8456 8.00768 24.345 7.4603C23.8443 6.90703 23.148 6.63039 22.256 6.63039C21.646 6.63039 21.0993 6.76282 20.6159 7.02769C20.1382 7.29255 19.7613 7.68101 19.485 8.19308C19.2146 8.69926 19.0793 9.31139 19.0793 10.0295Z" fill="#ffffff"/>
<path d="M0 2.34845V0H13.6821V2.34845H8.16608V18.0813H5.50735V2.34845H0Z" fill="#ffffff"/>
</g>
</svg>
