<svg width="24" height="24" viewBox="0 0 24 24" fill="none" xmlns="http://www.w3.org/2000/svg">
<path fill-rule="evenodd" clip-rule="evenodd" d="M5.53197 14.9615L20.9655 14.9615C21.2399 14.9615 21.503 15.071 21.697 15.2657C21.891 15.4605 22 15.7246 22 16C22 16.2754 21.891 16.5396 21.697 16.7343C21.503 16.9291 21.2399 17.0385 20.9655 17.0385L5.53197 17.0385L7.21429 18.7272C7.4083 18.922 7.51729 19.1861 7.51729 19.4615C7.51729 19.7369 7.4083 20.0011 7.21429 20.1958C7.02029 20.3906 6.75715 20.5 6.48279 20.5C6.20842 20.5 5.94529 20.3906 5.75128 20.1958L2.30301 16.7343C2.20694 16.6379 2.13074 16.5234 2.07875 16.3974C2.02676 16.2714 2 16.1364 2 16C2 15.8636 2.02676 15.7286 2.07875 15.6026C2.13074 15.4766 2.20694 15.3621 2.30301 15.2657L5.75128 11.8042C5.94529 11.6094 6.20842 11.5 6.48279 11.5C6.75716 11.5 7.02029 11.6094 7.21429 11.8042C7.4083 11.9989 7.5173 12.2631 7.5173 12.5385C7.5173 12.8139 7.4083 13.078 7.21429 13.2728L5.53197 14.9615Z" fill="white" />
<path fill-rule="evenodd" clip-rule="evenodd" d="M18.468 9.03846L3.03448 9.03846C2.76012 9.03846 2.49699 8.92905 2.30299 8.7343C2.10899 8.53955 2 8.27542 2 8C2 7.72459 2.10899 7.46045 2.30299 7.2657C2.49699 7.07095 2.76012 6.96154 3.03448 6.96154L18.468 6.96155L16.7857 5.2728C16.5917 5.07805 16.4827 4.81391 16.4827 4.53848C16.4827 4.26306 16.5917 3.99892 16.7857 3.80417C16.9797 3.60941 17.2428 3.5 17.5172 3.5C17.7916 3.5 18.0547 3.60941 18.2487 3.80417L21.697 7.26569C21.7931 7.36212 21.8693 7.4766 21.9212 7.60259C21.9732 7.72859 22 7.86363 22 8C22 8.13638 21.9732 8.27142 21.9212 8.39742C21.8693 8.52341 21.7931 8.63789 21.697 8.73432L18.2487 12.1958C18.0547 12.3906 17.7916 12.5 17.5172 12.5C17.2428 12.5 16.9797 12.3906 16.7857 12.1958C16.5917 12.0011 16.4827 11.7369 16.4827 11.4615C16.4827 11.1861 16.5917 10.922 16.7857 10.7272L18.468 9.03846Z" fill="white" />
</svg>
