<svg width="24" height="24" viewBox="0 0 24 24" fill="none" xmlns="http://www.w3.org/2000/svg">
<path fill-rule="evenodd" clip-rule="evenodd" d="M19 19.874C20.7252 19.4299 22 17.8638 22 16V6C22 3.79086 20.2091 2 18 2H6C3.79086 2 2 3.79086 2 6V16C2 17.8638 3.27477 19.4299 5 19.874V21C5 21.5523 5.44772 22 6 22C6.55228 22 7 21.5523 7 21V20H17V21C17 21.5523 17.4477 22 18 22C18.5523 22 19 21.5523 19 21V19.874ZM18 4H6C4.89543 4 4 4.89543 4 6V16C4 17.1046 4.89543 18 6 18H18C19.1046 18 20 17.1046 20 16V6C20 4.89543 19.1046 4 18 4Z" fill="white" />
<path fill-rule="evenodd" clip-rule="evenodd" d="M11 7C11 6.44772 11.4477 6 12 6C12.5523 6 13 6.44772 13 7V8.17071C13.8524 8.47199 14.528 9.14759 14.8293 10H16C16.5523 10 17 10.4477 17 11C17 11.5523 16.5523 12 16 12H14.8293C14.528 12.8524 13.8524 13.528 13 13.8293V15C13 15.5523 12.5523 16 12 16C11.4477 16 11 15.5523 11 15V13.8293C10.1476 13.528 9.47199 12.8524 9.17071 12H8C7.44772 12 7 11.5523 7 11C7 10.4477 7.44772 10 8 10H9.17071C9.47199 9.14759 10.1476 8.47199 11 8.17071V7ZM11 11C11 11.5523 11.4477 12 12 12C12.5523 12 13 11.5523 13 11C13 10.4477 12.5523 10 12 10C11.4477 10 11 10.4477 11 11Z" fill="white" />
</svg>
