<svg width="224" height="42" viewBox="0 0 224 42" fill="none" xmlns="http://www.w3.org/2000/svg">
<g opacity="0.6">
<mask id="mask0_505_2035" style="mask-type:luminance" maskUnits="userSpaceOnUse" x="1" y="5" width="222" height="31">
<path d="M222.825 5.96069H1.17578V35.0396H222.825V5.96069Z" fill="white"/>
</mask>
<g mask="url(#mask0_505_2035)">
<path fill-rule="evenodd" clip-rule="evenodd" d="M218.626 26.2021C219.629 26.1496 220.614 26.474 221.387 27.1108L221.398 27.1411L222.342 26.0607C221.3 25.1645 219.953 24.6953 218.575 24.7481C217.935 24.7288 217.297 24.8175 216.687 25.0106C216.116 25.1893 215.603 25.5171 215.204 25.9598C214.787 26.4174 214.565 27.0184 214.585 27.6359C214.568 28.0854 214.68 28.5306 214.91 28.9182C215.14 29.2786 215.471 29.5632 215.864 29.7361C216.254 29.9302 216.662 30.0858 217.082 30.2007C217.553 30.3183 218.032 30.4026 218.514 30.453C219.215 30.5072 219.901 30.678 220.545 30.9579C220.763 31.0343 220.947 31.1817 221.068 31.3763C221.191 31.5708 221.243 31.8007 221.216 32.0282C221.222 32.2771 221.153 32.5224 221.018 32.7314C220.881 32.9405 220.685 33.1036 220.455 33.1995C219.91 33.4507 219.316 33.5751 218.718 33.563C218.054 33.5995 217.391 33.4817 216.78 33.2188C216.171 32.9559 215.631 32.5551 215.204 32.0484L214.259 33.1792C214.799 33.8105 215.479 34.3069 216.246 34.628C217.015 34.9489 217.846 35.0856 218.676 35.0271C219.712 35.0661 220.739 34.7991 221.622 34.2597C221.995 34.0337 222.302 33.7142 222.512 33.3334C222.722 32.9525 222.828 32.5233 222.82 32.0888C222.843 31.6654 222.753 31.2434 222.555 30.867C222.4 30.5482 222.179 30.2659 221.906 30.0391C221.602 29.8089 221.257 29.6377 220.89 29.5342C220.531 29.4141 220.165 29.3163 219.793 29.2413C219.5 29.1908 219.114 29.1403 218.646 29.0899C217.021 28.8979 216.189 28.4134 216.189 27.6359C216.182 27.4114 216.24 27.1899 216.36 26.9993C216.479 26.8086 216.654 26.6576 216.86 26.5655C217.406 26.2935 218.015 26.1682 218.626 26.2021ZM211.935 33.1692L211.933 33.1703L210.847 32.1797C210.485 32.5968 210.016 32.9075 209.486 33.0783C208.92 33.2942 208.319 33.4071 207.71 33.4115C206.827 33.4338 205.967 33.1479 205.273 32.6038C204.947 32.3439 204.676 32.0197 204.48 31.6513C204.285 31.283 204.167 30.8785 204.136 30.4631H212.533C212.673 29.7103 212.642 28.9362 212.446 28.1963C212.25 27.456 211.892 26.7684 211.396 26.1819C210.904 25.6803 210.309 25.2887 209.652 25.0328C208.997 24.7768 208.293 24.6626 207.588 24.6976C206.91 24.6764 206.234 24.7925 205.603 25.0388C204.971 25.2855 204.396 25.6571 203.912 26.1313C203.435 26.6117 203.062 27.1833 202.814 27.8117C202.567 28.44 202.449 29.112 202.47 29.7866C202.44 30.473 202.552 31.1583 202.8 31.7997C203.049 32.4408 203.428 33.0241 203.912 33.5126C204.413 33.9851 205.002 34.3531 205.648 34.5942C206.294 34.8353 206.981 34.9448 207.67 34.9161C208.486 34.9193 209.296 34.7687 210.056 34.4718C210.783 34.2029 211.429 33.7551 211.933 33.1703L211.955 33.1893L211.935 33.1692ZM210.919 29.1304C210.925 28.7216 210.844 28.3164 210.678 27.9418C210.514 27.5674 210.27 27.2323 209.965 26.9594C209.29 26.422 208.442 26.149 207.578 26.192C206.739 26.1753 205.919 26.4502 205.264 26.9695C204.603 27.5012 204.179 28.2703 204.086 29.1102H210.919V29.1304ZM196.155 24.8995L196.157 24.9198H194.652V34.7444H196.287V29.2717C196.273 28.8797 196.341 28.4888 196.487 28.1239C196.629 27.759 196.85 27.4279 197.13 27.1512C197.673 26.6245 198.403 26.3308 199.161 26.3333C199.778 26.3339 200.379 26.5205 200.887 26.8685L201.628 25.4751C200.971 24.9656 200.155 24.7044 199.323 24.738C198.71 24.6848 198.095 24.8114 197.553 25.1019C197.011 25.3928 196.568 25.8349 196.276 26.3737L196.157 24.9198H196.166L196.155 24.8995ZM158.715 33.1698L158.717 33.1691L158.737 33.1892L158.715 33.1698ZM158.715 33.1698C158.213 33.7569 157.566 34.205 156.837 34.4715C156.081 34.7682 155.274 34.919 154.462 34.9158C153.772 34.9482 153.084 34.8402 152.438 34.5988C151.791 34.3575 151.202 33.9879 150.705 33.5124C150.217 33.0249 149.837 32.4419 149.589 31.8004C149.34 31.159 149.23 30.473 149.263 29.7863C149.239 29.1114 149.354 28.4389 149.603 27.8102C149.85 27.1815 150.226 26.61 150.705 26.1312C151.187 25.6559 151.761 25.2836 152.394 25.0371C153.025 24.7905 153.701 24.675 154.381 24.6974C155.085 24.6624 155.789 24.7767 156.444 25.0325C157.101 25.2884 157.695 25.6801 158.187 26.1817C158.683 26.7677 159.042 27.456 159.237 28.1963C159.43 28.9366 159.458 29.7108 159.315 30.463H150.918C150.95 30.8792 151.069 31.2841 151.266 31.6525C151.464 32.0208 151.735 32.3447 152.065 32.6036C152.755 33.1508 153.62 33.437 154.502 33.4114C155.107 33.4085 155.706 33.2954 156.268 33.0781C156.8 32.9091 157.274 32.5981 157.641 32.1794L158.715 33.1698ZM157.515 27.9407C157.683 28.3153 157.767 28.7209 157.762 29.1301V29.11H150.918C151.016 28.2687 151.442 27.4998 152.106 26.9694C152.763 26.45 153.581 26.175 154.421 26.1918C155.281 26.1485 156.127 26.4217 156.797 26.9592C157.104 27.2317 157.35 27.5663 157.515 27.9407ZM142.378 32.7145L137.595 20.8201H135.656L141.454 34.7845H143.332L149.11 20.8201H147.191L142.378 32.7145ZM163.387 24.8994H161.883V34.7442H163.508V29.4734C163.487 28.6347 163.792 27.82 164.363 27.2016C164.639 26.9015 164.976 26.6636 165.352 26.5033C165.73 26.3431 166.136 26.2645 166.544 26.2728C166.949 26.2511 167.353 26.3127 167.733 26.4534C168.112 26.594 168.458 26.811 168.749 27.0905C169.025 27.3929 169.237 27.7468 169.375 28.1315C169.513 28.5161 169.573 28.9243 169.551 29.3321V34.7442H171.185V29.312C171.216 28.7046 171.127 28.0969 170.918 27.5248C170.711 26.9528 170.392 26.4274 169.978 25.9799C169.568 25.5737 169.079 25.2557 168.54 25.0456C168.003 24.8353 167.428 24.7375 166.85 24.7581C166.187 24.7424 165.532 24.8912 164.941 25.1909C164.35 25.4906 163.844 25.9317 163.468 26.4747L163.387 24.8994ZM176.801 24.9399H179.848V26.3333H176.801V31.5234C176.801 32.7755 177.33 33.4115 178.364 33.4115C178.847 33.4009 179.322 33.2764 179.747 33.048L180.222 34.4012C179.622 34.6888 178.969 34.8504 178.304 34.8757C176.225 34.9161 175.187 33.7987 175.187 31.5234V26.3333H173.206V24.9399H175.187V22.2338L176.822 22.052L176.801 24.9399ZM189.799 33.1691L189.88 34.7441H191.382V24.9195H189.738V30.1902C189.761 31.0241 189.458 31.8347 188.895 32.452C188.616 32.7532 188.277 32.9924 187.898 33.1543C187.521 33.3162 187.112 33.3968 186.701 33.3911C186.298 33.4126 185.893 33.3512 185.514 33.2104C185.135 33.0697 184.79 32.8529 184.498 32.5732C184.225 32.2697 184.013 31.9155 183.878 31.5309C183.742 31.1462 183.683 30.7388 183.705 30.3317V24.9195H182.06V30.3417C182.026 30.9478 182.114 31.5546 182.318 32.1266C182.522 32.6987 182.838 33.2246 183.249 33.674C183.651 34.0825 184.138 34.4022 184.671 34.6126C185.207 34.823 185.781 34.9195 186.356 34.8955C187.028 34.9078 187.692 34.7568 188.292 34.456C188.892 34.1551 189.409 33.7133 189.799 33.1691Z" fill="#ffffff"/>
<path fill-rule="evenodd" clip-rule="evenodd" d="M119.817 20.8992L107.927 5.98582H101.409V34.4309L109.586 34.4059L109.594 19.5176L121.518 34.4309H128.002V5.9607H119.817V20.8992ZM93.2325 5.96069V34.4309H85.0475V5.96069H93.2325ZM78.7066 5.96069L69.1826 5.96069L63.549 13.5807L57.966 5.96069H48.442L58.7913 20.0535L48.2315 34.4393H57.7555L63.549 26.5347L69.3931 34.4393H78.9171L68.3151 20.0535L78.7066 5.96069ZM42.1011 34.4309V5.9607H33.9161V34.4309H42.1011ZM23.3984 19.3251L23.1543 19.4842L23.4152 19.6099C23.8616 19.8275 27.7604 21.879 27.7604 26.3758C27.7604 31.0901 24.173 34.4395 19.0532 34.4395H1.17578L1.17578 5.96928L18.3206 5.96928C23.129 5.96928 26.6152 9.20149 26.6152 13.6646C26.5643 14.7932 26.2464 15.8939 25.6876 16.8774C25.1287 17.8609 24.3444 18.6995 23.3984 19.3251ZM16.1902 11.948H9.45348V16.9219H16.1902C18.2701 16.9219 19.0028 15.6491 19.0028 14.4601C19.0028 12.9528 17.8743 11.948 16.1902 11.948ZM9.45348 28.5529H16.2322V28.5612C18.0933 28.5612 19.3984 27.4308 19.3984 25.7059C19.3984 23.981 18.1522 22.8673 16.2322 22.8673H9.45348V28.5529Z" fill="#ffffff"/>
</g>
</g>
</svg>
