<svg width="107" height="42" viewBox="0 0 107 42" fill="none" xmlns="http://www.w3.org/2000/svg">
<g opacity="0.6" clip-path="url(#clip0_505_1955)">
<path d="M0.509766 4.33105H19.6873C22.4565 4.33105 25.0152 5.00217 27.1121 6.86132C29.4968 8.97572 31.0387 11.5592 31.2201 14.8106C31.2556 15.4636 31.2845 16.1176 31.3124 16.7718C31.3059 16.8327 31.2922 16.8927 31.2716 16.9505H26.469C26.383 16.3262 26.3615 15.6997 26.2048 15.1116C25.3458 11.9516 22.843 9.04911 18.5406 9.04911C14.2382 9.04911 9.96599 9.04911 5.67755 9.04911C5.58083 9.05422 5.48443 9.06416 5.38872 9.0789V16.3027H13.4749V20.9826H0.509766V4.33105Z" fill="#ffffff"/>
<path d="M0.5 37.6463V25.0557H5.33708V32.9773H5.96091C9.96156 32.9773 13.9622 32.9773 17.9629 32.9773C21.5706 32.9773 24.1829 31.3734 25.7397 28.1613C26.0909 27.4349 26.2036 26.5936 26.4538 25.7066H18.387V21.0269H31.3403C31.3403 21.7171 31.3692 22.385 31.3403 23.0477C31.248 24.8643 31.2329 26.6936 30.9935 28.4921C30.6359 31.133 29.1885 33.2261 27.1818 34.9353C25.058 36.7434 22.5787 37.6645 19.7678 37.6655C13.4816 37.6698 7.19496 37.6698 0.908013 37.6655C0.781315 37.6751 0.659983 37.6581 0.6 37.6463Z" fill="#ffffff"/>
<path d="M56.8043 12.8134C58.0866 13.6485 59.1446 14.7802 59.8869 16.1106C60.6694 17.4812 61.0609 19.1606 61.0616 21.1488C61.0616 22.8938 60.7116 24.4133 60.0115 25.7072C59.3433 26.9609 58.3915 28.0445 57.2306 28.8736C56.0171 29.716 54.6627 30.3389 53.2299 30.7136C51.7008 31.1215 50.1235 31.3254 48.54 31.3198H38.0433V30.186C38.3569 30.1765 38.7487 30.1466 39.218 30.0988C39.6872 30.0509 40.0007 29.9925 40.1575 29.9244C40.5097 29.7784 40.7544 29.5819 40.8919 29.3352C41.0353 29.0589 41.1059 28.7512 41.097 28.4407V13.8121C41.1017 13.5036 41.0364 13.1979 40.9058 12.9177C40.7792 12.6518 40.5287 12.4362 40.1542 12.271C39.7785 12.1048 39.3809 11.9924 38.9732 11.9371C38.5565 11.8786 38.2366 11.8403 38.0068 11.8201V10.6863H49.0972C50.3775 10.6973 51.6526 10.8485 52.8992 11.1372C54.2929 11.4567 55.6161 12.0247 56.8043 12.8134ZM53.8098 27.5972C54.3177 26.7427 54.6712 25.8069 54.8545 24.832C55.0891 23.6122 55.1999 22.3723 55.1852 21.1306C55.1993 19.8694 55.0521 18.6114 54.7471 17.3869C54.4965 16.3603 54.06 15.3873 53.4586 14.5152C52.9123 13.739 52.1843 13.1055 51.337 12.6688C50.4436 12.2218 49.4537 11.9973 48.453 12.0147C48.1105 12.0147 47.7207 12.0221 47.2859 12.036C46.851 12.0498 46.5246 12.0636 46.3098 12.0732V27.7281C46.3041 28.0414 46.3512 28.3534 46.4495 28.6513C46.545 28.923 46.7092 29.1661 46.9261 29.3575C47.1667 29.5697 47.4489 29.7305 47.755 29.8297C48.1727 29.9539 48.6077 30.0102 49.0436 29.9967C50.148 29.9967 51.0972 29.7932 51.891 29.3862C52.6846 28.9761 53.3485 28.3571 53.8098 27.5972Z" fill="#ffffff"/>
<path d="M81.8337 16.1967H80.688C80.4018 15.3955 79.9006 14.5446 79.1849 13.6441C78.469 12.7436 77.789 12.2473 77.1448 12.1551C76.8513 12.1168 76.4605 12.0813 75.9723 12.0487C75.4841 12.0161 75.0346 12.0016 74.6237 12.0051H71.3811V20.0883H73.4512C73.9671 20.0981 74.4816 20.0321 74.978 19.8927C75.4133 19.7605 75.8074 19.5203 76.1226 19.195C76.3674 18.9524 76.6047 18.5476 76.8345 17.9804C77.0364 17.513 77.1772 17.0218 77.2532 16.519H78.3688V25.1999H77.2532C77.2139 24.7639 77.0621 24.2321 76.798 23.6045C76.5338 22.9771 76.3087 22.5626 76.1226 22.3612C75.8271 22.0438 75.4546 21.8066 75.0403 21.672C74.5281 21.5112 73.9927 21.4351 73.4555 21.4466H71.3811V28.2811C71.3723 28.5909 71.4406 28.8981 71.5797 29.1757C71.7121 29.4224 71.9626 29.6234 72.3313 29.7787C72.6191 29.8859 72.9164 29.9664 73.2193 30.0191C73.5958 30.0899 73.9702 30.1456 74.3424 30.186V31.3198H63.1221V30.186C63.4055 30.1563 63.7824 30.1158 64.2527 30.0626C64.5875 30.0379 64.918 29.9718 65.2362 29.8659C65.5884 29.7298 65.8328 29.5408 65.9696 29.299C66.1175 29.0113 66.1885 28.6909 66.1758 28.3684V13.8121C66.1826 13.5138 66.1197 13.2178 65.9921 12.9475C65.8697 12.7 65.6192 12.494 65.2405 12.3295C64.8891 12.19 64.5253 12.0832 64.1539 12.0104C63.7044 11.9133 63.3619 11.8502 63.1264 11.8211V10.6863H81.8433L81.8337 16.1967Z" fill="#ffffff"/>
<path d="M106.5 22.9305C106.197 22.959 105.928 22.9927 105.692 23.0316C105.394 23.0878 105.099 23.1656 104.812 23.2645C104.41 23.3911 104.146 23.5985 104.019 23.8899C103.892 24.1787 103.827 24.4906 103.828 24.8057V27.2051C103.828 27.6901 103.834 28.0801 103.843 28.3751C103.853 28.6707 103.867 29.0366 103.888 29.4727C102.908 30.0548 101.462 30.6025 99.5495 31.1159C97.6371 31.6293 95.8784 31.886 94.2725 31.886C92.8291 31.8966 91.3946 31.6653 90.0289 31.2021C88.7384 30.7645 87.5537 30.0659 86.5502 29.1504C85.5274 28.2133 84.7235 27.0663 84.1945 25.7895C83.6219 24.4508 83.3356 22.9182 83.3356 21.1917C83.3203 19.6657 83.5942 18.1505 84.1429 16.7246C84.6567 15.3939 85.4526 14.188 86.4772 13.1881C87.5172 12.1829 88.7618 11.4091 90.1279 10.9185C91.5598 10.386 93.1471 10.1194 94.8917 10.1187C96.0029 10.1085 97.1106 10.2553 98.1795 10.5547C99.0389 10.789 99.8746 11.1005 100.676 11.4854L101.586 10.6855H102.863L102.995 18.2179H101.707C100.963 15.9545 100.072 14.2737 99.0345 13.1754C97.9966 12.0771 96.6849 11.5283 95.1002 11.529C93.2213 11.529 91.7709 12.3444 90.7488 13.9752C89.7259 15.606 89.2145 17.8516 89.2145 20.712C89.2145 23.7495 89.7154 26.1267 90.7171 27.8433C91.7196 29.5599 93.1409 30.4185 94.9818 30.4192C95.7653 30.4326 96.5444 30.3017 97.2802 30.0332C97.9498 29.7772 98.471 29.479 98.8428 29.1388V24.9514C98.8526 24.6471 98.7872 24.3452 98.652 24.0718C98.5239 23.8342 98.2695 23.6283 97.8888 23.4539C97.5364 23.2996 97.1671 23.1872 96.7882 23.1188C96.3465 23.0316 95.9808 22.9689 95.6867 22.9305V21.7958H106.5V22.9305Z" fill="#ffffff"/>
</g>
<defs>
<clipPath id="clip0_505_1955">
<rect width="106" height="42" fill="white" transform="translate(0.6)"/>
</clipPath>
</defs>
</svg>
