<svg width="156" height="42" viewBox="0 0 156 42" fill="none" xmlns="http://www.w3.org/2000/svg">
<g opacity="0.6">
<path d="M13.4263 23.2311V15.4749L1.65039 9.53857V17.0541L13.4263 23.2311Z" fill="#ffffff"/>
<path d="M1.92383 24.1113L2.01577 31.4496L19.3609 40.9248V33.4941L1.92383 24.1113Z" fill="#ffffff"/>
<path d="M19.3438 1.07495V8.46073L37.1866 17.2311V9.53723L19.3438 1.07495Z" fill="#ffffff"/>
<path d="M1.65039 9.53723L19.3425 1.07495V8.46073L9.17858 13.3455L1.65039 9.53723Z" fill="#ffffff"/>
<path d="M19.3621 33.495L19.3438 40.9256L36.733 31.5404V24.1545L19.3621 33.495Z" fill="#ffffff"/>
<path d="M29.8205 27.8841L25.1143 25.4891V18.2581L36.7332 24.1557L29.8205 27.8841Z" fill="#ffffff"/>
<path d="M57.6374 12.2793H61.4033V27.2717C61.3975 28.6463 61.1115 29.8283 60.5452 30.8179C59.9901 31.7967 59.1667 32.5896 58.1755 33.0994C57.1621 33.6308 55.9832 33.8965 54.6388 33.8965C53.5012 33.9147 52.3726 33.6854 51.3289 33.2242C50.3791 32.8022 49.5701 32.1089 48.9998 31.2283C48.4277 30.3461 48.1416 29.2491 48.1416 27.9377H51.9113C51.9042 28.4591 52.0331 28.9731 52.2851 29.4271C52.5231 29.8413 52.8745 30.176 53.2965 30.3902C53.7584 30.6193 54.2673 30.7336 54.781 30.7232C55.3209 30.7407 55.8551 30.606 56.3245 30.334C56.7589 30.06 57.0973 29.6535 57.2916 29.1726C57.53 28.5706 57.6468 27.9257 57.635 27.2766L57.6374 12.2793Z" fill="#ffffff"/>
<path d="M77.0731 21.8395L73.6958 22.2136C73.5971 21.8576 73.4306 21.525 73.2053 21.2345C72.9519 20.915 72.627 20.6617 72.2577 20.4961C71.7996 20.2952 71.3038 20.199 70.8051 20.2142C70.0344 20.2142 69.3879 20.3842 68.8657 20.7244C68.3435 21.0644 68.0857 21.5056 68.0922 22.0477C68.0832 22.2642 68.1243 22.4796 68.2122 22.6768C68.3002 22.874 68.4326 23.0473 68.5985 23.183C68.9433 23.4748 69.5155 23.7143 70.3147 23.9014L72.9969 24.484C74.4845 24.8107 75.5914 25.3284 76.3179 26.0369C77.0444 26.7454 77.4122 27.6723 77.4212 28.8174C77.4295 29.7772 77.1251 30.7127 76.5558 31.478C75.9837 32.2447 75.1938 32.844 74.1861 33.2756C73.1784 33.7071 72.0184 33.9221 70.7058 33.9204C68.7819 33.9204 67.2333 33.5092 66.0597 32.6867C64.8861 31.8643 64.1865 30.7167 63.9609 29.2439L67.5638 28.8923C67.7273 29.6149 68.0754 30.1599 68.6084 30.5275C69.1411 30.895 69.8358 31.0794 70.6924 31.0801C71.5725 31.0801 72.2803 30.8959 72.8155 30.5275C73.3509 30.1592 73.6165 29.7035 73.6124 29.1604C73.6163 28.9436 73.5719 28.7288 73.4822 28.5322C73.3927 28.3355 73.2602 28.1622 73.0951 28.0253C72.751 27.7268 72.2173 27.4976 71.4941 27.338L68.8131 26.7716C67.3051 26.4523 66.1896 25.9117 65.4663 25.1501C64.7431 24.3883 64.3847 23.425 64.3912 22.2598C64.3642 21.3373 64.6436 20.4325 65.1843 19.6915C65.7206 18.9663 66.4679 18.4042 67.4265 18.005C68.3852 17.6059 69.4922 17.4062 70.7475 17.4062C72.5896 17.4062 74.0415 17.8055 75.1031 18.6037C76.1495 19.3795 76.8564 20.5407 77.0731 21.8395Z" fill="#ffffff"/>
<path d="M93.9618 39.6065H90.2424V31.0868H90.0879C89.8612 31.5307 89.5829 31.9452 89.2593 32.3218C88.8612 32.7847 88.376 33.1618 87.8323 33.4307C87.239 33.7359 86.492 33.8885 85.5914 33.8885C84.416 33.906 83.2618 33.5692 82.2742 32.9205C81.2983 32.2743 80.5272 31.3367 79.9609 30.1076C79.3945 28.8786 79.1113 27.3859 79.1113 25.6296C79.1113 23.8525 79.3998 22.351 79.9769 21.1252C80.5538 19.8995 81.3335 18.9723 82.3158 18.3435C83.2995 17.7155 84.44 17.3885 85.6011 17.4018C86.5214 17.4018 87.2786 17.5597 87.8728 17.8757C88.4164 18.1501 88.8977 18.5366 89.2862 19.011C89.5986 19.3961 89.8694 19.8143 90.0941 20.2582H90.3197V17.6101H93.9618V39.6065ZM90.3135 25.6083C90.3321 24.6909 90.1884 23.7774 89.8894 22.9115C89.6494 22.2082 89.2159 21.5899 88.6401 21.1302C88.091 20.7062 87.4171 20.4944 86.6187 20.4953C85.7924 20.4953 85.1031 20.7141 84.5506 21.1515C83.974 21.6223 83.5411 22.2505 83.3026 22.9627C83.0092 23.8122 82.8669 24.708 82.8821 25.6083C82.8675 26.5176 83.0115 27.4222 83.3075 28.2802C83.5499 29.0023 83.986 29.6409 84.5666 30.1239C85.1215 30.5712 85.8055 30.7949 86.6187 30.7949C87.341 30.8138 88.0482 30.5826 88.6243 30.1389C89.2049 29.6669 89.6416 29.0365 89.8832 28.3214C90.1852 27.4506 90.3309 26.5316 90.3135 25.6083Z" fill="#ffffff"/>
<path d="M107.053 26.8782V17.6089H110.754V33.6066H107.164V30.7613H107.001C106.648 31.6549 106.04 32.4204 105.256 32.9591C104.448 33.5297 103.453 33.8145 102.272 33.8137C101.317 33.8332 100.375 33.5903 99.5443 33.1101C98.743 32.6267 98.1001 31.9127 97.6969 31.0582C97.2532 30.1592 97.0312 29.0711 97.0312 27.7938V17.6089H100.737V27.2138C100.737 28.2275 101.01 29.0329 101.556 29.6299C102.102 30.227 102.818 30.5256 103.705 30.5256C104.258 30.5239 104.803 30.3848 105.291 30.1202C105.813 29.8395 106.25 29.42 106.556 28.9064C106.887 28.3676 107.053 27.6915 107.053 26.8782Z" fill="#ffffff"/>
<path d="M118.371 33.9326C117.447 33.9468 116.531 33.7597 115.684 33.3838C114.915 33.0407 114.26 32.4772 113.801 31.7622C113.34 31.0478 113.109 30.166 113.109 29.1165C113.109 28.2133 113.273 27.467 113.6 26.8774C113.919 26.2953 114.381 25.8071 114.941 25.4604C115.537 25.0936 116.184 24.8211 116.861 24.6521C117.589 24.4659 118.33 24.3322 119.077 24.2516C119.999 24.1543 120.746 24.0658 121.319 23.9859C121.892 23.9061 122.31 23.7813 122.573 23.6117C122.703 23.5271 122.808 23.4084 122.878 23.2682C122.947 23.1279 122.978 22.9712 122.967 22.8146V22.7522C122.967 21.9672 122.738 21.3598 122.282 20.9298C121.825 20.4999 121.166 20.2853 120.305 20.2862C119.398 20.2862 118.68 20.4874 118.15 20.8899C117.659 21.2428 117.285 21.741 117.081 22.3169L113.622 21.818C113.863 20.9016 114.327 20.0618 114.97 19.3755C115.616 18.7081 116.404 18.2018 117.274 17.8962C118.241 17.5551 119.259 17.3864 120.282 17.3972C121.044 17.3976 121.804 17.4884 122.545 17.6679C123.279 17.8419 123.977 18.1456 124.608 18.5648C125.238 18.9885 125.755 19.5668 126.108 20.2463C126.486 20.9547 126.675 21.84 126.676 22.9019V33.6096H123.11V31.4116H122.988C122.462 32.4266 121.579 33.2021 120.515 33.5833C119.827 33.829 119.1 33.9472 118.371 33.9326ZM119.337 31.1621C120.009 31.1794 120.675 31.0231 121.271 30.7081C121.792 30.4308 122.228 30.0153 122.535 29.5056C122.83 29.0131 122.984 28.4468 122.98 27.8703V25.9855C122.803 26.1126 122.603 26.2044 122.392 26.2561C122.088 26.3463 121.779 26.4192 121.466 26.4745C121.124 26.5368 120.787 26.593 120.453 26.6417L119.582 26.7663C119.075 26.8309 118.577 26.9565 118.099 27.1406C117.699 27.2874 117.342 27.5365 117.064 27.8641C116.802 28.2027 116.667 28.6258 116.685 29.0565C116.685 29.7509 116.935 30.2753 117.433 30.6296C117.932 30.9837 118.566 31.1614 119.337 31.1621Z" fill="#ffffff"/>
<path d="M129.688 33.6074V17.6096H133.281V20.2753H133.444C133.688 19.4134 134.208 18.6595 134.923 18.1347C135.625 17.6312 136.466 17.367 137.323 17.3801C137.529 17.3801 137.76 17.3889 138.016 17.4063C138.23 17.4189 138.444 17.4447 138.655 17.4836V20.9527C138.413 20.8787 138.163 20.8282 137.912 20.8017C137.588 20.7575 137.259 20.735 136.932 20.7343C136.298 20.7238 135.675 20.8756 135.115 21.1759C134.592 21.459 134.154 21.8821 133.85 22.3996C133.537 22.9457 133.377 23.5695 133.39 24.2021V33.6074H129.688Z" fill="#ffffff"/>
<path d="M147.362 33.9195C145.785 33.9195 144.426 33.5844 143.282 32.9141C142.145 32.2504 141.228 31.2573 140.647 30.0613C140.032 28.8289 139.726 27.3757 139.726 25.7017C139.726 24.0568 140.034 22.6111 140.652 21.3645C141.229 20.1635 142.127 19.1527 143.243 18.4482C144.355 17.7496 145.662 17.4008 147.166 17.4015C148.102 17.3955 149.032 17.5559 149.914 17.8756C150.774 18.1889 151.556 18.6881 152.207 19.3387C152.908 20.0495 153.447 20.9079 153.785 21.8535C154.168 22.8714 154.36 24.0814 154.358 25.4834V26.646H141.465V24.0988H150.801C150.806 23.4259 150.648 22.7621 150.339 22.1666C150.05 21.6122 149.617 21.1492 149.087 20.8281C148.52 20.4932 147.874 20.3236 147.218 20.3379C146.514 20.3228 145.821 20.5166 145.223 20.8956C144.661 21.2553 144.2 21.7578 143.886 22.3537C143.566 22.9606 143.398 23.6383 143.396 24.3271V26.5462C143.396 27.4767 143.564 28.2734 143.897 28.9362C144.207 29.5728 144.695 30.1018 145.299 30.4567C145.945 30.8187 146.672 31.0003 147.408 30.9831C147.906 30.9898 148.401 30.9105 148.872 30.7486C149.295 30.6016 149.682 30.3653 150.008 30.055C150.336 29.7405 150.585 29.3515 150.736 28.9199L154.195 29.3167C153.991 30.2213 153.562 31.0578 152.952 31.7477C152.308 32.462 151.506 33.0116 150.612 33.3519C149.574 33.7461 148.471 33.9385 147.362 33.9195Z" fill="#ffffff"/>
</g>
</svg>
