<svg width="205" height="42" viewBox="0 0 205 42" fill="none" xmlns="http://www.w3.org/2000/svg">
<g opacity="0.6">
<mask id="mask0_505_1926" style="mask-type:luminance" maskUnits="userSpaceOnUse" x="1" y="0" width="53" height="42">
<path d="M53.5727 0.525879H1.3623V41.4742H53.5727V0.525879Z" fill="white"/>
</mask>
<g mask="url(#mask0_505_1926)">
<path d="M25.3881 25.5563C25.3282 25.5563 25.2083 25.617 25.2083 25.6779C25.1284 25.7846 25.0769 25.9105 25.0586 26.0432C24.8403 26.9983 24.4979 27.9197 24.0402 28.7829C23.6527 29.5787 23.1588 30.3163 22.5724 30.9745C21.8567 31.7767 20.9326 32.3571 19.9064 32.6487C19.3359 32.8409 18.74 32.9435 18.1391 32.9531C15.8326 32.9836 13.4961 32.9531 11.1896 32.9531C11.0997 32.9531 11.0099 32.9227 10.8901 32.9227V8.35758C10.8866 8.33278 10.8888 8.30749 10.8966 8.2837C10.9044 8.25993 10.9176 8.23833 10.935 8.22061C10.9524 8.20289 10.9737 8.18953 10.9971 8.1816C11.0205 8.17369 11.0454 8.17141 11.0698 8.17495H14.9339V7.65747H3.22168V8.17495H7.23559V32.9836H3.25163V33.4706H25.5678V25.7693C25.5702 25.7433 25.5673 25.7169 25.5594 25.6921C25.5516 25.6672 25.5389 25.6441 25.5222 25.6242C25.5054 25.6043 25.4849 25.5881 25.4619 25.5765C25.4389 25.5648 25.4138 25.5578 25.3881 25.5563Z" fill="#ffffff"/>
<path d="M30.9294 0.958984H30.0908V40.1353H30.9294V0.958984Z" fill="#ffffff"/>
<path d="M51.0889 17.6104C50.9989 17.306 50.9391 17.0016 50.8792 16.6971C50.4882 15.289 49.8598 13.9603 49.022 12.7704C48.5146 12.077 47.9318 11.4439 47.2846 10.8831C46.6843 10.382 46.0429 9.93387 45.3675 9.54378C44.6158 9.10901 43.823 8.75209 43.0011 8.47838C42.3024 8.2149 41.58 8.02119 40.8443 7.90002C40.2752 7.80871 39.6762 7.71738 39.137 7.68695C38.7476 7.6565 38.3581 7.62606 37.9687 7.62606C37.3397 7.59562 36.6806 7.56519 36.0516 7.56519C35.6622 7.56519 35.2428 7.59562 34.8835 7.62606C34.524 7.6565 34.1944 7.6565 33.835 7.68695C33.8949 8.14354 33.8949 8.17398 34.3142 8.17398C34.7935 8.17398 35.2728 8.1131 35.752 8.1131C36.8634 8.08282 37.9754 8.14391 39.0771 8.29574C39.5863 8.4175 40.0955 8.47838 40.6048 8.63058C41.2357 8.82624 41.8475 9.08099 42.432 9.39158C43.1105 9.77067 43.7354 10.2417 44.2892 10.7918C45.0869 11.6242 45.7177 12.6064 46.1464 13.6836C46.6068 14.865 46.909 16.1038 47.045 17.3669C47.045 17.4886 47.075 17.8235 47.075 17.8235C47.2204 19.5039 47.2404 21.193 47.1348 22.8765C47.1348 22.8765 47.1049 23.0591 47.1049 23.12C47.0151 23.7898 46.9252 24.4594 46.8053 25.129C46.6366 25.968 46.3753 26.7849 46.0266 27.5642C45.7869 28.0818 45.5174 28.5993 45.2477 29.1167C44.7717 30.0123 44.1146 30.7952 43.3195 31.4143C42.5244 32.0334 41.6095 32.4746 40.6347 32.7086C39.7878 32.9048 38.9259 33.027 38.0585 33.0739C37.2199 33.1348 36.3812 33.1043 35.5424 33.1043H34.1046C33.9549 33.4393 33.9848 33.5 34.3442 33.5305C34.5824 33.5659 34.8225 33.5863 35.0631 33.5914C36.6207 33.6218 38.1785 33.6523 39.7361 33.5305C40.4712 33.4659 41.2016 33.3541 41.9228 33.1957C42.8626 32.9738 43.7692 32.6258 44.6187 32.1608C45.3111 31.7851 45.9813 31.3683 46.6256 30.9127C47.5649 30.2368 48.3939 29.415 49.0819 28.4775C49.6565 27.6788 50.1483 26.8219 50.5496 25.9205C50.8955 25.0454 51.1564 24.138 51.3285 23.2113C51.3451 23.1209 51.355 23.0293 51.3584 22.9374C51.5453 21.2452 51.505 19.535 51.2386 17.8538C51.1989 17.8256 51.1651 17.7894 51.1394 17.7477C51.1136 17.7058 51.0965 17.6591 51.0889 17.6104Z" fill="#ffffff"/>
</g>
<path d="M91.1262 11.2073L91.6041 17.9228H91.1262C90.4888 15.9089 89.5859 14.46 88.4175 13.5762C87.2641 12.6924 85.8682 12.2505 84.2293 12.2505C83.167 12.2505 82.1883 12.4461 81.293 12.8372C80.3977 13.2139 79.6238 13.8007 78.9713 14.5976C78.3339 15.3945 77.8332 16.3942 77.469 17.5968C77.1048 18.7993 76.9227 20.2191 76.9227 21.8563C76.9227 23.1749 77.0896 24.3702 77.4235 25.4424C77.7725 26.5145 78.2732 27.4345 78.9258 28.2024C79.5935 28.9558 80.4053 29.5426 81.3612 29.9627C82.3173 30.3684 83.4174 30.5714 84.6617 30.5714C85.9668 30.5714 87.1504 30.296 88.2126 29.7455C89.2293 29.2384 90.3598 28.1518 91.6041 26.4855L92.0821 26.7681C91.0351 28.5212 89.8211 29.8106 88.4403 30.6366C87.0745 31.4478 85.4356 31.8535 83.5236 31.8535C82.0517 31.8535 80.7012 31.6073 79.472 31.1146C78.2429 30.622 77.1807 29.9339 76.2854 29.05C75.4052 28.1518 74.7147 27.094 74.214 25.8771C73.7133 24.6454 73.4629 23.298 73.4629 21.8347C73.4629 19.8498 73.9257 18.0387 74.8514 16.4015C75.7618 14.7497 77.029 13.4747 78.6526 12.5764C80.2915 11.6637 82.0669 11.2073 83.9788 11.2073C85.4812 11.2073 86.9532 11.555 88.3946 12.2505C88.8196 12.4678 89.123 12.5764 89.3052 12.5764C89.639 12.5764 89.9122 12.4461 90.1246 12.1853C90.3523 11.9245 90.5115 11.5985 90.6026 11.2073H91.1262Z" fill="#ffffff"/>
<path d="M107.469 24.7903H99.4567L98.0455 27.8982C97.7117 28.6661 97.5447 29.2384 97.5447 29.6151C97.5447 29.7744 97.5675 29.9193 97.613 30.0498C97.6738 30.1801 97.7875 30.3033 97.9544 30.4192C98.1366 30.5206 98.3794 30.6148 98.6828 30.7017C99.0015 30.7741 99.4187 30.8249 99.9348 30.8538V31.3972H93.4248V30.8538C93.9407 30.7813 94.3581 30.6728 94.6767 30.5279C94.9954 30.383 95.2685 30.1873 95.4962 29.9411C95.7237 29.6803 95.9286 29.347 96.1107 28.9414C96.308 28.5357 96.5433 28.0359 96.8163 27.4418L104.1 11.2073H104.624L111.816 27.6156C112.105 28.2967 112.37 28.8471 112.613 29.2674C112.871 29.6731 113.129 29.9917 113.387 30.2235C113.66 30.4555 113.949 30.6148 114.252 30.7017C114.571 30.7887 114.95 30.8394 115.39 30.8538V31.3972H107.218V30.8538C108.038 30.8249 108.592 30.7017 108.88 30.4843C109.184 30.2525 109.335 29.9773 109.335 29.6585C109.32 29.2384 109.115 28.5574 108.721 27.6156L107.469 24.7903ZM107.036 23.7037L103.531 15.7278L99.9348 23.7037H107.036Z" fill="#ffffff"/>
<path d="M122.15 22.1606V27.8981C122.15 29.1586 122.294 29.9338 122.582 30.2234C122.977 30.6437 123.561 30.8537 124.335 30.8537H125.132V31.3971H116.277V30.8537H117.051C117.916 30.8537 118.538 30.5857 118.918 30.0497C119.13 29.7309 119.236 29.0137 119.236 27.8981V15.1409C119.236 13.9093 119.1 13.1414 118.827 12.8372C118.417 12.4025 117.825 12.1852 117.051 12.1852H116.277V11.6418H123.857C125.678 11.6418 127.135 11.8302 128.227 12.2069C128.758 12.3808 129.252 12.6271 129.707 12.9458C130.177 13.2501 130.579 13.6195 130.913 14.0542C131.262 14.4744 131.536 14.9453 131.733 15.4669C131.929 15.9739 132.029 16.5245 132.029 17.1185C132.029 17.9155 131.885 18.6471 131.596 19.3136C131.308 19.98 130.891 20.5523 130.344 21.0304C129.798 21.5086 129.13 21.8853 128.341 22.1606C127.552 22.4214 126.649 22.5518 125.632 22.5518C124.646 22.5518 123.485 22.4214 122.15 22.1606ZM122.15 21.313C122.696 21.4145 123.174 21.4941 123.584 21.552C123.994 21.5955 124.35 21.6173 124.654 21.6173C125.185 21.6173 125.686 21.5158 126.156 21.313C126.626 21.0957 127.036 20.8059 127.385 20.4437C127.749 20.0669 128.03 19.6178 128.227 19.0962C128.44 18.5746 128.546 18.0096 128.546 17.4011C128.546 16.6766 128.432 16.0319 128.205 15.4669C127.977 14.9018 127.666 14.4237 127.271 14.0324C126.877 13.6413 126.414 13.3443 125.883 13.1414C125.352 12.9386 124.775 12.8372 124.153 12.8372C123.637 12.8372 122.969 12.9241 122.15 13.0979V21.313Z" fill="#ffffff"/>
<path d="M142.773 30.8537V31.3971H133.919V30.8537H134.647C135.011 30.8537 135.33 30.8321 135.603 30.7886C135.891 30.7306 136.126 30.6075 136.308 30.4191C136.49 30.2162 136.627 29.9192 136.719 29.5281C136.825 29.1224 136.877 28.579 136.877 27.8981V15.1409C136.877 14.6917 136.863 14.3222 136.832 14.0324C136.817 13.7282 136.779 13.4819 136.719 13.2935C136.673 13.1052 136.597 12.9603 136.49 12.8589C136.384 12.743 136.24 12.6343 136.058 12.5329C135.603 12.3011 135.132 12.1852 134.647 12.1852H133.919V11.6418H142.773V12.1852H142.045C141.68 12.1852 141.354 12.2141 141.065 12.2721C140.792 12.3301 140.565 12.4605 140.383 12.6633C140.201 12.8516 140.056 13.1486 139.95 13.5543C139.86 13.9456 139.814 14.4744 139.814 15.1409V27.8981C139.814 28.3617 139.822 28.7385 139.836 29.0282C139.852 29.318 139.89 29.5571 139.95 29.7454C140.011 29.9338 140.094 30.0859 140.201 30.2018C140.323 30.3032 140.474 30.4046 140.656 30.506C141.081 30.7378 141.544 30.8537 142.045 30.8537H142.773Z" fill="#ffffff"/>
<path d="M161.642 11.6418V16.2927H161.3C161.134 15.0466 160.747 14.1701 160.139 13.663C159.548 13.1414 158.668 12.8806 157.499 12.8806H154.585V27.985C154.585 28.6515 154.631 29.1803 154.723 29.5715C154.829 29.9482 154.973 30.2308 155.156 30.4191C155.337 30.6075 155.565 30.7306 155.838 30.7886C156.112 30.8321 156.429 30.8537 156.794 30.8537H157.499V31.3971H148.736V30.8537H149.465C149.828 30.8537 150.147 30.8248 150.42 30.7668C150.694 30.7088 150.921 30.5857 151.103 30.3974C151.285 30.1946 151.422 29.9048 151.514 29.5281C151.62 29.1514 151.672 28.637 151.672 27.985V12.8806H149.191C148.569 12.8806 148.016 12.9313 147.529 13.0328C147.06 13.1197 146.649 13.2935 146.301 13.5543C145.952 13.8007 145.671 14.1483 145.459 14.5975C145.262 15.0322 145.14 15.5972 145.094 16.2927H144.525V11.6418H161.642Z" fill="#ffffff"/>
<path d="M176.938 24.7903H168.926L167.515 27.8982C167.181 28.6661 167.014 29.2384 167.014 29.6151C167.014 29.7744 167.037 29.9193 167.082 30.0498C167.143 30.1801 167.257 30.3033 167.423 30.4192C167.606 30.5206 167.848 30.6148 168.151 30.7017C168.471 30.7741 168.888 30.8249 169.404 30.8538V31.3972H162.895V30.8538C163.41 30.7813 163.827 30.6728 164.146 30.5279C164.465 30.383 164.738 30.1873 164.966 29.9411C165.193 29.6803 165.397 29.347 165.581 28.9414C165.777 28.5357 166.012 28.0359 166.285 27.4418L173.569 11.2073H174.092L181.286 27.6156C181.574 28.2967 181.839 28.8471 182.082 29.2674C182.34 29.6731 182.599 29.9917 182.856 30.2235C183.13 30.4555 183.417 30.6148 183.721 30.7017C184.04 30.7887 184.419 30.8394 184.86 30.8538V31.3972H176.688V30.8538C177.507 30.8249 178.061 30.7017 178.349 30.4843C178.654 30.2525 178.805 29.9773 178.805 29.6585C178.79 29.2384 178.584 28.5574 178.191 27.6156L176.938 24.7903ZM176.506 23.7037L173 15.7278L169.404 23.7037H176.506Z" fill="#ffffff"/>
<path d="M203.137 25.9421L203.638 26.0291L201.862 31.3971H185.838V30.8537H186.634C187.484 30.8537 188.107 30.5857 188.502 30.0497C188.714 29.7309 188.819 29.0137 188.819 27.8981V15.1409C188.819 13.9238 188.676 13.156 188.388 12.8372C187.993 12.4025 187.408 12.1852 186.634 12.1852H185.838V11.6418H195.215V12.1852C194.654 12.1852 194.184 12.2141 193.804 12.2721C193.441 12.3156 193.137 12.388 192.894 12.4894C192.651 12.5764 192.461 12.685 192.325 12.8154C192.188 12.9458 192.074 13.0907 191.984 13.2501C191.832 13.5399 191.757 14.286 191.757 15.4885V27.8981C191.757 28.579 191.809 29.0716 191.916 29.376C192.022 29.6802 192.234 29.8902 192.553 30.0062C192.826 30.0931 193.623 30.1366 194.943 30.1366H196.445C198.039 30.1366 199.154 30.0279 199.791 29.8105C200.11 29.7092 200.413 29.5643 200.701 29.376C200.99 29.1876 201.27 28.9413 201.543 28.637C201.817 28.3328 202.082 27.9633 202.341 27.5286C202.599 27.0939 202.864 26.5651 203.137 25.9421Z" fill="#ffffff"/>
</g>
</svg>
