<svg width="264" height="42" viewBox="0 0 264 42" fill="none" xmlns="http://www.w3.org/2000/svg">
<g opacity="0.6">
<mask id="mask0_505_1985" style="mask-type:luminance" maskUnits="userSpaceOnUse" x="0" y="5" width="264" height="32">
<path d="M263.051 5.7561H0.948242V36.2437H263.051V5.7561Z" fill="white"/>
</mask>
<g mask="url(#mask0_505_1985)">
<path d="M6.21387 20.7908H8.31912L13.6348 29.6216L19.1611 20.7908H21.2664V32.1447H19.4769V23.4189L14.5296 31.3036H12.7402L8.00333 23.4715V32.1447H6.21387V20.7908Z" fill="#ffffff"/>
<path d="M39.6324 20.7908H42.1061L47.8428 32.1447H45.9481L44.6323 29.569H37.2113L35.8955 32.1447H33.9482L39.6324 20.7908ZM37.9482 28.0973H43.8956L40.8955 22.2625L37.9482 28.0973Z" fill="#ffffff"/>
<path d="M60.2129 20.7908H68.1075C69.6514 20.7908 70.8092 21.1061 71.5811 21.7369C71.9686 22.0522 72.2757 22.4549 72.477 22.9118C72.6782 23.3686 72.7681 23.8668 72.7391 24.3651C72.7639 24.8629 72.6722 25.3597 72.4711 25.816C72.2702 26.2721 71.9654 26.6753 71.5811 26.9934C70.8092 27.6242 69.6514 27.9395 68.1075 27.9395H62.0022V32.1447H60.2129V20.7908ZM62.0022 26.4677H68.1075C70.0023 26.4677 70.9496 25.7668 70.9496 24.3651C70.9726 24.0665 70.9224 23.7668 70.8031 23.492C70.684 23.2171 70.4993 22.9756 70.2655 22.7882C69.6216 22.3854 68.8647 22.201 68.1075 22.2625H62.0022V26.4677Z" fill="#ffffff"/>
<path d="M85.7383 20.7908H87.5278V30.6729H97.2646V32.1447H85.7383V20.7908Z" fill="#ffffff"/>
<path d="M110.79 32.1447V20.7908H123.316V22.2625H112.58V25.7318H122.263V27.2036H112.58V30.6729H123.316V32.1447H110.79Z" fill="#ffffff"/>
<path d="M145.737 20.7907C146.41 20.7848 147.074 20.9284 147.684 21.2113C148.228 21.4429 148.69 21.8324 149.009 22.3292C149.328 22.826 149.49 23.4072 149.474 23.9972C149.489 24.4892 149.38 24.9772 149.158 25.4164C148.924 25.8626 148.579 26.2422 148.158 26.5203C148.556 26.8095 148.88 27.1875 149.106 27.6241C149.342 28.0413 149.469 28.5115 149.474 28.9909C149.481 29.5853 149.316 30.1691 149.001 30.6728C148.677 31.1591 148.22 31.5422 147.684 31.7767C147.074 32.0597 146.41 32.2033 145.737 32.1972H136.79V20.7907H145.737ZM138.58 22.2626V25.7318H145.737C146.002 25.7578 146.27 25.7292 146.523 25.6478C146.776 25.5665 147.011 25.434 147.211 25.2587C147.37 25.0906 147.494 24.8924 147.575 24.6757C147.657 24.4591 147.693 24.2284 147.684 23.9972C147.693 23.7659 147.657 23.5353 147.575 23.3186C147.494 23.1019 147.37 22.9037 147.211 22.7357C147.011 22.5603 146.776 22.4279 146.523 22.3466C146.27 22.2651 146.002 22.2366 145.737 22.2626H138.58ZM145.737 30.7255C146.002 30.7514 146.27 30.7228 146.523 30.6415C146.776 30.56 147.011 30.4276 147.211 30.2524C147.37 30.0843 147.494 29.886 147.575 29.6694C147.657 29.4527 147.693 29.222 147.684 28.9909C147.693 28.7596 147.657 28.5289 147.575 28.3122C147.494 28.0956 147.37 27.8973 147.211 27.7292C147.011 27.554 146.776 27.4216 146.523 27.3401C146.27 27.2588 146.002 27.2302 145.737 27.2561H138.58V30.7255H145.737Z" fill="#ffffff"/>
<path d="M162.949 20.7908H164.739V30.6729H174.529V32.1447H162.949V20.7908Z" fill="#ffffff"/>
<path d="M213.317 26.4145C213.313 25.3415 213.644 24.294 214.265 23.4182C214.915 22.4821 215.806 21.7378 216.843 21.263C217.997 20.7274 219.256 20.4579 220.527 20.4746C223.089 20.4746 225.054 21.263 226.423 22.84L225.211 23.8387C224.71 23.2615 224.08 22.8111 223.369 22.5247C222.481 22.1804 221.533 22.0194 220.58 22.0516C219.585 22.0264 218.595 22.2239 217.685 22.6298C216.892 22.972 216.203 23.5156 215.685 24.2067C215.232 24.8339 214.988 25.588 214.988 26.3618C214.988 27.1357 215.232 27.8898 215.685 28.517C216.203 29.208 216.892 29.7517 217.685 30.0939C218.595 30.4998 219.585 30.6973 220.58 30.6722C221.533 30.7057 222.481 30.5448 223.369 30.1991C224.08 29.9126 224.71 29.4623 225.211 28.885L226.423 29.9363C225.054 31.5131 223.089 32.3017 220.527 32.3017C219.256 32.3183 217.997 32.0489 216.843 31.5131C215.806 31.0385 214.915 30.2942 214.265 29.3581C213.654 28.4968 213.323 27.4694 213.317 26.4145Z" fill="#ffffff"/>
<path d="M239.367 20.7908H241.157V26.0998L249.052 20.7908H251.894L244.21 26.0472L252.315 32.1447H249.42L242.684 27.0985L241.157 28.0973V32.0922H239.367V20.7908Z" fill="#ffffff"/>
<path d="M179.579 21.948C179.579 18.2466 181.051 14.6969 183.671 12.0796C186.293 9.46236 189.846 7.99201 193.553 7.99201C197.259 7.99201 200.813 9.46236 203.434 12.0796C206.054 14.6969 207.526 18.2466 207.526 21.948C207.526 22.2633 207.526 22.5787 207.473 22.8942C207.907 19.9112 207.432 16.867 206.112 14.1567C204.791 11.4464 202.685 9.19519 200.068 7.6952C197.451 6.1952 194.441 5.51572 191.432 5.74497C188.423 5.97421 185.552 7.10159 183.192 8.98076C180.833 10.8599 179.093 13.4041 178.2 16.2831C177.306 19.1621 177.299 22.2429 178.181 25.1256C179.062 28.0084 180.791 30.56 183.142 32.4492C185.495 34.3383 188.36 35.4778 191.368 35.7199C188.082 35.2059 185.087 33.5353 182.925 31.01C180.764 28.4846 179.577 25.2705 179.579 21.948Z" fill="#ffffff"/>
<path d="M201.948 14.3273C198.631 15.9042 198.579 18.3748 198 15.6414C196.211 17.9017 197.106 18.7427 195.948 19.794C194.894 18.1645 195.842 16.3247 194.316 13.6965C193.894 17.0606 189.579 11.7516 189.527 11.699C189.474 11.6465 189.895 18.585 187.315 16.3773C187.947 19.3734 189.895 20.0569 190.21 22.0017C188.632 22.0017 188.737 20.7927 185.895 20.3196C187.315 22.7901 185.58 20.9504 182.105 22.0017C182.737 22.0017 187.685 24.6825 184.105 25.7864C185.842 27.153 189.684 26.9428 189.684 26.9428C189.684 26.9428 187.842 27.7838 187.527 29.3082C190.21 27.6261 187.737 30.307 188.422 31.6736C191 29.939 191.264 29.8339 191.105 31.8313C193.369 29.5184 193 27.8364 195.211 27.1005C195.526 27.8364 196.842 31.2531 194.526 34.0916C194.867 34.0145 195.225 34.071 195.526 34.2492L195.684 34.4596C196.053 34.039 197.684 31.7262 195.631 26.8903C197.789 25.9441 198.631 27.4685 201.895 27.6261C200.421 26.2594 200.685 26.1543 203.737 25.6812C203.368 24.2094 199.684 23.894 202.842 23.3158C201.578 22.4223 199.631 23.0005 199.631 23.0005C199.631 23.0005 202.632 20.5824 203 18.3748C199.631 20.0569 201.473 14.7478 201.948 14.3273Z" fill="#ffffff"/>
</g>
</g>
</svg>
