<svg width="275" height="42" viewBox="0 0 275 42" fill="none" xmlns="http://www.w3.org/2000/svg">
<g opacity="0.6">
<path d="M7.96592 13.2471V34.3298C7.96592 34.6595 7.96592 34.9893 7.96592 35.3192C7.99252 36.0184 7.66328 36.3088 6.96819 36.2922C5.30974 36.2724 3.64686 36.2724 1.97955 36.2922C1.27115 36.2922 0.958533 36.002 0.981814 35.3027C0.981814 35.0289 0.981814 34.7552 0.981814 34.4815C0.981814 25.4111 0.981814 16.342 0.981814 7.27393C0.981814 7.05625 0.981814 6.83527 0.981814 6.61428C0.941904 6.0041 1.17803 5.70725 1.8332 5.71055C4.99268 5.72704 8.15215 5.71055 11.3116 5.71055C11.5577 5.69634 11.8021 5.75777 12.0116 5.88646C12.2212 6.01514 12.3855 6.20481 12.4823 6.42958C15.2605 11.4869 18.0519 16.5443 20.8566 21.6017C21.7612 23.2344 22.6591 24.8736 23.5737 26.4996C23.933 27.1395 24.2389 27.1592 24.5947 26.5161C26.4638 23.1518 28.3263 19.7865 30.182 16.4201C32.0178 13.102 33.8537 9.78282 35.6895 6.46256C35.7862 6.23316 35.95 6.03787 36.16 5.902C36.3699 5.76614 36.6162 5.69599 36.8668 5.70066C39.9708 5.70066 43.0748 5.70066 46.179 5.70066C46.791 5.70066 47.1234 5.92164 47.1034 6.56151C47.1034 6.89134 47.1034 7.22117 47.1034 7.551C47.1034 16.5091 47.1034 25.4673 47.1034 34.4254C47.1034 34.5903 47.1034 34.7552 47.1034 34.9201C47.0736 36.1833 47.0337 36.2394 45.8131 36.2691C44.3731 36.2922 42.9297 36.2922 41.4897 36.2691C40.0495 36.246 39.9996 36.2163 39.9963 34.775C39.9963 29.1151 39.9963 23.4553 39.9963 17.7955C39.9963 16.3277 39.9963 14.86 39.9963 13.2504C39.268 13.5308 39.0286 14.0882 38.7526 14.5961C34.9833 21.4918 31.2252 28.3928 27.4781 35.2994C27.3373 35.6259 27.0937 35.8987 26.784 36.0771C26.4741 36.2554 26.1146 36.3296 25.7588 36.2889C24.6509 36.2327 23.5409 36.2327 22.433 36.2889C21.4818 36.3383 20.9165 35.9954 20.4675 35.1377C19.1139 32.5586 17.6672 30.0254 16.2603 27.4725C13.7439 22.9012 11.2285 18.3276 8.71421 13.7518C8.58784 13.5275 8.43152 13.3197 8.28852 13.0921L7.96592 13.2471Z" fill="#ffffff"/>
<path d="M219.818 20.9678V33.9928C219.818 34.4315 219.818 34.8701 219.818 35.3121C219.818 36.0179 219.448 36.3015 218.78 36.3015C217.283 36.3015 215.787 36.3576 214.293 36.2784C213.755 36.225 213.245 36.0098 212.833 35.6618C211.233 34.3095 209.68 32.901 208.13 31.4926C204.093 27.8184 200.062 24.1386 196.037 20.4533C194.492 19.0384 192.965 17.6036 191.422 16.182C191.155 15.9055 190.851 15.6659 190.52 15.4696C190.407 15.4103 189.995 15.618 189.961 15.7632C189.902 16.1417 189.887 16.5257 189.915 16.9077C189.915 22.7896 189.915 28.6693 189.915 34.5469C189.915 34.8206 189.915 35.0943 189.915 35.3714C189.915 35.9717 189.636 36.3015 189.02 36.3015C187.301 36.3015 185.584 36.3015 183.869 36.3015C183.758 36.3159 183.645 36.3055 183.538 36.2715C183.431 36.2375 183.332 36.1804 183.251 36.1044C183.169 36.0285 183.105 35.9355 183.063 35.8323C183.023 35.7289 183.004 35.6177 183.011 35.5067C183.011 35.1207 182.991 34.7382 182.991 34.3522V7.63621C182.991 5.62096 182.908 5.72321 184.867 5.72651C186.363 5.72651 187.86 5.7529 189.353 5.72651C189.682 5.70354 190.012 5.74888 190.322 5.85964C190.631 5.97039 190.914 6.14412 191.152 6.36967C193.257 8.31566 195.389 10.232 197.518 12.1549C200.666 15.0134 203.818 17.8587 206.977 20.6907C208.45 22.0102 209.936 23.3295 211.416 24.6487C211.649 24.8862 211.899 25.1066 212.164 25.3085C212.52 25.5426 212.804 25.4569 212.83 24.9951C212.86 24.6124 212.83 24.2266 212.83 23.8406C212.83 18.4579 212.83 13.0707 212.83 7.67909C212.791 7.23931 212.804 6.79643 212.869 6.35978C212.93 6.11571 213.255 5.76279 213.468 5.75619C215.351 5.71002 217.233 5.72651 219.121 5.72981C219.6 5.72981 219.81 6.00356 219.807 6.46203C219.807 6.84793 219.807 7.23382 219.807 7.61642V20.9678H219.818Z" fill="#ffffff"/>
<path d="M120.402 36.2758C117.792 36.2758 115.414 36.3086 113.063 36.2461C112.571 36.175 112.118 35.9428 111.775 35.5863C109.487 33.4325 107.209 31.2623 104.984 29.0459C104.694 28.7205 104.335 28.4631 103.932 28.292C103.53 28.1209 103.094 28.0404 102.656 28.0563C99.2773 28.1026 95.8949 28.0563 92.516 28.0563C91.2888 28.0563 91.2122 28.1356 91.1858 29.3758C91.1625 31.1897 91.1858 33.0038 91.1858 34.8178C91.1691 36.1371 91.0826 36.2229 89.7623 36.2428C88.2091 36.2659 86.6594 36.2692 85.1062 36.2428C84.022 36.2262 83.9023 36.1305 83.899 35.1477C83.8812 31.137 83.8812 27.1252 83.899 23.1122C83.899 22.1788 83.9721 22.1228 84.9832 22.1228C88.4187 22.1063 91.8542 22.1228 95.293 22.1228C98.6753 22.1228 102.058 22.1657 105.437 22.103C106.65 22.0819 107.857 21.9168 109.032 21.6115C111.509 20.9519 112.89 19.1675 112.72 16.8093C112.55 14.3817 111.486 12.8282 108.603 12.129C107.626 11.929 106.629 11.8427 105.633 11.8717C99.0922 11.852 92.5515 11.852 86.0108 11.8717C83.6994 11.8717 83.8757 11.9311 83.8857 9.68169C83.8857 8.69219 83.9123 7.70271 83.8857 6.71322C83.8857 6.05357 84.0952 5.65118 84.8335 5.72375C84.8888 5.72704 84.9444 5.72704 84.9999 5.72375C92.649 5.72375 100.298 5.68746 107.948 5.78641C110.512 5.82416 113.017 6.55762 115.191 7.90721C118.889 10.1731 120.366 14.4807 119.82 18.4815C119.298 22.3108 117.316 25.1011 113.688 26.658C113.285 26.8295 112.873 26.9877 112.477 27.1757C111.928 27.4362 111.875 27.7167 112.334 28.1653C113.275 29.0953 114.267 29.9761 115.198 30.916C116.861 32.5948 118.497 34.3067 120.402 36.2758Z" fill="#ffffff"/>
<path d="M150.811 12.9331C150.036 14.137 149.344 15.1759 148.695 16.2314C144.824 22.5641 140.964 28.9012 137.115 35.2426C136.653 36.0079 136.118 36.3179 135.253 36.2915C133.48 36.2354 131.708 36.2915 129.932 36.2585C129.077 36.242 128.964 36.0112 129.393 35.2691C131.887 30.9967 134.387 26.7287 136.892 22.4651C139.992 17.211 143.132 11.9799 146.205 6.70594C146.663 5.91765 147.15 5.65049 148.034 5.68018C149.969 5.74614 151.911 5.73955 153.851 5.68018C154.685 5.65709 155.141 5.99351 155.543 6.66967C160.478 15.1396 165.426 23.5899 170.383 32.0203C171.049 33.1581 171.743 34.2796 172.379 35.4307C172.712 35.9947 172.558 36.2552 171.916 36.2651C169.921 36.2948 167.925 36.2651 165.929 36.2915C165.039 36.2915 164.702 35.6681 164.33 35.0546C162.217 31.5739 160.105 28.093 157.995 24.6123C155.793 20.9952 153.585 17.3814 151.37 13.7709C151.247 13.5499 151.086 13.3421 150.811 12.9331Z" fill="#ffffff"/>
<path d="M252.384 12.92C251.957 13.5236 251.651 13.9095 251.385 14.3185C247.221 21.1768 243.067 28.0393 238.92 34.9063C238.312 35.9123 237.59 36.4004 236.383 36.3114C235.053 36.2125 233.723 36.3114 232.391 36.2718C231.811 36.2224 231.235 36.1353 230.666 36.0112C230.909 35.4803 231.107 34.9228 231.401 34.4215C233.306 31.1431 235.224 27.8711 237.155 24.6058C240.64 18.692 244.138 12.7881 247.6 6.85778C248.069 6.05629 248.548 5.64731 249.54 5.69348C251.418 5.77594 253.304 5.75285 255.193 5.69348C255.572 5.65111 255.956 5.72797 256.289 5.9132C256.622 6.09843 256.888 6.38268 257.049 6.72585C262.003 15.2332 266.978 23.7252 271.975 32.2018C272.614 33.2935 273.265 34.3753 273.897 35.4704C274.161 35.9256 274.005 36.2455 273.482 36.252C271.38 36.2784 269.275 36.2751 267.163 36.252C266.497 36.252 266.251 35.7276 265.962 35.2625C263.834 31.7444 261.699 28.2196 259.56 24.6883C257.238 20.8457 254.88 17.0066 252.384 12.92Z" fill="#ffffff"/>
<path d="M69.5887 20.8726V34.2207C69.5887 34.6067 69.5887 34.9892 69.5887 35.3752C69.5887 35.8864 69.3393 36.2459 68.8105 36.2525C66.8716 36.2756 64.9327 36.2723 62.997 36.2525C62.528 36.2525 62.3319 35.9227 62.3086 35.484C62.3086 35.1542 62.3086 34.8243 62.3086 34.4944C62.3086 25.4792 62.3086 16.4705 62.3086 7.46843C62.3086 7.1386 62.3086 6.80877 62.3086 6.47895C62.3086 5.92154 62.6112 5.71045 63.1433 5.71045C65.0279 5.71045 66.9125 5.71045 68.7971 5.71045C69.3525 5.71045 69.5954 5.98751 69.5887 6.52183C69.5887 6.90773 69.5887 7.29032 69.5887 7.67623C69.5864 12.0761 69.5864 16.4749 69.5887 20.8726Z" fill="#ffffff"/>
</g>
</svg>
