<svg width="205" height="42" viewBox="0 0 205 42" fill="none" xmlns="http://www.w3.org/2000/svg">
<g opacity="0.6">
<mask id="mask0_505_1967" style="mask-type:luminance" maskUnits="userSpaceOnUse" x="0" y="5" width="205" height="32">
<path d="M204.573 5.7561H0.427734V36.2437H204.573V5.7561Z" fill="white"/>
</mask>
<g mask="url(#mask0_505_1967)">
<path d="M109.429 25.5042C109.162 26.3917 108.807 27.235 108.407 27.9893C108.274 28.2557 108.141 28.4775 108.008 28.7438C107.297 29.7644 106.053 30.4745 104.721 30.4745C103.521 30.4745 102.411 29.942 101.7 29.0988C101.656 29.0544 101.611 29.0101 101.567 28.9657C100.812 28.1225 99.7458 27.59 98.5465 27.59C98.236 27.59 97.9694 27.6343 97.7028 27.6788V35.9774C96.8142 36.1548 95.8375 36.2436 94.9041 36.2436C86.4653 36.2436 79.6689 29.4094 79.6689 21.0221C79.6689 12.6347 86.4204 5.7561 94.86 5.7561C96.4587 5.7561 98.0134 6.02237 99.4793 6.46615L94.9488 10.9927L97.7028 13.7441L107.386 23.4185L107.785 23.8179L109.429 25.5042Z" fill="#ffffff"/>
<path d="M0.427734 25.2833L1.84911 24.5733C2.60421 26.3041 4.33652 27.236 6.55741 27.236C8.95595 27.236 10.7771 25.9934 10.7771 23.8633C10.7771 21.5556 8.68944 21.1118 6.42415 20.6237C3.80349 20.0468 0.827495 19.2924 0.827495 15.8309C0.827495 13.1238 3.35932 11.0381 6.37974 11.0381C8.86716 11.0381 11.1324 12.2363 12.0652 14.4996L10.6883 15.2096C9.88877 13.5232 8.37855 12.5913 6.33531 12.5913C4.29209 12.5913 2.51537 13.9226 2.51537 15.7421C2.51537 18.0498 4.64744 18.4936 6.95716 18.9817C9.57782 19.5586 12.5095 20.313 12.5095 23.8188C12.4206 26.881 9.84433 28.8336 6.55741 28.8336C3.80349 28.8336 1.40493 27.591 0.427734 25.2833Z" fill="#ffffff"/>
<path d="M15.3965 28.6564V11.3047H17.0399V19.2483H27.3448V11.3047H28.9883V28.6564H27.3448V20.7571H17.0399V28.612H15.3965V28.6564Z" fill="#ffffff"/>
<path d="M34.8944 11.3047V28.6564H33.251V11.3047H34.8944Z" fill="#ffffff"/>
<path d="M37.873 28.6548L40.3605 12.9007C40.5825 11.6581 41.4709 10.9924 42.5814 10.9924C43.5585 10.9924 44.4469 11.4806 44.7579 12.59L48.489 25.7702C48.5778 26.1696 48.6666 26.3027 48.8888 26.3027C49.1108 26.3027 49.1996 26.1252 49.2885 25.7702L53.0195 12.6344C53.3305 11.525 54.2189 10.9924 55.1961 10.9924C56.2621 10.9924 57.1505 11.6581 57.3726 12.945L59.6379 28.566H57.9944L55.8623 13.3888C55.7735 12.8119 55.6403 12.4569 55.1516 12.4569C54.7964 12.4569 54.5299 12.7675 54.3965 13.3001L50.5323 26.5246C50.3101 27.3234 49.6438 27.7672 48.8888 27.7672C48.178 27.7672 47.4674 27.3679 47.2453 26.569L43.3809 13.2557C43.2033 12.7232 43.0255 12.4569 42.6703 12.4569C42.3149 12.4569 42.0039 12.7675 41.9152 13.3888L39.561 28.6104H37.873V28.6548Z" fill="#ffffff"/>
<path d="M65.8087 13.1238C66.253 11.7038 67.2746 11.0381 68.6071 11.0381C69.8952 11.0381 70.9612 11.7038 71.4055 13.1238L76.2914 28.6561H74.6035L73.1377 23.8188L64.1653 23.8633L62.6107 28.6561H60.9229L65.8087 13.1238ZM64.5651 22.2656H72.6047L69.9396 13.612C69.7176 12.902 69.2733 12.5469 68.6071 12.5469C67.8965 12.5469 67.4967 12.902 67.2746 13.612L64.5651 22.2656Z" fill="#ffffff"/>
<path d="M112.806 19.958C112.806 14.9877 116.715 11.0381 121.467 11.0381C124.399 11.0381 126.974 12.5025 128.352 14.8989L127.02 15.6977C125.864 13.7895 123.777 12.5913 121.467 12.5913C117.691 12.5913 114.538 15.8309 114.538 19.958C114.538 24.1295 117.648 27.3691 121.467 27.3691C123.777 27.3691 125.864 26.2153 127.02 24.3071L128.352 25.1059C126.974 27.5022 124.399 28.9667 121.467 28.9667C116.715 28.9223 112.806 24.9727 112.806 19.958Z" fill="#ffffff"/>
<path d="M133.325 13.1238C133.769 11.7038 134.791 11.0381 136.123 11.0381C137.456 11.0381 138.477 11.7038 138.921 13.1238L143.807 28.6561H142.12L140.654 23.8188L131.681 23.8633L130.126 28.6561H128.439L133.325 13.1238ZM132.082 22.2656H140.121L137.456 13.612C137.233 12.902 136.79 12.5469 136.123 12.5469C135.413 12.5469 135.013 12.902 134.791 13.612L132.082 22.2656Z" fill="#ffffff"/>
<path d="M146.298 28.6564V11.3047H151.317C155.758 11.3047 158.78 13.2573 158.78 17.2956C158.78 21.4673 155.625 23.331 151.361 23.331H147.941V28.7009H146.298V28.6564ZM147.941 12.8579V21.7334H151.317C154.515 21.7334 157.046 20.4466 157.046 17.2513C157.046 14.1892 154.692 12.8135 151.317 12.8135H147.941V12.8579Z" fill="#ffffff"/>
<path d="M162.728 11.3047V28.6564H161.085V11.3047H162.728Z" fill="#ffffff"/>
<path d="M177.122 12.8579H171.571V28.6564H169.927V12.8579H164.419V11.3047H177.122V12.8579Z" fill="#ffffff"/>
<path d="M180.9 13.1238C181.343 11.7038 182.364 11.0381 183.698 11.0381C185.03 11.0381 186.052 11.7038 186.496 13.1238L191.382 28.6561H189.65L188.185 23.8188L179.211 23.8633L177.702 28.7004H176.013L180.9 13.1238ZM179.656 22.2656H187.695L185.03 13.612C184.808 12.902 184.364 12.5469 183.698 12.5469C182.986 12.5469 182.588 12.902 182.364 13.612L179.656 22.2656Z" fill="#ffffff"/>
<path d="M195.51 27.1032H204.572V28.6564H195.51C194.266 28.6564 193.866 28.0352 193.866 27.0144V11.3047H195.51V27.1032Z" fill="#ffffff"/>
</g>
</g>
</svg>
