<svg width="161" height="42" viewBox="0 0 161 42" fill="none" xmlns="http://www.w3.org/2000/svg">
<g opacity="0.6">
<path d="M7.33594 9.66823C9.81936 6.53335 12.2969 3.40528 14.8049 0.236328C17.2932 3.39749 19.759 6.52848 22.2336 9.67014L19.9496 13.2226C18.5967 15.3288 17.2412 17.4336 15.883 19.5372C15.8317 19.6088 15.8008 19.6926 15.7932 19.78C15.7856 19.8675 15.8017 19.9553 15.8397 20.0345C16.4903 21.7864 17.1301 23.5314 17.7836 25.3086C17.5458 25.443 17.311 25.5782 17.0741 25.7076C16.3862 26.0853 15.6983 26.4668 15.0053 26.8308C14.9497 26.8586 14.8889 26.8749 14.8267 26.8784C14.7645 26.8819 14.7022 26.8727 14.6437 26.8512C13.6973 26.3568 12.7597 25.8439 11.7849 25.3184C11.9274 24.9144 12.0669 24.5145 12.2104 24.1163C12.7018 22.7664 13.1794 21.4146 13.6776 20.0695C13.7187 19.9729 13.7334 19.8675 13.7205 19.7634C13.7076 19.6595 13.6674 19.5607 13.604 19.4768C11.6103 16.3689 9.62084 13.258 7.63568 10.1442C7.53839 9.9923 7.44305 9.83852 7.33594 9.66823Z" fill="#ffffff"/>
<path d="M1.1084 32.4524L10.3188 24.1572V41.7578L1.1084 32.4524Z" fill="#ffffff"/>
<path d="M19.2422 24.1526L28.4142 32.4526L19.2422 41.7639V24.1526Z" fill="#ffffff"/>
<path d="M27.2563 16.1036L24.9959 17.1907C24.1764 17.58 23.3764 18.0296 22.5292 18.3528C21.8786 18.6 21.172 18.7128 20.4832 18.8501C19.1545 19.1148 17.8219 19.3543 16.4892 19.6034C16.4393 19.6056 16.3894 19.6036 16.3398 19.5976L22.5007 10.0596L27.2563 16.1036Z" fill="#ffffff"/>
<path d="M7.02605 10.0623L13.2086 19.6285L11.3915 19.2839C10.2613 19.0689 9.12227 18.8947 8.00389 18.6261C7.38181 18.4771 6.78233 18.2104 6.19562 17.9447C5.00157 17.4084 3.82423 16.8391 2.64 16.2824C2.52993 16.2308 2.42379 16.1695 2.27441 16.0877L7.02605 10.0623Z" fill="#ffffff"/>
<path d="M28.3527 31.8375L19.9707 24.2178L19.9894 24.1536C20.4946 24.2343 21.0016 24.3103 21.5068 24.395C23.0792 24.6616 24.6516 24.9292 26.224 25.1979C26.7989 25.2952 26.8245 25.3117 26.9611 25.8665C27.4361 27.7858 27.9101 29.7047 28.3831 31.6234C28.3969 31.6769 28.4009 31.7324 28.4096 31.7878L28.3527 31.8375Z" fill="#ffffff"/>
<path d="M1.06641 31.9321C1.48899 30.3078 1.88701 28.7798 2.28502 27.2517C2.43048 26.695 2.56413 26.1344 2.73415 25.5845C2.77444 25.4532 2.92578 25.2838 3.05059 25.2614C5.15763 24.8867 7.26761 24.5324 9.37758 24.1743C9.45188 24.1698 9.52638 24.1698 9.60067 24.1743C6.74675 26.7671 3.94687 29.3121 1.06641 31.9321Z" fill="#ffffff"/>
<path d="M14.0534 0.456837L7.11613 9.32231C6.49502 8.37922 5.89063 7.46045 5.26953 6.51833C8.17653 4.48355 11.092 2.44392 14.016 0.399414L14.0534 0.456837Z" fill="#ffffff"/>
<path d="M24.2818 6.5383L22.4519 9.32377L15.5107 0.454413L15.552 0.401855L24.2818 6.5383Z" fill="#ffffff"/>
<path d="M2.16797 15.5205L5.05826 6.92554C5.10284 6.9702 5.14484 7.01732 5.18406 7.06666C5.69804 7.85403 6.21497 8.63946 6.71715 9.43559C6.74511 9.48789 6.76028 9.54598 6.76147 9.60507C6.76267 9.66425 6.74985 9.72286 6.72404 9.77622C5.25317 11.6656 3.77642 13.5493 2.29376 15.427C2.2544 15.4614 2.21234 15.4926 2.16797 15.5205Z" fill="#ffffff"/>
<path d="M24.5428 6.8916C25.505 9.79578 26.4415 12.6251 27.3781 15.4563L27.3388 15.4855C27.272 15.4086 27.2012 15.3357 27.1423 15.2548C25.7546 13.4748 24.3718 11.6917 22.9764 9.91748C22.8092 9.70529 22.7906 9.56029 22.9478 9.33352C23.4795 8.54421 23.9877 7.74418 24.5428 6.8916Z" fill="#ffffff"/>
<path d="M27.5856 16.7953V22.885L24.5391 22.3156C25.5474 20.445 26.538 18.6094 27.5287 16.7739L27.5856 16.7953Z" fill="#ffffff"/>
<path d="M4.98478 22.3181L1.97656 22.8875V16.7958L2.0316 16.7666L4.98478 22.3181Z" fill="#ffffff"/>
<path d="M24.0993 22.1487C23.833 21.1755 23.5893 20.2995 23.3563 19.4148C23.2787 19.1228 23.1038 18.7734 23.202 18.5486C23.2924 18.3423 23.6886 18.2634 23.9549 18.137C24.8871 17.6912 25.8211 17.2477 26.7567 16.8064C26.8353 16.7695 26.9179 16.7412 27.1055 16.6672L24.0993 22.1487Z" fill="#ffffff"/>
<path d="M5.42382 22.1488L2.48047 16.6985C2.56924 16.7161 2.6566 16.7403 2.74188 16.7705C3.88089 17.3135 5.01794 17.8615 6.15991 18.3987C6.33189 18.4795 6.40364 18.5622 6.3486 18.7569C6.04297 19.8586 5.74716 20.9594 5.42382 22.1488Z" fill="#ffffff"/>
<path d="M3.51367 24.6451C4.17605 23.9639 4.83745 23.2825 5.50572 22.6013C5.53878 22.5747 5.57724 22.5556 5.61846 22.5452C5.65969 22.5348 5.70269 22.5333 5.74453 22.5409C7.07912 22.9176 8.41075 23.303 9.74338 23.7468L3.54414 24.7201L3.51367 24.6451Z" fill="#ffffff"/>
<path d="M26.0138 24.722L19.7988 23.7379C19.9413 23.6834 20.015 23.6494 20.0936 23.627C21.2729 23.2766 22.4522 22.9321 23.6266 22.5749C23.834 22.5127 23.9765 22.5253 24.1367 22.6936C24.7676 23.3554 25.4143 24.0027 26.057 24.6557L26.0138 24.722Z" fill="#ffffff"/>
<path d="M2.66137 24.7244C2.46482 24.291 2.24567 23.8122 2.00391 23.2878L4.60527 22.7944L2.66137 24.7244Z" fill="#ffffff"/>
<path d="M26.8789 24.7765L24.8633 22.7822L27.5168 23.2912L26.8789 24.7765Z" fill="#ffffff"/>
<path d="M39.7364 24.5625L42.1707 24.1324C42.2404 24.4506 42.3093 24.7777 42.3849 25.1056C42.7781 26.8098 44.6276 27.349 45.8413 26.9617C47.2604 26.5101 48.0614 24.8867 47.512 23.4696C47.226 22.7396 46.6157 22.2822 45.9278 21.9542C45.1926 21.6028 44.4134 21.3401 43.6881 20.9712C43.0385 20.6412 42.3711 20.2947 41.8209 19.8266C40.0116 18.2763 40.0519 15.5442 41.8542 13.987C44.3377 11.8352 48.0682 12.5125 49.6573 15.4469L47.7527 16.5652C47.515 16.2849 47.3046 16.0026 47.058 15.7535C46.083 14.7676 44.2403 14.827 43.3117 15.8625C42.722 16.5165 42.722 17.554 43.3795 18.137C43.7599 18.4737 44.2354 18.7258 44.7023 18.9439C45.3371 19.2359 46.0153 19.4412 46.656 19.7225C48.1242 20.3756 49.4716 21.2194 49.9256 22.8496C50.8995 26.3533 48.4377 29.1758 45.2212 29.2828C42.4469 29.3724 40.5393 27.9252 39.8563 25.2692C39.8199 25.13 39.7728 24.9946 39.7305 24.8575L39.7364 24.5625Z" fill="#ffffff"/>
<path d="M60.9338 22.6421V29.0657C60.4846 29.128 60.0787 29.092 59.6758 29.0988C59.2729 29.1056 58.8896 29.0988 58.5329 29.0988C58.5085 29.0801 58.4855 29.0596 58.4641 29.0375C58.4543 29.0254 58.4464 29.0119 58.4406 28.9976C58.4334 28.9829 58.4291 28.9671 58.4277 28.9508C58.4277 23.7828 58.4254 18.6144 58.4209 13.4458C58.4209 13.3484 58.4297 13.2511 58.4366 13.1178C58.5601 13.0921 58.6852 13.0745 58.8111 13.0652C59.8429 13.0575 60.8748 13.0204 61.9076 13.0652C62.6758 13.095 63.4401 13.1881 64.1926 13.3435C65.4014 13.5986 66.2357 14.3801 66.8667 15.3962C67.8494 16.9709 67.7728 19.7204 66.1119 21.2027C65.3425 21.8924 64.3902 22.3503 63.3671 22.5224C62.7912 22.6197 62.1956 22.609 61.608 22.6402C61.4006 22.6519 61.1912 22.6421 60.9338 22.6421ZM60.9662 20.3647C61.9185 20.3978 62.8147 20.3802 63.6766 20.0844C64.4766 19.809 65.0024 19.2678 65.1586 18.4298C65.2031 18.1594 65.2175 17.8849 65.2019 17.6113C65.1704 16.7451 64.7577 16.1125 63.9616 15.7339C63.0133 15.2823 62.006 15.3173 60.9662 15.3533V20.3647Z" fill="#ffffff"/>
<path d="M133.513 12.1741C133.771 12.5245 141.059 28.5697 141.19 29.0719C141.108 29.0796 141.028 29.0933 140.95 29.0933H138.612C136.827 25.2975 135.235 21.4405 133.502 17.5552C133.121 18.2093 132.873 18.8652 132.567 19.491C132.261 20.1169 131.978 20.7495 131.69 21.3792C131.402 22.0089 131.093 22.6688 130.793 23.3131C130.492 23.9574 130.188 24.5988 129.888 25.243C129.594 25.8718 129.306 26.5034 129.012 27.1322C128.719 27.7609 128.408 28.4139 128.101 29.068H125.503C125.532 28.9565 125.568 28.8469 125.611 28.74C126.719 26.4042 127.831 24.0716 128.944 21.7422C130.385 18.7096 131.827 15.6765 133.268 12.6432C133.345 12.4884 133.429 12.3376 133.513 12.1741Z" fill="#ffffff"/>
<path d="M97.6093 22.6136V29.0508H95.1396V13.1603C95.1849 13.1341 95.2124 13.1039 95.238 13.1039C96.8595 13.0796 98.4807 13.0007 100.094 13.2392C101.309 13.4192 102.384 13.863 103.19 14.8412C105.081 17.137 104.21 21.3134 100.912 22.2263C100.865 22.2389 100.819 22.2545 100.689 22.2944C102.33 24.5485 103.983 26.7578 105.647 29.0353C105.528 29.0601 105.409 29.0774 105.287 29.0868C104.549 29.0868 103.814 29.0712 103.075 29.0975C102.752 29.1092 102.574 28.9827 102.4 28.7326C101.023 26.7695 99.6248 24.8162 98.2387 22.8579C98.0951 22.6526 97.9631 22.4462 97.6093 22.6136ZM97.6325 20.3965C98.4643 20.4199 99.2267 20.419 99.9804 20.2214C101.683 19.7746 102 18.4062 101.787 17.2539C101.68 16.6699 101.388 16.1979 100.86 15.8981C99.8513 15.3248 98.7496 15.3473 97.6325 15.3911V20.3965Z" fill="#ffffff"/>
<path d="M115.327 15.3667H111.616L109.911 13.0971C110.288 13.029 122.745 13.0261 123.199 13.0971C123.071 13.2801 122.954 13.4582 122.826 13.6276C122.433 14.1463 122.039 14.6621 121.647 15.1789C121.601 15.2437 121.539 15.2956 121.467 15.3297C121.395 15.3639 121.315 15.379 121.235 15.3736C120.253 15.3629 119.27 15.3687 118.288 15.3687H117.768V29.1034H115.325L115.327 15.3667Z" fill="#ffffff"/>
<path d="M87.1869 29.0748H84.5089C82.8382 25.2547 81.1675 21.4366 79.4693 17.5552C78.9308 18.5353 78.5347 19.5192 78.0757 20.475C77.6169 21.4307 77.1854 22.3729 76.7441 23.3238C76.3028 24.2746 75.8528 25.2557 75.4036 26.2202C74.9624 27.1692 74.5191 28.1161 74.0671 29.0748H71.4736C71.4948 28.9776 71.5228 28.882 71.5571 28.7886C72.2779 27.258 73.0021 25.7274 73.73 24.1968C75.1714 21.1472 76.6089 18.0976 78.0423 15.0481C78.4689 14.1436 78.8947 13.2398 79.3199 12.3366C79.3492 12.281 79.3821 12.2274 79.4182 12.176C79.6934 12.4611 86.8606 28.2991 87.1869 29.0748Z" fill="#ffffff"/>
<path d="M148.131 29.0371H145.744V12.0371L157.538 24.1825V13.1417H159.934V30.023L148.131 17.8659V29.0371Z" fill="#ffffff"/>
</g>
</svg>
